<svg width="80" height="69" viewBox="0 0 80 69" fill="none" xmlns="http://www.w3.org/2000/svg">
<path d="M1 67.0103H79.3012" stroke="#263238" stroke-linecap="round" stroke-linejoin="round"/>
<path d="M61.2594 40.5967V40.6168C61.2594 40.6495 61.2667 40.6841 61.2813 40.7206C61.3627 41.1195 61.4235 41.5225 61.4634 41.9277C61.498 42.2755 61.5253 42.6724 61.5326 43.1148C61.5498 44.1373 61.4798 45.1595 61.3232 46.17C61.2831 46.4359 61.2358 46.7163 61.1793 46.9967C61.0901 47.4591 60.9809 47.9435 60.8461 48.4442C60.7861 48.6772 60.7169 48.9157 60.644 49.1561L60.5585 49.4492C60.5257 49.5676 60.4929 49.6859 60.462 49.8134C60.2527 50.6223 60.0855 51.4415 59.9613 52.2677C59.8065 53.2965 59.71 54.3179 59.6572 55.2847C59.5862 56.5738 59.5898 57.7646 59.6208 58.7441C59.6199 58.7605 59.6199 58.7769 59.6208 58.7933C59.6535 59.7892 59.7155 60.5703 59.7573 61.0146C59.781 61.275 59.7974 61.4224 59.7992 61.4316" stroke="#263238" stroke-width="0.5" stroke-linecap="round" stroke-linejoin="round"/>
<path d="M61.265 40.6222C60.9924 40.3799 60.6639 40.2091 60.3091 40.1251L61.265 40.6222Z" fill="white"/>
<path d="M61.265 40.6222C60.9924 40.3799 60.6639 40.2091 60.3091 40.1251" stroke="#263238" stroke-width="0.5" stroke-linecap="round" stroke-linejoin="round"/>
<path d="M61.4689 41.9331L61.9532 41.4943" stroke="#263238" stroke-width="0.5" stroke-linecap="round" stroke-linejoin="round"/>
<path d="M60.8516 48.4459C60.8262 48.3181 60.7884 48.1931 60.7387 48.0727C60.6669 47.896 60.5694 47.731 60.4492 47.5829C60.3595 47.4716 60.2575 47.3708 60.1451 47.2825" stroke="#263238" stroke-width="0.5" stroke-linecap="round" stroke-linejoin="round"/>
<path d="M60.4637 49.8115C60.5324 49.6415 60.6352 49.4873 60.7658 49.3586C60.8964 49.2299 61.052 49.1293 61.223 49.0632" stroke="#263238" stroke-width="0.5" stroke-linecap="round" stroke-linejoin="round"/>
<path d="M59.6227 56.5847C59.7847 56.3881 59.9067 55.6434 59.9723 55.2428C59.9886 55.1481 60.0014 55.0607 60.0141 55.0079" fill="white"/>
<path d="M59.6227 56.5847C59.7847 56.3881 59.9067 55.6434 59.9723 55.2428C59.9886 55.1481 60.0014 55.0607 60.0141 55.0079" stroke="#263238" stroke-width="0.5" stroke-linecap="round" stroke-linejoin="round"/>
<path d="M58.3754 57.9357C58.4292 57.9302 58.4835 57.9302 58.5374 57.9357C58.7759 57.9589 59.0036 58.0465 59.196 58.1893C59.3885 58.332 59.5385 58.5244 59.6299 58.7459" fill="white"/>
<path d="M58.3754 57.9357C58.4292 57.9302 58.4835 57.9302 58.5374 57.9357C58.7759 57.9589 59.0036 58.0465 59.196 58.1893C59.3885 58.332 59.5385 58.5244 59.6299 58.7459" stroke="#263238" stroke-width="0.5" stroke-linecap="round" stroke-linejoin="round"/>
<path d="M61.1849 47.0112C61.1849 47.0112 61.2705 44.0561 59.6482 42.9837" stroke="#263238" stroke-width="0.5" stroke-linecap="round" stroke-linejoin="round"/>
<path d="M61.3233 53.3456C61.5363 54.0356 60.0488 55.3484 60.0488 55.3484C60.0488 55.3484 58.0842 55.1026 57.8639 54.4143C57.6436 53.7261 58.1479 52.5936 59.102 52.3023C60.056 52.011 61.1175 52.6555 61.3233 53.3456Z" fill="#5D5757"/>
<path d="M62.9783 44.9829C62.7962 45.7112 61.3833 46.2338 61.3833 46.2338C61.3833 46.2338 60.4128 45.0994 60.5949 44.3675C60.777 43.6356 61.5617 42.8308 62.2208 43.0001C62.8799 43.1694 63.1676 44.251 62.9783 44.9829Z" fill="#5D5757"/>
<path d="M57.3357 55.9202C58.2187 56.2625 58.7595 57.8247 58.7595 57.8247C58.7595 57.8247 57.3029 58.6094 56.4217 58.2653C55.5404 57.9212 54.6009 56.9525 54.8558 56.3061C55.1107 55.6598 56.4526 55.5687 57.3357 55.9202Z" fill="#5D5757"/>
<path d="M59.2713 47.3262C59.45 47.4765 59.6549 47.5925 59.8757 47.6685C59.9866 47.7044 60.1052 47.7091 60.2185 47.6821C60.3319 47.6551 60.4357 47.5975 60.5185 47.5155C60.7005 47.2989 60.6568 46.9693 60.5385 46.698C60.3018 46.1791 59.4315 45.2961 58.7633 45.5491C57.7983 45.9188 58.8416 47.0112 59.2713 47.3262Z" fill="#5D5757"/>
<path d="M61.2467 48.6499C61.1193 48.8065 60.9845 49.005 61.0555 49.1961C61.0951 49.2764 61.1602 49.3414 61.2405 49.3809C61.3209 49.4204 61.412 49.4323 61.4998 49.4146C61.6744 49.3732 61.8375 49.2929 61.9768 49.1797C62.3173 48.9431 63.0165 48.4514 62.5704 47.9835C62.1243 47.5156 61.5053 48.3204 61.2467 48.6499Z" fill="#5D5757"/>
<path d="M58.3972 42.046C58.3237 42.0503 58.2534 42.0776 58.1962 42.1239C58.1391 42.1703 58.0979 42.2335 58.0786 42.3046C58.0495 42.4739 58.1897 42.6214 58.3244 42.7251C58.663 42.9873 59.6808 43.6901 59.9066 43.011C60.1215 42.3701 58.8451 41.9968 58.3972 42.046Z" fill="#5D5757"/>
<path d="M60.2707 39.8138C60.0613 39.8338 59.852 39.7574 59.6408 39.7701C59.4295 39.7829 59.1983 39.9522 59.2438 40.1598C59.2893 40.3673 59.5242 40.4128 59.7172 40.4238C60.0495 40.4451 60.3832 40.4224 60.7095 40.3564C60.7868 40.3491 60.8584 40.3126 60.9098 40.2544C60.9954 40.1288 60.8607 39.9613 60.715 39.9176C60.5655 39.8977 60.4184 39.8623 60.2762 39.812L60.2707 39.8138Z" fill="#5D5757"/>
<path d="M62.321 41.2576C62.5304 41.2576 62.7343 41.1739 62.9455 41.1721C63.1567 41.1703 63.4007 41.325 63.3661 41.5362C63.3315 41.7474 63.1057 41.8075 62.9127 41.8312C62.5828 41.8749 62.2485 41.8749 61.9186 41.8312C61.8405 41.8294 61.7661 41.7974 61.711 41.742C61.6182 41.6236 61.742 41.447 61.8822 41.3924C62.0306 41.3647 62.1754 41.3201 62.3137 41.2595L62.321 41.2576Z" fill="#5D5757"/>
<path d="M62.1134 56.7741C62.1617 56.7238 62.2262 56.6922 62.2955 56.6849C62.3423 56.6893 62.3861 56.7099 62.4193 56.7432C62.4525 56.7764 62.4731 56.8202 62.4776 56.867C62.4877 56.9569 62.4764 57.048 62.4448 57.1328C62.301 57.6116 60.6987 61.0692 60.3291 60.4484C60.1124 60.0842 60.6477 58.8661 60.8061 58.522C61.1084 57.8505 61.5547 57.2538 62.1134 56.7741Z" fill="#5D5757"/>
<path d="M61.3324 40.8207C61.3324 40.8207 61.2359 39.9813 61.438 39.9103" stroke="#263238" stroke-width="0.5" stroke-linecap="round" stroke-linejoin="round"/>
<path d="M61.1538 39.9449C61.2571 39.6485 61.4352 39.3838 61.6709 39.1765C61.924 38.9945 62.33 38.9799 62.5139 39.233C62.7197 39.5152 62.5139 39.9431 62.1989 40.0942C61.8839 40.2453 61.5125 40.1998 61.1666 40.1506C61.1666 40.0997 61.1666 40.0487 61.1666 39.9977L61.1538 39.9449Z" fill="#5D5757"/>
<path d="M62.0168 66.9684C60.3005 67.2579 58.5477 67.2579 56.8313 66.9684L54.814 61.0164H64.0342L62.0168 66.9684Z" fill="white" stroke="#263238" stroke-width="0.5" stroke-linecap="round" stroke-linejoin="round"/>
<path d="M26.8291 23.966V23.986C26.8364 24.0188 26.8437 24.0534 26.8509 24.0898C26.9334 24.4886 26.9942 24.8916 27.033 25.297C27.0676 25.6447 27.0931 26.0417 27.1022 26.4841C27.1209 27.504 27.0527 28.5237 26.8983 29.532C26.8582 29.7979 26.8109 30.0783 26.7544 30.3586C26.6652 30.8211 26.5542 31.3054 26.4213 31.8061C26.3593 32.0392 26.292 32.2777 26.2191 32.5181C26.19 32.6164 26.1609 32.7129 26.1336 32.8112C26.1063 32.9095 26.0662 33.0479 26.0353 33.1753C25.8261 33.9843 25.659 34.8035 25.5345 35.6297C25.3798 36.6584 25.2851 37.6799 25.2323 38.6467C25.1613 39.9358 25.1631 41.1265 25.1959 42.1061V42.1553C25.2305 43.1512 25.2906 43.9323 25.3343 44.3784C25.3561 44.6369 25.3743 44.7844 25.3743 44.7935" stroke="#263238" stroke-width="0.5" stroke-linecap="round" stroke-linejoin="round"/>
<path d="M26.8328 23.9915C26.7022 23.8772 26.5593 23.7776 26.4068 23.6947C26.2386 23.6061 26.06 23.5388 25.8751 23.4944" fill="white"/>
<path d="M26.8328 23.9915C26.7022 23.8772 26.5593 23.7776 26.4068 23.6947C26.2386 23.6061 26.06 23.5388 25.8751 23.4944" stroke="#263238" stroke-width="0.5" stroke-linecap="round" stroke-linejoin="round"/>
<path d="M27.0367 25.3024L27.5229 24.8636" stroke="#263238" stroke-width="0.5" stroke-linecap="round" stroke-linejoin="round"/>
<path d="M26.4214 31.8153C26.3954 31.6874 26.357 31.5624 26.3067 31.442C26.2349 31.2653 26.1374 31.1003 26.0172 30.9522C25.9275 30.841 25.8255 30.7402 25.7131 30.6518" stroke="#263238" stroke-width="0.5" stroke-linecap="round" stroke-linejoin="round"/>
<path d="M26.0334 33.1736C26.1014 33.0034 26.2037 32.8491 26.3341 32.7204C26.4644 32.5916 26.6199 32.4911 26.7909 32.4252" stroke="#263238" stroke-width="0.5" stroke-linecap="round" stroke-linejoin="round"/>
<path d="M25.1904 39.954C25.3525 39.7573 25.4763 39.0126 25.5418 38.6121C25.5564 38.5174 25.571 38.43 25.5819 38.3772" fill="white"/>
<path d="M25.1904 39.954C25.3525 39.7573 25.4763 39.0126 25.5418 38.6121C25.5564 38.5174 25.571 38.43 25.5819 38.3772" stroke="#263238" stroke-width="0.5" stroke-linecap="round" stroke-linejoin="round"/>
<path d="M23.9432 41.2977C23.9977 41.2923 24.0526 41.2923 24.1071 41.2977C24.3454 41.3215 24.5728 41.4094 24.7652 41.552C24.9575 41.6947 25.1076 41.8868 25.1996 42.108" fill="white"/>
<path d="M23.9432 41.2977C23.9977 41.2923 24.0526 41.2923 24.1071 41.2977C24.3454 41.3215 24.5728 41.4094 24.7652 41.552C24.9575 41.6947 25.1076 41.8868 25.1996 42.108" stroke="#263238" stroke-width="0.5" stroke-linecap="round" stroke-linejoin="round"/>
<path d="M26.7527 30.3733C26.7527 30.3733 26.84 27.4182 25.2159 26.3458" stroke="#263238" stroke-width="0.5" stroke-linecap="round" stroke-linejoin="round"/>
<path d="M26.9002 36.7149C27.1114 37.4049 25.6257 38.7177 25.6257 38.7177C25.6257 38.7177 23.6593 38.4719 23.4408 37.7837C23.2223 37.0954 23.7266 35.9629 24.6789 35.6716C25.6311 35.3803 26.6872 36.0266 26.9002 36.7149Z" fill="#5D5757"/>
<path d="M28.5497 28.3522C28.3676 29.0805 26.9547 29.6031 26.9547 29.6031C26.9547 29.6031 25.9733 28.4688 26.1627 27.7368C26.352 27.0049 27.1277 26.2001 27.7868 26.3694C28.4459 26.5388 28.7318 27.6203 28.5497 28.3522Z" fill="#5D5757"/>
<path d="M22.9054 39.2894C23.7885 39.6335 24.331 41.1939 24.331 41.1939C24.331 41.1939 22.8744 41.9786 21.9914 41.6345C21.1083 41.2904 20.1706 40.3218 20.4274 39.6754C20.6841 39.029 22.0205 38.9453 22.9054 39.2894Z" fill="#5D5757"/>
<path d="M24.8408 30.6955C25.0189 30.8458 25.2232 30.9618 25.4435 31.0378C25.5544 31.0737 25.6729 31.0784 25.7863 31.0514C25.8997 31.0245 26.0034 30.9668 26.0862 30.8849C26.2683 30.6682 26.2246 30.3386 26.1063 30.0674C25.8696 29.5484 25.0011 28.6654 24.331 28.9185C23.3678 29.2844 24.4093 30.3769 24.8408 30.6955Z" fill="#5D5757"/>
<path d="M26.8146 32.021C26.689 32.1776 26.5542 32.3852 26.6234 32.5672C26.663 32.6476 26.7281 32.7125 26.8084 32.752C26.8888 32.7916 26.9799 32.8034 27.0677 32.7857C27.2425 32.7446 27.4056 32.6643 27.5447 32.5509C27.8852 32.316 28.5844 31.8226 28.1383 31.3546C27.6922 30.8867 27.0823 31.6896 26.8146 32.021Z" fill="#5D5757"/>
<path d="M23.9651 25.4153C23.8917 25.4199 23.8215 25.4472 23.7644 25.4936C23.7073 25.5399 23.666 25.603 23.6465 25.6739C23.6173 25.8432 23.7575 25.9907 23.8941 26.0945C24.2327 26.3567 25.2487 27.0595 25.4763 26.3803C25.6893 25.7394 24.4148 25.3662 23.9651 25.4153Z" fill="#5D5757"/>
<path d="M25.8387 23.1831C25.6293 23.2031 25.42 23.1266 25.2106 23.1394C25.0012 23.1521 24.7663 23.3215 24.8136 23.529C24.861 23.7366 25.0922 23.7821 25.287 23.793C25.6187 23.8143 25.9518 23.7917 26.2775 23.7257C26.3554 23.7184 26.4276 23.682 26.4796 23.6237C26.5634 23.4981 26.4286 23.3306 26.2848 23.2869C26.1347 23.267 25.987 23.2316 25.8442 23.1813L25.8387 23.1831Z" fill="#5D5757"/>
<path d="M27.8888 24.627C28.1 24.627 28.3039 24.5432 28.5133 24.5414C28.7227 24.5396 28.9685 24.6943 28.9357 24.9055C28.903 25.1168 28.6736 25.1768 28.4806 25.2005C28.1506 25.2442 27.8164 25.2442 27.4864 25.2005C27.4083 25.1987 27.3339 25.1667 27.2789 25.1113C27.186 24.9929 27.3098 24.8163 27.4518 24.7617C27.6001 24.7335 27.7449 24.6889 27.8834 24.6288L27.8888 24.627Z" fill="#5D5757"/>
<path d="M27.6812 40.1434C27.7296 40.0933 27.794 40.0617 27.8633 40.0541C27.9097 40.0596 27.9529 40.0805 27.986 40.1135C28.019 40.1466 28.0399 40.1898 28.0454 40.2362C28.0548 40.3263 28.0429 40.4174 28.0108 40.502C27.8687 40.9809 26.2647 44.4385 25.8969 43.8176C25.6784 43.4535 26.2137 42.2354 26.3721 41.8913C26.6749 41.2196 27.1219 40.6229 27.6812 40.1434Z" fill="#5D5757"/>
<path d="M26.9003 24.1936C26.9003 24.1936 26.8038 23.3543 27.0077 23.2833" stroke="#263238" stroke-width="0.5" stroke-linecap="round" stroke-linejoin="round"/>
<path d="M26.729 23.3142C26.8309 23.0171 27.0092 22.7521 27.2461 22.5459C27.4992 22.3638 27.9034 22.3492 28.0873 22.6023C28.293 22.8845 28.0873 23.3124 27.7723 23.4635C27.4573 23.6146 27.0877 23.5691 26.7418 23.52C26.7418 23.469 26.7418 23.418 26.7418 23.367L26.729 23.3142Z" fill="#5D5757"/>
<path d="M3.76025 44.0925V26.1017" stroke="#263238" stroke-width="0.5" stroke-linecap="round" stroke-linejoin="round"/>
<path d="M59.9303 44.0926H57.7072" stroke="#263238" stroke-width="0.5" stroke-linecap="round" stroke-linejoin="round"/>
<path d="M77.3639 44.0926H72.8357" stroke="#263238" stroke-width="0.5" stroke-linecap="round" stroke-linejoin="round"/>
<path d="M57.5032 16.7614H65.5272V9.11786" stroke="#263238" stroke-width="0.5" stroke-linecap="round" stroke-linejoin="round"/>
<path d="M10.7355 14.4271H19.2602V20.645H28.6043" stroke="#263238" stroke-width="0.5" stroke-linecap="round" stroke-linejoin="round"/>
<path d="M5.70654 35.4841V21.7448" stroke="#263238" stroke-width="0.5" stroke-linecap="round" stroke-linejoin="round"/>
<path d="M9.51562 15.7818V26.5497" stroke="#263238" stroke-width="0.5" stroke-linecap="round" stroke-linejoin="round"/>
<path d="M13.3228 15.7818V25.3007" stroke="#263238" stroke-width="0.5" stroke-linecap="round" stroke-linejoin="round"/>
<path d="M17.13 15.7818V32.4325" stroke="#263238" stroke-width="0.5" stroke-linecap="round" stroke-linejoin="round"/>
<path d="M35.3684 13.4203V2.47211H50.8684V13.4203" stroke="#263238" stroke-width="0.5" stroke-linecap="round" stroke-linejoin="round"/>
<path d="M36.5045 7.91065V3.77209H39.3704" stroke="#263238" stroke-width="0.5" stroke-linecap="round" stroke-linejoin="round"/>
<path d="M40.0004 7.91065V3.77209H42.8662" stroke="#263238" stroke-width="0.5" stroke-linecap="round" stroke-linejoin="round"/>
<path d="M43.4962 7.91065V3.77209H46.3621" stroke="#263238" stroke-width="0.5" stroke-linecap="round" stroke-linejoin="round"/>
<path d="M46.9921 7.91065V3.77209H49.8579" stroke="#263238" stroke-width="0.5" stroke-linecap="round" stroke-linejoin="round"/>
<path d="M36.5045 13.4202V9.28168H39.3704" stroke="#263238" stroke-width="0.5" stroke-linecap="round" stroke-linejoin="round"/>
<path d="M40.0004 13.4202V9.28168H42.8662" stroke="#263238" stroke-width="0.5" stroke-linecap="round" stroke-linejoin="round"/>
<path d="M43.4962 13.4202V9.28168H46.3621" stroke="#263238" stroke-width="0.5" stroke-linecap="round" stroke-linejoin="round"/>
<path d="M46.9921 13.4202V9.28168H49.8579" stroke="#263238" stroke-width="0.5" stroke-linecap="round" stroke-linejoin="round"/>
<path d="M66.7689 10.0646V23.784" stroke="#263238" stroke-width="0.5" stroke-linecap="round" stroke-linejoin="round"/>
<path d="M72.3969 43.0875H72.8357" stroke="#263238" stroke-width="0.5" stroke-linecap="round" stroke-linejoin="round"/>
<path d="M70.1428 14.0047V29.3645" stroke="#263238" stroke-width="0.5" stroke-linecap="round" stroke-linejoin="round"/>
<path d="M73.5186 39.1656V43.0875H76.2114" stroke="#263238" stroke-width="0.5" stroke-linecap="round" stroke-linejoin="round"/>
<path d="M73.5186 19.0118V29.4428" stroke="#263238" stroke-width="0.5" stroke-linecap="round" stroke-linejoin="round"/>
<path d="M76.8923 26.9266V43.0875H77.5059" stroke="#263238" stroke-width="0.5" stroke-linecap="round" stroke-linejoin="round"/>
<path d="M35.7763 44.4221H1V67.0103H35.7763V44.4221Z" fill="white" stroke="#263238" stroke-width="0.5" stroke-linecap="round" stroke-linejoin="round"/>
<path d="M1 44.4221L18.3881 55.7162L35.7763 44.4221H1Z" fill="white" stroke="#263238" stroke-width="0.5" stroke-linecap="round" stroke-linejoin="round"/>
<path d="M13.1608 52.3205L1 67.0103" stroke="#263238" stroke-width="0.5" stroke-linecap="round" stroke-linejoin="round"/>
<path d="M23.7102 52.3205L35.871 67.0103" stroke="#263238" stroke-width="0.5" stroke-linecap="round" stroke-linejoin="round"/>
<path d="M54.3862 15.5997H46.3021C46.0693 15.6 45.8408 15.6626 45.6403 15.7811C45.4399 15.8995 45.2748 16.0695 45.1623 16.2734C44.9637 16.6319 44.6727 16.9307 44.3195 17.1388C43.9664 17.3468 43.5639 17.4566 43.154 17.4566C42.7442 17.4566 42.3417 17.3468 41.9886 17.1388C41.6354 16.9307 41.3444 16.6319 41.1458 16.2734C41.0342 16.0669 40.8688 15.8944 40.6672 15.7742C40.4656 15.654 40.2352 15.5906 40.0005 15.5906H31.9255C31.7038 15.5877 31.4838 15.6285 31.2779 15.7107C31.072 15.7928 30.8843 15.9148 30.7256 16.0695C30.5668 16.2242 30.4401 16.4086 30.3526 16.6123C30.2652 16.816 30.2187 17.0349 30.2158 17.2566V62.8517C30.2221 63.2992 30.4056 63.726 30.7261 64.0383C31.0466 64.3506 31.478 64.5231 31.9255 64.5177H54.3862C54.8339 64.5231 55.2655 64.3507 55.5863 64.0384C55.9071 63.7261 56.091 63.2994 56.0977 62.8517V17.2657C56.0915 16.8179 55.9077 16.3908 55.5868 16.0785C55.2659 15.7661 54.8341 15.5939 54.3862 15.5997Z" fill="#868383"/>
<path d="M56.886 16.7613C56.887 16.4541 56.8273 16.1498 56.7105 15.8658C56.5936 15.5817 56.4218 15.3236 56.205 15.106C55.9881 14.8885 55.7305 14.7159 55.4468 14.5982C55.1631 14.4804 54.859 14.4198 54.5518 14.4198H31.7616C31.4551 14.4196 31.1516 14.4797 30.8684 14.5968C30.5853 14.7139 30.3279 14.8857 30.1111 15.1023C29.8944 15.3189 29.7224 15.5761 29.6051 15.8592C29.4878 16.1423 29.4274 16.4457 29.4274 16.7522V64.6724C29.4274 65.291 29.6731 65.8842 30.1105 66.3217C30.5479 66.7591 31.1412 67.0048 31.7597 67.0048H54.5518C55.1706 67.0048 55.764 66.7591 56.2017 66.3218C56.6394 65.8844 56.8856 65.2912 56.886 64.6724V16.7613ZM56.0977 62.8517C56.0909 63.2993 55.907 63.7261 55.5862 64.0384C55.2654 64.3506 54.8338 64.523 54.3862 64.5176H31.9254C31.4779 64.523 31.0466 64.3506 30.726 64.0382C30.4055 63.7259 30.222 63.2992 30.2157 62.8517V17.2656C30.2186 17.044 30.2651 16.8251 30.3526 16.6214C30.44 16.4177 30.5668 16.2332 30.7255 16.0785C30.8843 15.9238 31.072 15.8019 31.2778 15.7197C31.4837 15.6376 31.7038 15.5968 31.9254 15.5996H40.0041C40.2386 15.5996 40.4687 15.663 40.67 15.7832C40.8713 15.9035 41.0364 16.076 41.1475 16.2824C41.3462 16.641 41.6372 16.9398 41.9903 17.1478C42.3435 17.3559 42.7459 17.4656 43.1558 17.4656C43.5657 17.4656 43.9681 17.3559 44.3213 17.1478C44.6744 16.9398 44.9654 16.641 45.1641 16.2824C45.2763 16.0783 45.4413 15.9081 45.6418 15.7896C45.8423 15.6711 46.071 15.6086 46.3039 15.6087H54.388C54.6096 15.6059 54.8297 15.6467 55.0356 15.7288C55.2415 15.811 55.4291 15.9329 55.5879 16.0876C55.7467 16.2423 55.8734 16.4268 55.9609 16.6305C56.0483 16.8342 56.0948 17.0531 56.0977 17.2747V62.8517Z" fill="#263238"/>
<path opacity="0.2" d="M49.1424 14.4271L34.0029 67.0085L40.015 67.003L54.5938 14.4271H49.1424Z" fill="white"/>
<path opacity="0.2" d="M46.8847 14.4271L30.8785 67.0103L31.7543 67.0048L47.4601 14.4271H46.8847Z" fill="white"/>
<path d="M47.2399 53.5167C47.251 54.0379 47.1578 54.5561 46.9657 55.0407C46.7735 55.5253 46.4863 55.9666 46.121 56.3385C45.7557 56.7104 45.3197 57.0055 44.8386 57.2063C44.3575 57.4071 43.8411 57.5096 43.3198 57.5078C42.2561 57.5038 41.2361 57.0842 40.4775 56.3385C39.7189 55.5928 39.2818 54.5802 39.2595 53.5167C39.2486 52.9957 39.342 52.4777 39.5343 51.9933C39.7265 51.5089 40.0138 51.0679 40.379 50.6962C40.7443 50.3244 41.1803 50.0295 41.6612 49.8288C42.1422 49.6281 42.6584 49.5257 43.1796 49.5275C44.2431 49.5311 45.2631 49.9503 46.0217 50.6957C46.7804 51.441 47.2175 52.4534 47.2399 53.5167Z" fill="white" stroke="#263238" stroke-width="0.5" stroke-linecap="round" stroke-linejoin="round"/>
<path d="M41.9415 56.4955C41.5709 56.3584 41.2311 56.1493 40.9419 55.8801C40.6503 55.5999 40.4245 55.2585 40.2809 54.8805C40.1173 54.4567 40.0364 54.0056 40.0424 53.5513C40.0401 53.1641 40.1086 52.7797 40.2445 52.417C40.368 52.0821 40.5533 51.7733 40.7908 51.5066C41.2588 50.9947 41.8633 50.627 42.5332 50.447C42.8621 50.3583 43.2013 50.3136 43.5419 50.3141C43.8248 50.3128 44.1067 50.3464 44.3813 50.4142C44.6463 50.4793 44.8998 50.5842 45.1332 50.7255C45.3644 50.8644 45.5716 51.0396 45.7468 51.2445C45.9295 51.4654 46.0691 51.7186 46.1583 51.991C46.2604 52.3017 46.3108 52.6271 46.3076 52.9541C46.3038 53.5862 46.0761 54.1965 45.6649 54.6766C45.4881 54.877 45.2788 55.0463 45.0458 55.1773C44.845 55.2925 44.6183 55.3551 44.3867 55.3593C44.2269 55.3615 44.0708 55.3109 43.9425 55.2155C43.8781 55.1678 43.8256 55.1058 43.7893 55.0344C43.753 54.963 43.7337 54.8841 43.7331 54.804C43.6136 54.9856 43.4497 55.1336 43.2569 55.234C43.0641 55.3344 42.8488 55.3838 42.6315 55.3776C42.4606 55.3852 42.2901 55.3545 42.1326 55.2877C41.9751 55.2209 41.8345 55.1197 41.7212 54.9916C41.4938 54.7274 41.3737 54.3877 41.3843 54.0393C41.3858 53.7526 41.4357 53.4682 41.5318 53.1981C41.6275 52.9259 41.7631 52.6694 41.9342 52.437C42.1047 52.2087 42.3219 52.0194 42.5715 51.8817C42.8208 51.741 43.1026 51.6675 43.389 51.6687C43.5881 51.6667 43.7845 51.7142 43.9607 51.8071C44.1317 51.8982 44.2703 52.0401 44.3576 52.2131L44.394 52.0911C44.423 52.0057 44.4848 51.9352 44.5657 51.8953C44.6466 51.8554 44.7401 51.8492 44.8255 51.8781C44.8586 51.8893 44.8899 51.9053 44.9184 51.9254C44.9455 51.9471 44.9671 51.9749 44.9814 52.0065C44.9956 52.0382 45.0021 52.0728 45.0003 52.1075C45.0004 52.1415 44.9948 52.1754 44.9839 52.2076L44.394 54.1704C44.342 54.3199 44.3084 54.4752 44.2939 54.6329C44.2884 54.6623 44.2903 54.6926 44.2994 54.7211C44.3085 54.7496 44.3244 54.7754 44.3458 54.7963C44.3672 54.8172 44.3935 54.8325 44.4222 54.8408C44.4509 54.8491 44.4813 54.8503 44.5105 54.8441C44.7193 54.8307 44.9149 54.7375 45.0568 54.5837C45.2535 54.3892 45.4046 54.1536 45.4992 53.8936C45.6122 53.6098 45.6703 53.307 45.6704 53.0015C45.6728 52.7324 45.6335 52.4646 45.5538 52.2076C45.4869 51.9861 45.3808 51.7782 45.2407 51.594C45.1079 51.4263 44.9471 51.2828 44.7655 51.1698C44.5843 51.0556 44.3865 50.9702 44.1792 50.9167C43.9664 50.8608 43.7473 50.8326 43.5273 50.833C43.2483 50.8334 42.9707 50.8726 42.7025 50.9495C42.4264 51.0277 42.1632 51.1461 41.9214 51.3009C41.6777 51.4547 41.457 51.6423 41.266 51.8581C41.0692 52.0854 40.9161 52.3471 40.8144 52.63C40.7001 52.9382 40.6427 53.2646 40.6451 53.5932C40.6391 53.9825 40.7096 54.3691 40.8527 54.7312C40.976 55.0446 41.1705 55.3251 41.4207 55.5505C41.6626 55.7604 41.9417 55.9229 42.2437 56.0294C42.5623 56.1421 42.8981 56.1987 43.236 56.1969C43.5972 56.1969 43.9563 56.1423 44.3012 56.0348C44.3356 56.0225 44.372 56.0163 44.4086 56.0166C44.4427 56.0161 44.4766 56.0228 44.508 56.0363C44.5394 56.0498 44.5675 56.0698 44.5907 56.0949C44.6139 56.1191 44.6321 56.1476 44.6443 56.1789C44.6565 56.2101 44.6624 56.2435 44.6617 56.277C44.666 56.33 44.6511 56.3827 44.6197 56.4255C44.5882 56.4684 44.5424 56.4984 44.4905 56.5101C44.0608 56.6415 43.6144 56.7101 43.165 56.714C42.7475 56.7134 42.3334 56.6395 41.9415 56.4955ZM43.4454 54.6074C43.6254 54.4781 43.7589 54.2942 43.8259 54.083L44.2065 52.7448L44.181 52.6901C44.1573 52.6463 44.1286 52.6053 44.0954 52.5681C44.0498 52.5155 43.9998 52.4668 43.9461 52.4225C43.8779 52.368 43.8009 52.3256 43.7185 52.2969C43.503 52.2216 43.2671 52.2301 43.0576 52.3205C42.9428 52.3691 42.8374 52.4376 42.7462 52.5226C42.6515 52.611 42.5672 52.71 42.495 52.8176C42.4227 52.9296 42.3617 53.0485 42.3129 53.1726C42.2617 53.2968 42.2221 53.4254 42.1946 53.5568C42.167 53.6818 42.153 53.8094 42.1527 53.9373C42.1511 54.0195 42.1559 54.1017 42.1672 54.1831C42.1757 54.2556 42.1915 54.327 42.2146 54.3962C42.2345 54.4605 42.2633 54.5218 42.3002 54.5782C42.3331 54.6291 42.3751 54.6735 42.424 54.7093C42.4761 54.7471 42.5347 54.7749 42.5969 54.7913C42.6696 54.8126 42.7452 54.8224 42.8209 54.8204C43.0487 54.8232 43.2709 54.7502 43.4527 54.6128L43.4454 54.6074Z" fill="#5D5757" stroke="#263238" stroke-width="0.5" stroke-linecap="round" stroke-linejoin="round"/>
<path d="M47.1506 39.8374C47.1615 40.3585 47.0681 40.8764 46.8758 41.3608C46.6836 41.8452 46.3964 42.2863 46.0311 42.658C45.6658 43.0297 45.2298 43.3246 44.7489 43.5253C44.2679 43.726 43.7517 43.8285 43.2305 43.8267C42.167 43.8231 41.147 43.4039 40.3884 42.6585C39.6297 41.9131 39.1926 40.9007 39.1702 39.8374C39.1588 39.3162 39.2519 38.7979 39.4439 38.3132C39.636 37.8284 39.9232 37.3871 40.2885 37.0151C40.6539 36.6431 41.09 36.3481 41.5712 36.1474C42.0524 35.9466 42.5689 35.8443 43.0903 35.8463C44.154 35.8504 45.174 36.27 45.9326 37.0157C46.6912 37.7613 47.1283 38.774 47.1506 39.8374Z" fill="white" stroke="#263238" stroke-width="0.5" stroke-linecap="round" stroke-linejoin="round"/>
<path d="M45.6649 39.4733C44.414 38.654 41.9615 38.654 40.7689 39.4733C40.5508 39.5142 40.3547 39.6322 40.2163 39.8056C40.0779 39.9791 40.0065 40.1966 40.0151 40.4183C40.0333 40.9481 42.2346 40.9481 42.2164 40.4183C42.2057 40.1968 42.121 39.9852 41.976 39.8174C42.8016 39.639 43.6558 39.639 44.4814 39.8174C44.347 39.9883 44.2774 40.2011 44.2848 40.4183C44.303 40.9481 46.5042 40.9481 46.4842 40.4183C46.4739 40.1916 46.3874 39.975 46.2387 39.8035C46.09 39.632 45.8878 39.5157 45.6649 39.4733Z" fill="#5D5757" stroke="#263238" stroke-width="0.5" stroke-linecap="round" stroke-linejoin="round"/>
<path d="M47.1506 26.5496C47.1725 27.531 46.6372 28.4086 45.7778 28.9931V31.3765L44.0681 29.6649C43.7917 29.7144 43.5114 29.7387 43.2306 29.7378C41.0275 29.7378 39.2085 28.3103 39.1703 26.5496C39.1321 24.789 40.8854 23.3633 43.0904 23.3633C45.2953 23.3633 47.1215 24.7981 47.1506 26.5496Z" fill="white" stroke="#263238" stroke-width="0.5" stroke-linecap="round" stroke-linejoin="round"/>
<path d="M41.4608 26.5496C41.4612 26.652 41.4312 26.7521 41.3746 26.8374C41.318 26.9227 41.2373 26.9892 41.1429 27.0287C41.0484 27.0681 40.9444 27.0786 40.844 27.0588C40.7435 27.0391 40.6512 26.99 40.5787 26.9177C40.5062 26.8455 40.4568 26.7534 40.4367 26.653C40.4166 26.5527 40.4267 26.4486 40.4658 26.354C40.5049 26.2594 40.5712 26.1785 40.6563 26.1216C40.7413 26.0647 40.8414 26.0344 40.9437 26.0344C41.0806 26.0344 41.2118 26.0886 41.3087 26.1852C41.4056 26.2818 41.4603 26.4128 41.4608 26.5496Z" fill="#5D5757" stroke="#263238" stroke-width="0.5" stroke-linecap="round" stroke-linejoin="round"/>
<path d="M43.673 26.5496C43.6733 26.652 43.6433 26.7521 43.5867 26.8374C43.5301 26.9227 43.4495 26.9892 43.355 27.0287C43.2606 27.0681 43.1565 27.0786 43.0561 27.0588C42.9557 27.0391 42.8634 26.99 42.7909 26.9177C42.7184 26.8455 42.669 26.7534 42.6489 26.653C42.6288 26.5527 42.6389 26.4486 42.678 26.354C42.7171 26.2594 42.7833 26.1785 42.8684 26.1216C42.9535 26.0647 43.0535 26.0344 43.1559 26.0344C43.2927 26.0344 43.424 26.0886 43.5209 26.1852C43.6178 26.2818 43.6725 26.4128 43.673 26.5496Z" fill="#5D5757" stroke="#263238" stroke-width="0.5" stroke-linecap="round" stroke-linejoin="round"/>
<path d="M45.8851 26.5496C45.8855 26.652 45.8555 26.7521 45.7989 26.8374C45.7423 26.9227 45.6616 26.9892 45.5672 27.0287C45.4727 27.0681 45.3687 27.0786 45.2683 27.0588C45.1679 27.0391 45.0756 26.99 45.0031 26.9177C44.9306 26.8455 44.8811 26.7534 44.861 26.653C44.8409 26.5527 44.8511 26.4486 44.8901 26.354C44.9292 26.2594 44.9955 26.1785 45.0806 26.1216C45.1656 26.0647 45.2657 26.0344 45.368 26.0344C45.5049 26.0344 45.6361 26.0886 45.733 26.1852C45.83 26.2818 45.8846 26.4128 45.8851 26.5496Z" fill="#5D5757" stroke="#263238" stroke-width="0.5" stroke-linecap="round" stroke-linejoin="round"/>
<path d="M20.8661 33.8162C20.8015 33.9365 20.7083 34.039 20.5948 34.1148C19.7548 34.7849 18.8954 35.4276 18.0166 36.043C17.6944 36.2688 17.3593 36.5018 17.048 36.7549C15.1763 38.0076 16.3197 38.3135 15.1763 40.9645C14.9068 41.5981 14.9559 44.7025 14.9559 44.7025H14.8631C14.6439 44.4862 14.411 44.2843 14.1657 44.098C14.1319 44.0752 14.0966 44.0545 14.0601 44.0361C14.0259 44.0185 13.989 44.0068 13.9509 44.0015C13.7688 43.9906 13.0751 44.0743 12.3741 44.0288L12.1921 44.0142C12.0901 44.0033 11.99 43.9906 11.8898 43.9724C11.7897 43.9542 11.6932 43.9341 11.6003 43.9086C10.9351 43.6953 10.2828 43.4436 9.64665 43.1549L9.32984 43.0183L9.17326 42.9509L9.03124 42.889L8.92928 42.8453L8.83096 42.8035C8.66527 42.7343 8.51051 42.6705 8.36849 42.6214C8.30339 42.598 8.23715 42.578 8.17003 42.5613C8.17003 42.7106 8.14636 42.8635 8.12633 43.0128C8.03893 43.7247 7.84411 44.382 7.49635 44.4694C7.48918 44.4713 7.48167 44.4713 7.4745 44.4694C7.44387 44.4752 7.4128 44.4782 7.38164 44.4785H7.35433C7.27729 44.477 7.20103 44.4628 7.12856 44.4367C6.81294 44.302 6.55502 44.0602 6.40026 43.7539C6.3311 43.6248 6.29248 43.4815 6.28737 43.3351C6.28737 42.8053 6.13989 39.679 6.13989 38.7687C6.13989 37.8583 6.32197 36.2651 6.77533 35.6734C6.95251 35.4225 7.17628 35.208 7.43444 35.0416C7.76664 34.7647 8.14764 34.5523 8.55784 34.4153C9.04216 34.2569 10.1255 33.8527 10.8811 33.5668L9.73951 34.0074C10.029 34.5027 10.6499 35.2819 11.7696 35.3821C12.822 35.4713 13.4739 34.5191 13.8071 33.8235C13.8362 33.8344 15.6679 33.4867 16.0921 33.5067C17.474 33.5668 18.6011 32.8185 19.1109 32.5217C19.2647 32.4298 19.4372 32.3739 19.6157 32.358C19.7941 32.3422 19.9738 32.3669 20.1413 32.4303C20.3089 32.4937 20.46 32.5941 20.5833 32.7241C20.7065 32.854 20.7989 33.0101 20.8533 33.1808V33.1972C20.933 33.3951 20.9375 33.6152 20.8661 33.8162Z" fill="#5D5757" stroke="#263238" stroke-width="0.5" stroke-linecap="round" stroke-linejoin="round"/>
<path d="M13.7871 33.8344L13.7034 33.8053" stroke="#263238" stroke-width="0.5" stroke-linecap="round" stroke-linejoin="round"/>
<path d="M15.3402 45.5036C15.3411 45.5109 15.3411 45.5182 15.3402 45.5255C15.3328 45.5431 15.3216 45.5588 15.3073 45.5714C15.293 45.5841 15.2761 45.5934 15.2578 45.5986C15.2394 45.6039 15.2201 45.6049 15.2013 45.6017C15.1825 45.5985 15.1646 45.5911 15.1491 45.5801C15.0653 45.5328 14.936 45.2287 14.936 45.2287L14.7922 45.0794L14.6975 44.9792C14.7121 45.0157 14.8268 45.2942 14.7667 45.4235C14.7637 45.4324 14.7587 45.4405 14.7521 45.4472C14.7119 45.5009 14.6597 45.5446 14.5996 45.5746C14.5396 45.6046 14.4733 45.6202 14.4062 45.6201C14.3279 45.6201 14.0985 45.6475 13.8982 45.6602H13.8764C13.8157 45.6636 13.7549 45.6636 13.6943 45.6602C13.5326 45.6394 13.3767 45.5868 13.2355 45.5054C12.9152 45.4584 12.5996 45.3835 12.2923 45.2815L12.2377 45.2524L12.1885 45.2232C12.1562 45.2037 12.1263 45.1805 12.0993 45.154C11.9884 45.0616 11.8941 44.9507 11.8207 44.8263C11.8207 44.8263 11.0815 44.7954 10.0892 44.7189C9.72506 44.6916 9.33178 44.657 8.92393 44.6169C8.29759 44.5532 7.7805 44.5568 7.37447 44.5004H7.34534C7.26523 44.4895 7.19058 44.4749 7.11957 44.4585C6.94628 44.4246 6.78604 44.3426 6.65723 44.2219C6.52842 44.1011 6.43624 43.9465 6.39127 43.7757C6.36743 43.6949 6.34798 43.6129 6.33301 43.5299L6.64982 42.9837C6.81494 42.8513 6.99908 42.7445 7.19604 42.6669C7.50162 42.539 7.83904 42.5079 8.16286 42.5777C8.22998 42.5944 8.29622 42.6144 8.36132 42.6378C8.50334 42.6924 8.6581 42.7561 8.82379 42.8198L8.92393 42.8617L9.02589 42.9054L9.16791 42.9673C9.97814 43.3023 10.945 43.7339 11.5913 43.9159C11.7855 43.9668 11.9833 44.0021 12.1831 44.0215L12.3651 44.0361C13.0661 44.0816 13.758 43.9979 13.9419 44.0088C14.1258 44.0197 14.5755 44.4476 14.8632 44.7116C14.9415 44.7844 15.0107 44.8445 15.058 44.8809L15.0799 44.8991L15.0963 44.9137C15.2005 45.0207 15.2736 45.1542 15.3075 45.2997C15.3218 45.3485 15.3315 45.3984 15.3366 45.449C15.3399 45.467 15.3411 45.4853 15.3402 45.5036Z" fill="white" stroke="#263238" stroke-width="0.5" stroke-linecap="round" stroke-linejoin="round"/>
<path d="M15.3402 45.5036C15.3411 45.5109 15.3411 45.5182 15.3402 45.5255C15.3326 45.5429 15.3212 45.5585 15.3069 45.5709C15.2925 45.5834 15.2756 45.5925 15.2572 45.5976C15.2389 45.6026 15.2197 45.6035 15.2009 45.6002C15.1822 45.5969 15.1645 45.5894 15.149 45.5783C15.059 45.4738 14.987 45.355 14.936 45.2269L14.7922 45.0794L14.6975 44.9811C14.7102 45.0102 14.8286 45.2942 14.7685 45.4253C14.7654 45.4342 14.7605 45.4423 14.7539 45.449C14.7337 45.4759 14.7105 45.5003 14.6847 45.5218C14.6062 45.5849 14.5087 45.6196 14.408 45.6202C14.3279 45.6202 14.1003 45.6456 13.9018 45.6602H13.8763C13.8157 45.6636 13.7549 45.6636 13.6943 45.6602C13.5336 45.6388 13.3785 45.5869 13.2372 45.5073C12.9169 45.4593 12.6014 45.3838 12.2941 45.2815L12.2413 45.256L12.1921 45.2269C12.1607 45.2062 12.1308 45.183 12.1029 45.1577C11.9903 45.0644 11.8948 44.9523 11.8207 44.8263C11.8207 44.8263 11.1033 44.7954 10.1311 44.7207C9.7669 44.6934 9.34631 44.657 8.9239 44.6151C8.34854 44.5587 7.87333 44.5423 7.48915 44.4822L7.3708 44.4603L7.23424 44.4294C7.20276 44.2063 7.22588 43.9789 7.30161 43.7666C7.37219 43.5876 7.48164 43.4264 7.62207 43.2948C7.76251 43.1632 7.93041 43.0644 8.11366 43.0056C8.34109 42.9219 8.57411 42.8544 8.81101 42.8035L8.90933 42.8453L9.01129 42.889L9.15331 42.9509C9.97811 43.306 10.934 43.7357 11.5822 43.9123C11.7762 43.9634 11.9741 43.9981 12.1739 44.0161L12.356 44.0306C13.057 44.078 13.7489 43.9942 13.9328 44.0052C14.1167 44.0161 14.5646 44.4421 14.8431 44.7061C14.9063 44.7665 14.9726 44.8237 15.0416 44.8773L15.0635 44.8937L15.0798 44.9082C15.1861 45.0138 15.2595 45.1479 15.291 45.2942C15.3054 45.343 15.3151 45.393 15.3202 45.4435C15.3295 45.4626 15.3362 45.4828 15.3402 45.5036Z" fill="white" stroke="#263238" stroke-width="0.5" stroke-linecap="round" stroke-linejoin="round"/>
<path d="M13.1608 45.0193C13.1608 45.0193 13.5741 45.2341 13.7379 45.3088C13.9018 45.3834 13.8872 45.6839 13.8872 45.6839" fill="white"/>
<path d="M13.1608 45.0193C13.1608 45.0193 13.5741 45.2341 13.7379 45.3088C13.9018 45.3834 13.8872 45.6839 13.8872 45.6839" stroke="#263238" stroke-width="0.5" stroke-linecap="round" stroke-linejoin="round"/>
<path d="M13.6031 44.728C13.8632 44.9135 14.1135 45.1123 14.3533 45.3234C14.3883 45.3645 14.4112 45.4146 14.4192 45.468C14.4272 45.5214 14.4202 45.576 14.3988 45.6256" fill="white"/>
<path d="M13.6031 44.728C13.8632 44.9135 14.1135 45.1123 14.3533 45.3234C14.3883 45.3645 14.4112 45.4146 14.4192 45.468C14.4272 45.5214 14.4202 45.576 14.3988 45.6256" stroke="#263238" stroke-width="0.5" stroke-linecap="round" stroke-linejoin="round"/>
<path d="M14.6919 44.9774C14.4765 44.7466 14.2486 44.5278 14.0092 44.322L14.6919 44.9774Z" fill="white"/>
<path d="M14.6919 44.9774C14.4765 44.7466 14.2486 44.5278 14.0092 44.322" stroke="#263238" stroke-width="0.5" stroke-linecap="round" stroke-linejoin="round"/>
<path d="M13.7853 33.8381C13.4558 34.5318 12.8021 35.4768 11.7497 35.3949C10.6354 35.3002 10.0091 34.5154 9.7196 34.0184C10.1202 33.8654 10.5262 33.7088 10.8594 33.5778C10.8594 33.2391 10.8485 32.8331 10.8121 32.4307C10.8121 32.3433 10.7938 32.2486 10.7847 32.1667C10.7756 32.0847 10.7647 32.0265 10.7538 31.9591H12.8713C12.8713 31.9591 12.8586 32.0429 12.8422 32.1831C12.8294 32.3087 12.8131 32.4762 12.8003 32.6656C12.7839 32.9168 12.773 33.2118 12.7803 33.4904C12.8822 33.5249 12.986 33.5632 13.0898 33.6032L13.2901 33.6724C13.3702 33.7016 13.4485 33.7271 13.5322 33.7544L13.7143 33.809C13.7386 33.8172 13.7623 33.8269 13.7853 33.8381Z" fill="white" stroke="#263238" stroke-width="0.5" stroke-linecap="round" stroke-linejoin="round"/>
<path d="M10.7847 32.1594C10.7847 32.1594 11.1798 33.1863 11.7533 33.3611C12.3268 33.5358 12.8458 32.183 12.8458 32.183C12.8458 32.183 12.0373 33.0461 11.7369 32.9113C11.4365 32.7766 10.7883 32.1666 10.7883 32.1666" fill="#263238"/>
<path d="M10.4442 26.4877C9.90915 26.9694 9.48488 27.5614 9.20066 28.2229C8.94029 28.7691 8.71998 29.3973 8.92027 29.969C9.04012 30.2529 9.20968 30.5131 9.42097 30.7374C9.81425 31.2089 10.3659 32.5253 10.7592 32.9969C10.7847 32.1576 10.0819 30.8011 10.1566 30.0965C10.247 29.5521 10.426 29.0262 10.6864 28.5397C10.9513 27.9017 11.2977 27.3007 11.7169 26.7518C11.9555 26.4641 12.722 25.9524 11.9482 25.8905C11.4347 25.8487 10.832 26.1691 10.4442 26.4877Z" fill="#263238" stroke="#263238" stroke-width="0.5" stroke-linecap="round" stroke-linejoin="round"/>
<path d="M9.94893 29.35C9.94893 29.35 9.67763 28.8238 9.39178 29.3226C9.18603 29.6868 9.48282 30.2603 9.61027 30.4734C9.65256 30.534 9.70985 30.5826 9.77654 30.6146C9.84323 30.6465 9.91705 30.6605 9.9908 30.6554L9.94893 29.35Z" fill="white" stroke="#263238" stroke-width="0.5" stroke-linecap="round" stroke-linejoin="round"/>
<path d="M13.5139 31.2508C13.3399 31.5947 13.1132 31.9092 12.8421 32.1831L12.6782 32.3524C12.3395 32.6874 11.9736 32.9532 11.7332 32.8986C11.5238 32.8567 11.2507 32.6419 10.9831 32.367C10.9157 32.2996 10.8502 32.2268 10.7846 32.1539C10.4932 31.8351 10.243 31.4809 10.0399 31.0997C9.98351 30.9568 9.94736 30.8066 9.9325 30.6536C9.88656 30.1976 9.87075 29.739 9.88516 29.2808C9.88516 29.1187 9.88516 28.9895 9.88516 28.9166C9.88516 28.5998 11.0723 27.4983 11.0723 27.4983C11.1043 27.4865 11.1387 27.4828 11.1724 27.4874C11.3766 27.5245 11.5734 27.5946 11.7551 27.6949C12.4743 28.0445 13.4775 28.7382 13.5503 29.0022C13.6614 29.3864 13.6195 30.9085 13.5139 31.2508Z" fill="white" stroke="#263238" stroke-width="0.5" stroke-linecap="round" stroke-linejoin="round"/>
<path d="M11.1562 29.7906C11.1562 29.9181 11.1088 30.0218 11.056 30.0218C11.0032 30.0218 10.9504 29.9217 10.9504 29.7906C10.9504 29.6595 10.9978 29.5557 11.056 29.5557C11.1143 29.5557 11.1562 29.6631 11.1562 29.7906Z" fill="#263238"/>
<path d="M12.5126 29.5575C12.5708 29.5575 12.6182 29.6613 12.6182 29.7906C12.6182 29.9198 12.5708 30.0218 12.5126 30.0218C12.4543 30.0218 12.407 29.918 12.407 29.7906C12.407 29.6631 12.4543 29.5575 12.5126 29.5575Z" fill="#263238"/>
<path d="M10.4788 29.217C10.4788 29.217 10.6608 28.8529 11.3054 28.9639" stroke="#263238" stroke-width="0.5" stroke-linecap="round" stroke-linejoin="round"/>
<path d="M13.1115 29.217C13.1115 29.217 12.9295 28.8529 12.2849 28.9639" stroke="#263238" stroke-width="0.5" stroke-linecap="round" stroke-linejoin="round"/>
<path d="M11.9189 30.6809C11.9844 30.6768 12.0469 30.6518 12.097 30.6095C12.1472 30.5672 12.1824 30.5099 12.1975 30.446C12.1975 30.446 11.8443 29.8998 11.9517 29.3645" stroke="#263238" stroke-width="0.5" stroke-linecap="round" stroke-linejoin="round"/>
<path d="M9.71958 28.0754C9.57289 28.2744 9.46198 28.4975 9.39185 28.7345" stroke="white" stroke-width="0.5" stroke-linecap="round" stroke-linejoin="round"/>
<path d="M11.2417 26.6188C11.2417 26.6188 11.0396 26.9539 10.1492 27.6366C10.0918 27.6781 10.0371 27.7231 9.98535 27.7714" stroke="white" stroke-width="0.5" stroke-linecap="round" stroke-linejoin="round"/>
<path d="M8.38673 37.2939C8.26535 39.0248 8.14397 40.7569 8.02258 42.4903V42.3574" fill="#263238"/>
<path d="M8.38673 37.2939C8.26535 39.0248 8.14397 40.7569 8.02258 42.4903V42.3574" stroke="#263238" stroke-width="0.5" stroke-linecap="round" stroke-linejoin="round"/>
<path d="M19.8883 31.5786C20.0529 31.5143 20.2308 31.4913 20.4063 31.5116C20.5818 31.5319 20.7497 31.5949 20.8952 31.6951C21.1856 31.9007 21.3969 32.1995 21.4942 32.5417C21.6103 32.8826 21.5987 33.254 21.4615 33.5868C21.3905 33.7509 21.2763 33.8927 21.131 33.9969C20.9857 34.1011 20.8149 34.1639 20.6367 34.1786C20.3711 34.1752 20.1144 34.0822 19.9084 33.9146C19.2274 33.4048 18.8869 32.0101 19.8883 31.5786Z" fill="white" stroke="#263238" stroke-width="0.5" stroke-linecap="round" stroke-linejoin="round"/>
<path d="M21.396 25.7649C21.396 25.7867 21.396 25.9306 21.4087 25.9561C21.4724 26.2365 21.6072 26.9374 21.2667 27.0795C21.396 27.5401 21.7128 30.5498 21.6709 32.0847C21.66 32.5435 21.5799 33.0879 21.1684 33.2846C20.4747 33.6141 19.8156 32.8112 19.8938 32.183C20.0158 31.3254 19.974 30.4515 20.0759 29.5848C20.187 28.6854 20.3909 27.7641 20.167 26.8846C20.1123 26.8246 19.7627 26.1309 19.648 25.9397C19.5966 25.858 19.5562 25.7698 19.5279 25.6775C19.483 25.3633 19.4611 25.0463 19.4623 24.7289C19.5661 24.5322 19.7008 24.7143 19.7719 24.8436C19.8298 25.0012 19.8497 25.1702 19.8301 25.337C19.8234 25.3778 19.8291 25.4197 19.8465 25.4572C19.8618 25.4786 19.8825 25.4956 19.9064 25.5065C19.9304 25.5174 19.9569 25.5217 19.9831 25.5191C20.207 25.4863 20.1979 25.2988 20.1943 25.1549C20.1943 24.6724 20.1943 24.1899 20.1943 23.7111C20.1943 23.631 20.2198 23.4143 20.2962 23.407C20.3727 23.3997 20.4874 23.4616 20.4983 23.7184C20.5111 24.0079 20.5111 24.9 20.5111 24.9C20.5183 24.9074 20.5273 24.9127 20.5372 24.9156C20.547 24.9185 20.5575 24.9187 20.5675 24.9164C20.5857 24.9164 20.593 24.8836 20.6003 24.8654C20.7077 24.4175 20.817 23.9696 20.9244 23.5217C20.9371 23.4689 21.0154 23.3597 21.0719 23.3597C21.2066 23.3597 21.2102 23.5163 21.2175 23.5618C21.2649 23.8021 20.928 24.7926 20.8716 25.0184C20.8716 25.0584 20.8716 25.1185 20.9135 25.1076L21.4415 24.0425C21.4659 23.9802 21.5045 23.9245 21.5541 23.8797C21.6037 23.8348 21.663 23.802 21.7273 23.7839C21.7362 23.7811 21.7458 23.7811 21.7546 23.7839C21.7641 23.7894 21.7718 23.7977 21.7765 23.8076C21.8275 23.8986 21.7765 24.0243 21.7474 24.1244C21.7182 24.2245 21.3231 24.9601 21.1829 25.2569C21.1629 25.2988 21.1301 25.3935 21.1702 25.439C21.2102 25.4845 21.2831 25.3971 21.3122 25.337C21.4014 25.1549 21.4852 24.9838 21.5671 24.8054C21.5926 24.7525 21.6308 24.6779 21.6909 24.6906C22.046 24.7671 21.5416 25.5118 21.396 25.7649Z" fill="white" stroke="#263238" stroke-width="0.5" stroke-linecap="round" stroke-linejoin="round"/>
<path d="M20.4164 25.6083C20.5997 25.7535 20.7588 25.9268 20.888 26.1218C20.9516 26.2198 20.9942 26.33 21.013 26.4453C21.0318 26.5607 21.0264 26.6787 20.9972 26.7918C20.9884 26.8214 20.9768 26.85 20.9626 26.8774" fill="white"/>
<path d="M20.4164 25.6083C20.5997 25.7535 20.7588 25.9268 20.888 26.1218C20.9516 26.2198 20.9942 26.33 21.013 26.4453C21.0318 26.5607 21.0264 26.6787 20.9972 26.7918C20.9884 26.8214 20.9768 26.85 20.9626 26.8774" stroke="#263238" stroke-width="0.5" stroke-linecap="round" stroke-linejoin="round"/>
<path d="M15.2874 36.9825C15.48 37.3711 15.6097 37.7878 15.6715 38.217C15.7243 38.6467 15.7407 38.9835 15.4476 40.1907" stroke="#263238" stroke-width="0.5" stroke-linecap="round" stroke-linejoin="round"/>
<path d="M11.1779 27.2251C11.1529 27.2996 11.1467 27.379 11.1597 27.4564C11.1942 27.5538 11.2577 27.6383 11.3417 27.6985C11.9237 28.2085 12.5746 28.6339 13.2754 28.9621C13.3633 28.985 13.4394 29.0399 13.489 29.116C13.5385 29.1921 13.5578 29.284 13.543 29.3736V30.781C13.552 30.9262 13.5378 31.0718 13.5011 31.2126C13.3992 31.5403 13.1734 31.8043 13.0095 32.1066C12.843 32.3931 12.7585 32.7201 12.7656 33.0515C12.72 32.7038 13.9363 32.0301 14.2659 30.6609C14.3114 30.4679 15.2582 29.319 14.6901 27.9698C14.1439 26.6753 13.2845 26.1181 12.995 26.0507C12.7985 25.9933 12.5911 25.9835 12.39 26.0221C12.189 26.0607 12 26.1467 11.8388 26.2729C11.5206 26.5098 11.2886 26.8442 11.1779 27.2251Z" fill="#263238" stroke="#263238" stroke-width="0.5" stroke-linecap="round" stroke-linejoin="round"/>
<path d="M12.3705 31.1707C12.2667 31.1925 12.1611 31.2126 12.0555 31.2253C11.6914 31.2708 11.3018 31.2144 11.0632 30.9485C11.0814 31.1871 11.2453 32.0883 11.7351 32.1138C12.2249 32.1393 12.3705 31.1707 12.3705 31.1707Z" stroke="#263238" stroke-width="0.5" stroke-linecap="round" stroke-linejoin="round"/>
<path d="M11.8971 26.6753C12.1071 27.152 12.4417 27.5634 12.8657 27.8661C13.1734 28.0864 13.5248 28.2448 13.8071 28.496C14.1712 28.8292 14.4097 29.3573 14.2695 29.8361" stroke="white" stroke-width="0.5" stroke-linecap="round" stroke-linejoin="round"/>
<path d="M15.7025 34.0311C15.3517 34.3126 15.1207 34.7166 15.0561 35.1617C14.9934 35.5464 15.0407 35.9409 15.1927 36.2997" stroke="#263238" stroke-width="0.5" stroke-linecap="round" stroke-linejoin="round"/>
<path d="M8.92023 37.0353C8.8911 37.5124 8.59432 37.9257 8.30664 38.3099L8.92023 37.0353Z" fill="#263238"/>
<path d="M8.92023 37.0353C8.8911 37.5124 8.59432 37.9257 8.30664 38.3099" stroke="#263238" stroke-width="0.5" stroke-linecap="round" stroke-linejoin="round"/>
<path d="M8.21021 40.6823C8.35482 40.9244 8.54838 41.1336 8.77851 41.2967C9.00863 41.4597 9.27025 41.5729 9.54663 41.629" stroke="#263238" stroke-width="0.5" stroke-linecap="round" stroke-linejoin="round"/>
<path d="M15.1763 40.9663C15.1763 40.9663 14.6865 41.6946 13.0223 41.8476" stroke="#263238" stroke-width="0.5" stroke-linecap="round" stroke-linejoin="round"/>
<path d="M63.9269 34.5846C63.9269 34.5846 57.5816 36.551 56.3872 34.9979L56.5493 27.0759H57.5124L58.6449 32.6565L63.845 31.7042C63.845 31.7042 64.5114 33.7689 63.9269 34.5846Z" fill="white"/>
<mask id="mask0_444_19190" style="mask-type:luminance" maskUnits="userSpaceOnUse" x="56" y="27" width="9" height="9">
<path d="M63.9269 34.5846C63.9269 34.5846 57.5816 36.551 56.3872 34.9979L56.5493 27.0759H57.5124L58.6449 32.6565L63.845 31.7042C63.845 31.7042 64.5114 33.7689 63.9269 34.5846Z" fill="white"/>
</mask>
<g mask="url(#mask0_444_19190)">
<path d="M61.254 34.8614C60.8902 35.006 60.5429 35.1891 60.218 35.4076C60.6477 35.5442 61.1065 35.3712 61.5362 35.2346C62.1037 35.0604 62.6822 34.9241 63.2678 34.8268C63.2951 34.6647 63.0857 34.2951 63.0038 34.1513C62.8545 33.9 62.8217 33.8782 62.5704 34.002C62.1134 34.2314 61.7238 34.6301 61.254 34.8614Z" fill="#5D5757"/>
</g>
<path d="M63.9269 34.5846C63.9269 34.5846 57.5816 36.551 56.3872 34.9979L56.5493 27.0759H57.5124L58.6449 32.6565L63.845 31.7042C63.845 31.7042 64.5114 33.7689 63.9269 34.5846Z" stroke="#263238" stroke-width="0.5" stroke-linecap="round" stroke-linejoin="round"/>
<path d="M63.3042 34.7922L64.4185 41.6528C64.3894 46.099 66.5106 45.4308 67.9835 45.4181C69.6859 45.4035 72.2696 43.7157 71.0023 41.0883L71.4903 31.5786L68.5243 31.3528C67.5466 31.2763 63.5409 31.402 63.2223 31.9136C62.3957 33.2409 63.3042 34.7922 63.3042 34.7922Z" fill="white"/>
<mask id="mask1_444_19190" style="mask-type:luminance" maskUnits="userSpaceOnUse" x="62" y="31" width="10" height="15">
<path d="M63.3042 34.7922L64.4185 41.6528C64.3894 46.099 66.5106 45.4308 67.9835 45.4181C69.6859 45.4035 72.2696 43.7157 71.0023 41.0883L71.4903 31.5786L68.5243 31.3528C67.5466 31.2763 63.5409 31.402 63.2223 31.9136C62.3957 33.2409 63.3042 34.7922 63.3042 34.7922Z" fill="white"/>
</mask>
<g mask="url(#mask1_444_19190)">
<path d="M63.4791 35.3585C64.1409 37.8619 65.728 40.021 67.92 41.3997C67.6826 41.3622 67.4509 41.2955 67.2299 41.2012C67.0076 41.1055 66.7585 41.0919 66.5271 41.163C66.4712 41.1831 66.4198 41.2141 66.376 41.2541C66.3321 41.2941 66.2965 41.3424 66.2713 41.3962C66.2461 41.45 66.2318 41.5082 66.2291 41.5676C66.2264 41.6269 66.2355 41.6862 66.2558 41.742C66.3089 41.8273 66.3812 41.899 66.467 41.9514C66.8285 42.2055 67.2238 42.4077 67.6414 42.5522C67.2751 42.5147 66.9051 42.543 66.5489 42.636C66.4834 42.9528 66.8366 43.1822 67.1152 43.337C67.5596 43.599 67.9403 43.9566 68.2295 44.3839C67.2518 44.386 66.275 44.4419 65.3035 44.5514C65.1754 44.5801 65.0415 44.5674 64.9212 44.515C64.7951 44.4212 64.7103 44.2822 64.6845 44.1272C64.468 43.3697 64.3421 42.5892 64.3094 41.8021C64.2912 41.3596 64.3094 40.9136 64.2511 40.4748C64.2042 40.1288 64.1398 39.7855 64.0581 39.446C63.7753 38.1327 63.5587 36.809 63.4081 35.475C63.3408 35.4804 63.4791 35.3585 63.4791 35.3585Z" fill="#5D5757"/>
<path d="M71.0007 34.8122C70.755 34.7334 70.5261 34.6099 70.3252 34.4481C70.3816 34.7212 70.7895 35.1927 71.028 35.3384C71.0772 35.3694 71.1482 35.3948 71.1919 35.353C71.2356 35.3111 71.2647 35.2037 71.3084 35.1709L71.0007 34.8122Z" fill="#5D5757"/>
</g>
<path d="M63.3042 34.7922L64.4185 41.6528C64.3894 46.099 66.5106 45.4308 67.9835 45.4181C69.6859 45.4035 72.2696 43.7157 71.0023 41.0883L71.4903 31.5786L68.5243 31.3528C67.5466 31.2763 63.5409 31.402 63.2223 31.9136C62.3957 33.2409 63.3042 34.7922 63.3042 34.7922Z" stroke="#263238" stroke-width="0.5" stroke-linecap="round" stroke-linejoin="round"/>
<path d="M65.4726 31.2126C65.1535 31.7969 64.9999 32.4573 65.0284 33.1226C65.028 33.1806 65.0391 33.2382 65.0612 33.2919C65.1431 33.4539 65.367 33.4539 65.5473 33.474C66.2483 33.5632 66.6834 34.3024 67.3444 34.55C67.3675 34.5643 67.3933 34.5738 67.4203 34.5778C67.4472 34.5819 67.4746 34.5805 67.501 34.5737C67.5273 34.5669 67.5521 34.5549 67.5736 34.5383C67.5952 34.5217 67.6132 34.5009 67.6266 34.4772C67.9143 34.113 68.0162 33.6014 68.4095 33.3665C68.5807 33.2646 68.7973 33.2227 68.9157 33.0625C69.0504 32.8804 68.9903 32.6182 68.9248 32.3961C68.8174 32.0319 68.6972 31.6532 68.4186 31.4001C68.1218 31.1685 67.7572 31.0405 67.3808 31.036C66.8298 30.9909 66.2752 31.0427 65.7421 31.1889C65.7494 31.2581 65.4726 31.2126 65.4726 31.2126Z" fill="#5D5757" stroke="#263238" stroke-width="0.5" stroke-linecap="round" stroke-linejoin="round"/>
<path d="M74.285 35.8683C73.84 35.2203 73.5122 34.4993 73.3164 33.738C73.2451 33.3566 73.134 32.9837 72.985 32.6255C72.8445 32.3488 72.6415 32.1085 72.3922 31.9237C72.1429 31.7388 71.8541 31.6145 71.5485 31.5604C71.4181 31.5317 71.2824 31.5379 71.1552 31.5786C70.8912 31.6787 70.7746 31.9828 70.7218 32.2595C70.6076 32.854 70.6413 33.4674 70.8202 34.0457C70.9422 34.439 72.4079 37.2903 73.3692 38.3955C73.2855 37.8383 73.9264 35.9757 74.285 35.8683Z" fill="white"/>
<mask id="mask2_444_19190" style="mask-type:luminance" maskUnits="userSpaceOnUse" x="70" y="31" width="5" height="8">
<path d="M74.285 35.8683C73.84 35.2203 73.5122 34.4993 73.3164 33.738C73.2451 33.3566 73.134 32.9837 72.985 32.6255C72.8445 32.3488 72.6415 32.1085 72.3922 31.9237C72.1429 31.7388 71.8541 31.6145 71.5485 31.5604C71.4181 31.5317 71.2824 31.5379 71.1552 31.5786C70.8912 31.6787 70.7746 31.9828 70.7218 32.2595C70.6076 32.854 70.6413 33.4674 70.8202 34.0457C70.9422 34.439 72.4079 37.2903 73.3692 38.3955C73.2855 37.8383 73.9264 35.9757 74.285 35.8683Z" fill="white"/>
</mask>
<g mask="url(#mask2_444_19190)">
<path d="M71.4101 35.3093L72.3095 37.0044C72.4388 37.2466 72.5844 37.5051 72.8357 37.6107C72.6776 37.0507 72.5877 36.4736 72.5681 35.8919C72.5779 35.5997 72.5442 35.3076 72.4679 35.0253C72.4315 35.0562 72.3933 34.9251 72.3933 34.9251C72.3532 34.9998 72.2476 35.0016 72.1657 34.9852C71.5776 34.8614 71.1734 34.337 70.8238 33.8491C70.7783 34.0125 70.7711 34.1843 70.8026 34.351C70.8342 34.5177 70.9037 34.6749 71.0058 34.8104C71.0058 34.8104 71.3809 35.2529 71.4101 35.3093Z" fill="#5D5757"/>
</g>
<path d="M74.285 35.8683C73.84 35.2203 73.5122 34.4993 73.3164 33.738C73.2451 33.3566 73.134 32.9837 72.985 32.6255C72.8445 32.3488 72.6415 32.1085 72.3922 31.9237C72.1429 31.7388 71.8541 31.6145 71.5485 31.5604C71.4181 31.5317 71.2824 31.5379 71.1552 31.5786C70.8912 31.6787 70.7746 31.9828 70.7218 32.2595C70.6076 32.854 70.6413 33.4674 70.8202 34.0457C70.9422 34.439 72.4079 37.2903 73.3692 38.3955C73.2855 37.8383 73.9264 35.9757 74.285 35.8683Z" stroke="#263238" stroke-width="0.5" stroke-linecap="round" stroke-linejoin="round"/>
<path d="M73.0215 37.9075C72.042 36.0303 72.5154 31.7042 72.4862 31.0086L73.779 30.9395C73.9082 30.9395 74.5073 34.6283 74.9151 36.1595C75.2793 37.5542 74.9297 38.9653 74.2851 38.9653C73.7498 38.9653 73.2273 38.3026 73.0215 37.9075Z" fill="white" stroke="#263238" stroke-width="0.5" stroke-linecap="round" stroke-linejoin="round"/>
<path d="M61.3488 33.0333C62.2591 31.7042 64.0453 31.5986 64.0453 31.5986" stroke="#263238" stroke-width="0.5" stroke-linecap="round" stroke-linejoin="round"/>
<path d="M57.8364 33.778C58.1118 33.5251 58.3276 33.2141 58.4682 32.8677L57.8364 33.778Z" fill="white"/>
<path d="M57.8364 33.778C58.1118 33.5251 58.3276 33.2141 58.4682 32.8677" stroke="#263238" stroke-width="0.5" stroke-linecap="round" stroke-linejoin="round"/>
<path d="M64.6005 40.0596C65.1194 40.9099 68.4805 41.8185 69.8205 41.6237" stroke="#263238" stroke-width="0.5" stroke-linecap="round" stroke-linejoin="round"/>
<path d="M65.5509 42.4593C66.5191 42.6259 67.5114 42.5881 68.4641 42.3483" stroke="#263238" stroke-width="0.5" stroke-linecap="round" stroke-linejoin="round"/>
<path d="M70.01 34.2095L70.6509 35.078C70.7383 35.1964 70.8603 35.3293 71.0041 35.2965" stroke="#263238" stroke-width="0.5" stroke-linecap="round" stroke-linejoin="round"/>
<path d="M74.773 67.1541C74.7166 67.3854 74.6984 67.6603 74.8641 67.8333C75.0297 68.0063 75.2701 68.0026 75.494 67.999L76.2642 67.9844C76.5612 67.9992 76.8581 67.9527 77.1363 67.8479C77.2755 67.7938 77.3947 67.6982 77.4777 67.5741C77.5608 67.45 77.6037 67.3034 77.6006 67.1541C77.5817 67.0387 77.5448 66.9269 77.4914 66.8228C77.4222 66.6735 77.353 66.5223 77.2857 66.373C76.4354 64.4995 75.1372 65.6393 74.773 67.1541Z" fill="white" stroke="#263238" stroke-width="0.5" stroke-linecap="round" stroke-linejoin="round"/>
<path d="M73.6879 64.9456C73.7148 65.8055 73.6427 66.6657 73.473 67.5092C73.433 67.7003 73.473 67.9898 73.6551 67.9716C73.7265 67.9607 73.7914 67.9237 73.8372 67.8678C74.5064 67.2078 74.9851 66.3793 75.2228 65.4699C75.2585 65.3755 75.2752 65.2748 75.2717 65.1739C75.2683 65.0729 75.2449 64.9736 75.2027 64.8818C75.1528 64.8081 75.0914 64.7429 75.0207 64.6888C74.4034 64.1954 73.6314 63.7056 73.6879 64.9456Z" fill="white" stroke="#263238" stroke-width="0.5" stroke-linecap="round" stroke-linejoin="round"/>
<path d="M71.574 42.9382C71.574 42.9382 72.5335 44.606 72.7393 44.9939C72.945 45.3817 77.2912 51.0934 78.1251 55.2519C78.2816 56.0421 75.0753 64.8801 75.0753 64.8801L74.347 64.4686C74.347 64.4686 74.8532 56.4081 74.7294 55.7381C74.6056 55.068 71.4065 50.1229 71.4065 50.1229C71.4065 50.1229 69.6203 48.8101 68.8848 47.2844L71.574 42.9382Z" fill="#263238"/>
<path d="M71.6777 47.1168C71.6777 47.1168 71.1315 48.3331 71.1315 48.5079C71.1315 48.6827 74.1357 58.176 75.0188 60.3719C75.5772 61.786 76.0694 63.2329 76.4954 64.7125C76.4954 64.7125 76.8377 65.1622 76.5792 65.6229C76.3206 66.0835 75.2919 66.3858 75.0807 65.9743C74.8695 65.5628 72.7884 63.4253 71.9108 61.2986C71.0332 59.172 69.7987 55.6179 69.0959 54.2942C68.1754 52.6028 67.3582 50.8571 66.6488 49.0668C65.7658 46.8073 64.8627 44.3711 64.8627 44.3711C65.2295 44.4042 65.598 44.4145 65.966 44.4021C66.8328 44.3725 67.691 44.2205 68.5151 43.9505C70.4342 43.306 71.2644 42.0715 71.2644 42.0715C71.2644 42.0715 71.7396 43.3588 71.8634 43.6082L71.6777 47.1168Z" fill="#263238"/>
<path d="M77.8046 56.0658C77.6166 56.388 77.3636 56.6676 77.0618 56.8869" stroke="white" stroke-width="0.5" stroke-linecap="round" stroke-linejoin="round"/>
<path d="M78.0395 55.5359C78.0121 55.6247 77.9793 55.7116 77.9412 55.7963" stroke="white" stroke-width="0.5" stroke-linecap="round" stroke-linejoin="round"/>
<path d="M69.9426 44.2801C70.4269 45.114 70.8803 46.3139 70.8075 47.2752C70.7684 47.4498 70.7073 47.6187 70.6254 47.7777" stroke="white" stroke-width="0.5" stroke-linecap="round" stroke-linejoin="round"/>
<path d="M67.0112 45.2068C67.064 45.6711 67.135 46.4431 67.033 46.8983C66.9469 47.3639 66.6798 47.7763 66.2902 48.0454" stroke="white" stroke-width="0.5" stroke-linecap="round" stroke-linejoin="round"/>
<path d="M71.1406 43.4498C71.2464 43.5816 71.3323 43.7283 71.3955 43.885C71.5188 44.1101 71.6883 44.3066 71.8929 44.4616C72.0975 44.6167 72.3326 44.7267 72.5827 44.7844" stroke="white" stroke-width="0.5" stroke-linecap="round" stroke-linejoin="round"/>
<path d="M69.5948 45.3106C70.2376 46.7162 70.7292 48.1255 71.7269 50.5143" stroke="white" stroke-width="0.5" stroke-linecap="round" stroke-linejoin="round"/>
<path d="M69.2526 44.5914C69.3072 44.7007 69.36 44.8099 69.4128 44.9192" stroke="white" stroke-width="0.5" stroke-linecap="round" stroke-linejoin="round"/>
<path d="M74.6019 55.3448C74.8965 55.9125 75.2712 56.4349 75.7144 56.8961" stroke="white" stroke-width="0.5" stroke-linecap="round" stroke-linejoin="round"/>
<path d="M74.906 55.8691C75.0989 56.76 75.4511 57.6088 75.9457 58.3745" stroke="white" stroke-width="0.5" stroke-linecap="round" stroke-linejoin="round"/>
<path d="M70.3795 55.9146C68.9611 52.8886 67.4481 49.8861 65.5891 45.3106" stroke="white" stroke-width="0.5" stroke-linecap="round" stroke-linejoin="round"/>
<path d="M70.7001 56.7941C70.6655 56.6885 70.6291 56.5829 70.5908 56.4755" stroke="white" stroke-width="0.5" stroke-linecap="round" stroke-linejoin="round"/>
<path d="M75.6034 66.0981C75.2392 65.6229 72.5846 61.9104 71.9255 60.228C71.4867 59.1064 71.1553 58.3144 70.833 57.1965" stroke="white" stroke-width="0.5" stroke-linecap="round" stroke-linejoin="round"/>
<path d="M74.6019 58.9535L75.8637 62.6624" stroke="white" stroke-width="0.5" stroke-linecap="round" stroke-linejoin="round"/>
<path d="M73.7516 30.9413L73.3692 30.9722C72.8847 31.0583 72.3871 31.0353 71.9126 30.9049C71.6086 30.8302 70.9039 30.6117 70.8202 30.5972C70.6109 30.5524 70.3994 30.5184 70.1866 30.4952C69.5438 30.457 69.8698 30.2166 70.1374 30.2275C70.4906 30.2439 70.609 30.2366 70.8803 30.2567C70.8475 30.2385 70.7474 30.2184 70.7455 30.1401C70.7455 29.949 70.9968 29.9581 70.9968 29.9581C70.9968 29.9581 70.7219 29.8415 70.7601 29.6977C70.7983 29.5539 70.9822 29.5156 71.0988 29.5266C71.0988 29.5266 70.944 29.4519 70.9513 29.3718C70.9841 29.0623 71.6195 29.0404 71.6195 29.0404C71.4658 28.9717 71.3219 28.883 71.1916 28.7764C71.1441 28.7252 71.1108 28.6624 71.0951 28.5943C71.0917 28.5619 71.0971 28.5291 71.1107 28.4995C71.1242 28.4698 71.1455 28.4443 71.1723 28.4257C71.1991 28.4071 71.2304 28.396 71.263 28.3937C71.2955 28.3913 71.3281 28.3977 71.3573 28.4123C71.5217 28.5217 71.6803 28.6396 71.8325 28.7655C72.0292 28.9057 72.2568 28.9949 72.4643 29.1205C72.6666 29.2937 72.8298 29.5078 72.9432 29.7487C72.976 29.7997 73.7516 30.9413 73.7516 30.9413Z" fill="white" stroke="#263238" stroke-width="0.5" stroke-linecap="round" stroke-linejoin="round"/>
<path d="M56.5492 27.0759V26.0726C56.5469 25.5692 56.6206 25.0683 56.7677 24.5869C56.8515 24.3211 56.9498 24.0898 57.039 24.0552C57.2047 23.9952 57.2775 24.667 57.2775 24.667C57.153 24.1283 57.0732 23.5802 57.039 23.0283C57.039 22.4439 57.8256 24.8709 57.8256 24.8709L57.5124 27.0759H56.5492Z" fill="white" stroke="#263238" stroke-width="0.5" stroke-linecap="round" stroke-linejoin="round"/>
<path d="M57.4996 25.4445C57.5948 25.3711 57.6658 25.2709 57.7036 25.1568L57.4996 25.4445Z" fill="white"/>
<path d="M57.4996 25.4445C57.5948 25.3711 57.6658 25.2709 57.7036 25.1568" stroke="#263238" stroke-width="0.5" stroke-linecap="round" stroke-linejoin="round"/>
<path d="M65.125 29.1679C65.4651 29.7404 65.6531 30.3904 65.6712 31.056C65.704 32.163 66.9858 33.7125 67.3518 33.7871C67.7177 33.8618 68.0564 32.0392 68.04 31.4875C68.0236 30.9358 67.8197 29.4119 67.8197 29.4119C67.8197 29.4119 66.0663 28.0864 65.125 29.1679Z" fill="white" stroke="#263238" stroke-width="0.5" stroke-linecap="round" stroke-linejoin="round"/>
<path d="M65.6401 30.6336C65.6401 30.6336 67.3207 32.9259 67.9798 30.5954C68.6389 28.2648 66.1317 31.2326 65.6401 30.6336Z" fill="#263238"/>
<path d="M68.4768 28.9858C68.3876 30.3459 67.7667 31.1106 67.0512 31.2454C66.3975 31.3655 65.4417 30.6991 64.9646 29.7105C64.9282 29.6868 64.3474 29.2844 64.209 29.1861C64.1367 29.1355 64.0778 29.0682 64.0372 28.9899C63.9966 28.9116 63.9756 28.8246 63.976 28.7364C63.9806 28.6517 64.0105 28.5704 64.0617 28.5029C64.113 28.4354 64.1833 28.3848 64.2636 28.3577H64.28C64.362 28.3398 64.4474 28.3461 64.5258 28.3759C64.4057 27.9116 64.3073 27.44 64.2327 26.9648C64.2673 25.8723 64.6296 24.9802 65.7949 24.8928C66.9602 24.8054 67.9343 25.4572 67.9798 25.927C68.0126 26.2911 68.1309 27.2543 68.2365 28.2502C68.2656 28.5088 68.4969 28.6799 68.4768 28.9858Z" fill="white" stroke="#263238" stroke-width="0.5" stroke-linecap="round" stroke-linejoin="round"/>
<path d="M67.9798 27.4127C67.9798 27.4127 67.2297 27.0686 67.3571 28.1865C67.3826 28.4068 67.7923 28.7327 67.7923 28.7327C67.7923 28.7327 67.6867 29.0623 67.4918 29.0623" fill="white"/>
<path d="M67.9798 27.4127C67.9798 27.4127 67.2297 27.0686 67.3571 28.1865C67.3826 28.4068 67.7923 28.7327 67.7923 28.7327C67.7923 28.7327 67.6867 29.0623 67.4918 29.0623" stroke="#263238" stroke-width="0.5" stroke-linecap="round" stroke-linejoin="round"/>
<path d="M66.5305 27.795C66.5305 27.795 66.1481 27.562 65.8859 27.7058C65.7492 27.7653 65.6327 27.8634 65.5509 27.988" fill="white"/>
<path d="M66.5305 27.795C66.5305 27.795 66.1481 27.562 65.8859 27.7058C65.7492 27.7653 65.6327 27.8634 65.5509 27.988" stroke="#263238" stroke-width="0.5" stroke-linecap="round" stroke-linejoin="round"/>
<path d="M66.312 28.4396C66.3411 28.5743 66.312 28.6945 66.2337 28.7109C66.1554 28.7273 66.079 28.629 66.0517 28.4942C66.0243 28.3595 66.0517 28.2393 66.1318 28.2229C66.2119 28.2066 66.2847 28.3031 66.312 28.4396Z" fill="#263238"/>
<path d="M67.7904 28.0463C67.8196 28.1811 67.7904 28.3012 67.7121 28.3176C67.6339 28.334 67.5574 28.2357 67.5301 28.1028C67.5028 27.9698 67.5301 27.846 67.6084 27.8315C67.6867 27.8169 67.7631 27.9134 67.7904 28.0463Z" fill="#263238"/>
<path d="M64.1454 25.5537C64.0122 25.6842 63.9199 25.8506 63.8796 26.0326C63.7705 26.4176 63.739 26.8204 63.7868 27.2176C63.8346 27.6149 63.9608 27.9987 64.1581 28.3468C64.2795 28.3319 64.4025 28.3368 64.5223 28.3613C64.6497 28.3941 64.8136 28.6126 64.8737 28.7255C64.9264 28.8458 64.9566 28.9748 64.9629 29.106C64.9338 28.7601 64.9065 28.416 64.8773 28.07C64.8578 27.9317 64.864 27.791 64.8955 27.6549C64.9848 27.3708 64.8864 26.7008 64.9119 26.1018C65.6675 27.0249 66.7655 26.861 67.1296 26.8301C67.6758 26.7846 68.1419 26.2256 68.1128 25.8269C68.0837 25.4281 67.9762 24.4012 66.1755 24.2956C65.7788 24.2534 65.3789 24.3368 65.0321 24.5341C64.9222 24.6065 64.8288 24.7014 64.7582 24.8125C64.6876 24.9236 64.6413 25.0484 64.6224 25.1787C64.5969 25.3462 64.6607 25.3607 64.5332 25.4427C64.4058 25.5246 64.271 25.4463 64.1454 25.5537Z" fill="#263238" stroke="#263238" stroke-width="0.5" stroke-linecap="round" stroke-linejoin="round"/>
<path d="M66.5305 29.7032C66.5305 29.7032 66.7982 29.9981 67.3571 29.8033L66.5305 29.7032Z" fill="white"/>
<path d="M66.5305 29.7032C66.5305 29.7032 66.7982 29.9981 67.3571 29.8033" stroke="#263238" stroke-width="0.5" stroke-linecap="round" stroke-linejoin="round"/>
</svg>
