<svg width="56" height="57" viewBox="0 0 56 57" fill="none" xmlns="http://www.w3.org/2000/svg">
<g clip-path="url(#clip0_604_6325)">
<rect y="0.5" width="56" height="56" rx="28" fill="white"/>
<path d="M47.1747 52.6069C47.1584 52.607 47.1427 52.6008 47.1308 52.5898C47.1189 52.5788 47.1116 52.5636 47.1104 52.5474C47.0112 51.1549 47.2701 49.7601 47.8626 48.4959C48.4551 47.2318 49.3614 46.1404 50.4952 45.3258C50.5091 45.3158 50.5263 45.3118 50.5432 45.3146C50.56 45.3174 50.5751 45.3267 50.585 45.3406C50.595 45.3545 50.599 45.3718 50.5962 45.3886C50.5934 45.4055 50.584 45.4205 50.5701 45.4305C49.4542 46.2321 48.5622 47.3062 47.979 48.5504C47.3959 49.7946 47.1411 51.1673 47.2389 52.5379C47.2395 52.5463 47.2385 52.5548 47.2359 52.5629C47.2332 52.5709 47.229 52.5784 47.2235 52.5848C47.218 52.5912 47.2112 52.5964 47.2037 52.6002C47.1961 52.604 47.1879 52.6063 47.1794 52.6069H47.1747Z" fill="#263238"/>
<path d="M48.5154 50.1954C47.7635 49.9574 47.1912 51.0972 47.2162 51.1186C47.1972 51.2519 47.1817 51.3875 47.171 51.5231C47.2472 51.3589 47.6279 51.1269 48.2132 51.0258C48.7902 50.9056 49.24 50.3917 48.5154 50.1954Z" fill="#263238"/>
<path d="M46.3145 49.6207C45.5685 49.4173 45.6804 50.4773 46.2312 50.7664C46.7618 51.0674 47.0985 51.353 47.1592 51.5219C47.1592 51.3863 47.1675 51.2495 47.1771 51.1138C47.1473 51.1222 47.0141 49.8384 46.3145 49.6207Z" fill="#263238"/>
<path d="M48.9094 49.0937C48.2062 48.7367 47.4555 49.748 47.4757 49.7718C47.4353 49.8991 47.3984 50.0276 47.3639 50.1573C47.4662 50.011 47.8802 49.8515 48.4739 49.8539C49.0581 49.8349 49.5875 49.4149 48.9094 49.0937Z" fill="#263238"/>
<path d="M46.8321 48.1573C46.1313 47.8325 46.0659 48.8878 46.5608 49.2614C47.0367 49.6457 47.3175 49.9752 47.3496 50.1549C47.3746 50.0228 47.4031 49.8919 47.4341 49.7622C47.4043 49.7718 47.4817 48.4916 46.8321 48.1573Z" fill="#263238"/>
<path d="M49.4708 48.0776C48.8379 47.61 47.9242 48.4761 47.9468 48.5023C47.8861 48.6213 47.8278 48.7403 47.7731 48.8592C47.8992 48.7331 48.3334 48.6475 48.9164 48.7498C49.5041 48.8331 50.0907 48.5023 49.4708 48.0776Z" fill="#263238"/>
<path d="M47.5839 46.8082C46.9474 46.3704 46.7082 47.403 47.1341 47.848C47.5363 48.3037 47.7599 48.6808 47.7623 48.8557C47.8099 48.7367 47.8587 48.6082 47.9122 48.4857C47.8813 48.4857 48.1716 47.2472 47.5839 46.8082Z" fill="#263238"/>
<path d="M50.2001 47.1686C49.654 46.6023 48.613 47.3066 48.6248 47.334C48.5463 47.4399 48.469 47.5482 48.394 47.6576C48.5392 47.5553 48.9818 47.5386 49.5398 47.7421C50.0989 47.9194 50.739 47.6921 50.2001 47.1686Z" fill="#263238"/>
<path d="M48.5525 45.6005C47.9969 45.0628 47.5876 46.0372 47.9327 46.5523C48.2539 47.0699 48.4086 47.4779 48.3848 47.6516C48.4514 47.5327 48.5216 47.4232 48.5942 47.3126C48.5632 47.3078 49.057 46.1324 48.5525 45.6005Z" fill="#263238"/>
<path d="M51.0794 46.3894C50.6356 45.7398 49.4827 46.2644 49.4911 46.2942C49.3947 46.3858 49.3007 46.4786 49.2091 46.575C49.3685 46.4976 49.804 46.5595 50.3251 46.8474C50.8474 47.1163 51.5267 46.9961 51.0794 46.3894Z" fill="#263238"/>
<path d="M49.7206 44.5655C49.2625 43.9421 48.6867 44.8391 48.9413 45.4054C49.1685 45.9705 49.2566 46.4 49.2007 46.5678C49.2851 46.4655 49.3732 46.3644 49.4636 46.2668C49.4327 46.2573 50.1263 45.1758 49.7206 44.5655Z" fill="#263238"/>
<path d="M50.0454 45.7505C50.024 45.7505 50.6641 44.7904 51.2007 44.4608C51.7372 44.1312 52.0965 44.4299 52.0989 44.6987C52.1013 44.9676 51.7361 45.1925 51.3922 45.3103C51.0508 45.4007 50.0431 45.7267 50.0454 45.7505Z" fill="#263238"/>
<path d="M50.0454 45.7933H50.0394C50.0305 45.7921 50.0221 45.7881 50.0155 45.7819C50.0089 45.7757 50.0044 45.7677 50.0025 45.7588C50.0008 45.753 50.001 45.7468 50.0029 45.7411C50.0048 45.7354 50.0084 45.7303 50.0132 45.7267C50.0989 45.5316 50.7176 44.7119 51.178 44.4275C51.4338 44.2598 51.6967 44.2264 51.899 44.3347C51.9676 44.3698 52.0257 44.4224 52.0675 44.4872C52.1093 44.5519 52.1332 44.6266 52.1369 44.7035C52.1464 45.0712 51.5765 45.2984 51.4017 45.3555C51.0626 45.4424 50.1512 45.7445 50.0692 45.7862C50.0621 45.7909 50.0538 45.7934 50.0454 45.7933ZM51.6396 44.3538C51.4902 44.3594 51.3457 44.4091 51.2244 44.4965C50.8008 44.7571 50.319 45.4055 50.1536 45.6601C50.2381 45.6291 50.3713 45.5851 50.5796 45.5161C50.8472 45.4281 51.2006 45.3174 51.3874 45.2698C51.7157 45.1509 52.0667 44.9474 52.0608 44.7012C52.0565 44.639 52.036 44.5791 52.0013 44.5273C51.9667 44.4756 51.9191 44.4338 51.8633 44.4061C51.796 44.3713 51.7213 44.3533 51.6456 44.3538H51.6396Z" fill="#263238"/>
<path d="M8.45844 52.6069C8.47457 52.6069 8.49009 52.6008 8.50181 52.5897C8.51354 52.5787 8.52059 52.5635 8.5215 52.5474C8.6212 51.1549 8.36257 49.7601 7.77026 48.4959C7.17795 47.2317 6.27169 46.1403 5.1379 45.3258C5.13098 45.3208 5.12313 45.3172 5.11481 45.3153C5.10649 45.3133 5.09787 45.3131 5.08945 45.3145C5.08103 45.316 5.07298 45.3191 5.06578 45.3236C5.05857 45.3282 5.05235 45.3342 5.04748 45.3412C5.04251 45.3481 5.03896 45.3558 5.03705 45.364C5.03513 45.3723 5.03488 45.3808 5.03633 45.3891C5.03777 45.3975 5.04087 45.4054 5.04544 45.4125C5.05002 45.4196 5.05597 45.4257 5.06295 45.4305C6.17872 46.2323 7.07063 47.3064 7.65375 48.5506C8.23687 49.7947 8.49178 51.1674 8.3942 52.5379C8.39338 52.5463 8.39425 52.5548 8.39676 52.5628C8.39927 52.5708 8.40336 52.5783 8.40879 52.5847C8.41422 52.5912 8.42089 52.5964 8.4284 52.6002C8.4359 52.6041 8.4441 52.6063 8.45249 52.6069H8.45844Z" fill="#263238"/>
<path d="M7.11976 50.1954C7.87286 49.9574 8.44512 51.0972 8.42014 51.1186C8.43798 51.2519 8.45345 51.3875 8.46534 51.5231C8.38801 51.3589 8.0073 51.1269 7.42314 51.0258C6.84612 50.9056 6.39521 50.3917 7.11976 50.1954Z" fill="#263238"/>
<path d="M9.32093 49.6207C10.0669 49.4173 9.95625 50.4773 9.40421 50.7664C8.87359 51.0674 8.53809 51.353 8.47622 51.5219C8.47622 51.3863 8.46789 51.2495 8.45837 51.1138C8.48812 51.1222 8.62256 49.8384 9.32093 49.6207Z" fill="#263238"/>
<path d="M6.73094 49.0937C7.43288 48.7367 8.18479 49.748 8.15861 49.7718C8.19907 49.8991 8.23714 50.0276 8.27759 50.1573C8.17408 50.011 7.76005 49.8515 7.16757 49.8539C6.57865 49.8349 6.04922 49.4149 6.73094 49.0937Z" fill="#263238"/>
<path d="M8.80342 48.1573C9.50536 47.8325 9.5708 48.8878 9.07587 49.2614C8.59998 49.6457 8.3192 49.9752 8.28708 50.1549C8.2617 50.0224 8.23314 49.8915 8.20142 49.7622C8.23116 49.7718 8.15145 48.4916 8.80342 48.1573Z" fill="#263238"/>
<path d="M6.16477 48.0776C6.79771 47.61 7.71142 48.4761 7.68882 48.5023C7.74949 48.6213 7.80779 48.7403 7.86252 48.8592C7.74354 48.7331 7.30334 48.6475 6.71918 48.7498C6.13741 48.8331 5.54611 48.5023 6.16477 48.0776Z" fill="#263238"/>
<path d="M8.05147 46.8082C8.68917 46.3704 8.9283 47.403 8.50238 47.848C8.10025 48.3037 7.87539 48.6808 7.87301 48.8557C7.82661 48.7367 7.77664 48.6082 7.72429 48.4857C7.75404 48.4857 7.46493 47.2472 8.05147 46.8082Z" fill="#263238"/>
<path d="M5.43519 47.1686C5.98247 46.6023 7.02348 47.3066 7.0104 47.334C7.09011 47.4399 7.16744 47.5482 7.2412 47.6576C7.09606 47.5553 6.65467 47.5386 6.09668 47.7421C5.53632 47.9194 4.89624 47.6921 5.43519 47.1686Z" fill="#263238"/>
<path d="M7.08313 45.6005C7.63873 45.0628 8.048 46.0372 7.70298 46.5523C7.38294 47.0699 7.22708 47.4779 7.25088 47.6516C7.18425 47.5327 7.11525 47.4232 7.04268 47.3126C7.07361 47.3078 6.57868 46.1324 7.08313 45.6005Z" fill="#263238"/>
<path d="M4.55603 46.3894C5.00099 45.7398 6.15265 46.2644 6.14432 46.2942C6.24069 46.3858 6.33587 46.4786 6.42747 46.575C6.26686 46.4976 5.83261 46.5595 5.31032 46.8474C4.78803 47.1163 4.11464 46.9961 4.55603 46.3894Z" fill="#263238"/>
<path d="M5.916 44.5655C6.37286 43.9421 6.94869 44.8391 6.69528 45.4054C6.46685 45.9705 6.38 46.4 6.43592 46.5678C6.35026 46.4655 6.26222 46.3644 6.1718 46.2668C6.19797 46.2573 5.51031 45.1758 5.916 44.5655Z" fill="#263238"/>
<path d="M5.59118 45.7505C5.6114 45.7505 4.97252 44.7903 4.43476 44.4608C3.91722 44.1205 3.53889 44.4299 3.53651 44.6987C3.53413 44.9676 3.90057 45.1925 4.24321 45.3103C4.5918 45.4007 5.59237 45.7267 5.59118 45.7505Z" fill="#263238"/>
<path d="M5.59114 45.7933C5.60009 45.7921 5.60843 45.7881 5.61503 45.7819C5.62162 45.7757 5.62616 45.7677 5.62803 45.7588C5.62985 45.7531 5.62992 45.747 5.62822 45.7413C5.62652 45.7356 5.62314 45.7305 5.61851 45.7267C5.53285 45.5316 4.91419 44.7119 4.45257 44.4275C4.19797 44.2598 3.93385 44.2264 3.73159 44.3347C3.66298 44.3698 3.60485 44.4224 3.56307 44.4872C3.52129 44.5519 3.49734 44.6266 3.49365 44.7035C3.48413 45.0712 4.05401 45.2984 4.2289 45.3555C4.56916 45.4424 5.4805 45.7445 5.5614 45.7862C5.57018 45.792 5.5807 45.7945 5.59114 45.7933ZM3.9969 44.3538C4.14594 44.3596 4.28995 44.4093 4.41093 44.4965C4.83447 44.7571 5.31751 45.4055 5.48764 45.6601C5.40317 45.6291 5.26992 45.5851 5.06171 45.5161C4.79402 45.4281 4.44067 45.3174 4.25389 45.2698C3.92552 45.1509 3.57336 44.9474 3.57931 44.7012C3.58362 44.639 3.60412 44.5791 3.63877 44.5273C3.67341 44.4756 3.721 44.4338 3.7768 44.4061C3.8449 44.3712 3.9204 44.3533 3.9969 44.3538Z" fill="#263238"/>
<path d="M44.9164 52.6069C44.9278 52.607 44.9387 52.6027 44.9471 52.595C44.9555 52.5873 44.9607 52.5767 44.9616 52.5653C45.0315 51.5802 44.8481 50.5935 44.4289 49.6993C44.0097 48.8051 43.3686 48.033 42.5666 47.4566C42.5618 47.4532 42.5563 47.4507 42.5505 47.4494C42.5447 47.4481 42.5387 47.4479 42.5329 47.4489C42.527 47.4499 42.5214 47.452 42.5164 47.4552C42.5114 47.4583 42.507 47.4625 42.5036 47.4673C42.5001 47.4721 42.4977 47.4776 42.4964 47.4834C42.4951 47.4892 42.4949 47.4952 42.4959 47.501C42.4969 47.5069 42.499 47.5125 42.5022 47.5175C42.5053 47.5226 42.5094 47.5269 42.5143 47.5304C43.3035 48.0976 43.9343 48.8575 44.3466 49.7376C44.759 50.6177 44.9391 51.5887 44.87 52.5582C44.8693 52.5703 44.8734 52.5822 44.8814 52.5913C44.8894 52.6004 44.9007 52.606 44.9128 52.6069H44.9164Z" fill="#263238"/>
<path d="M43.9671 50.9008C44.5001 50.7355 44.9046 51.5385 44.8868 51.554C44.8998 51.6492 44.9106 51.7444 44.9189 51.8407C44.8642 51.7218 44.5953 51.56 44.1812 51.4838C43.7672 51.4077 43.4543 51.04 43.9671 50.9008Z" fill="#263238"/>
<path d="M45.5246 50.4939C46.0517 50.3511 45.9732 51.1007 45.5841 51.3053C45.1951 51.5099 44.9702 51.7193 44.9274 51.8395C44.9274 51.7431 44.9274 51.6467 44.9143 51.5516C44.9357 51.5563 45.0297 50.6486 45.5246 50.4939Z" fill="#263238"/>
<path d="M43.6923 50.1216C44.1885 49.8706 44.7203 50.5856 44.706 50.5975C44.7345 50.6868 44.7607 50.7784 44.7845 50.87C44.7119 50.7665 44.4193 50.6534 44.0005 50.6546C43.5817 50.6558 43.2093 50.3453 43.6923 50.1216Z" fill="#263238"/>
<path d="M45.1581 49.46C45.6542 49.2304 45.7006 49.9764 45.3508 50.2405C45.0011 50.5046 44.8155 50.7485 44.7929 50.8722C44.7754 50.7795 44.7552 50.6867 44.7322 50.5939C44.7536 50.5974 44.6965 49.6956 45.1581 49.46Z" fill="#263238"/>
<path d="M43.2915 49.403C43.74 49.0722 44.3813 49.6849 44.3694 49.704C44.4122 49.7873 44.4538 49.8717 44.4883 49.9562C44.3991 49.8682 44.0922 49.8075 43.6793 49.8789C43.2665 49.9502 42.8537 49.704 43.2915 49.403Z" fill="#263238"/>
<path d="M44.6262 48.5047C45.0771 48.1954 45.246 48.9223 44.945 49.24C44.644 49.5576 44.5012 49.8348 44.5001 49.9538C44.4667 49.8658 44.4322 49.7777 44.3942 49.6921C44.4156 49.6921 44.2109 48.82 44.6262 48.5047Z" fill="#263238"/>
<path d="M42.775 48.7605C43.1629 48.3595 43.8981 48.858 43.8898 48.8795C43.9457 48.9544 44.0004 49.0305 44.0528 49.1079C43.9505 49.0365 43.6376 49.027 43.2438 49.1674C42.85 49.3078 42.3943 49.1305 42.775 48.7605Z" fill="#263238"/>
<path d="M43.9411 47.6505C44.3337 47.271 44.624 47.9598 44.3801 48.3239C44.1362 48.688 44.0411 48.9782 44.0601 49.102C44.0125 49.0211 43.9637 48.9402 43.9126 48.864C43.934 48.8581 43.5842 48.0277 43.9411 47.6505Z" fill="#263238"/>
<path d="M42.1542 48.2085C42.4683 47.7493 43.2832 48.1205 43.2773 48.1419C43.3451 48.2062 43.4129 48.2728 43.4771 48.3406C43.3641 48.2859 43.0536 48.3287 42.6872 48.5333C42.3207 48.738 41.8413 48.638 42.1542 48.2085Z" fill="#263238"/>
<path d="M43.1154 46.9165C43.439 46.4751 43.8459 47.1104 43.6663 47.5113C43.5056 47.9111 43.4438 48.2145 43.483 48.3323C43.4236 48.2597 43.3641 48.1895 43.2963 48.1193C43.3177 48.1157 42.8287 47.3507 43.1154 46.9165Z" fill="#263238"/>
<path d="M42.8856 47.7576C42.8999 47.7576 42.4478 47.0782 42.0683 46.845C41.6888 46.6119 41.4342 46.8224 41.433 47.014C41.4318 47.2055 41.69 47.3626 41.9327 47.4459C42.1789 47.5113 42.8868 47.7492 42.8856 47.7576Z" fill="#263238"/>
<path d="M42.8856 47.7873C42.8918 47.7865 42.8977 47.7837 42.9024 47.7795C42.9071 47.7752 42.9103 47.7696 42.9117 47.7635C42.9128 47.7594 42.9126 47.7552 42.9114 47.7512C42.9101 47.7472 42.9078 47.7436 42.9046 47.7409C42.8439 47.6029 42.4061 47.027 42.0801 46.8224C42.0091 46.766 41.9241 46.7301 41.8342 46.7183C41.7443 46.7066 41.6528 46.7195 41.5697 46.7558C41.5209 46.7807 41.4794 46.818 41.4493 46.8639C41.4193 46.9098 41.4017 46.9628 41.3984 47.0175C41.3913 47.2769 41.7946 47.4363 41.9183 47.4779C42.1563 47.5398 42.8035 47.754 42.8618 47.7837C42.8652 47.786 42.8692 47.7875 42.8733 47.7881C42.8774 47.7887 42.8816 47.7884 42.8856 47.7873ZM41.7577 46.7689C41.8635 46.7728 41.9657 46.808 42.0516 46.87C42.3502 47.0544 42.6916 47.5124 42.8118 47.6933C42.7523 47.6719 42.6583 47.6397 42.5108 47.591C42.3216 47.5291 42.0718 47.4506 41.9397 47.4173C41.7077 47.3364 41.4579 47.1888 41.4638 47.014C41.467 46.9702 41.4815 46.928 41.5059 46.8915C41.5303 46.855 41.5638 46.8254 41.603 46.8057C41.6509 46.7813 41.7039 46.7686 41.7577 46.7689Z" fill="#263238"/>
<path d="M11.5361 52.6069C11.5246 52.607 11.5135 52.6028 11.5049 52.5951C11.4963 52.5874 11.4909 52.5768 11.4897 52.5653C11.4198 51.5802 11.6032 50.5935 12.0224 49.6993C12.4416 48.8051 13.0827 48.033 13.8847 47.4566C13.8895 47.4532 13.895 47.4507 13.9008 47.4494C13.9066 47.4481 13.9126 47.4479 13.9184 47.4489C13.9243 47.4499 13.9299 47.452 13.9349 47.4552C13.9399 47.4583 13.9443 47.4625 13.9477 47.4673C13.9513 47.4721 13.9539 47.4776 13.9553 47.4834C13.9567 47.4892 13.9569 47.4952 13.9559 47.5011C13.9549 47.507 13.9527 47.5127 13.9495 47.5177C13.9462 47.5227 13.942 47.527 13.937 47.5304C13.1478 48.0976 12.517 48.8575 12.1047 49.7376C11.6923 50.6177 11.5122 51.5887 11.5814 52.5582C11.5818 52.5641 11.5811 52.5701 11.5793 52.5758C11.5775 52.5814 11.5745 52.5867 11.5707 52.5912C11.5668 52.5957 11.5621 52.5995 11.5568 52.6022C11.5514 52.6049 11.5457 52.6065 11.5397 52.6069H11.5361Z" fill="#263238"/>
<path d="M12.4845 50.9008C11.9527 50.7355 11.547 51.5385 11.5648 51.554C11.5518 51.6492 11.541 51.7444 11.5327 51.8407C11.5874 51.7218 11.8563 51.56 12.2703 51.4838C12.6844 51.4077 12.9973 51.04 12.4845 50.9008Z" fill="#263238"/>
<path d="M10.927 50.4939C10.4 50.3511 10.4785 51.1007 10.8687 51.3053C11.2589 51.5099 11.4814 51.7193 11.5254 51.8395C11.5254 51.7431 11.5254 51.6467 11.5373 51.5516C11.5171 51.5563 11.4219 50.6486 10.927 50.4939Z" fill="#263238"/>
<path d="M12.7604 50.1216C12.263 49.8706 11.7312 50.5856 11.7467 50.5975C11.717 50.6868 11.6908 50.7784 11.667 50.87C11.7396 50.7665 12.0322 50.6534 12.4522 50.6546C12.8722 50.6558 13.2422 50.3453 12.7604 50.1216Z" fill="#263238"/>
<path d="M11.2936 49.46C10.7975 49.2304 10.7511 49.9764 11.1021 50.2405C11.453 50.5046 11.6374 50.7485 11.6589 50.8722C11.6763 50.7795 11.6965 50.6867 11.7195 50.5939C11.6981 50.5974 11.7552 49.6956 11.2936 49.46Z" fill="#263238"/>
<path d="M13.1604 49.403C12.713 49.0722 12.0706 49.6849 12.0825 49.704C12.0396 49.7873 11.998 49.8717 11.9635 49.9562C12.0515 49.8682 12.3585 49.8075 12.7713 49.8789C13.1842 49.9502 13.5982 49.704 13.1604 49.403Z" fill="#263238"/>
<path d="M11.8253 48.5047C11.3744 48.1954 11.2054 48.9223 11.5064 49.24C11.8074 49.5576 11.9502 49.8348 11.9514 49.9538C11.9847 49.8658 12.0204 49.7777 12.0573 49.6921C12.0359 49.6921 12.2405 48.82 11.8253 48.5047Z" fill="#263238"/>
<path d="M13.6765 48.7605C13.2898 48.3595 12.5533 48.858 12.5617 48.8795C12.5058 48.9544 12.451 49.0305 12.3987 49.1079C12.501 49.0365 12.8139 49.027 13.2089 49.1674C13.6039 49.3078 14.0572 49.1305 13.6765 48.7605Z" fill="#263238"/>
<path d="M12.5106 47.6505C12.118 47.271 11.8277 47.9598 12.0728 48.3239C12.2988 48.6903 12.4107 48.9782 12.3916 49.102C12.4392 49.0211 12.488 48.9402 12.5392 48.864C12.5177 48.8581 12.8675 48.0277 12.5106 47.6505Z" fill="#263238"/>
<path d="M14.2975 48.2085C13.9834 47.7493 13.1684 48.1205 13.1744 48.1419C13.1065 48.2062 13.0399 48.2728 12.9745 48.3406C13.0935 48.2859 13.398 48.3287 13.7645 48.5333C14.1309 48.738 14.6104 48.638 14.2975 48.2085Z" fill="#263238"/>
<path d="M13.3364 46.9165C13.0128 46.4751 12.6059 47.1104 12.7855 47.5113C12.9461 47.9111 13.008 48.2145 12.9687 48.3323C13.0294 48.2597 13.0877 48.1895 13.1555 48.1193C13.1341 48.1157 13.6231 47.3507 13.3364 46.9165Z" fill="#263238"/>
<path d="M13.5672 47.7576C13.5517 47.7576 14.0038 47.0782 14.3845 46.845C14.7652 46.6119 15.0174 46.8224 15.0198 47.014C15.0222 47.2055 14.7628 47.3626 14.5201 47.4459C14.2739 47.5113 13.5648 47.7492 13.5672 47.7576Z" fill="#263238"/>
<path d="M13.5671 47.7873C13.561 47.7862 13.5553 47.7834 13.5506 47.7792C13.546 47.775 13.5427 47.7696 13.541 47.7635C13.5399 47.7595 13.5401 47.7552 13.5413 47.7512C13.5426 47.7472 13.5449 47.7437 13.5481 47.7409C13.6088 47.6029 14.0466 47.0271 14.3726 46.8225C14.4437 46.7662 14.5287 46.7303 14.6186 46.7186C14.7085 46.7068 14.7998 46.7197 14.883 46.7558C14.932 46.7806 14.9736 46.8178 15.0037 46.8638C15.0338 46.9097 15.0512 46.9628 15.0543 47.0176C15.0614 47.2769 14.6581 47.4364 14.5344 47.478C14.2964 47.5399 13.6492 47.754 13.5921 47.7838C13.5884 47.786 13.5843 47.7875 13.58 47.7881C13.5757 47.7887 13.5713 47.7885 13.5671 47.7873ZM14.6938 46.7689C14.5884 46.7727 14.4864 46.8079 14.4011 46.87C14.1013 47.0545 13.7599 47.5125 13.6397 47.6933C13.6992 47.6719 13.7932 47.6398 13.9407 47.591C14.1311 47.5292 14.3797 47.4506 14.5118 47.4173C14.7497 47.3364 14.9936 47.1889 14.9877 47.014C14.9845 46.9702 14.97 46.928 14.9456 46.8915C14.9212 46.855 14.8877 46.8255 14.8485 46.8058C14.8006 46.7813 14.7476 46.7687 14.6938 46.7689Z" fill="#263238"/>
<path d="M40.88 52.6069H15.7898L17.6708 27.7499H38.9991L40.88 52.6069Z" fill="white" stroke="#263238" stroke-linecap="round" stroke-linejoin="round"/>
<path d="M37.1787 28.8325C36.8361 33.9234 33.0075 37.9352 28.3354 37.9352C23.7562 37.9352 19.9871 34.0828 19.5148 29.1371" stroke="#263238" stroke-width="2" stroke-linecap="round" stroke-linejoin="round"/>
<path d="M19.9433 29.1372C19.9433 29.0525 19.9182 28.9696 19.8711 28.8992C19.824 28.8288 19.7571 28.7739 19.6789 28.7415C19.6006 28.709 19.5145 28.7006 19.4314 28.7171C19.3483 28.7336 19.272 28.7744 19.2121 28.8343C19.1522 28.8942 19.1114 28.9705 19.0949 29.0536C19.0784 29.1367 19.0869 29.2228 19.1193 29.3011C19.1517 29.3793 19.2066 29.4462 19.277 29.4933C19.3475 29.5403 19.4303 29.5655 19.515 29.5655C19.6286 29.5655 19.7375 29.5203 19.8178 29.44C19.8982 29.3597 19.9433 29.2508 19.9433 29.1372Z" fill="#263238"/>
<path d="M37.613 29.1371C37.6128 29.0527 37.5875 28.9702 37.5405 28.9001C37.4934 28.8301 37.4266 28.7755 37.3485 28.7434C37.2705 28.7112 37.1846 28.7029 37.1019 28.7195C37.0191 28.7361 36.9431 28.7769 36.8835 28.8367C36.8239 28.8965 36.7833 28.9726 36.7669 29.0554C36.7505 29.1382 36.7591 29.224 36.7914 29.302C36.8238 29.38 36.8785 29.4466 36.9487 29.4935C37.0189 29.5404 37.1015 29.5654 37.1859 29.5654C37.2421 29.5654 37.2977 29.5543 37.3496 29.5328C37.4015 29.5112 37.4487 29.4797 37.4883 29.4399C37.528 29.4001 37.5594 29.3529 37.5808 29.3009C37.6022 29.249 37.6132 29.1933 37.613 29.1371Z" fill="#263238"/>
<path d="M20.6548 44.2812V39.7448H21.8362C22.0208 39.7442 22.205 39.7593 22.387 39.79C22.5511 39.8161 22.7084 39.8743 22.8498 39.9613C22.9868 40.0481 23.0965 40.1718 23.1663 40.3182C23.2517 40.5109 23.2923 40.7203 23.2853 40.9309C23.2897 41.0887 23.2622 41.2457 23.2044 41.3925C23.1549 41.5119 23.0744 41.6158 22.9712 41.6935C22.8658 41.7713 22.7435 41.823 22.6143 41.8446C22.7744 41.8612 22.9273 41.9204 23.0569 42.016C23.1786 42.1115 23.2723 42.2381 23.3281 42.3824C23.3941 42.5596 23.4256 42.7478 23.4209 42.9368C23.4254 43.1433 23.394 43.349 23.3281 43.5448C23.2737 43.7025 23.1828 43.8452 23.0628 43.9612C22.9398 44.0718 22.7934 44.1532 22.6345 44.1991C22.4444 44.2542 22.2471 44.2807 22.0492 44.2776L20.6548 44.2812ZM21.6625 41.5627H21.8588C21.9788 41.5704 22.0986 41.5462 22.2062 41.4925C22.2829 41.447 22.3398 41.3744 22.3656 41.289C22.3952 41.1834 22.4093 41.074 22.4073 40.9642C22.4109 40.8605 22.3889 40.7575 22.343 40.6644C22.3007 40.585 22.2339 40.5212 22.1527 40.4824C22.0532 40.4383 21.945 40.4171 21.8362 40.4205H21.6625V41.5627ZM21.6625 43.5852H21.8754C22.0952 43.5852 22.2474 43.5293 22.3323 43.4175C22.4256 43.2709 22.4698 43.0983 22.4584 42.9249C22.463 42.7863 22.4441 42.6479 22.4025 42.5157C22.3696 42.4218 22.3036 42.3431 22.2169 42.2944C22.1085 42.2433 21.9892 42.2196 21.8695 42.2254H21.6625V43.5852Z" fill="#263238"/>
<path d="M23.9465 44.2812V39.7448H25.1958C25.4641 39.7402 25.7318 39.7743 25.9905 39.8459C26.2001 39.9028 26.3844 40.0285 26.514 40.2028C26.6518 40.4227 26.7175 40.6802 26.702 40.9393C26.7047 41.1084 26.6904 41.2775 26.6591 41.4437C26.6347 41.585 26.5753 41.7179 26.4864 41.8303C26.3974 41.9427 26.2818 42.0311 26.1499 42.0874L26.771 44.2824H25.7347L25.2314 42.248H24.9459V44.2812H23.9465ZM24.9495 41.671H25.2314C25.3465 41.6774 25.4611 41.6514 25.5622 41.596C25.6409 41.5446 25.699 41.4671 25.7264 41.3771C25.7607 41.2658 25.7767 41.1497 25.774 41.0333C25.7833 40.8751 25.7465 40.7176 25.6681 40.58C25.6223 40.5215 25.5622 40.4758 25.4937 40.4473C25.4251 40.4188 25.3504 40.4083 25.2767 40.417H24.9519L24.9495 41.671Z" fill="#263238"/>
<path d="M27.0875 44.2812L27.9441 39.7448H29.0863L29.9322 44.2812H29.0089L28.8567 43.3235H28.1904L28.0345 44.2812H27.0875ZM28.2773 42.7238H28.7531L28.5152 40.9547L28.2773 42.7238Z" fill="#263238"/>
<path d="M30.3474 44.2812V39.7448H31.0529L31.9833 41.9291V39.7448H32.8161V44.2812H32.132L31.2016 41.9291V44.2812H30.3474Z" fill="#263238"/>
<path d="M33.4869 44.2812V39.7448H34.6303C34.9453 39.7309 35.2599 39.7815 35.5547 39.8935C35.7642 39.982 35.9307 40.149 36.0187 40.3587C36.1176 40.6203 36.1633 40.899 36.1531 41.1784V42.825C36.1633 43.1087 36.1176 43.3917 36.0187 43.6578C35.9332 43.8709 35.7674 44.0418 35.5571 44.1337C35.2662 44.2482 34.9544 44.3001 34.6422 44.286L33.4869 44.2812ZM34.4899 43.5864H34.6469C34.7608 43.595 34.8748 43.5719 34.9765 43.5198C35.0104 43.4967 35.0391 43.4667 35.0608 43.4319C35.0825 43.3971 35.0967 43.3582 35.1026 43.3176C35.121 43.2067 35.1293 43.0944 35.1276 42.9821V41.0047C35.1303 40.8957 35.1203 40.7867 35.0978 40.6799C35.0894 40.6426 35.0734 40.6075 35.0506 40.5768C35.0279 40.546 34.999 40.5204 34.9658 40.5015C34.8634 40.4577 34.7521 40.4386 34.641 40.4455H34.4899V43.5864Z" fill="#263238"/>
<path d="M19.4363 50.1882V45.653H20.4392V49.5101H21.4802V50.1882H19.4363Z" fill="#263238"/>
<path d="M23.1437 50.2549C22.8637 50.269 22.585 50.2073 22.3371 50.0764C22.1409 49.9578 21.9908 49.7762 21.9111 49.5612C21.8197 49.3044 21.7758 49.0331 21.7815 48.7606V47.0747C21.7747 46.8022 21.8182 46.5307 21.9099 46.274C21.9901 46.0615 22.1404 45.8828 22.3359 45.7672C22.5845 45.6383 22.8628 45.5775 23.1425 45.5911C23.4249 45.5775 23.7059 45.6382 23.9575 45.7672C24.1539 45.8823 24.3051 46.0611 24.3858 46.274C24.4775 46.5307 24.5211 46.8022 24.5143 47.0747V48.7606C24.5203 49.033 24.4768 49.3043 24.3858 49.5612C24.3057 49.7766 24.1546 49.9583 23.9575 50.0764C23.7069 50.2072 23.426 50.2688 23.1437 50.2549ZM23.1437 49.541C23.1853 49.5447 23.2273 49.5395 23.2668 49.526C23.3063 49.5125 23.3426 49.4909 23.3733 49.4625C23.4238 49.4056 23.4568 49.3354 23.4685 49.2602C23.4833 49.1774 23.4908 49.0934 23.4911 49.0092V46.8284C23.491 46.7431 23.4835 46.6579 23.4685 46.5738C23.4563 46.4999 23.4233 46.431 23.3733 46.3751C23.3426 46.3468 23.3063 46.3251 23.2668 46.3116C23.2273 46.2981 23.1853 46.293 23.1437 46.2966C23.1037 46.2935 23.0636 46.2989 23.0258 46.3125C22.9881 46.326 22.9537 46.3474 22.9248 46.3751C22.8752 46.4313 22.8423 46.5001 22.8296 46.5738C22.8146 46.6579 22.8071 46.7431 22.807 46.8284V49.0128C22.8071 49.0969 22.8138 49.1808 22.8272 49.2638C22.8369 49.3384 22.8678 49.4087 22.9165 49.4661C22.9465 49.4946 22.9824 49.5164 23.0216 49.53C23.0608 49.5435 23.1024 49.5485 23.1437 49.5446V49.541Z" fill="#263238"/>
<path d="M25.6076 50.1882V48.3346L24.745 45.653H25.6968L26.1287 47.0866L26.5141 45.653H27.4219L26.576 48.3346V50.1882H25.6076Z" fill="#263238"/>
<path d="M27.354 50.1882L28.2106 45.653H29.3528L30.1987 50.1882H29.2766L29.1255 49.2305H28.4593L28.3022 50.1882H27.354ZM28.5437 48.6309H29.0256L28.7876 46.8617L28.5437 48.6309Z" fill="#263238"/>
<path d="M30.6128 50.1882V45.653H31.6145V49.5101H32.6568V50.1882H30.6128Z" fill="#263238"/>
<path d="M33.1884 50.1882V46.3977H32.5055V45.653H34.8683V46.3977H34.1913V50.1882H33.1884Z" fill="#263238"/>
<path d="M35.8427 50.1882V48.3346L34.9801 45.653H35.9259L36.3566 47.0866L36.7433 45.653H37.6511L36.8051 48.3346V50.1882H35.8427Z" fill="#263238"/>
<path d="M43.5676 30.2341L42.172 32.8051L45.6686 38.5646L50.079 35.8877L46.5823 30.1282L43.5676 30.2341ZM44.3492 31.4238C44.2872 31.4624 44.2152 31.4817 44.1422 31.4793C44.0693 31.4769 43.9987 31.4529 43.9393 31.4103C43.88 31.3678 43.8347 31.3086 43.809 31.2402C43.7834 31.1719 43.7786 31.0975 43.7953 31.0264C43.812 30.9553 43.8494 30.8908 43.9027 30.841C43.9561 30.7912 44.0231 30.7583 44.0951 30.7466C44.1672 30.7349 44.2411 30.7448 44.3075 30.7752C44.3739 30.8055 44.4298 30.8548 44.4682 30.917C44.519 30.9997 44.535 31.0992 44.5127 31.1937C44.4904 31.2882 44.4316 31.3701 44.3492 31.4214V31.4238Z" fill="#6B6565" stroke="#263238" stroke-linecap="round" stroke-linejoin="round"/>
<path d="M48.0374 33.1347C47.805 32.7531 47.4647 32.449 47.0595 32.2607C46.6543 32.0724 46.2024 32.0084 45.7609 32.0768C45.3194 32.1452 44.908 32.3429 44.5788 32.645C44.2495 32.947 44.0172 33.3399 43.9111 33.7739C43.805 34.2079 43.8299 34.6636 43.9827 35.0835C44.1354 35.5034 44.4092 35.8686 44.7694 36.1329C45.1295 36.3973 45.56 36.549 46.0063 36.5689C46.4527 36.5888 46.8949 36.4759 47.2772 36.2446C47.5317 36.0907 47.7532 35.888 47.9292 35.6482C48.1052 35.4085 48.2321 35.1363 48.3028 34.8474C48.3734 34.5585 48.3863 34.2585 48.3408 33.9646C48.2952 33.6707 48.1922 33.3887 48.0374 33.1347Z" fill="#263238"/>
<path d="M47.0843 35.9591L46.9154 35.6818C46.8215 35.7428 46.7153 35.7821 46.6044 35.7969C46.4935 35.8117 46.3807 35.8017 46.2741 35.7675C46.0472 35.6707 45.8571 35.504 45.7316 35.2916L46.104 34.9514C46.1628 35.0423 46.231 35.1269 46.3074 35.2036C46.3629 35.2637 46.4336 35.3076 46.5121 35.3309C46.5478 35.3389 46.5848 35.3395 46.6208 35.3328C46.6568 35.326 46.691 35.312 46.7215 35.2916C46.7555 35.2753 46.785 35.2508 46.8072 35.2203C46.8295 35.1898 46.8437 35.1542 46.8488 35.1167C46.8525 35.0421 46.832 34.9682 46.7905 34.9061C46.7326 34.8017 46.643 34.7184 46.5347 34.6682C46.4233 34.623 46.3071 34.5907 46.1885 34.5718L45.6674 34.4802C45.5763 34.4639 45.4871 34.4388 45.4009 34.4053C45.3146 34.3725 45.2342 34.3259 45.1629 34.2673C45.0833 34.1995 45.0153 34.1191 44.9618 34.0293C44.9034 33.9469 44.8627 33.8533 44.8422 33.7544C44.8217 33.6555 44.822 33.5535 44.8429 33.4547C44.8962 33.2605 45.0206 33.0936 45.1915 32.9871L45.0297 32.7194L45.1712 32.6326L45.3318 32.8967C45.4305 32.8406 45.5409 32.8084 45.6543 32.8027C45.7494 32.8006 45.8437 32.8215 45.9291 32.8634C46.0171 32.9057 46.0976 32.9624 46.167 33.0311C46.24 33.104 46.3057 33.1836 46.3633 33.2691L45.9957 33.5915C45.9462 33.5174 45.8913 33.447 45.8315 33.3809C45.7875 33.3256 45.7284 33.2843 45.6614 33.2619C45.628 33.2551 45.5935 33.2556 45.5604 33.2637C45.5273 33.2717 45.4964 33.2869 45.4699 33.3083C45.4371 33.3265 45.4088 33.3518 45.387 33.3822C45.3652 33.4127 45.3504 33.4476 45.3437 33.4844C45.334 33.5582 45.3514 33.633 45.3925 33.695C45.4379 33.7787 45.5087 33.8458 45.5948 33.8865C45.6786 33.9218 45.766 33.9482 45.8553 33.9651L46.3705 34.0555C46.4805 34.0762 46.5887 34.1056 46.6941 34.1435C46.8009 34.1824 46.9012 34.2374 46.9915 34.3065C47.0911 34.3849 47.1751 34.4814 47.239 34.5909C47.3054 34.6992 47.346 34.8213 47.358 34.9478C47.3678 35.0675 47.3461 35.1877 47.2949 35.2964C47.2403 35.4113 47.1587 35.5114 47.057 35.5879L47.2271 35.8686L47.0843 35.9591Z" fill="white"/>
<path d="M44.0898 30.8456L41.5342 29.4179C41.4345 29.3644 41.3248 29.3319 41.2119 29.3224C41.0991 29.313 40.9855 29.3269 40.8783 29.3632C40.771 29.3994 40.6723 29.4574 40.5884 29.5333C40.5044 29.6093 40.4369 29.7017 40.3902 29.8048C40.3434 29.9079 40.3183 30.0196 40.3164 30.1328C40.3145 30.246 40.3359 30.3584 40.3793 30.463C40.4226 30.5676 40.487 30.6622 40.5684 30.7409C40.6498 30.8196 40.7465 30.8808 40.8525 30.9206L42.724 31.7248L42.7502 31.7331L42.912 31.4274C42.8975 31.415 42.8815 31.4046 42.8644 31.3964L40.981 30.591C40.9019 30.5604 40.8323 30.5092 40.7796 30.4427C40.7269 30.3761 40.6929 30.2967 40.6812 30.2127C40.671 30.1283 40.6839 30.0427 40.7186 29.965C40.7532 29.8874 40.8082 29.8206 40.8778 29.7717C40.9474 29.7229 41.029 29.6938 41.1138 29.6877C41.1986 29.6815 41.2834 29.6985 41.3594 29.7368L43.9113 31.1644C43.9386 31.1802 43.9696 31.1885 44.0012 31.1885C44.0327 31.1885 44.0637 31.1802 44.091 31.1644C44.1171 31.1482 44.1388 31.1257 44.154 31.099C44.1673 31.0784 44.1763 31.0553 44.1802 31.0311C44.1842 31.0069 44.1832 30.9821 44.1771 30.9583C44.1711 30.9345 44.1602 30.9122 44.1452 30.8929C44.1302 30.8735 44.1113 30.8574 44.0898 30.8456Z" fill="#263238"/>
<path d="M43.6401 41.4438V39.9447H44.0803C44.1565 39.9415 44.2321 39.9588 44.2992 39.9947C44.3535 40.029 44.3953 40.0799 44.4182 40.1398C44.4472 40.2132 44.461 40.2918 44.4587 40.3706C44.4629 40.4529 44.4457 40.5349 44.4087 40.6086C44.3776 40.6665 44.3282 40.7125 44.2683 40.7395C44.2015 40.7681 44.1292 40.7819 44.0565 40.7799H43.9138V41.4438H43.6401ZM43.9138 40.5848H44.0173C44.0581 40.5873 44.0989 40.5799 44.1363 40.5634C44.1499 40.5566 44.162 40.547 44.1718 40.5354C44.1816 40.5237 44.189 40.5102 44.1934 40.4956C44.2056 40.4543 44.2112 40.4113 44.21 40.3683C44.2108 40.3239 44.2064 40.2796 44.1969 40.2362C44.1904 40.2054 44.1721 40.1785 44.1458 40.1612C44.1068 40.1429 44.0638 40.1347 44.0208 40.1375H43.9138V40.5848Z" fill="#263238"/>
<path d="M44.6074 41.4437V39.9447H44.9643C45.0514 39.9426 45.1381 39.9547 45.2213 39.9804C45.2864 40.0003 45.3424 40.0424 45.3796 40.0993C45.4199 40.1719 45.4389 40.2544 45.4343 40.3373C45.4353 40.3921 45.4297 40.4468 45.4176 40.5003C45.4078 40.5435 45.3888 40.5841 45.3617 40.6193C45.3329 40.6552 45.2945 40.6824 45.2511 40.6978L45.4605 41.4437H45.1868L45.0048 40.7573H44.8787V41.4437H44.6074ZM44.8811 40.5848H44.9667C45.0103 40.5868 45.0538 40.579 45.094 40.5622C45.1248 40.5469 45.1486 40.5205 45.1606 40.4884C45.1758 40.4465 45.1827 40.402 45.1809 40.3575C45.1856 40.2982 45.171 40.2389 45.1392 40.1886C45.1194 40.1683 45.0951 40.1529 45.0682 40.1436C45.0414 40.1343 45.0127 40.1314 44.9846 40.135H44.8846L44.8811 40.5848Z" fill="#263238"/>
<path d="M45.6495 41.4438V39.9447H45.9196V41.4438H45.6495Z" fill="#263238"/>
<path d="M46.5549 41.4675C46.4643 41.4726 46.3743 41.4502 46.2967 41.4032C46.2343 41.3606 46.1882 41.2981 46.1659 41.226C46.1397 41.1425 46.1272 41.0553 46.129 40.9678V40.4336C46.127 40.343 46.1395 40.2526 46.1659 40.1659C46.1877 40.0944 46.234 40.0329 46.2967 39.9922C46.3753 39.9479 46.4648 39.9269 46.5549 39.9315C46.6374 39.928 46.7194 39.9461 46.7929 39.9839C46.8511 40.0179 46.8954 40.0714 46.9178 40.135C46.9442 40.2078 46.9571 40.2848 46.9558 40.3622V40.4919H46.6977V40.3622C46.6981 40.3224 46.6957 40.2827 46.6905 40.2432C46.6885 40.2128 46.6764 40.1839 46.656 40.1612C46.6423 40.1495 46.6264 40.1408 46.6092 40.1355C46.5921 40.1302 46.574 40.1284 46.5561 40.1302C46.5191 40.127 46.4823 40.1385 46.4538 40.1623C46.4311 40.1862 46.4166 40.2166 46.4121 40.2492C46.4059 40.2885 46.4027 40.3283 46.4026 40.3682V41.019C46.4019 41.0641 46.4063 41.1092 46.4157 41.1534C46.4219 41.1847 46.4387 41.2128 46.4633 41.2331C46.4902 41.2525 46.523 41.2621 46.5561 41.2605C46.5738 41.2626 46.5918 41.2607 46.6087 41.2549C46.6256 41.2492 46.6409 41.2397 46.6537 41.2272C46.6739 41.2028 46.6863 41.173 46.6893 41.1415C46.6953 41.1021 46.6981 41.0623 46.6977 41.0225V40.8869H46.9606V41.0059C46.9621 41.0866 46.9501 41.1671 46.9249 41.2438C46.9042 41.3091 46.8623 41.3656 46.8059 41.4044C46.7304 41.4499 46.643 41.4718 46.5549 41.4675Z" fill="#263238"/>
<path d="M47.151 41.4438V39.9447H47.7804V40.1374H47.4235V40.5681H47.703V40.7585H47.4235V41.2546H47.7804V41.4438H47.151Z" fill="#263238"/>
<path d="M47.3253 23.9393L46.5936 22.5508L45.3325 23.4241L46.6531 18.3142L48.6459 18.8294L47.3253 23.9393Z" fill="#6B6565" stroke="#263238" stroke-linecap="round" stroke-linejoin="round"/>
<path d="M48.5009 23.9393L49.2314 22.5508L50.4937 23.4241L49.1719 18.3142L47.1791 18.8294L48.5009 23.9393Z" fill="#6B6565" stroke="#263238" stroke-linecap="round" stroke-linejoin="round"/>
<path d="M51.047 16.8687L51.6811 16.0358L50.7495 15.56L50.9565 14.5356L49.912 14.5106L49.655 13.497L48.7032 13.9276L48.031 13.127L47.36 13.9276L46.407 13.497L46.1512 14.5106L45.1054 14.5356L45.3136 15.56L44.3821 16.0358L45.015 16.8687L44.3821 17.7015L45.3136 18.1774L45.1054 19.2029L46.1512 19.2267L46.407 20.2404L47.36 19.8097L48.031 20.6116L48.7032 19.8097L49.6562 20.2404L49.912 19.2267L50.9577 19.2017L50.7495 18.1774L51.6811 17.7015L51.047 16.8687Z" fill="#263238"/>
<path d="M48.6545 19.7659C50.2547 19.5073 51.3423 18.0004 51.0837 16.4001C50.825 14.7999 49.3181 13.7123 47.7179 13.9709C46.1177 14.2296 45.0301 15.7365 45.2887 17.3367C45.5473 18.9369 47.0542 20.0245 48.6545 19.7659Z" fill="white" stroke="#263238" stroke-width="1.00285" stroke-linecap="round" stroke-linejoin="round"/>
<path d="M48.3633 18.9183C49.4965 18.7354 50.2669 17.6684 50.0839 16.5352C49.901 15.402 48.8341 14.6316 47.7008 14.8145C46.5676 14.9975 45.7972 16.0644 45.9802 17.1976C46.1631 18.3309 47.2301 19.1012 48.3633 18.9183Z" fill="#6B6565" stroke="#263238" stroke-linecap="round" stroke-linejoin="round"/>
<path d="M45.8634 27.286C45.8276 27.2684 45.7944 27.246 45.7647 27.2193C45.7278 27.1882 45.6928 27.1548 45.66 27.1194C45.6278 27.0822 45.5988 27.0424 45.5731 27.0004H45.5565H45.5398C45.4511 27.0048 45.3629 26.9842 45.2852 26.9409C45.2226 26.9009 45.1753 26.841 45.1508 26.7708C45.1219 26.6862 45.1082 26.5972 45.1103 26.5079V25.9475C45.1081 25.8589 45.1218 25.7707 45.1508 25.687C45.1758 25.6183 45.2232 25.5601 45.2852 25.5216C45.3634 25.4798 45.4514 25.4601 45.5398 25.4645C45.6291 25.46 45.7179 25.4798 45.7968 25.5216C45.8595 25.5594 45.9071 25.6179 45.9313 25.687C45.9607 25.7706 45.9748 25.8589 45.9729 25.9475V26.5103C45.9733 26.5754 45.9666 26.6405 45.9527 26.7042C45.94 26.7582 45.9174 26.8095 45.886 26.8553C45.8553 26.8976 45.8144 26.9316 45.7671 26.954C45.7821 26.9715 45.7988 26.9893 45.817 27.0076C45.8337 27.0266 45.8515 27.0433 45.8682 27.0599C45.8838 27.0739 45.9005 27.0866 45.9182 27.098L45.8634 27.286ZM45.5398 26.8101C45.5759 26.8127 45.6117 26.8026 45.641 26.7815C45.6643 26.7597 45.6797 26.7309 45.685 26.6994C45.6934 26.6623 45.6974 26.6244 45.6969 26.5864V25.8964C45.6974 25.8583 45.6934 25.8204 45.685 25.7833C45.6797 25.7529 45.6641 25.7252 45.641 25.7048C45.6117 25.6837 45.5759 25.6736 45.5398 25.6763C45.5042 25.6733 45.4686 25.6835 45.4399 25.7048C45.4167 25.7252 45.4012 25.7529 45.3959 25.7833C45.3884 25.8205 45.3848 25.8584 45.3852 25.8964V26.5864C45.3849 26.6243 45.3885 26.6622 45.3959 26.6994C45.4011 26.7309 45.4166 26.7597 45.4399 26.7815C45.4686 26.8028 45.5042 26.813 45.5398 26.8101Z" fill="#263238"/>
<path d="M46.5866 27.0111C46.4961 27.016 46.4062 26.9949 46.3272 26.9504C46.2655 26.909 46.2204 26.847 46.1999 26.7755C46.1744 26.6878 46.1624 26.5968 46.1643 26.5055V25.4918H46.4319V26.5376C46.4316 26.5818 46.4344 26.6259 46.4403 26.6697C46.4445 26.7066 46.4599 26.7415 46.4843 26.7696C46.4976 26.7829 46.5137 26.7931 46.5313 26.7997C46.549 26.8063 46.5678 26.809 46.5866 26.8077C46.6058 26.8094 46.6251 26.8069 46.6432 26.8003C46.6613 26.7937 46.6777 26.7833 46.6913 26.7696C46.7144 26.7408 46.7292 26.7062 46.7341 26.6697C46.741 26.626 46.7442 26.5818 46.7436 26.5376V25.4918H47.0066V26.5055C47.0084 26.5968 46.9964 26.6878 46.9709 26.7755C46.9509 26.8469 46.9062 26.9089 46.8448 26.9504C46.7662 26.9947 46.6767 27.0158 46.5866 27.0111Z" fill="#263238"/>
<path d="M47.1399 26.9909L47.4397 25.4918H47.7324L48.0322 26.9909H47.7788L47.7193 26.6447H47.4587L47.3981 26.9909H47.1399ZM47.4861 26.471H47.6895L47.5884 25.8416L47.4861 26.471Z" fill="#263238"/>
<path d="M48.1748 26.9909V25.4918H48.4484V26.8005H48.8113V26.9897L48.1748 26.9909Z" fill="#263238"/>
<path d="M48.9543 26.9909V25.4918H49.2244V26.9909H48.9543Z" fill="#263238"/>
<path d="M49.6061 26.9909V25.6929H49.3682V25.4918H50.1153V25.6929H49.8774V26.9909H49.6061Z" fill="#263238"/>
<path d="M50.4568 26.9909V26.4186L50.1534 25.4918H50.4092L50.5936 26.0867L50.7685 25.4918H51.0184L50.7186 26.4186V26.9909H50.4568Z" fill="#263238"/>
<path d="M37.2947 4.3241L36.8188 3.79824L35.9693 4.41452L36.3167 5.01534C36.0467 5.28022 35.8191 5.58521 35.6422 5.91953L34.9497 5.77201L34.6309 6.76543L35.2626 7.0474C35.2297 7.24878 35.213 7.45248 35.2127 7.65654C35.2129 7.83009 35.2252 8.00342 35.2495 8.17526L34.6035 8.46318L34.9271 9.46017L35.6041 9.3174C35.7741 9.65519 35.9943 9.96527 36.2572 10.2371L35.9003 10.8498L36.7486 11.4625L37.2126 10.9473C37.5493 11.1201 37.9103 11.2405 38.2834 11.3043L38.3571 12.0074H39.4065L39.479 11.3197C39.8533 11.2634 40.2168 11.1503 40.5569 10.9842L41.0328 11.5089L41.8823 10.8926L41.5349 10.2977C41.805 10.0326 42.0328 9.72765 42.2107 9.39355L42.9019 9.53988L43.2255 8.54289L42.5938 8.26092C42.6245 8.06056 42.6392 7.85806 42.6378 7.65535C42.6375 7.4818 42.6252 7.30847 42.6009 7.13663L43.2481 6.84871L42.9233 5.85053L42.2452 5.99568C42.0754 5.658 41.8556 5.34794 41.5932 5.07601L41.9501 4.46211L41.0994 3.84821L40.6355 4.36336C40.299 4.19004 39.9378 4.06965 39.5647 4.00645L39.4909 3.30212H38.4416L38.369 3.99098C38.1878 4.01699 38.0088 4.05676 37.8336 4.10995M41.0614 9.10682C40.7008 9.6384 40.1531 10.0145 39.5275 10.1602C38.9018 10.3059 38.2443 10.2104 37.686 9.89273C37.1277 9.57511 36.7096 9.05871 36.5151 8.44651C36.3207 7.83431 36.3641 7.1713 36.6368 6.5897C36.9095 6.00811 37.3913 5.55067 37.9863 5.30861C38.5813 5.06655 39.2457 5.05765 39.847 5.2837C40.4482 5.50975 40.9422 5.95412 41.2303 6.52821C41.5185 7.10229 41.5796 7.7639 41.4016 8.38109" stroke="#263238" stroke-miterlimit="10"/>
<path d="M38.1907 8.90457L38.5857 9.66124L37.7635 12.7236L38.7451 13.9086L39.7385 12.7474L39.0794 9.66124L39.5791 9.03663L38.751 7.94922L38.1907 8.90457Z" fill="#6B6565" stroke="#263238" stroke-linecap="round" stroke-linejoin="round"/>
<path d="M37.6493 7.33887L37.0723 7.80762L38.1537 9.46611L38.9473 8.49291L39.5969 9.5018L40.8735 7.97062L40.3535 7.33887H37.6493Z" fill="#263238" stroke="#263238" stroke-linecap="round" stroke-linejoin="round"/>
<path d="M40.3534 7.33887L38.9472 8.49291L37.6492 7.33887V5.35559H40.3534V7.33887Z" fill="white" stroke="#263238" stroke-linecap="round" stroke-linejoin="round"/>
<path d="M37.2662 2.76081C37.2664 2.52912 37.3122 2.29974 37.4012 2.08579C37.4901 1.87184 37.6203 1.67753 37.7844 1.51398C37.9485 1.35042 38.1433 1.22084 38.3575 1.13265C38.5718 1.04445 38.8013 0.999381 39.033 1.00001H39.4113C39.6427 0.99985 39.8719 1.04527 40.0857 1.13367C40.2995 1.22208 40.4939 1.35173 40.6576 1.51524C40.8213 1.67875 40.9512 1.8729 41.0399 2.08661C41.1286 2.30033 41.1743 2.52942 41.1745 2.76081V4.09331" stroke="#263238" stroke-linecap="round" stroke-linejoin="round"/>
<path d="M39.3874 1.50439H38.5427C37.6984 1.50439 37.0139 2.18886 37.0139 3.0332V5.23658C37.0139 6.08092 37.6984 6.76539 38.5427 6.76539H39.3874C40.2318 6.76539 40.9162 6.08092 40.9162 5.23658V3.0332C40.9162 2.18886 40.2318 1.50439 39.3874 1.50439Z" fill="white" stroke="#263238" stroke-linecap="round" stroke-linejoin="round"/>
<path d="M40.9162 4.52631V3.26639C40.9162 3.0348 40.8705 2.80548 40.7818 2.59155C40.6931 2.37762 40.5631 2.18328 40.3993 2.01963C40.2354 1.85598 40.0409 1.72624 39.8268 1.63784C39.6128 1.54943 39.3834 1.50408 39.1518 1.5044H38.7735C38.4412 1.50463 38.1158 1.59881 37.8348 1.77606C37.5537 1.95331 37.3285 2.20641 37.1852 2.50615H40.2071C40.2071 2.50615 39.8823 2.90352 40.0274 3.2997C40.0976 3.51827 40.2201 3.71636 40.3844 3.87672V4.52631H40.9162Z" fill="#263238" stroke="#263238" stroke-linecap="round" stroke-linejoin="round"/>
<path d="M41.2028 3.12012H41.0898C40.8822 3.12012 40.7139 3.28844 40.7139 3.49607V4.69175C40.7139 4.89939 40.8822 5.06771 41.0898 5.06771H41.2028C41.4105 5.06771 41.5788 4.89939 41.5788 4.69175V3.49607C41.5788 3.28844 41.4105 3.12012 41.2028 3.12012Z" fill="#6B6565" stroke="#263238" stroke-linecap="round" stroke-linejoin="round"/>
<path d="M40.9162 5.00464C40.6768 5.38509 40.3507 5.70343 39.9647 5.93359C39.5786 6.16375 39.1435 6.29919 38.6949 6.32881" stroke="#263238" stroke-linecap="round" stroke-linejoin="round"/>
<path d="M38.6772 6.58106C38.8067 6.58106 38.9116 6.47612 38.9116 6.34668C38.9116 6.21724 38.8067 6.1123 38.6772 6.1123C38.5478 6.1123 38.4429 6.21724 38.4429 6.34668C38.4429 6.47612 38.5478 6.58106 38.6772 6.58106Z" fill="#6B6565" stroke="#263238" stroke-linecap="round" stroke-linejoin="round"/>
<path d="M36.1774 15.9835C36.0987 15.9866 36.0207 15.9685 35.9514 15.9311C35.89 15.896 35.842 15.8416 35.8146 15.7765C35.781 15.6974 35.7632 15.6125 35.7622 15.5266L36.0002 15.4802C36.0019 15.5323 36.0087 15.5841 36.0204 15.6349C36.0289 15.6734 36.0478 15.7088 36.0751 15.7372C36.0878 15.7493 36.1027 15.7586 36.1191 15.7648C36.1354 15.7709 36.1528 15.7737 36.1703 15.7729C36.188 15.7748 36.2059 15.7722 36.2223 15.7653C36.2387 15.7584 36.2532 15.7476 36.2643 15.7336C36.2837 15.7036 36.2933 15.6683 36.2916 15.6325C36.2942 15.5757 36.2788 15.5195 36.2476 15.4719C36.2138 15.4247 36.1738 15.3823 36.1286 15.3458L35.9407 15.1792C35.8896 15.1359 35.8465 15.084 35.8134 15.0257C35.7804 14.9614 35.7645 14.8898 35.767 14.8175C35.7639 14.7672 35.7716 14.7168 35.7894 14.6696C35.8072 14.6225 35.8349 14.5796 35.8705 14.5439C35.9488 14.4762 36.0503 14.4417 36.1536 14.4475C36.2139 14.4457 36.2739 14.4566 36.3297 14.4797C36.3737 14.5003 36.4121 14.5313 36.4415 14.5701C36.4694 14.6099 36.4904 14.6541 36.5034 14.701C36.5166 14.7513 36.5253 14.8026 36.5296 14.8544L36.2916 14.8961C36.2891 14.8537 36.2836 14.8115 36.275 14.77C36.2701 14.7372 36.2552 14.7069 36.2321 14.6831C36.2062 14.661 36.1729 14.6496 36.1389 14.6512C36.1049 14.6527 36.0727 14.6671 36.0489 14.6914C36.0269 14.7195 36.0155 14.7545 36.0168 14.7902C36.016 14.8321 36.0272 14.8733 36.0489 14.9092C36.0739 14.9472 36.1044 14.9812 36.1393 15.0103L36.3261 15.1745C36.3881 15.2269 36.4415 15.2888 36.4844 15.3577C36.53 15.4337 36.5527 15.5213 36.5498 15.6099C36.551 15.6763 36.535 15.7419 36.5034 15.8003C36.472 15.855 36.4264 15.9003 36.3713 15.9311C36.3122 15.9649 36.2455 15.9829 36.1774 15.9835Z" fill="#263238"/>
<path d="M37.1292 15.9834C37.0387 15.9883 36.9487 15.9673 36.8698 15.9228C36.8052 15.882 36.7577 15.8189 36.7366 15.7455C36.711 15.6578 36.699 15.5667 36.7009 15.4754V14.4606H36.9674V15.5075C36.9673 15.5517 36.9705 15.5959 36.9769 15.6396C36.9806 15.6767 36.996 15.7117 37.0209 15.7395C37.0498 15.7642 37.0865 15.7777 37.1244 15.7777C37.1624 15.7777 37.1991 15.7642 37.2279 15.7395C37.251 15.7107 37.2658 15.6762 37.2708 15.6396C37.2771 15.5959 37.2803 15.5517 37.2803 15.5075V14.4618H37.5456V15.4766C37.5474 15.5679 37.5354 15.659 37.5099 15.7467C37.4898 15.8177 37.4451 15.8793 37.3838 15.9204C37.3065 15.9648 37.2183 15.9867 37.1292 15.9834Z" fill="#263238"/>
<path d="M37.7599 15.9621V14.463H38.2001C38.2762 14.4598 38.3518 14.4771 38.419 14.513C38.4733 14.5473 38.515 14.5982 38.538 14.6581C38.5659 14.7318 38.5792 14.8102 38.5772 14.889C38.5819 14.9713 38.5646 15.0534 38.5273 15.1269C38.4969 15.1849 38.4479 15.231 38.3881 15.2578C38.3212 15.2863 38.249 15.3001 38.1763 15.2982H38.0335V15.9645L37.7599 15.9621ZM38.0335 15.1043H38.1382C38.179 15.1068 38.2198 15.0994 38.2572 15.0829C38.2845 15.0682 38.305 15.0434 38.3143 15.0139C38.3262 14.9725 38.3314 14.9296 38.3298 14.8866C38.3308 14.8422 38.3269 14.7979 38.3179 14.7545C38.3114 14.7237 38.293 14.6968 38.2667 14.6796C38.2295 14.6624 38.1887 14.6542 38.1477 14.6558H38.043L38.0335 15.1043Z" fill="#263238"/>
<path d="M38.7283 15.9621V14.463H39.1685C39.245 14.4598 39.321 14.4771 39.3886 14.513C39.4426 14.5476 39.4842 14.5984 39.5075 14.6581C39.5355 14.7318 39.5488 14.8102 39.5468 14.8889C39.551 14.9713 39.5338 15.0532 39.4968 15.1269C39.4662 15.1847 39.4172 15.2307 39.3576 15.2578C39.2907 15.2862 39.2185 15.3 39.1459 15.2982H38.9972V15.9645L38.7283 15.9621ZM39.0019 15.1043H39.1054C39.1462 15.1065 39.1869 15.0992 39.2244 15.0829C39.2517 15.0682 39.2722 15.0434 39.2815 15.0139C39.2933 14.9725 39.2986 14.9296 39.297 14.8866C39.298 14.8422 39.2941 14.7979 39.2851 14.7545C39.2817 14.7392 39.2754 14.7247 39.2664 14.7118C39.2574 14.6989 39.246 14.688 39.2327 14.6796C39.1938 14.6612 39.1508 14.653 39.1078 14.6558H39.0043L39.0019 15.1043Z" fill="#263238"/>
<path d="M40.1109 15.9835C40.0227 15.9879 39.9349 15.9677 39.8575 15.9252C39.7943 15.8855 39.7464 15.8255 39.7219 15.755C39.6937 15.6703 39.68 15.5814 39.6814 15.4921V14.9305C39.6797 14.8424 39.6934 14.7546 39.7219 14.6712C39.7469 14.6019 39.7947 14.5432 39.8575 14.5046C39.9353 14.463 40.0228 14.4433 40.1109 14.4475C40.2002 14.4431 40.2889 14.4628 40.3679 14.5046C40.4301 14.5436 40.4774 14.6022 40.5023 14.6712C40.5318 14.7544 40.546 14.8423 40.544 14.9305V15.4933C40.5456 15.5819 40.5315 15.6701 40.5023 15.7538C40.4775 15.8238 40.4302 15.8836 40.3679 15.924C40.2895 15.9676 40.2005 15.9882 40.1109 15.9835ZM40.1109 15.7824C40.1472 15.7855 40.1832 15.7749 40.212 15.7527C40.2345 15.7309 40.2495 15.7026 40.2549 15.6718C40.2637 15.6327 40.2677 15.5928 40.2668 15.5528V14.8615C40.2678 14.8215 40.2638 14.7816 40.2549 14.7426C40.2495 14.7125 40.2344 14.6849 40.212 14.664C40.1828 14.6427 40.147 14.6326 40.1109 14.6355C40.0779 14.6314 40.0445 14.6402 40.0179 14.6602C39.9913 14.6802 39.9734 14.7097 39.9681 14.7426C39.9602 14.7817 39.9566 14.8216 39.9574 14.8615V15.5528C39.957 15.5926 39.9602 15.6325 39.967 15.6718C39.9722 15.7029 39.9877 15.7313 40.011 15.7527C40.0396 15.7742 40.0752 15.7843 40.1109 15.7812V15.7824Z" fill="#263238"/>
<path d="M40.7461 15.9621V14.463H41.103C41.1897 14.4608 41.2762 14.4733 41.3588 14.4999C41.4243 14.5196 41.4807 14.5617 41.5182 14.6189C41.5581 14.6916 41.577 14.774 41.573 14.8568C41.5734 14.9116 41.5678 14.9663 41.5563 15.0198C41.5455 15.0629 41.5261 15.1034 41.4992 15.1388C41.4701 15.174 41.4324 15.2011 41.3897 15.2173L41.5979 15.9549H41.3243L41.1435 15.2685H41.0197V15.9549L40.7461 15.9621ZM41.0197 15.1043H41.1054C41.1487 15.106 41.1918 15.0978 41.2315 15.0805C41.2626 15.0653 41.2868 15.0389 41.2993 15.0067C41.3139 14.9647 41.3208 14.9203 41.3195 14.8759C41.3237 14.8166 41.3091 14.7575 41.2779 14.7069C41.2579 14.6855 41.2332 14.6692 41.2057 14.6593C41.1782 14.6493 41.1487 14.6461 41.1197 14.6498H41.0197V15.1043Z" fill="#263238"/>
<path d="M41.9262 15.9621V14.6653H41.6882V14.463H42.4354V14.6653H42.1974V15.9621H41.9262Z" fill="#263238"/>
<path d="M20.571 6.60718H19.4348V9.82778H20.571V6.60718Z" fill="white" stroke="#263238" stroke-linecap="round" stroke-linejoin="round"/>
<path d="M19.6845 6.30981H18.1688V10.1265H19.6845V6.30981Z" fill="#263238" stroke="#263238" stroke-linecap="round" stroke-linejoin="round"/>
<path d="M23.9402 10.2728H20.6459C20.5018 10.2725 20.3637 10.2151 20.2618 10.1132C20.1599 10.0113 20.1025 9.87317 20.1022 9.72907L20.5709 6.6084C20.5709 6.4642 20.6282 6.32591 20.7302 6.22395C20.8321 6.12198 20.9704 6.0647 21.1146 6.0647H23.9402C24.1223 6.0647 24.2969 6.13702 24.4257 6.26576C24.5544 6.3945 24.6267 6.56911 24.6267 6.75117V9.5863C24.6269 9.6765 24.6092 9.76583 24.5748 9.84919C24.5403 9.93255 24.4898 10.0083 24.426 10.0721C24.3622 10.1358 24.2865 10.1864 24.2031 10.2208C24.1198 10.2553 24.0304 10.2729 23.9402 10.2728Z" fill="white" stroke="#263238" stroke-linecap="round" stroke-linejoin="round"/>
<path d="M20.3236 8.50014C20.3236 8.50014 20.1654 6.31698 20.9565 5.75186C21.7477 5.18673 22.2593 4.48241 22.2593 4.00771C22.2593 3.53301 23.0505 3.62819 23.0183 4.41817C22.9862 5.20815 22.4437 6.15875 22.3783 6.34672C22.3128 6.5347 23.0445 7.7744 22.2593 8.75355" fill="white"/>
<path d="M20.3236 8.50014C20.3236 8.50014 20.1654 6.31698 20.9565 5.75186C21.7477 5.18673 22.2593 4.48241 22.2593 4.00771C22.2593 3.53301 23.0505 3.62819 23.0183 4.41817C22.9862 5.20815 22.4437 6.15875 22.3783 6.34672C22.3128 6.5347 23.0445 7.7744 22.2593 8.75355" stroke="#263238" stroke-linecap="round" stroke-linejoin="round"/>
<path d="M25.5832 5.68396H23.8403C23.6451 5.68396 23.4869 5.84216 23.4869 6.03731V6.43825C23.4869 6.6334 23.6451 6.7916 23.8403 6.7916H25.5832C25.7784 6.7916 25.9366 6.6334 25.9366 6.43825V6.03731C25.9366 5.84216 25.7784 5.68396 25.5832 5.68396Z" fill="white" stroke="#263238" stroke-linecap="round" stroke-linejoin="round"/>
<path d="M25.2991 6.82251H23.5561C23.361 6.82251 23.2028 6.98071 23.2028 7.17586V7.5768C23.2028 7.77195 23.361 7.93015 23.5561 7.93015H25.2991C25.4942 7.93015 25.6524 7.77195 25.6524 7.5768V7.17586C25.6524 6.98071 25.4942 6.82251 25.2991 6.82251Z" fill="white" stroke="#263238" stroke-linecap="round" stroke-linejoin="round"/>
<path d="M25.2991 7.89929H23.5561C23.361 7.89929 23.2028 8.05749 23.2028 8.25264V8.65358C23.2028 8.84873 23.361 9.00693 23.5561 9.00693H25.2991C25.4942 9.00693 25.6524 8.84873 25.6524 8.65358V8.25264C25.6524 8.05749 25.4942 7.89929 25.2991 7.89929Z" fill="white" stroke="#263238" stroke-linecap="round" stroke-linejoin="round"/>
<path d="M24.7875 8.99023H23.4074C23.2293 8.99023 23.085 9.13459 23.085 9.31265V9.58272C23.085 9.76079 23.2293 9.90514 23.4074 9.90514H24.7875C24.9655 9.90514 25.1099 9.76079 25.1099 9.58272V9.31265C25.1099 9.13459 24.9655 8.99023 24.7875 8.99023Z" fill="white" stroke="#263238" stroke-linecap="round" stroke-linejoin="round"/>
<path d="M25.8404 3.1344C25.9176 3.21178 25.9609 3.3166 25.9609 3.42588C25.9609 3.53516 25.9176 3.63998 25.8404 3.71737L25.7833 3.77328L25.2015 4.35625L24.6197 3.77328L24.5626 3.71618C24.4856 3.63899 24.4423 3.53437 24.4423 3.42529C24.4423 3.3162 24.4856 3.21158 24.5626 3.1344C24.64 3.05724 24.7448 3.01392 24.8541 3.01392C24.9634 3.01392 25.0682 3.05724 25.1456 3.1344L25.2015 3.19151L25.2586 3.1344C25.3358 3.05731 25.4404 3.01402 25.5495 3.01402C25.6586 3.01402 25.7632 3.05731 25.8404 3.1344Z" fill="#6B6565" stroke="#263238" stroke-linecap="round" stroke-linejoin="round"/>
<path d="M18.941 5.30684C19.0763 5.44226 19.1523 5.62583 19.1523 5.81724C19.1523 6.00865 19.0763 6.19222 18.941 6.32763L18.8423 6.42638L17.8215 7.44836L16.7995 6.42638L16.7008 6.32763C16.5655 6.19222 16.4895 6.00865 16.4895 5.81724C16.4895 5.62583 16.5655 5.44226 16.7008 5.30684C16.8362 5.17157 17.0198 5.09558 17.2112 5.09558C17.4026 5.09558 17.5861 5.17157 17.7216 5.30684L17.8215 5.40559L17.9202 5.30684C18.0557 5.17157 18.2392 5.09558 18.4306 5.09558C18.622 5.09558 18.8056 5.17157 18.941 5.30684Z" fill="#6B6565" stroke="#263238" stroke-linecap="round" stroke-linejoin="round"/>
<path d="M27.7984 9.27702C27.8543 9.33235 27.8988 9.39821 27.9291 9.47081C27.9594 9.54341 27.975 9.6213 27.975 9.69997C27.975 9.77865 27.9594 9.85654 27.9291 9.92914C27.8988 10.0017 27.8543 10.0676 27.7984 10.1229L27.7163 10.2038L26.8704 11.0509L26.0245 10.2038L25.9424 10.1229C25.8865 10.0676 25.8421 10.0017 25.8118 9.92914C25.7815 9.85654 25.7659 9.77865 25.7659 9.69997C25.7659 9.6213 25.7815 9.54341 25.8118 9.47081C25.8421 9.39821 25.8865 9.33235 25.9424 9.27702C25.9978 9.22109 26.0636 9.17668 26.1362 9.14638C26.2088 9.11607 26.2867 9.10046 26.3654 9.10046C26.4441 9.10046 26.5219 9.11607 26.5945 9.14638C26.6671 9.17668 26.733 9.22109 26.7883 9.27702L26.8704 9.35912L26.9525 9.27702C27.0078 9.22109 27.0737 9.17668 27.1463 9.14638C27.2189 9.11607 27.2968 9.10046 27.3755 9.10046C27.4541 9.10046 27.532 9.11607 27.6046 9.14638C27.6772 9.17668 27.7431 9.22109 27.7984 9.27702Z" fill="#6B6565" stroke="#263238" stroke-linecap="round" stroke-linejoin="round"/>
<path d="M17.7632 13.1484C17.6846 13.151 17.6067 13.1329 17.5372 13.0961C17.4764 13.0602 17.4285 13.0061 17.4004 12.9414C17.3668 12.8623 17.349 12.7774 17.348 12.6915L17.586 12.6451C17.5874 12.6969 17.5946 12.7484 17.6074 12.7986C17.6161 12.8368 17.6345 12.872 17.6609 12.9009C17.6735 12.9132 17.6884 12.9228 17.7047 12.9291C17.7211 12.9355 17.7386 12.9384 17.7561 12.9378C17.7739 12.9395 17.7918 12.9366 17.8082 12.9295C17.8247 12.9225 17.839 12.9114 17.8501 12.8974C17.8703 12.8676 17.8803 12.8321 17.8786 12.7962C17.8809 12.7393 17.8651 12.683 17.8334 12.6356C17.799 12.5889 17.7591 12.5466 17.7145 12.5095L17.5253 12.343C17.4742 12.3001 17.4311 12.2485 17.398 12.1907C17.3652 12.1263 17.3492 12.0547 17.3516 11.9825C17.3485 11.9321 17.3562 11.8817 17.374 11.8345C17.3919 11.7874 17.4195 11.7445 17.4551 11.7088C17.5334 11.6412 17.6349 11.6066 17.7383 11.6125C17.7986 11.6106 17.8586 11.6216 17.9143 11.6446C17.9587 11.6641 17.9973 11.6948 18.0262 11.7338C18.0545 11.7733 18.0755 11.8177 18.088 11.8647C18.1019 11.9152 18.1106 11.967 18.1142 12.0193L17.8763 12.0598C17.874 12.0174 17.8689 11.9753 17.8608 11.9337C17.8547 11.9014 17.8399 11.8714 17.818 11.8468C17.8059 11.8357 17.7916 11.8272 17.776 11.8219C17.7604 11.8166 17.7439 11.8145 17.7275 11.8159C17.7101 11.8153 17.6928 11.8184 17.6768 11.8252C17.6608 11.832 17.6464 11.8422 17.6347 11.8552C17.6126 11.8832 17.6008 11.9181 17.6014 11.9539C17.5997 11.9982 17.6108 12.042 17.6336 12.08C17.6592 12.1171 17.6896 12.1507 17.724 12.18L17.9108 12.3453C17.973 12.3971 18.0264 12.4586 18.069 12.5274C18.1149 12.6033 18.138 12.6909 18.1356 12.7796C18.1365 12.8465 18.1202 12.9125 18.088 12.9711C18.0569 13.0258 18.0112 13.0707 17.956 13.1008C17.897 13.1332 17.8305 13.1496 17.7632 13.1484Z" fill="#263238"/>
<path d="M18.214 13.1281L18.5138 11.629H18.8089L19.1087 13.1281H18.8553L18.7958 12.7819H18.534L18.4733 13.1281H18.214ZM18.5602 12.6082H18.7636L18.6613 11.9788L18.5602 12.6082Z" fill="#263238"/>
<path d="M19.3384 13.1281V11.8301H19.1005V11.629H19.8488V11.8301H19.6109V13.1281H19.3384Z" fill="#263238"/>
<path d="M19.9915 13.1281V11.629H20.2615V13.1281H19.9915Z" fill="#263238"/>
<path d="M20.8707 13.1484C20.792 13.151 20.7141 13.1329 20.6446 13.0961C20.5838 13.0602 20.5359 13.0061 20.5078 12.9414C20.4742 12.8623 20.4564 12.7774 20.4554 12.6915L20.6934 12.6451C20.6948 12.6969 20.702 12.7484 20.7148 12.7986C20.7235 12.8368 20.7419 12.872 20.7683 12.9009C20.7809 12.9132 20.7958 12.9228 20.8122 12.9291C20.8285 12.9355 20.846 12.9384 20.8635 12.9378C20.8813 12.9395 20.8992 12.9366 20.9157 12.9295C20.9321 12.9225 20.9465 12.9114 20.9575 12.8974C20.9777 12.8676 20.9877 12.8321 20.9861 12.7962C20.9883 12.7393 20.9725 12.683 20.9409 12.6356C20.9068 12.5886 20.8668 12.5462 20.8219 12.5095L20.6327 12.343C20.582 12.3 20.5393 12.2485 20.5066 12.1907C20.4728 12.1266 20.4564 12.0548 20.459 11.9825C20.456 11.9321 20.4636 11.8817 20.4814 11.8345C20.4993 11.7874 20.5269 11.7445 20.5625 11.7088C20.6408 11.6412 20.7424 11.6066 20.8457 11.6125C20.906 11.6106 20.966 11.6216 21.0218 11.6446C21.0662 11.6641 21.1047 11.6948 21.1336 11.7338C21.162 11.7733 21.1829 11.8177 21.1955 11.8647C21.2093 11.9152 21.218 11.967 21.2216 12.0193L20.9837 12.0598C20.9815 12.0174 20.9763 11.9753 20.9682 11.9337C20.9621 11.9014 20.9473 11.8714 20.9254 11.8468C20.9133 11.8357 20.899 11.8272 20.8834 11.8219C20.8679 11.8166 20.8514 11.8145 20.835 11.8159C20.8176 11.8153 20.8002 11.8184 20.7842 11.8252C20.7682 11.832 20.7538 11.8422 20.7422 11.8552C20.7203 11.8833 20.709 11.9183 20.71 11.9539C20.7079 11.9981 20.7187 12.0419 20.741 12.08C20.7667 12.1171 20.7971 12.1507 20.8314 12.18L21.0182 12.3453C21.0807 12.3968 21.1342 12.4583 21.1764 12.5274C21.2223 12.6033 21.2454 12.6909 21.243 12.7796C21.244 12.8465 21.2276 12.9125 21.1955 12.9711C21.1648 13.0258 21.1195 13.0707 21.0646 13.1008C21.0051 13.133 20.9383 13.1494 20.8707 13.1484Z" fill="#263238"/>
<path d="M21.3932 13.1281V11.629H22.0095V11.8194H21.6644V12.2572H21.944V12.4476H21.6644V13.1281H21.3932Z" fill="#263238"/>
<path d="M22.0366 13.1281L22.3364 11.629H22.6291L22.9289 13.1281H22.6755L22.616 12.7819H22.3555L22.2936 13.1281H22.0366ZM22.3828 12.6082H22.5863L22.484 11.9788L22.3828 12.6082Z" fill="#263238"/>
<path d="M23.4654 13.1484C23.3747 13.1537 23.2845 13.1308 23.2073 13.0829C23.1453 13.0404 23.0992 12.9785 23.0764 12.9069C23.0509 12.8232 23.0385 12.7361 23.0395 12.6487V12.1133C23.0382 12.0231 23.0507 11.9333 23.0764 11.8468C23.0987 11.7756 23.1449 11.7142 23.2073 11.6731C23.2851 11.6346 23.3705 11.6139 23.4574 11.6125C23.5442 11.6111 23.6303 11.6289 23.7093 11.6648C23.767 11.6994 23.8111 11.7528 23.8343 11.8159C23.8597 11.8889 23.8722 11.9658 23.8711 12.0431V12.1692H23.6082V12.0396C23.6087 11.9998 23.6063 11.96 23.6011 11.9206C23.599 11.8898 23.5869 11.8605 23.5666 11.8373C23.5529 11.826 23.5372 11.8175 23.5202 11.8124C23.5033 11.8073 23.4854 11.8056 23.4678 11.8076C23.4493 11.8058 23.4306 11.8078 23.4129 11.8133C23.3951 11.8188 23.3786 11.8278 23.3643 11.8397C23.3415 11.8634 23.3269 11.8939 23.3227 11.9265C23.3164 11.9659 23.3132 12.0057 23.3132 12.0455V12.6963C23.3124 12.7414 23.3168 12.7866 23.3262 12.8307C23.3329 12.8618 23.3496 12.8898 23.3738 12.9104C23.4013 12.9296 23.4344 12.9388 23.4678 12.9366C23.4853 12.9387 23.5029 12.9369 23.5196 12.9314C23.5363 12.9258 23.5515 12.9166 23.5642 12.9045C23.5844 12.88 23.5972 12.8503 23.6011 12.8188C23.606 12.7794 23.6084 12.7396 23.6082 12.6999V12.5642H23.8711V12.6832C23.8726 12.7639 23.8605 12.8444 23.8354 12.9211C23.8144 12.9862 23.7726 13.0427 23.7165 13.0818C23.6413 13.1284 23.5539 13.1516 23.4654 13.1484Z" fill="#263238"/>
<path d="M24.2116 13.1281V11.8301H23.9736V11.629H24.722V11.8301H24.484V13.1281H24.2116Z" fill="#263238"/>
<path d="M24.8646 13.1281V11.629H25.1347V13.1281H24.8646Z" fill="#263238"/>
<path d="M25.7736 13.1484C25.6853 13.1525 25.5975 13.1319 25.5202 13.0889C25.457 13.0492 25.4091 12.9892 25.3846 12.9188C25.3563 12.834 25.3426 12.7451 25.3441 12.6558V12.0955C25.3425 12.0069 25.3562 11.9188 25.3846 11.8349C25.4093 11.7658 25.4572 11.7073 25.5202 11.6695C25.598 11.6279 25.6855 11.6082 25.7736 11.6124C25.8629 11.608 25.9516 11.6277 26.0306 11.6695C26.0929 11.7078 26.1404 11.7661 26.165 11.8349C26.1944 11.9186 26.2085 12.0068 26.2067 12.0955V12.6582C26.2085 12.7465 26.1944 12.8343 26.165 12.9176C26.1405 12.9877 26.0932 13.0476 26.0306 13.0877C25.9524 13.1318 25.8633 13.1528 25.7736 13.1484ZM25.7736 12.9461C25.7905 12.9498 25.808 12.9497 25.8248 12.9459C25.8417 12.9421 25.8575 12.9347 25.8712 12.9242C25.8849 12.9136 25.8962 12.9002 25.9042 12.8849C25.9122 12.8696 25.9168 12.8527 25.9176 12.8355C25.9264 12.7965 25.9304 12.7565 25.9295 12.7165V12.0265C25.9305 11.9865 25.9265 11.9465 25.9176 11.9075C25.9122 11.8774 25.8971 11.8498 25.8747 11.829C25.8455 11.8077 25.8097 11.7975 25.7736 11.8004C25.7387 11.7979 25.7041 11.808 25.6761 11.829C25.6525 11.8492 25.6366 11.8769 25.6308 11.9075C25.6229 11.9466 25.6193 11.9865 25.6201 12.0265V12.7165C25.6198 12.7564 25.6229 12.7962 25.6297 12.8355C25.6349 12.8669 25.6504 12.8958 25.6737 12.9176C25.7026 12.9385 25.738 12.9486 25.7736 12.9461Z" fill="#263238"/>
<path d="M26.4088 13.1281V11.629H26.5992L26.9632 12.4833V11.629H27.1893V13.1281H27.0084L26.642 12.2322V13.1281H26.4088Z" fill="#263238"/>
<path d="M5.30177 16.3095C5.30177 16.3095 5.16495 15.7753 4.21793 15.2613C3.2709 14.7474 3.18048 16.2321 3.58499 16.5534C3.9895 16.8746 5.30177 16.3095 5.30177 16.3095Z" fill="#6B6565" stroke="#263238" stroke-linecap="round" stroke-linejoin="round"/>
<path d="M5.30204 16.3095C4.63982 16.1018 3.99821 15.8334 3.38538 15.5077C2.43359 14.9937 2.34793 16.4785 2.75244 16.7997C3.15695 17.1209 5.30204 16.3095 5.30204 16.3095Z" fill="#6B6565" stroke="#263238" stroke-linecap="round" stroke-linejoin="round"/>
<path d="M5.16162 16.2738C5.16162 16.2738 4.14559 16.3844 3.75774 16.3083C3.36989 16.2322 3.02011 16.2893 3.24378 16.3975C3.46745 16.5058 3.55549 16.432 3.55549 16.432" stroke="#263238" stroke-linecap="round" stroke-linejoin="round"/>
<path d="M5.70752 16.1893C5.70752 16.1893 5.53025 15.667 6.04421 14.7188C6.55818 13.7706 7.44334 14.9662 7.27915 15.4576C7.11497 15.949 5.70752 16.1893 5.70752 16.1893Z" fill="#6B6565" stroke="#263238" stroke-linecap="round" stroke-linejoin="round"/>
<path d="M5.70752 16.1893C6.14923 15.6542 6.54072 15.0795 6.87703 14.4725C7.3898 13.5207 8.27496 14.72 8.11197 15.2102C7.94897 15.7003 5.70752 16.1893 5.70752 16.1893Z" fill="#6B6565" stroke="#263238" stroke-linecap="round" stroke-linejoin="round"/>
<path d="M5.80627 16.0822C5.80627 16.0822 6.71761 15.6206 6.99601 15.3458C7.2744 15.071 7.60158 14.927 7.4719 15.14C7.34222 15.3529 7.23395 15.3386 7.23395 15.3386" stroke="#263238" stroke-linecap="round" stroke-linejoin="round"/>
<path d="M5.63687 16.7521C5.91906 16.6683 6.08277 16.3813 6.00252 16.1111C5.92227 15.8409 5.62846 15.6898 5.34627 15.7736C5.06408 15.8574 4.90038 16.1443 4.98063 16.4146C5.06088 16.6848 5.35469 16.8359 5.63687 16.7521Z" fill="#6B6565" stroke="#263238" stroke-linecap="round" stroke-linejoin="round"/>
<path d="M9.1108 15.2713L1.70972 17.4299L3.49393 23.5472L10.895 21.3886L9.1108 15.2713Z" fill="white" stroke="#263238" stroke-linecap="round" stroke-linejoin="round"/>
<path d="M6.36065 16.0734L4.45898 16.6281L6.2432 22.7454L8.14487 22.1907L6.36065 16.0734Z" fill="#6B6565" stroke="#263238" stroke-linecap="round" stroke-linejoin="round"/>
<path d="M12.3726 17.2149C12.3726 17.2149 12.5665 16.6985 12.0823 15.7349C11.5981 14.7712 10.6772 15.9371 10.8248 16.4332C10.9723 16.9293 12.3726 17.2149 12.3726 17.2149Z" fill="#6B6565" stroke="#263238" stroke-linecap="round" stroke-linejoin="round"/>
<path d="M12.3726 17.2148C11.9482 16.6658 11.5754 16.0788 11.259 15.4612C10.776 14.4975 9.85275 15.6634 10.0003 16.1595C10.1478 16.6557 12.3726 17.2148 12.3726 17.2148Z" fill="#6B6565" stroke="#263238" stroke-linecap="round" stroke-linejoin="round"/>
<path d="M12.2774 17.1043C12.2774 17.1043 11.3804 16.6141 11.1056 16.3309C10.8307 16.0478 10.5107 15.8931 10.6297 16.1096C10.7486 16.3262 10.8676 16.3167 10.8676 16.3167" stroke="#263238" stroke-linecap="round" stroke-linejoin="round"/>
<path d="M12.7736 17.3481C12.7736 17.3481 12.927 16.8187 13.8907 16.3356C14.8544 15.8526 14.8972 17.3386 14.4856 17.6443C14.0739 17.9501 12.7736 17.3481 12.7736 17.3481Z" fill="#6B6565" stroke="#263238" stroke-linecap="round" stroke-linejoin="round"/>
<path d="M12.7736 17.3481C13.4421 17.1621 14.0921 16.9148 14.7152 16.6093C15.6789 16.1263 15.7205 17.6123 15.3101 17.918C14.8996 18.2238 12.7736 17.3481 12.7736 17.3481Z" fill="#6B6565" stroke="#263238" stroke-linecap="round" stroke-linejoin="round"/>
<path d="M12.916 17.3171C12.916 17.3171 13.9273 17.4599 14.3175 17.3969C14.7077 17.3338 15.0552 17.3969 14.8279 17.5027C14.6007 17.6086 14.515 17.5265 14.515 17.5265" stroke="#263238" stroke-linecap="round" stroke-linejoin="round"/>
<path d="M13.0601 17.4528C13.031 17.5551 12.9719 17.6464 12.8905 17.7148C12.809 17.7833 12.709 17.8258 12.6032 17.8369C12.4974 17.848 12.3907 17.8272 12.2968 17.7772C12.2029 17.7271 12.1262 17.6501 12.0764 17.5561C12.0267 17.4621 12.0062 17.3553 12.0176 17.2496C12.029 17.1438 12.0718 17.0439 12.1405 16.9626C12.2092 16.8814 12.3007 16.8226 12.4031 16.7938C12.5054 16.7649 12.6141 16.7674 12.7151 16.8008C12.7806 16.8209 12.8415 16.8538 12.8943 16.8974C12.9471 16.9411 12.9908 16.9947 13.0228 17.0553C13.0549 17.1158 13.0747 17.1821 13.0811 17.2503C13.0875 17.3185 13.0804 17.3873 13.0601 17.4528Z" fill="#6B6565" stroke="#263238" stroke-linecap="round" stroke-linejoin="round"/>
<path d="M16.1913 18.5166L8.87476 16.0869L6.86654 22.1344L14.1831 24.564L16.1913 18.5166Z" fill="white" stroke="#263238" stroke-linecap="round" stroke-linejoin="round"/>
<path d="M13.3941 17.7018L11.5122 17.0679L9.4731 23.1215L11.355 23.7553L13.3941 17.7018Z" fill="#6B6565" stroke="#263238" stroke-width="1.00245" stroke-linecap="round" stroke-linejoin="round"/>
<path d="M5.51611 27.286V25.7869H5.87303C5.95978 25.7845 6.04629 25.797 6.12883 25.8238C6.19441 25.8433 6.25093 25.8854 6.28825 25.9428C6.32862 26.0153 6.3476 26.0978 6.34298 26.1807C6.34342 26.2355 6.33783 26.2901 6.32632 26.3437C6.31615 26.3868 6.2971 26.4273 6.2704 26.4627C6.24066 26.4977 6.20262 26.5247 6.15976 26.5412L6.36915 27.2788H6.09551L5.91348 26.5924H5.78975V27.286H5.51611ZM5.78975 26.4282H5.87541C5.91871 26.4299 5.96182 26.4217 6.00152 26.4044C6.03286 26.3896 6.05719 26.3631 6.06934 26.3306C6.0845 26.2887 6.09137 26.2443 6.08956 26.1997C6.09426 26.1404 6.07965 26.0812 6.04792 26.0308C6.02803 26.0093 6.00328 25.993 5.97575 25.983C5.94822 25.9731 5.91871 25.9699 5.88969 25.9737H5.78975V26.4282Z" fill="#263238"/>
<path d="M6.55359 27.2859V25.7869H7.18296V25.9772H6.82604V26.4079H7.10562V26.5995H6.82485V27.0956H7.18177V27.2859H6.55359Z" fill="#263238"/>
<path d="M7.50532 27.2859L7.29236 25.7869H7.51722L7.63619 26.7589L7.79205 25.7904H7.98121L8.14064 26.7589L8.25961 25.7869H8.48566L8.28102 27.2859H8.05974L7.89317 26.2818L7.7278 27.2859H7.50532Z" fill="#263238"/>
<path d="M8.53906 27.2859L8.83887 25.7869H9.13036L9.43136 27.2859H9.17676L9.11846 26.9397H8.85672L8.79604 27.2859H8.53906ZM8.88527 26.766H9.08872L8.9864 26.1366L8.88527 26.766Z" fill="#263238"/>
<path d="M9.57312 27.286V25.7869H9.93004C10.0172 25.7846 10.1041 25.7971 10.187 25.8238C10.2521 25.8436 10.3082 25.8857 10.3453 25.9427C10.3856 26.0153 10.4046 26.0978 10.4 26.1807C10.401 26.2355 10.3954 26.2902 10.3833 26.3437C10.3732 26.3868 10.3541 26.4273 10.3274 26.4627C10.2979 26.4979 10.2598 26.525 10.2168 26.5412L10.4262 27.2788H10.1525L9.97049 26.5923H9.85152V27.286H9.57312ZM9.84795 26.4282H9.93242C9.9761 26.4298 10.0196 26.4217 10.0597 26.4044C10.0885 26.3893 10.1108 26.3644 10.1228 26.3342C10.1384 26.2924 10.1457 26.2479 10.1442 26.2033C10.1483 26.144 10.1337 26.0849 10.1026 26.0344C10.0825 26.0131 10.0577 25.9969 10.0302 25.987C10.0027 25.9771 9.97332 25.9737 9.94432 25.9772H9.84438L9.84795 26.4282Z" fill="#263238"/>
<path d="M10.608 27.286V25.7869H10.965C11.0627 25.7822 11.1602 25.7993 11.2505 25.8369C11.317 25.8675 11.3693 25.9224 11.3968 25.9903C11.429 26.0741 11.4439 26.1636 11.4408 26.2533V26.8101C11.4439 26.9025 11.4289 26.9946 11.3968 27.0813C11.3702 27.1507 11.319 27.2079 11.2529 27.2419C11.166 27.2814 11.0709 27.2993 10.9757 27.2943L10.608 27.286ZM10.8817 27.0956H10.965C11.0126 27.1 11.0604 27.0882 11.1006 27.0623C11.1292 27.0375 11.1472 27.0025 11.1505 26.9647C11.1573 26.9131 11.1605 26.861 11.1601 26.8089V26.2354C11.161 26.1863 11.1566 26.1373 11.147 26.0891C11.14 26.056 11.1209 26.0267 11.0934 26.007C11.0523 25.9874 11.0068 25.9788 10.9614 25.982H10.8817V27.0956Z" fill="#263238"/>
<path d="M10.8814 32.3363C10.8814 32.3363 10.5899 32.0888 9.93914 32.0662C9.53313 32.0599 9.12739 32.0902 8.7268 32.1566C8.53142 32.152 8.33642 32.1369 8.14265 32.1114C8.03081 32.0888 7.33482 31.6843 7.33482 31.6843L5.60376 34.761L11.0765 38.2029C11.1771 38.2688 11.2965 38.2999 11.4165 38.2913C11.5365 38.2827 11.6503 38.2349 11.7404 38.1553C11.754 38.1431 11.7667 38.13 11.7785 38.116C11.8355 38.0518 11.8707 37.9712 11.8793 37.8858C11.8878 37.8003 11.8692 37.7144 11.8261 37.6401C11.8261 37.6401 12.3567 37.9495 12.672 37.627C12.7603 37.5432 12.8214 37.4347 12.8475 37.3158C12.8736 37.1968 12.8634 37.0727 12.8183 36.9596C12.8183 36.9596 13.243 37.1202 13.5262 36.893C13.8093 36.6657 13.6452 36.2041 13.6452 36.2041C13.6452 36.2041 14.0889 36.2505 14.2305 36.0054C14.3721 35.7603 14.2591 35.4284 14.2591 35.4284L10.8814 32.3363Z" fill="white" stroke="#263238" stroke-linecap="round" stroke-linejoin="round"/>
<path d="M7.70617 35.7639L7.07561 36.4159C7.0276 36.4659 6.97021 36.5059 6.90672 36.5336C6.84323 36.5614 6.77488 36.5764 6.70559 36.5777C6.6363 36.579 6.56743 36.5667 6.50292 36.5414C6.43841 36.5161 6.37953 36.4783 6.32965 36.4301C6.27963 36.382 6.23959 36.3245 6.2118 36.261C6.18401 36.1974 6.16902 36.1289 6.1677 36.0595C6.16637 35.9901 6.17873 35.9212 6.20407 35.8566C6.22941 35.792 6.26723 35.733 6.31537 35.683L6.94593 35.0298C6.99412 34.9799 7.05167 34.94 7.11531 34.9123C7.17894 34.8846 7.24741 34.8697 7.31679 34.8685C7.38618 34.8673 7.45512 34.8797 7.51969 34.9052C7.58425 34.9306 7.64317 34.9685 7.69308 35.0168C7.79364 35.1142 7.85148 35.2476 7.85394 35.3876C7.85639 35.5277 7.80326 35.663 7.70617 35.7639Z" fill="white" stroke="#263238" stroke-linecap="round" stroke-linejoin="round"/>
<path d="M8.83998 36.1113L7.90723 37.0785C7.80975 37.1791 7.6764 37.2369 7.53636 37.2394C7.39633 37.2418 7.26103 37.1887 7.16008 37.0916C7.05952 36.9941 7.00168 36.8608 6.99923 36.7207C6.99677 36.5807 7.04991 36.4454 7.147 36.3445L8.07975 35.376C8.17723 35.2755 8.31058 35.2176 8.45062 35.2152C8.59065 35.2127 8.72595 35.2659 8.8269 35.3629C8.92782 35.4605 8.98589 35.5941 8.98835 35.7344C8.9908 35.8747 8.93744 36.0103 8.83998 36.1113Z" fill="white" stroke="#263238" stroke-linecap="round" stroke-linejoin="round"/>
<path d="M9.60732 36.8788L8.67457 37.8448C8.62646 37.8948 8.56897 37.9349 8.50537 37.9627C8.44178 37.9905 8.37334 38.0055 8.30395 38.0068C8.23457 38.0081 8.1656 37.9957 8.10099 37.9704C8.03638 37.9451 7.9774 37.9072 7.92742 37.8591C7.82685 37.7616 7.76901 37.6283 7.76656 37.4882C7.76411 37.3482 7.81724 37.2129 7.91433 37.112L8.84708 36.1447C8.94456 36.0441 9.07792 35.9863 9.21795 35.9838C9.35799 35.9814 9.49329 36.0345 9.59423 36.1316C9.69479 36.2291 9.75263 36.3625 9.75509 36.5025C9.75754 36.6425 9.70441 36.7778 9.60732 36.8788Z" fill="white" stroke="#263238" stroke-linecap="round" stroke-linejoin="round"/>
<path d="M10.2974 37.6878L9.8108 38.1934C9.71332 38.294 9.57996 38.3518 9.43993 38.3543C9.29989 38.3567 9.16459 38.3036 9.06365 38.2065C8.96308 38.109 8.90524 37.9757 8.90279 37.8356C8.90034 37.6956 8.95347 37.5603 9.05056 37.4593L9.53716 36.9549C9.58527 36.9048 9.64279 36.8647 9.70644 36.837C9.77008 36.8092 9.83859 36.7943 9.90802 36.793C9.97745 36.7918 10.0464 36.8043 10.111 36.8299C10.1756 36.8554 10.2345 36.8934 10.2843 36.9418C10.3344 36.9898 10.3744 37.0472 10.4022 37.1108C10.4299 37.1743 10.4448 37.2427 10.4461 37.3121C10.4473 37.3814 10.4348 37.4503 10.4093 37.5148C10.3837 37.5792 10.3457 37.638 10.2974 37.6878Z" fill="white" stroke="#263238" stroke-linecap="round" stroke-linejoin="round"/>
<path d="M11.8275 37.6437L10.5581 36.6586" stroke="#263238" stroke-linecap="round" stroke-linejoin="round"/>
<path d="M12.8185 36.9763L11.4218 35.8782" stroke="#263238" stroke-linecap="round" stroke-linejoin="round"/>
<path d="M13.7285 36.2779L12.3318 35.1798" stroke="#263238" stroke-linecap="round" stroke-linejoin="round"/>
<path d="M15.3729 30.8551L12.6782 32.4946C12.6782 32.4946 11.2862 31.7307 10.9043 31.9782C10.5224 32.2257 9.75979 32.692 9.51232 32.8312C9.26486 32.9704 8.81633 33.0109 8.97338 33.3476C9.13042 33.6843 9.48972 33.6391 9.93944 33.6843C10.3892 33.7295 11.4207 33.2084 11.4207 33.2084L14.276 35.4332L17.1552 33.7105L15.3729 30.8551Z" fill="white" stroke="#263238" stroke-linecap="round" stroke-linejoin="round"/>
<path d="M13.6083 31.8973L15.2965 34.8038L17.1549 33.708L15.3715 30.8539L13.6083 31.8973Z" fill="#6B6565" stroke="#263238" stroke-linecap="round" stroke-linejoin="round"/>
<path d="M14.1141 31.1204L16.1807 34.6634L18.2425 33.5225L16.1712 29.9033L14.1141 31.1204Z" fill="#6B6565" stroke="#263238" stroke-linecap="round" stroke-linejoin="round"/>
<path d="M15.6215 34.2661C15.6213 34.3002 15.611 34.3334 15.5919 34.3616C15.5728 34.3898 15.5457 34.4118 15.5142 34.4246C15.4827 34.4375 15.448 34.4408 15.4146 34.434C15.3812 34.4272 15.3506 34.4107 15.3266 34.3865C15.3026 34.3623 15.2863 34.3316 15.2797 34.2981C15.2732 34.2647 15.2766 34.2301 15.2897 34.1986C15.3028 34.1672 15.3249 34.1403 15.3533 34.1214C15.3816 34.1025 15.4149 34.0924 15.449 34.0924C15.4718 34.0924 15.4943 34.0969 15.5153 34.1057C15.5363 34.1144 15.5554 34.1272 15.5714 34.1434C15.5874 34.1595 15.6001 34.1787 15.6087 34.1997C15.6173 34.2208 15.6217 34.2434 15.6215 34.2661Z" fill="white" stroke="#263238" stroke-linecap="round" stroke-linejoin="round"/>
<path d="M7.83258 31.6866L6.32727 30.7847L4.15763 34.4056L5.66294 35.3075L7.83258 31.6866Z" fill="white" stroke="#263238" stroke-linecap="round" stroke-linejoin="round"/>
<path d="M7.44216 31.41L5.93298 30.515L3.78019 34.1452L5.28936 35.0402L7.44216 31.41Z" fill="#263238" stroke="#263238" stroke-width="0.99985" stroke-linecap="round" stroke-linejoin="round"/>
<path d="M4.96155 34.4968C5.0496 34.4968 5.12097 34.4254 5.12097 34.3374C5.12097 34.2494 5.0496 34.178 4.96155 34.178C4.8735 34.178 4.80212 34.2494 4.80212 34.3374C4.80212 34.4254 4.8735 34.4968 4.96155 34.4968Z" fill="white" stroke="#263238" stroke-linecap="round" stroke-linejoin="round"/>
<path d="M4.73547 34.0745C4.73547 34.106 4.72612 34.1368 4.70861 34.163C4.69109 34.1893 4.66619 34.2097 4.63706 34.2218C4.60793 34.2338 4.57587 34.237 4.54495 34.2308C4.51402 34.2247 4.48562 34.2095 4.46332 34.1872C4.44102 34.1649 4.42584 34.1365 4.41969 34.1056C4.41354 34.0746 4.4167 34.0426 4.42876 34.0135C4.44083 33.9843 4.46126 33.9594 4.48748 33.9419C4.5137 33.9244 4.54452 33.915 4.57605 33.915C4.61833 33.915 4.65888 33.9318 4.68878 33.9617C4.71868 33.9916 4.73547 34.0322 4.73547 34.0745Z" fill="white" stroke="#263238" stroke-linecap="round" stroke-linejoin="round"/>
<path d="M8.67801 41.4438V40.147H8.44006V39.9447H9.1884V40.147H8.95046V41.4438H8.67801Z" fill="#263238"/>
<path d="M9.32422 41.4438V39.9447H9.68114C9.76778 39.9426 9.85419 39.9546 9.93693 39.9804C10.0022 40.0004 10.0586 40.0425 10.0964 40.0994C10.1367 40.1719 10.1557 40.2544 10.1511 40.3373C10.1515 40.3921 10.1459 40.4467 10.1344 40.5003C10.1246 40.5436 10.1056 40.5841 10.0785 40.6193C10.0494 40.655 10.0112 40.6822 9.96786 40.6978L10.1773 41.4366H9.90362L9.72159 40.7502H9.59786V41.4438H9.32422ZM9.59786 40.5848H9.68352C9.72672 40.5868 9.76982 40.5791 9.80963 40.5622C9.84097 40.5473 9.8653 40.5209 9.87744 40.4884C9.8926 40.4465 9.89947 40.4021 9.89767 40.3575C9.90237 40.2982 9.88776 40.239 9.85603 40.1886C9.83613 40.1671 9.81138 40.1507 9.78385 40.1408C9.75632 40.1309 9.72681 40.1277 9.6978 40.1315H9.59786V40.5848Z" fill="#263238"/>
<path d="M10.7687 41.4675C10.6782 41.4724 10.5882 41.4514 10.5093 41.4069C10.4473 41.366 10.4018 41.3044 10.3808 41.2332C10.3563 41.1453 10.3447 41.0543 10.3463 40.9631V39.9482H10.6128V40.994C10.6123 41.0382 10.6155 41.0824 10.6224 41.1261C10.6262 41.163 10.6411 41.1978 10.6652 41.226C10.6785 41.2396 10.6947 41.2501 10.7126 41.2567C10.7306 41.2633 10.7497 41.2658 10.7687 41.2641C10.7877 41.266 10.8069 41.2636 10.8248 41.257C10.8428 41.2504 10.859 41.2398 10.8722 41.226C10.8958 41.1975 10.9106 41.1628 10.915 41.1261C10.9223 41.0824 10.9259 41.0383 10.9257 40.994V39.9482H11.1958V40.9678C11.1974 41.0591 11.1858 41.15 11.1613 41.2379C11.1404 41.3089 11.0954 41.3703 11.034 41.4116C10.953 41.456 10.8607 41.4755 10.7687 41.4675Z" fill="#263238"/>
<path d="M11.7823 41.4676C11.7036 41.4707 11.6256 41.4526 11.5563 41.4152C11.4955 41.3794 11.4476 41.3252 11.4194 41.2605C11.3863 41.1814 11.3689 41.0965 11.3683 41.0107L11.6062 40.9643C11.6077 41.0161 11.6149 41.0676 11.6276 41.1178C11.6363 41.1563 11.6548 41.1919 11.6812 41.2213C11.6938 41.2333 11.7088 41.2427 11.7251 41.2488C11.7415 41.255 11.7589 41.2577 11.7764 41.257C11.7942 41.2588 11.8123 41.2562 11.8289 41.2494C11.8455 41.2425 11.8602 41.2316 11.8715 41.2177C11.8904 41.1874 11.9 41.1523 11.8989 41.1166C11.9014 41.0594 11.886 41.0029 11.8549 40.9548C11.8207 40.9083 11.7807 40.8663 11.7359 40.8299L11.5467 40.6621C11.4961 40.6192 11.4534 40.5676 11.4206 40.5098C11.3867 40.4458 11.3703 40.374 11.373 40.3016C11.37 40.2513 11.3776 40.2009 11.3955 40.1537C11.4133 40.1065 11.4409 40.0637 11.4766 40.028C11.555 39.9605 11.6564 39.926 11.7597 39.9316C11.82 39.9297 11.8801 39.9406 11.9358 39.9637C11.9803 39.9837 12.0188 40.0148 12.0476 40.0542C12.0764 40.093 12.0975 40.137 12.1095 40.1838C12.1238 40.2343 12.1326 40.2862 12.1357 40.3385L11.8977 40.3801C11.8962 40.3377 11.891 40.2956 11.8822 40.254C11.8764 40.2217 11.8615 40.1916 11.8394 40.1672C11.8275 40.156 11.8135 40.1474 11.7981 40.1418C11.7828 40.1363 11.7665 40.134 11.7502 40.1351C11.7324 40.1338 11.7146 40.1369 11.6983 40.1439C11.682 40.1509 11.6675 40.1618 11.6562 40.1755C11.6342 40.2036 11.6228 40.2386 11.6241 40.2743C11.6227 40.318 11.6334 40.3612 11.655 40.3992C11.6807 40.437 11.7116 40.471 11.7466 40.5003L11.9334 40.6645C11.9951 40.7168 12.0484 40.7782 12.0916 40.8465C12.1367 40.9232 12.1594 41.011 12.1571 41.0999C12.1585 41.1665 12.142 41.2322 12.1095 41.2903C12.0789 41.3452 12.0336 41.3906 11.9786 41.4212C11.9182 41.453 11.8506 41.469 11.7823 41.4676Z" fill="#263238"/>
<path d="M12.4688 41.4438V40.147H12.2308V39.9447H12.9804V40.147H12.7424V41.4438H12.4688Z" fill="#263238"/>
<path d="M31.5063 26.39C31.7473 25.8823 32.0236 25.3921 32.3332 24.9231C32.6411 24.45 32.9752 23.9944 33.3338 23.5585C34.0597 22.6733 34.888 21.8774 35.8013 21.1873C36.2679 20.8398 36.7558 20.5219 37.2623 20.2356C37.7765 19.9516 38.3096 19.7032 38.8577 19.492C39.6561 19.1905 40.4833 18.9716 41.3264 18.8388C41.4506 18.8182 41.5779 18.8244 41.6995 18.8572C41.8211 18.89 41.9342 18.9486 42.0313 19.0289C42.1283 19.1092 42.2069 19.2094 42.2618 19.3228C42.3167 19.4361 42.3467 19.56 42.3496 19.6859C42.354 19.9186 42.2662 20.1436 42.1052 20.3117C41.9442 20.4798 41.7232 20.5773 41.4906 20.583C40.7486 20.604 40.0107 20.7009 39.2884 20.8721C38.7773 20.9965 38.2753 21.1555 37.7857 21.348C37.2925 21.5459 36.8122 21.7744 36.3474 22.032C35.4058 22.5662 34.5308 23.2099 33.7407 23.9499C33.3403 24.3252 32.961 24.7224 32.6045 25.1396C32.2432 25.5552 31.9117 25.9957 31.6122 26.4578L31.5063 26.39Z" fill="#263238"/>
<path d="M25.2745 26.3901C25.0316 25.8822 24.7534 25.392 24.4417 24.9231C24.1353 24.4505 23.8033 23.9949 23.4471 23.5585C22.7211 22.6731 21.8924 21.8771 20.9784 21.1874C20.5124 20.8396 20.0248 20.5217 19.5186 20.2356C19.0039 19.9517 18.4705 19.7032 17.922 19.492C17.1236 19.1904 16.2964 18.9715 15.4533 18.8389C15.3291 18.8184 15.202 18.8248 15.0806 18.8577C14.9591 18.8906 14.8461 18.9491 14.7492 19.0294C14.6523 19.1098 14.5738 19.2099 14.519 19.3232C14.4641 19.4364 14.4342 19.5601 14.4313 19.6859C14.4268 19.9186 14.5147 20.1437 14.6757 20.3118C14.8366 20.4799 15.0576 20.5774 15.2903 20.583C16.0341 20.6021 16.774 20.6974 17.4984 20.8673C18.0092 20.9916 18.5108 21.1506 18.9999 21.3432C19.4933 21.5407 19.9737 21.7692 20.4383 22.0273C21.3802 22.5609 22.2553 23.2047 23.045 23.9452C23.446 24.3202 23.8258 24.7174 24.1823 25.1349C24.5436 25.5505 24.8751 25.991 25.1746 26.4531L25.2745 26.3901Z" fill="#6B6565"/>
<path d="M24.4097 14.8699C24.5419 14.7756 24.6937 14.7126 24.8539 14.6856C25.014 14.6587 25.1781 14.6685 25.3339 14.7143C25.4897 14.7602 25.633 14.8409 25.753 14.9503C25.873 15.0597 25.9665 15.1949 26.0265 15.3458C26.7909 17.2857 27.1991 19.3476 27.2317 21.4325L27.1127 21.4527C26.4583 19.6146 25.4769 17.91 24.2157 16.4213C24.1217 16.3093 24.0518 16.179 24.0103 16.0387C23.9689 15.8984 23.9569 15.7511 23.975 15.606C23.993 15.4608 24.0409 15.3209 24.1155 15.1951C24.1901 15.0693 24.2898 14.9602 24.4085 14.8747L24.4097 14.8699Z" fill="#263238"/>
<path d="M40.5792 27.0849C40.651 26.9393 40.6887 26.7791 40.6895 26.6167C40.6903 26.4543 40.6542 26.2938 40.5838 26.1474C40.5134 26.0011 40.4107 25.8726 40.2833 25.7718C40.1559 25.671 40.0073 25.6005 39.8487 25.5656C37.8103 25.1254 35.7093 25.0569 33.6466 25.3634V25.4824C35.565 25.8307 37.4049 26.5223 39.0777 27.5239C39.2039 27.5982 39.344 27.6458 39.4893 27.6638C39.6346 27.6818 39.7821 27.6698 39.9226 27.6286C40.0631 27.5873 40.1937 27.5177 40.3062 27.424C40.4187 27.3303 40.5108 27.2145 40.5768 27.0837L40.5792 27.0849Z" fill="#6B6565"/>
<path d="M14.8098 27.55C14.729 27.4091 14.6813 27.2517 14.6703 27.0896C14.6593 26.9275 14.6854 26.7651 14.7465 26.6146C14.8076 26.464 14.9021 26.3294 15.0229 26.2208C15.1438 26.1123 15.2877 26.0326 15.4439 25.9879C17.4503 25.4193 19.5429 25.2178 21.621 25.393L21.6281 25.512C19.734 25.9796 17.94 26.7857 16.3326 27.8915C16.2117 27.9744 16.075 28.0315 15.931 28.0591C15.787 28.0867 15.6388 28.0842 15.4958 28.0518C15.3528 28.0194 15.218 27.9578 15.1 27.8708C14.9819 27.7839 14.8831 27.6734 14.8098 27.5464V27.55Z" fill="#263238"/>
<path d="M34.1261 12.6725C33.9728 12.533 33.7895 12.4305 33.5904 12.373C33.3912 12.3154 33.1816 12.3043 32.9775 12.3405C32.7734 12.3767 32.5803 12.4593 32.4131 12.5818C32.2459 12.7043 32.1091 12.8635 32.0131 13.0472C30.7789 15.3915 29.9773 17.939 29.6467 20.5675L29.7931 20.608C30.8748 18.3789 32.3504 16.3637 34.1487 14.6593C34.2836 14.5308 34.3905 14.3758 34.4628 14.204C34.535 14.0323 34.5709 13.8474 34.5684 13.6611C34.5658 13.4748 34.5248 13.291 34.4478 13.1213C34.3709 12.9516 34.2597 12.7996 34.1213 12.6749L34.1261 12.6725Z" fill="#6B6565"/>
<path d="M21.7486 18.3949C22.1176 18.026 22.1176 17.4279 21.7486 17.059C21.3797 16.6901 20.7816 16.6901 20.4127 17.059C20.0438 17.4279 20.0438 18.026 20.4127 18.3949C20.7816 18.7638 21.3797 18.7638 21.7486 18.3949Z" fill="#6B6565"/>
<path d="M27.2329 23.7227C27.2329 23.8655 27.1906 24.0051 27.1112 24.1239C27.0318 24.2426 26.9191 24.3352 26.7871 24.3899C26.6551 24.4445 26.5099 24.4588 26.3699 24.4309C26.2298 24.4031 26.1011 24.3343 26.0001 24.2333C25.8991 24.1323 25.8303 24.0036 25.8025 23.8635C25.7746 23.7235 25.7889 23.5783 25.8435 23.4463C25.8982 23.3143 25.9908 23.2015 26.1095 23.1222C26.2283 23.0428 26.3679 23.0005 26.5107 23.0005C26.7023 23.0005 26.886 23.0766 27.0214 23.212C27.1568 23.3474 27.2329 23.5311 27.2329 23.7227Z" fill="#263238"/>
<path d="M36.0831 19.2969C36.0831 19.4088 36.05 19.5181 35.9878 19.611C35.9257 19.704 35.8373 19.7764 35.734 19.8192C35.6307 19.8619 35.517 19.873 35.4073 19.8511C35.2977 19.8292 35.197 19.7753 35.118 19.6961C35.039 19.617 34.9853 19.5162 34.9636 19.4065C34.9419 19.2968 34.9533 19.1831 34.9962 19.0798C35.0392 18.9766 35.1118 18.8884 35.2049 18.8265C35.298 18.7645 35.4074 18.7316 35.5192 18.7318C35.6689 18.7321 35.8123 18.7918 35.918 18.8978C36.0238 19.0037 36.0831 19.1473 36.0831 19.2969Z" fill="#6B6565"/>
<path d="M19.1343 23.8797C19.1343 23.9915 19.1011 24.1007 19.039 24.1937C18.9769 24.2866 18.8887 24.359 18.7854 24.4018C18.6822 24.4446 18.5685 24.4558 18.4589 24.434C18.3493 24.4122 18.2486 24.3583 18.1695 24.2793C18.0905 24.2003 18.0367 24.0996 18.0149 23.9899C17.9931 23.8803 18.0043 23.7667 18.047 23.6634C18.0898 23.5602 18.1623 23.4719 18.2552 23.4098C18.3481 23.3477 18.4574 23.3146 18.5692 23.3146C18.719 23.3146 18.8628 23.3741 18.9688 23.4801C19.0747 23.5861 19.1343 23.7298 19.1343 23.8797Z" fill="#263238"/>
<path d="M34.0749 26.7981C34.0749 26.8664 34.0547 26.9331 34.0168 26.9898C33.9789 27.0466 33.925 27.0908 33.8619 27.1169C33.7989 27.143 33.7295 27.1499 33.6626 27.1365C33.5957 27.1232 33.5342 27.0904 33.4859 27.0421C33.4377 26.9939 33.4048 26.9324 33.3915 26.8655C33.3782 26.7985 33.385 26.7292 33.4112 26.6661C33.4373 26.6031 33.4815 26.5492 33.5382 26.5113C33.595 26.4734 33.6617 26.4531 33.7299 26.4531C33.8214 26.4531 33.9092 26.4895 33.9739 26.5542C34.0386 26.6189 34.0749 26.7066 34.0749 26.7981Z" fill="#6B6565"/>
<path d="M38.7517 23.1885C38.9771 23.1885 39.1598 23.0058 39.1598 22.7804C39.1598 22.555 38.9771 22.3723 38.7517 22.3723C38.5263 22.3723 38.3436 22.555 38.3436 22.7804C38.3436 23.0058 38.5263 23.1885 38.7517 23.1885Z" fill="#263238"/>
<path d="M53.9055 52.6069H55.8733" stroke="#263238" stroke-linecap="round" stroke-linejoin="round"/>
<path d="M51.6559 52.6069H52.9063" stroke="#263238" stroke-linecap="round" stroke-linejoin="round"/>
<path d="M3.47156 52.6069H50.9049" stroke="#263238" stroke-linecap="round" stroke-linejoin="round"/>
<path d="M0 52.6069H2.63763" stroke="#263238" stroke-linecap="round" stroke-linejoin="round"/>
</g>
<defs>
<clipPath id="clip0_604_6325">
<rect y="0.5" width="56" height="56" rx="28" fill="white"/>
</clipPath>
</defs>
</svg>
