<svg width="56" height="57" viewBox="0 0 56 57" fill="none" xmlns="http://www.w3.org/2000/svg">
<g clip-path="url(#clip0_604_2388)">
<rect y="0.5" width="56" height="56" rx="28" fill="white"/>
<path d="M55.832 44.7167H-0.167969V44.7447H55.832V44.7167Z" fill="#EBEBEB"/>
<path d="M50.2204 46.5188H46.511V46.5468H50.2204V46.5188Z" fill="#EBEBEB"/>
<path d="M36.9285 46.8235H35.9552V46.8515H36.9285V46.8235Z" fill="#EBEBEB"/>
<path d="M46.3995 45.4795H44.2502V45.5075H46.3995V45.4795Z" fill="#EBEBEB"/>
<path d="M10.5443 45.6676H5.70703V45.6956H10.5443V45.6676Z" fill="#EBEBEB"/>
<path d="M12.2514 45.6676H11.5425V45.6956H12.2514V45.6676Z" fill="#EBEBEB"/>
<path d="M25.0489 46.1403H14.5568V46.1683H25.0489V46.1403Z" fill="#EBEBEB"/>
<path d="M26.3762 39.7215H4.75009C4.58068 39.7212 4.4183 39.6536 4.29861 39.5337C4.17892 39.4138 4.11169 39.2514 4.11169 39.0819V8.68177C4.11317 8.51333 4.18104 8.35227 4.30058 8.23357C4.42011 8.11488 4.58164 8.04814 4.75009 8.04785H26.3762C26.5458 8.04785 26.7085 8.11523 26.8284 8.23516C26.9483 8.3551 27.0157 8.51776 27.0157 8.68737V39.0819C27.0157 39.2515 26.9483 39.4142 26.8284 39.5341C26.7085 39.6541 26.5458 39.7215 26.3762 39.7215ZM4.75009 8.07025C4.5881 8.07055 4.43285 8.13511 4.31841 8.24976C4.20397 8.36441 4.13969 8.51978 4.13969 8.68177V39.0819C4.13969 39.2439 4.20397 39.3993 4.31841 39.5139C4.43285 39.6286 4.5881 39.6932 4.75009 39.6935H26.3762C26.5383 39.6932 26.6936 39.6286 26.8083 39.514C26.9229 39.3994 26.9874 39.244 26.9877 39.0819V8.68177C26.9874 8.51968 26.9229 8.36431 26.8083 8.24969C26.6936 8.13507 26.5383 8.07055 26.3762 8.07025H4.75009Z" fill="#EBEBEB"/>
<path d="M50.6025 39.7215H28.9753C28.8058 39.7212 28.6433 39.6537 28.5235 39.5338C28.4036 39.4139 28.3361 39.2515 28.3358 39.0819V8.68177C28.3376 8.51322 28.4057 8.35216 28.5254 8.2335C28.6451 8.11484 28.8068 8.04814 28.9753 8.04785H50.6025C50.7708 8.04843 50.932 8.1153 51.0513 8.23397C51.1706 8.35263 51.2383 8.51352 51.2398 8.68177V39.0819C51.2398 39.2512 51.1727 39.4135 51.0533 39.5333C50.9338 39.6532 50.7718 39.7209 50.6025 39.7215ZM28.9753 8.07025C28.8132 8.07055 28.6579 8.13507 28.5433 8.24969C28.4286 8.36431 28.3641 8.51968 28.3638 8.68177V39.0819C28.3641 39.244 28.4286 39.3994 28.5433 39.514C28.6579 39.6286 28.8132 39.6932 28.9753 39.6935H50.6025C50.7646 39.6932 50.92 39.6286 51.0346 39.514C51.1492 39.3994 51.2138 39.244 51.2141 39.0819V8.68177C51.2138 8.51968 51.1492 8.36431 51.0346 8.24969C50.92 8.13507 50.7646 8.07055 50.6025 8.07025H28.9753Z" fill="#EBEBEB"/>
<path d="M4.9842 39.7193H50.5682V33.5973H47.8802L47.869 30.5733H46.2002V26.7653H43.8482V24.5455L40.8242 22.1733H35.6532L30.8562 26.7653H31.9762V31.8053H29.5122V30.1253H24.1362V20.8293H21.7842V32.8133H19.7682V26.7653H11.7042V29.7893H7.1122V34.8293L3.9762 36.4063H4.9842V39.7193Z" fill="#EBEBEB"/>
<path d="M13.6994 27.7465H12.8135V29.4623H13.6994V27.7465Z" fill="#F5F5F5"/>
<path d="M14.8077 27.7465H13.9218V29.4623H14.8077V27.7465Z" fill="#F5F5F5"/>
<path d="M15.9138 27.7465H15.0278V29.4623H15.9138V27.7465Z" fill="#F5F5F5"/>
<path d="M17.0211 27.7465H16.1351V29.4623H17.0211V27.7465Z" fill="#F5F5F5"/>
<path d="M18.1271 27.7465H17.2412V29.4623H18.1271V27.7465Z" fill="#F5F5F5"/>
<path d="M19.2354 27.7465H18.3495V29.4623H19.2354V27.7465Z" fill="#F5F5F5"/>
<path d="M44.6883 31.5746H43.2435V33.0194H44.6883V31.5746Z" fill="#F5F5F5"/>
<path d="M44.6883 33.2657H43.2435V34.7105H44.6883V33.2657Z" fill="#F5F5F5"/>
<path d="M46.3729 31.5746H44.9281V33.0194H46.3729V31.5746Z" fill="#F5F5F5"/>
<path d="M46.3729 33.2657H44.9281V34.7105H46.3729V33.2657Z" fill="#F5F5F5"/>
<path d="M7.0534 36.6449H5.71948V37.9788H7.0534V36.6449Z" fill="#F5F5F5"/>
<path d="M8.78082 36.6449H7.4469V37.9788H8.78082V36.6449Z" fill="#F5F5F5"/>
<path d="M10.5082 36.6449H9.17432V37.9788H10.5082V36.6449Z" fill="#F5F5F5"/>
<path d="M12.2335 36.6449H10.8995V37.9788H12.2335V36.6449Z" fill="#F5F5F5"/>
<path d="M13.961 36.6449H12.6271V37.9788H13.961V36.6449Z" fill="#F5F5F5"/>
<path d="M15.6873 36.6449H14.3534V37.9788H15.6873V36.6449Z" fill="#F5F5F5"/>
<path d="M9.16498 30.682H7.83105V32.0159H9.16498V30.682Z" fill="#F5F5F5"/>
<path d="M10.8913 30.682H9.55737V32.0159H10.8913V30.682Z" fill="#F5F5F5"/>
<path d="M12.6176 30.682H11.2837V32.0159H12.6176V30.682Z" fill="#F5F5F5"/>
<path d="M14.3452 30.682H13.0112V32.0159H14.3452V30.682Z" fill="#F5F5F5"/>
<path d="M16.0715 30.682H14.7375V32.0159H16.0715V30.682Z" fill="#F5F5F5"/>
<path d="M17.7978 30.682H16.4639V32.0159H17.7978V30.682Z" fill="#F5F5F5"/>
<path d="M41.1226 35.9785H39.7887V37.3124H41.1226V35.9785Z" fill="#F5F5F5"/>
<path d="M42.85 35.9785H41.5161V37.3124H42.85V35.9785Z" fill="#F5F5F5"/>
<path d="M44.5775 35.9785H43.2435V37.3124H44.5775V35.9785Z" fill="#F5F5F5"/>
<path d="M46.3027 35.9785H44.9688V37.3124H46.3027V35.9785Z" fill="#F5F5F5"/>
<path d="M48.0302 35.9785H46.6963V37.3124H48.0302V35.9785Z" fill="#F5F5F5"/>
<path d="M49.7576 35.9785H48.4237V37.3124H49.7576V35.9785Z" fill="#F5F5F5"/>
<path d="M21.6459 35.3109H20.312V36.6448H21.6459V35.3109Z" fill="#F5F5F5"/>
<path d="M23.3733 35.3109H22.0394V36.6448H23.3733V35.3109Z" fill="#F5F5F5"/>
<path d="M25.1009 35.3109H23.767V36.6448H25.1009V35.3109Z" fill="#F5F5F5"/>
<path d="M26.826 35.3109H25.4921V36.6448H26.826V35.3109Z" fill="#F5F5F5"/>
<path d="M28.5535 35.3109H27.2196V36.6448H28.5535V35.3109Z" fill="#F5F5F5"/>
<path d="M30.2798 35.3109H28.9459V36.6448H30.2798V35.3109Z" fill="#F5F5F5"/>
<path d="M36.5322 27.7465H35.1982V29.0804H36.5322V27.7465Z" fill="#F5F5F5"/>
<path d="M38.2597 27.7465H36.9258V29.0804H38.2597V27.7465Z" fill="#F5F5F5"/>
<path d="M39.986 27.7465H38.6521V29.0804H39.986V27.7465Z" fill="#F5F5F5"/>
<path d="M41.7134 27.7465H40.3795V29.0804H41.7134V27.7465Z" fill="#F5F5F5"/>
<path d="M43.4398 27.7465H42.1058V29.0804H43.4398V27.7465Z" fill="#F5F5F5"/>
<path d="M45.1661 27.7465H43.8322V29.0804H45.1661V27.7465Z" fill="#F5F5F5"/>
<path d="M25.9562 31.3495H24.5092V32.7965H25.9562V31.3495Z" fill="#F5F5F5"/>
<path d="M27.7401 31.3495H26.2931V32.7965H27.7401V31.3495Z" fill="#F5F5F5"/>
<path d="M25.9562 33.1426H24.5092V34.5896H25.9562V33.1426Z" fill="#F5F5F5"/>
<path d="M27.7401 33.1426H26.2931V34.5896H27.7401V33.1426Z" fill="#F5F5F5"/>
<path d="M9.68054 19.2939H12.6989V9.94971H9.68054L10.2809 14.6212L9.68054 19.2939Z" fill="#EBEBEB"/>
<path d="M9.68054 19.2939H12.6989V9.94971H9.68054L10.2809 14.6212L9.68054 19.2939Z" fill="#EBEBEB"/>
<path d="M43.7002 17.3584C43.7002 17.3584 36.7036 19.1157 27.4445 19.1157C18.1855 19.1157 11.1888 17.3584 11.1888 17.3584V8.02881C11.1888 8.02881 20.2429 9.78497 27.4445 9.78497C34.6461 9.78497 43.7002 8.02881 43.7002 8.02881V17.3584Z" fill="#EBEBEB"/>
<path d="M11.1888 17.3584L12.6986 19.2938V9.94961L11.1888 8.02881V17.3584Z" fill="#EBEBEB"/>
<path d="M45.2091 19.2939H42.1918V9.94971H45.2091L44.6087 14.6212L45.2091 19.2939Z" fill="#EBEBEB"/>
<path d="M45.2091 19.2939H42.1918V9.94971H45.2091L44.6087 14.6212L45.2091 19.2939Z" fill="#EBEBEB"/>
<path d="M43.7004 17.3584L42.1918 19.2938V9.94961L43.7004 8.02881V17.3584Z" fill="#EBEBEB"/>
<path d="M43.7002 17.3584C43.7002 17.3584 36.7036 19.1157 27.4445 19.1157C18.1855 19.1157 11.1888 17.3584 11.1888 17.3584V8.02881C11.1888 8.02881 20.2429 9.78497 27.4445 9.78497C34.6461 9.78497 43.7002 8.02881 43.7002 8.02881V17.3584Z" fill="#EBEBEB"/>
<path d="M27.3233 14.5031C27.5894 13.3756 26.8911 12.2457 25.7635 11.9796C24.6359 11.7135 23.5061 12.4118 23.2399 13.5394C22.9738 14.667 23.6721 15.7968 24.7997 16.0629C25.9273 16.3291 27.0571 15.6307 27.3233 14.5031Z" fill="white"/>
<g opacity="0.4">
<path d="M25.8457 12.7117V15.328H24.962V13.3781H24.514V12.7061L25.8457 12.7117Z" fill="#EBEBEB"/>
</g>
<path d="M21.5462 10.9611H15.795V17.0819H21.5462V10.9611Z" fill="white"/>
<path d="M16.2684 16.7346L16.638 14.6391C16.74 14.2796 17.758 14.2168 18.3628 14.1911V13.7431C18.0044 13.6568 17.5934 13.4967 17.5788 13.2088V11.8044C17.59 11.4448 17.8028 11.3429 18.5656 11.3116C19.3283 11.2802 19.4492 11.5871 19.4694 11.7226V13.0778C19.4896 13.5919 19.1872 13.5818 18.812 13.6949V14.1877C19.5209 14.2538 20.3419 14.1463 20.455 14.5988L21.071 16.7346H16.2684Z" fill="#6B6565"/>
<path d="M16.2684 16.7346L16.638 14.6391C16.74 14.2796 17.758 14.2168 18.3628 14.1911V13.7431C18.0044 13.6568 17.5934 13.4967 17.5788 13.2088V11.8044C17.59 11.4448 17.8028 11.3429 18.5656 11.3116C19.3283 11.2802 19.4492 11.5871 19.4694 11.7226V13.0778C19.4896 13.5919 19.1872 13.5818 18.812 13.6949V14.1877C19.5209 14.2538 20.3419 14.1463 20.455 14.5988L21.071 16.7346H16.2684Z" fill="#EBEBEB"/>
<path d="M42.434 10.4805L29.582 11.8446V11.0573L42.434 9.69312V10.4805Z" fill="white"/>
<path d="M42.434 12.0867L29.582 13.4508V12.6635L42.434 11.2993V12.0867Z" fill="white"/>
<path d="M42.434 13.6614L29.582 15.0255V14.2382L42.434 12.874V13.6614Z" fill="white"/>
<path d="M42.434 15.0446L29.582 16.4076V15.6202L42.434 14.2572V15.0446Z" fill="white"/>
<path d="M27.8304 49.7747C39.8237 49.7747 49.5461 49.2071 49.5461 48.5069C49.5461 47.8066 39.8237 47.239 27.8304 47.239C15.8372 47.239 6.11475 47.8066 6.11475 48.5069C6.11475 49.2071 15.8372 49.7747 27.8304 49.7747Z" fill="#F5F5F5"/>
<path d="M23.9022 15.4982L24.3917 15.1812C24.5003 15.1117 24.63 15.0827 24.7579 15.0995L25.4568 15.1913C25.5228 15.2004 25.5864 15.2224 25.6438 15.2563L26.1747 15.5744L25.7737 15.888L24.0613 15.804L23.9022 15.4982Z" fill="#263238"/>
<path d="M23.9001 19.296H25.5566L25.9004 19.585L23.7758 19.7485L23.9001 19.296Z" fill="#6B6565"/>
<path d="M21.8777 20.043L23.9026 19.7238L25.9007 19.585L28.0545 19.809L28.2102 21.9773L27.826 27.7598H23.1534L21.8777 22.1699V20.043Z" fill="#263238"/>
<path d="M27.2499 47.6993L28.1593 47.7945L28.2064 47.2479L28.1907 47.2378L28.2948 45.8412V45.8356L27.4044 45.7393L27.41 45.7505L27.2868 47.2378V47.2479L27.2499 47.6993Z" fill="#B97964"/>
<path d="M22.718 47.5839H23.5983L23.6084 47.3151L23.6095 47.2904L23.6498 46.157L23.6509 46.1324L23.6711 45.5679H22.8076V45.5948L22.7908 45.6172L22.6956 47.2333V47.2591L22.718 47.5839Z" fill="#B97964"/>
<path d="M23.7194 47.5313H22.6498C22.6322 47.5312 22.6151 47.5371 22.6015 47.5481C22.5878 47.5592 22.5783 47.5746 22.5747 47.5918L22.4011 48.3758C22.3942 48.4095 22.4009 48.4446 22.4198 48.4733C22.4387 48.5021 22.4682 48.5222 22.5019 48.5292C22.5112 48.5303 22.5206 48.5303 22.5299 48.5292C22.876 48.5236 23.128 48.5023 23.5626 48.5023C23.8302 48.5023 24.6378 48.5303 25.0074 48.5303C25.377 48.5303 25.4251 48.1652 25.2739 48.1316C24.5952 47.9838 24.0845 47.7788 23.8672 47.5839C23.8265 47.5481 23.7736 47.5292 23.7194 47.5313Z" fill="#263238"/>
<path d="M28.2556 47.5033H27.186C27.1684 47.5032 27.1514 47.5092 27.1377 47.5202C27.124 47.5312 27.1146 47.5466 27.111 47.5638L26.9374 48.3478C26.9304 48.3815 26.9371 48.4166 26.956 48.4454C26.9749 48.4741 27.0045 48.4942 27.0382 48.5012C27.0475 48.5023 27.0569 48.5023 27.0662 48.5012C27.4122 48.4956 27.6642 48.4744 28.0988 48.4744C28.3665 48.4744 29.174 48.5024 29.5436 48.5024C29.9132 48.5024 29.9614 48.1372 29.8102 48.1036C29.1315 47.9558 28.6207 47.7508 28.4034 47.556C28.3627 47.5201 28.3098 47.5013 28.2556 47.5033Z" fill="#263238"/>
<path opacity="0.2" d="M27.2905 47.2479H28.2078L28.3299 45.8411L27.4216 45.7471L27.4204 45.7504L27.2916 47.2378L27.2905 47.2479Z" fill="black"/>
<path opacity="0.2" d="M22.7465 47.2815L23.6077 47.3599H23.6089L23.6503 46.1806L23.6492 46.1682L22.8237 45.6228L22.7487 47.2479L22.7465 47.2815Z" fill="black"/>
<path d="M22.5261 47.08L23.8768 47.2379C23.8768 47.2379 24.8748 40.5582 25.2948 37.6787C25.3015 37.6328 25.3071 37.588 25.3138 37.5443C25.4796 36.4075 25.67 34.2694 25.8312 32.2601C25.9231 32.5065 26.0071 32.7787 26.0855 33.0755C26.1023 33.1371 26.1191 33.1998 26.1348 33.2637C26.1504 33.3275 26.1717 33.4149 26.1896 33.4877C26.2076 33.5605 26.2232 33.6355 26.24 33.7117C26.2692 33.8483 26.2983 33.9894 26.3263 34.1328C27.2335 38.7841 27.2514 47.0005 27.2514 47.0005L28.5282 47.0777C29.4578 39.9512 28.4319 31.3977 27.9279 28.292C27.9285 28.2968 27.9285 28.3017 27.9279 28.3065C27.9189 28.2483 27.9088 28.1945 27.8999 28.1329C27.9004 28.1288 27.9004 28.1247 27.8999 28.1206C27.8752 27.9694 27.8517 27.8675 27.8304 27.7555H23.1612C23.1612 27.7555 23.1612 27.7958 23.1556 27.8238C23.15 27.8518 23.1556 27.8899 23.1556 27.9291C23.1556 27.9683 23.1556 27.9873 23.1556 28.0209C23.1556 28.0545 23.1556 28.059 23.1556 28.0792C23.1556 28.0993 23.1556 28.1206 23.1556 28.143C23.1556 28.2438 23.1556 28.3614 23.1556 28.4936C23.1556 28.5406 23.1556 28.5899 23.1556 28.6414C23.1556 28.6705 23.1556 28.6997 23.1556 28.7288C23.1556 28.7579 23.1556 28.8117 23.1556 28.8553C23.141 30.0425 23.1108 31.9913 23.0648 33.8953C23.0648 33.9704 23.0648 34.0454 23.0648 34.1193C23.0648 34.1933 23.0648 34.2381 23.0648 34.2974C23.048 34.9694 23.029 35.6213 23.0066 36.2272C22.9842 36.8331 22.9607 37.3841 22.9349 37.8512C22.9349 37.8937 22.9349 37.9385 22.9282 37.9833C22.9282 38.0472 22.9215 38.1133 22.917 38.1816C22.7389 41.088 22.5261 47.08 22.5261 47.08Z" fill="#263238"/>
<path opacity="0.3" d="M22.5261 47.08L23.8768 47.2379C23.8768 47.2379 24.8748 40.5582 25.2948 37.6787C25.3015 37.6328 25.3071 37.588 25.3138 37.5443C25.4796 36.4075 25.67 34.2694 25.8312 32.2601C25.9231 32.5065 26.0071 32.7787 26.0855 33.0755C26.1023 33.1371 26.1191 33.1998 26.1348 33.2637C26.1504 33.3275 26.1717 33.4149 26.1896 33.4877C26.2076 33.5605 26.2232 33.6355 26.24 33.7117C26.2692 33.8483 26.2983 33.9894 26.3263 34.1328C27.2335 38.7841 27.2514 47.0005 27.2514 47.0005L28.5282 47.0777C29.4578 39.9512 28.4319 31.3977 27.9279 28.292C27.9284 28.2875 27.9284 28.283 27.9279 28.2785C27.9189 28.2281 27.9088 28.18 27.8999 28.1329C27.9004 28.1288 27.9004 28.1247 27.8999 28.1206C27.8741 27.984 27.8506 27.8675 27.8304 27.7555H23.1533C23.1533 27.7555 23.1533 27.7958 23.1533 27.8238C23.1533 27.8518 23.1533 27.8888 23.1533 27.9291C23.1533 27.9694 23.1533 27.9873 23.1533 28.0209V28.0792C23.1533 28.0993 23.1533 28.1206 23.1533 28.143C23.1533 28.2438 23.1533 28.3614 23.1533 28.4936C23.1533 28.5406 23.1533 28.5899 23.1533 28.6414C23.1533 28.6705 23.1533 28.6997 23.1533 28.7288C23.1533 28.7579 23.1533 28.8117 23.1533 28.8553C23.1388 30.0425 23.1085 31.9913 23.0626 33.8953C23.0626 33.9704 23.0626 34.0454 23.0626 34.1193C23.0626 34.1933 23.0626 34.2381 23.0626 34.2974C23.0458 34.9694 23.0268 35.6213 23.0044 36.2272C22.982 36.8331 22.9596 37.4054 22.9327 37.8792C22.9327 37.9128 22.9327 37.9475 22.926 37.9833C22.926 38.0472 22.9192 38.1133 22.9148 38.1816C22.7389 41.088 22.5261 47.08 22.5261 47.08Z" fill="black"/>
<path d="M33.0638 20.3904L34.3765 18.8638C34.3602 18.6868 34.4075 18.5097 34.5098 18.3643C34.6789 18.1403 35.4942 17.7729 35.5558 17.8334C35.6174 17.8939 35.7798 18.7025 35.688 18.7899C35.5962 18.8773 34.7842 19.3096 34.7842 19.3096L33.7986 20.9L33.0638 20.3904Z" fill="#B97964"/>
<path d="M33.9561 19.1157C33.9561 19.1157 32.1227 21.6492 31.6668 21.7242C31.211 21.7992 28.0548 19.8079 28.0548 19.8079L27.9955 21.8653C27.9955 21.8653 30.866 23.3852 31.7396 23.225C32.6132 23.0648 34.7222 19.8504 34.7222 19.8504L33.9561 19.1157Z" fill="#263238"/>
<path d="M16.9789 20.6278L15.6663 19.1012C15.6825 18.9245 15.6352 18.7479 15.533 18.6028C15.3639 18.3788 14.5485 18.0115 14.4869 18.0719C14.4253 18.1324 14.2685 18.9411 14.3548 19.0284C14.441 19.1158 15.2586 19.547 15.2586 19.547L16.2442 21.1374L16.9789 20.6278Z" fill="#B97964"/>
<path d="M15.9847 19.3531C15.9847 19.3531 17.817 21.8877 18.274 21.9616C18.7309 22.0355 21.8871 20.0475 21.8871 20.0475L21.8938 22.2416C21.8938 22.2416 18.9292 23.832 18.0556 23.673C17.182 23.5139 15.2197 20.089 15.2197 20.089L15.9847 19.3531Z" fill="#263238"/>
<path d="M23.2004 27.5202L22.5261 30.9956L25.1996 31.8367L25.8469 30.6618L26.6007 31.6687L28.5316 31.1647L27.7543 27.4127L23.2004 27.5202Z" fill="#263238"/>
<path d="M26.1278 25.0405L26.4156 21.3277L25.9004 19.585L23.7758 19.7485L24.2798 21.5886L26.1278 25.0405Z" fill="#6B6565"/>
<path opacity="0.4" d="M26.1278 25.0405L26.4156 21.3277L25.9004 19.585L23.7758 19.7485L24.2798 21.5886L26.1278 25.0405Z" fill="white"/>
<path d="M26.5248 15.7759C26.7297 16.2049 26.5102 17.1065 26.0275 17.2879C25.2827 17.5668 25.3835 15.4959 25.3835 15.4959C25.3835 15.4959 26.2772 15.2574 26.5248 15.7759Z" fill="#263238"/>
<path d="M23.9022 19.7239C24.3312 20.1137 25.6729 20.7398 25.6729 20.7398C25.6729 20.7398 26.0381 19.79 25.8969 19.5851C25.5105 19.5212 25.3235 19.3409 25.2462 19.1102C25.2039 18.9672 25.1906 18.8171 25.207 18.6689C25.2134 18.5862 25.2243 18.504 25.2395 18.4225L23.9437 17.4559C24.1139 18.0955 24.3222 19.2636 23.9022 19.7239Z" fill="#B97964"/>
<path opacity="0.2" d="M24.2479 18.0719C24.2994 18.8559 24.9401 19.0665 25.2559 19.1101C25.2136 18.9671 25.2003 18.8171 25.2167 18.6689L24.2479 18.0719Z" fill="black"/>
<path d="M24.1569 18.2523C24.2919 18.452 24.4887 18.602 24.7171 18.679C24.9455 18.7561 25.193 18.7561 25.4214 18.679C25.7184 18.5844 25.9686 18.3807 26.1214 18.1089C26.1426 18.0726 26.1621 18.0352 26.1796 17.9969C26.4966 17.2555 26.5974 15.9585 25.8134 15.4724C25.641 15.3641 25.4438 15.3018 25.2405 15.2912C25.0372 15.2806 24.8345 15.3222 24.6518 15.4119C24.4691 15.5017 24.3124 15.6367 24.1966 15.8041C24.0807 15.9715 24.0096 16.1658 23.99 16.3684C23.8937 17.2319 23.7996 17.7393 24.1569 18.2523Z" fill="#B97964"/>
<path d="M25.2558 16.831C25.239 16.8993 25.2704 16.9631 25.3163 16.971C25.3622 16.9788 25.4093 16.9284 25.4216 16.859C25.4339 16.7895 25.4059 16.7268 25.36 16.719C25.3141 16.7111 25.267 16.7593 25.2558 16.831Z" fill="#263238"/>
<path d="M26.0455 16.9653C26.0287 17.0337 26.0612 17.0986 26.1071 17.1065C26.153 17.1143 26.1989 17.0628 26.2113 16.9945C26.2236 16.9261 26.1956 16.8612 26.1508 16.8533C26.106 16.8455 26.0567 16.8959 26.0455 16.9653Z" fill="#263238"/>
<path d="M25.7868 16.9575C25.8339 17.1856 25.9123 17.4061 26.0198 17.6127C25.9655 17.6381 25.9062 17.6513 25.8462 17.6513C25.7862 17.6513 25.727 17.6381 25.6726 17.6127L25.7868 16.9575Z" fill="#A24E3F"/>
<path d="M25.0518 16.5319C25.0592 16.5343 25.0671 16.5348 25.0748 16.5332C25.0825 16.5316 25.0896 16.5281 25.0954 16.5229C25.1326 16.4863 25.1777 16.4589 25.2273 16.4427C25.2768 16.4266 25.3295 16.4222 25.381 16.4299C25.3863 16.4313 25.3918 16.4315 25.3972 16.4307C25.4026 16.4299 25.4078 16.4281 25.4125 16.4253C25.4172 16.4225 25.4213 16.4188 25.4245 16.4144C25.4278 16.41 25.4301 16.405 25.4314 16.3997C25.4328 16.3944 25.433 16.3889 25.4322 16.3835C25.4314 16.3781 25.4296 16.3729 25.4268 16.3682C25.424 16.3636 25.4203 16.3595 25.4159 16.3562C25.4115 16.353 25.4065 16.3506 25.4012 16.3493C25.3362 16.3376 25.2693 16.3417 25.2061 16.3612C25.143 16.3806 25.0855 16.415 25.0383 16.4613C25.0307 16.4691 25.0264 16.4795 25.0264 16.4904C25.0264 16.5013 25.0307 16.5118 25.0383 16.5195C25.042 16.5245 25.0466 16.5286 25.0518 16.5319Z" fill="#263238"/>
<path d="M25.4978 17.961C25.395 17.9593 25.2942 17.9327 25.2039 17.8836C25.1136 17.8344 25.0365 17.7642 24.9793 17.6788C24.9766 17.6737 24.976 17.6677 24.9774 17.6622C24.9789 17.6566 24.9823 17.6517 24.9871 17.6485C24.9919 17.6456 24.9976 17.6447 25.003 17.6459C25.0085 17.6472 25.0132 17.6505 25.0162 17.6553C25.0709 17.7331 25.143 17.7972 25.2268 17.8423C25.3106 17.8874 25.4038 17.9123 25.4989 17.9151C25.5045 17.9154 25.5098 17.9177 25.5137 17.9216C25.5176 17.9256 25.52 17.9308 25.5202 17.9364C25.5204 17.9392 25.5199 17.9421 25.5189 17.9447C25.5179 17.9474 25.5164 17.9498 25.5144 17.9518C25.5123 17.9538 25.5099 17.9554 25.5073 17.9564C25.5046 17.9574 25.5018 17.9578 25.4989 17.9577L25.4978 17.961Z" fill="#263238"/>
<path d="M26.4309 16.7502C26.4383 16.7547 26.4469 16.757 26.4555 16.757C26.466 16.7536 26.4747 16.7464 26.4801 16.7369C26.4855 16.7273 26.4871 16.7161 26.4846 16.7054C26.4675 16.6415 26.4353 16.5825 26.3907 16.5336C26.3461 16.4847 26.2903 16.4472 26.2282 16.4243C26.2229 16.4228 26.2175 16.4223 26.2121 16.4228C26.2066 16.4234 26.2014 16.425 26.1966 16.4276C26.1918 16.4302 26.1876 16.4338 26.1842 16.438C26.1807 16.4422 26.1782 16.4471 26.1766 16.4523C26.1741 16.4628 26.1755 16.474 26.1807 16.4835C26.1859 16.493 26.1944 16.5003 26.2046 16.5038C26.253 16.5232 26.2961 16.5535 26.3307 16.5924C26.3653 16.6312 26.3904 16.6776 26.404 16.7278C26.4066 16.7333 26.4103 16.7381 26.415 16.742C26.4196 16.7459 26.425 16.7487 26.4309 16.7502Z" fill="#263238"/>
<path d="M23.9027 15.4981C23.9027 15.4981 23.4838 16.0581 23.5846 16.9541C23.672 17.7381 24.0853 18.1055 24.0853 18.1055C23.8993 17.7325 23.9553 17.0045 24.0763 16.9855C24.1973 16.9664 24.1883 17.1076 24.1883 17.1076C24.4582 16.9384 24.8513 16.6685 24.5501 15.8565C24.5142 15.7602 24.7472 15.8487 24.7472 15.5967C24.7472 15.3447 24.1782 15.2293 23.9027 15.4981Z" fill="#263238"/>
<path d="M23.4944 17.0079C23.5562 17.2188 23.6992 17.3964 23.892 17.5018C24.1485 17.6396 24.34 17.4246 24.3221 17.1502C24.3053 16.9049 24.153 16.5308 23.8741 16.5095C23.5952 16.4882 23.4205 16.7481 23.4944 17.0079Z" fill="#B97964"/>
<path d="M25.673 20.7397L25.5207 20.0352L23.9 19.296L24.6706 20.3029L25.673 20.7397Z" fill="#6B6565"/>
<path opacity="0.4" d="M25.673 20.7397L25.5207 20.0352L23.9 19.296L24.6706 20.3029L25.673 20.7397Z" fill="white"/>
<path d="M23.9001 19.296L25.5207 20.0352L25.3774 20.7397L23.7758 19.7485L23.9001 19.296Z" fill="#6B6565"/>
<path opacity="0.3" d="M23.9001 19.296L25.5207 20.0352L25.3774 20.7397L23.7758 19.7485L23.9001 19.296Z" fill="white"/>
<path d="M25.6728 20.7397L25.591 20.0184L25.5563 19.296L25.9001 19.585L25.6728 20.7397Z" fill="#6B6565"/>
<path d="M25.9897 20.6557L25.591 20.0184L25.5563 19.296L25.9001 19.585L25.9897 20.6557Z" fill="#6B6565"/>
<path opacity="0.2" d="M25.9897 20.6557L25.591 20.0184L25.5563 19.296L25.9001 19.585L25.9897 20.6557Z" fill="white"/>
<path d="M25.5213 20.0352L25.5919 20.0184L25.901 20.5146L25.7744 20.7128L25.6098 20.7397L25.4026 20.6221L25.5213 20.0352Z" fill="#263238"/>
<path d="M25.6553 24.158L25.6094 20.7398L25.774 20.7129L26.2265 23.7716L26.1279 25.0406L25.6553 24.158Z" fill="#263238"/>
<path opacity="0.2" d="M23.3555 19.8325L23.6758 21.8485L26.002 26.5525L26.1275 25.0405L24.2436 21.4577L23.7755 19.7485L23.3555 19.8325Z" fill="black"/>
<path opacity="0.2" d="M25.9009 19.585L26.4161 21.3277L25.9009 28.1574L27.1038 21.4117L26.313 19.6275L25.9009 19.585Z" fill="black"/>
<path opacity="0.2" d="M28.2099 21.9773C28.2232 21.7747 28.2153 21.5712 28.1864 21.3702C28.481 21.8014 29.0152 22.245 29.7544 22.6974C29.2582 22.4891 28.743 22.2472 28.2099 21.9773Z" fill="black"/>
<path d="M25.0788 14.8799L25.6388 15.0859C25.6644 15.0953 25.6868 15.1118 25.7033 15.1334C25.7199 15.1551 25.7299 15.181 25.7323 15.2082C25.7346 15.2353 25.7292 15.2626 25.7166 15.2868C25.704 15.3109 25.6848 15.331 25.6612 15.3447L25.5346 15.4163C25.461 15.4587 25.3737 15.4704 25.2916 15.4488L24.8357 15.3301L24.4874 15.1375L24.6532 14.9728C24.7079 14.9184 24.7771 14.8808 24.8524 14.8643C24.9278 14.8479 25.0064 14.8532 25.0788 14.8799Z" fill="#263238"/>
<path d="M11.7966 15.7759C11.7966 15.7759 11.9254 16.1365 12.5706 16.2743C13.2157 16.412 13.9739 16.1029 14.5664 16.2743C15.1589 16.4456 15.7357 17.0179 15.7357 17.0179L16.5197 14.5427C16.2161 14.1801 15.8082 13.9197 15.3515 13.7968C14.6403 13.6355 14.0333 13.9223 13.461 13.8327C13.1113 13.7718 12.7971 13.5819 12.5806 13.3007L11.7966 15.7759Z" fill="#6B6565"/>
<path opacity="0.3" d="M11.7966 15.7759C11.7966 15.7759 11.9254 16.1365 12.5706 16.2743C13.2157 16.412 13.9739 16.1029 14.5664 16.2743C15.1589 16.4456 15.7357 17.0179 15.7357 17.0179L16.5197 14.5427C16.2161 14.1801 15.8082 13.9197 15.3515 13.7968C14.6403 13.6355 14.0333 13.9223 13.461 13.8327C13.1113 13.7718 12.7971 13.5819 12.5806 13.3007L11.7966 15.7759Z" fill="white"/>
<path d="M13.304 14.7287C13.251 14.8976 13.2493 15.0785 13.299 15.2484C13.3487 15.4183 13.4477 15.5697 13.5834 15.6834C13.7191 15.7971 13.8854 15.8681 14.0614 15.8874C14.2374 15.9067 14.4152 15.8734 14.5722 15.7917C14.7293 15.71 14.8587 15.5837 14.944 15.4285C15.0293 15.2734 15.0668 15.0965 15.0517 14.9201C15.0365 14.7437 14.9694 14.5757 14.8589 14.4374C14.7484 14.2991 14.5994 14.1966 14.4307 14.1429C14.3183 14.1071 14.1999 14.0939 14.0823 14.104C13.9647 14.1141 13.8503 14.1473 13.7456 14.2017C13.641 14.2561 13.548 14.3307 13.4722 14.4211C13.3965 14.5116 13.3393 14.6161 13.304 14.7287Z" fill="white"/>
<g opacity="0.4">
<path d="M14.5423 14.5305L14.2813 15.6214L13.9128 15.5318L14.1111 14.7187L13.9252 14.6728L13.9924 14.3961L14.5423 14.5305Z" fill="black"/>
</g>
<path d="M14.5934 20.5851L14.6842 20.6138L16.6151 14.4935L16.5243 14.4649L14.5934 20.5851Z" fill="#263238"/>
<path opacity="0.2" d="M14.5934 20.5851L14.6842 20.6138L16.6151 14.4935L16.5243 14.4649L14.5934 20.5851Z" fill="white"/>
<path d="M16.5109 14.4599C16.5083 14.4677 16.5072 14.4759 16.5079 14.4841C16.5085 14.4923 16.5108 14.5003 16.5145 14.5076C16.5183 14.5149 16.5234 14.5214 16.5297 14.5267C16.536 14.5319 16.5433 14.5359 16.5512 14.5383C16.5593 14.5421 16.5681 14.5441 16.577 14.5441C16.586 14.5442 16.5948 14.5424 16.603 14.5388C16.6112 14.5351 16.6185 14.5298 16.6244 14.5231C16.6304 14.5165 16.6348 14.5086 16.6375 14.5001C16.6401 14.4915 16.6409 14.4825 16.6398 14.4737C16.6387 14.4648 16.6357 14.4563 16.6311 14.4486C16.6264 14.441 16.6201 14.4345 16.6127 14.4295C16.6053 14.4245 16.597 14.4211 16.5881 14.4196C16.5804 14.4172 16.5723 14.4163 16.5642 14.417C16.5562 14.4177 16.5483 14.42 16.5411 14.4237C16.534 14.4275 16.5276 14.4326 16.5224 14.4388C16.5172 14.445 16.5133 14.4522 16.5109 14.4599Z" fill="#263238"/>
<path opacity="0.3" d="M16.5109 14.4599C16.5083 14.4677 16.5072 14.4759 16.5079 14.4841C16.5085 14.4923 16.5108 14.5003 16.5145 14.5076C16.5183 14.5149 16.5234 14.5214 16.5297 14.5267C16.536 14.5319 16.5433 14.5359 16.5512 14.5383C16.5593 14.5421 16.5681 14.5441 16.577 14.5441C16.586 14.5442 16.5948 14.5424 16.603 14.5388C16.6112 14.5351 16.6185 14.5298 16.6244 14.5231C16.6304 14.5165 16.6348 14.5086 16.6375 14.5001C16.6401 14.4915 16.6409 14.4825 16.6398 14.4737C16.6387 14.4648 16.6357 14.4563 16.6311 14.4486C16.6264 14.441 16.6201 14.4345 16.6127 14.4295C16.6053 14.4245 16.597 14.4211 16.5881 14.4196C16.5804 14.4172 16.5723 14.4163 16.5642 14.417C16.5562 14.4177 16.5483 14.42 16.5411 14.4237C16.534 14.4275 16.5276 14.4326 16.5224 14.4388C16.5172 14.445 16.5133 14.4522 16.5109 14.4599Z" fill="white"/>
<path d="M37.4459 20.9917C37.4459 20.9917 37.5658 21.1519 37.9096 21.1228C38.2534 21.0936 38.5816 20.8226 38.9064 20.8159C39.1504 20.8306 39.3885 20.8967 39.6053 21.0096L39.6165 19.6533C39.4088 19.5188 39.1649 19.4511 38.9176 19.4596C38.5379 19.4876 38.2781 19.7239 37.979 19.7664C37.7948 19.7901 37.6084 19.7433 37.4571 19.6354L37.4459 20.9917Z" fill="#6B6565"/>
<path opacity="0.3" d="M37.4459 20.9917C37.4459 20.9917 37.5658 21.1519 37.9096 21.1228C38.2534 21.0936 38.5816 20.8226 38.9064 20.8159C39.1504 20.8306 39.3885 20.8967 39.6053 21.0096L39.6165 19.6533C39.4088 19.5188 39.1649 19.4511 38.9176 19.4596C38.5379 19.4876 38.2781 19.7239 37.979 19.7664C37.7948 19.7901 37.6084 19.7433 37.4571 19.6354L37.4459 20.9917Z" fill="white"/>
<path d="M38.0402 20.238C38.0393 20.3309 38.066 20.4219 38.1169 20.4996C38.1677 20.5773 38.2405 20.6381 38.326 20.6744C38.4115 20.7107 38.5058 20.7208 38.597 20.7035C38.6882 20.6862 38.7723 20.6422 38.8385 20.5771C38.9047 20.512 38.9501 20.4287 38.969 20.3377C38.9878 20.2468 38.9793 20.1523 38.9444 20.0663C38.9095 19.9802 38.8499 19.9064 38.7731 19.8542C38.6963 19.8021 38.6057 19.7739 38.5128 19.7732C38.3886 19.7723 38.269 19.8207 38.1804 19.9079C38.0918 19.995 38.0414 20.1137 38.0402 20.238Z" fill="white"/>
<g opacity="0.4">
<path d="M38.6773 19.9479V20.5337H38.4791V20.0957H38.3783V19.9468L38.6773 19.9479Z" fill="black"/>
</g>
<path d="M39.5772 22.9707L39.6276 22.9711L39.6551 19.6168L39.6047 19.6164L39.5772 22.9707Z" fill="#263238"/>
<path opacity="0.2" d="M39.5772 22.9707L39.6276 22.9711L39.6551 19.6168L39.6047 19.6164L39.5772 22.9707Z" fill="white"/>
<path d="M39.6005 19.613C39.6005 19.6217 39.6039 19.6299 39.61 19.636C39.6161 19.6421 39.6243 19.6455 39.6329 19.6455C39.6416 19.6455 39.6498 19.6421 39.6559 19.636C39.662 19.6299 39.6654 19.6217 39.6654 19.613C39.6656 19.6088 39.6649 19.6046 39.6634 19.6007C39.6619 19.5968 39.6596 19.5932 39.6566 19.5901C39.6537 19.5871 39.6502 19.5847 39.6463 19.5831C39.6424 19.5814 39.6383 19.5806 39.6341 19.5806C39.6254 19.5808 39.6172 19.5843 39.611 19.5903C39.6048 19.5963 39.601 19.6044 39.6005 19.613Z" fill="#263238"/>
<path opacity="0.3" d="M39.6005 19.613C39.6005 19.6217 39.6039 19.6299 39.61 19.636C39.6161 19.6421 39.6243 19.6455 39.6329 19.6455C39.6416 19.6455 39.6498 19.6421 39.6559 19.636C39.662 19.6299 39.6654 19.6217 39.6654 19.613C39.6656 19.6088 39.6649 19.6046 39.6634 19.6007C39.6619 19.5968 39.6596 19.5932 39.6566 19.5901C39.6537 19.5871 39.6502 19.5847 39.6463 19.5831C39.6424 19.5814 39.6383 19.5806 39.6341 19.5806C39.6254 19.5808 39.6172 19.5843 39.611 19.5903C39.6048 19.5963 39.601 19.6044 39.6005 19.613Z" fill="white"/>
<path d="M35.3896 19.3599C35.5374 19.2322 35.7334 19.2176 35.8264 19.3263L36.6014 20.2301L36.066 20.6893L35.291 19.7866C35.1969 19.6757 35.2417 19.4842 35.3896 19.3599Z" fill="#263238"/>
<path d="M36.0666 20.6871C36.1596 20.7991 36.3556 20.7811 36.5034 20.6546C36.6513 20.528 36.6961 20.3365 36.602 20.2279C36.5079 20.1192 36.313 20.1338 36.1652 20.2603C36.0173 20.3869 35.9737 20.5784 36.0666 20.6871Z" fill="#263238"/>
<path opacity="0.1" d="M36.0666 20.6871C36.1596 20.7991 36.3556 20.7811 36.5034 20.6546C36.6513 20.528 36.6961 20.3365 36.602 20.2279C36.5079 20.1192 36.313 20.1338 36.1652 20.2603C36.0173 20.3869 35.9737 20.5784 36.0666 20.6871Z" fill="white"/>
<path d="M36.7188 22.5283C36.7188 22.5283 36.7423 21.0947 36.7188 20.9603C36.6953 20.8259 36.4075 20.4619 36.4075 20.4619C36.3824 20.4514 36.3544 20.4504 36.3286 20.4591C36.3029 20.4677 36.2811 20.4855 36.2675 20.5089C36.3754 20.6633 36.4691 20.8271 36.5475 20.9984C36.5788 21.1193 36.5475 22.5317 36.5475 22.5317L36.7188 22.5283Z" fill="#263238"/>
<path opacity="0.3" d="M36.7188 22.5283C36.7188 22.5283 36.7423 21.0947 36.7188 20.9603C36.6953 20.8259 36.4075 20.4619 36.4075 20.4619C36.3824 20.4514 36.3544 20.4504 36.3286 20.4591C36.3029 20.4677 36.2811 20.4855 36.2675 20.5089C36.3754 20.6633 36.4691 20.8271 36.5475 20.9984C36.5788 21.1193 36.5475 22.5317 36.5475 22.5317L36.7188 22.5283Z" fill="white"/>
<path d="M44.1662 23.1197V22.5283H34.3214L27.4166 25.4347V26.0261H32.0792L33.095 47.3957H32.0366V47.9378H29.8952V48.4798H35.2622H42.3317V47.9378H40.3661V47.3957H38.6726L39.9125 24.9106L44.1662 23.1197Z" fill="#6B6565"/>
<path opacity="0.2" d="M44.1668 22.5283H34.322V23.1208H44.1668V22.5283Z" fill="black"/>
<path opacity="0.4" d="M34.3214 23.1197L27.4166 26.0261V25.4347L34.3214 22.5283V23.1197Z" fill="black"/>
<path opacity="0.5" d="M39.9662 23.9262H34.9262L32.0366 25.1358L32.0792 26.0262H27.4166L34.3214 23.1198H44.1662L39.9125 24.9106L39.9662 23.9262Z" fill="black"/>
<path opacity="0.4" d="M38.6728 47.3957H34.9264V23.9261H39.9664L38.6728 47.3957Z" fill="white"/>
<path opacity="0.2" d="M34.926 47.3957H33.0948L32.0364 25.1357L34.926 23.9261V47.3957Z" fill="white"/>
<path d="M42.3311 47.9377H35.489V48.4798H42.3311V47.9377Z" fill="#6B6565"/>
<path opacity="0.1" d="M40.3647 47.3958H35.262V47.9378H40.3647V47.3958Z" fill="black"/>
<path opacity="0.2" d="M35.4898 47.9377H29.8954V48.4798H35.4898V47.9377Z" fill="black"/>
<path opacity="0.3" d="M35.262 47.3958H32.0364V47.9378H35.262V47.3958Z" fill="black"/>
<path opacity="0.3" d="M35.7919 47.3957L36.017 25.1167H38.91L37.8135 47.3957H35.7919Z" fill="white"/>
<path opacity="0.3" d="M36.0133 25.4695H38.5311L38.9096 25.1167H36.0167L36.0133 25.4695Z" fill="#263238"/>
<path opacity="0.5" d="M37.8134 47.3957L38.9098 25.1167L38.5313 25.4695L37.4617 47.3957H37.8134Z" fill="#263238"/>
<path d="M11.8258 6.80469V35.7668H38.269V6.80469H11.8258ZM13.6178 10.9599H36.5868V30.5991H13.6178V10.9599Z" fill="#6B6565"/>
<path opacity="0.7" d="M11.8258 6.80469V35.7668H38.269V6.80469H11.8258ZM13.6178 10.9397H36.5868V30.5924H13.6178V10.9397Z" fill="white"/>
<path d="M37.3362 31.5041H12.7511V10.1558H37.3362V31.5041ZM12.9706 31.2801H37.1167V10.3753H12.9706V31.2801Z" fill="white"/>
<path d="M20.7855 30.9261L18.8938 35.3994H17.4143L15.5226 30.9261H17.1455L18.2128 33.5391L19.3048 30.9261H20.7855Z" fill="#6B6565"/>
<path d="M21.9167 35.2012C21.5419 35.0087 21.2275 34.7166 21.0079 34.357C20.7883 33.9974 20.6721 33.5842 20.6721 33.1628C20.6721 32.7414 20.7883 32.3282 21.0079 31.9686C21.2275 31.609 21.5419 31.3169 21.9167 31.1244C22.3204 30.9262 22.764 30.8231 23.2137 30.8231C23.6634 30.8231 24.107 30.9262 24.5107 31.1244C24.8851 31.3172 25.1993 31.6094 25.4186 31.969C25.6379 32.3286 25.754 32.7416 25.754 33.1628C25.754 33.584 25.6379 33.997 25.4186 34.3566C25.1993 34.7162 24.8851 35.0084 24.5107 35.2012C24.1068 35.3987 23.6632 35.5013 23.2137 35.5013C22.7642 35.5013 22.3206 35.3987 21.9167 35.2012ZM23.7222 34.1439C23.8762 34.05 24.0011 33.915 24.0828 33.7542C24.1713 33.5698 24.2173 33.3679 24.2173 33.1634C24.2173 32.9588 24.1713 32.7569 24.0828 32.5726C24.0004 32.4122 23.8757 32.2774 23.7222 32.1828C23.568 32.0929 23.3927 32.0455 23.2143 32.0455C23.0358 32.0455 22.8605 32.0929 22.7063 32.1828C22.5509 32.2776 22.4249 32.4137 22.3423 32.5759C22.2538 32.7603 22.2079 32.9622 22.2079 33.1667C22.2079 33.3712 22.2538 33.5731 22.3423 33.7575C22.4047 33.876 22.4905 33.9806 22.5946 34.0649C22.6986 34.1492 22.8187 34.2114 22.9475 34.2479C23.0764 34.2844 23.2113 34.2942 23.3441 34.2769C23.4769 34.2596 23.6047 34.2155 23.7199 34.1473L23.7222 34.1439Z" fill="#6B6565"/>
<path d="M27.1955 32.0954H25.8851V30.9261H30.0135V32.0954H28.7031V35.3994H27.1955V32.0954Z" fill="#6B6565"/>
<path d="M34.1217 34.2615V35.3994H30.4066V30.9261H34.0421V32.063H31.885V32.5871H33.7767V33.6735H31.885V34.2615H34.1217Z" fill="#6B6565"/>
<path d="M21.8358 32.2499C22.3604 32.3842 22.8442 32.6449 23.2448 33.0093C24.1654 31.1837 25.655 29.5541 27.5601 28.069C25.8478 29.9852 24.4853 32.1874 23.5349 34.5751C23.2045 33.7731 22.6523 32.9959 21.8358 32.2499Z" fill="white"/>
<path d="M15.198 38.8905L14.47 30.2777L7.15747 34.8865L10.3372 36.4702L8.71315 39.7316L10.3932 40.5694L12.0183 37.3068L15.198 38.8905Z" fill="#263238"/>
<path d="M40.3276 10.821C40.3331 11.4937 40.139 12.1528 39.7699 12.7151C39.4007 13.2774 38.8731 13.7176 38.2537 13.9799C37.6343 14.2423 36.951 14.3151 36.2903 14.189C35.6295 14.063 35.021 13.7438 34.5417 13.2719C34.0624 12.7999 33.7339 12.1964 33.5976 11.5377C33.4613 10.879 33.5235 10.1947 33.7762 9.57132C34.029 8.94795 34.4609 8.41355 35.0174 8.03572C35.574 7.65788 36.23 7.4536 36.9027 7.4487C37.8039 7.44214 38.6709 7.79365 39.3131 8.42599C39.9553 9.05833 40.3202 9.91977 40.3276 10.821Z" fill="#E0E0E0"/>
<g opacity="0.7">
<path d="M37.8226 8.71997L37.8573 12.9681L36.4248 12.976L36.3991 9.80749L35.6711 9.81421L35.6621 8.73341L37.8226 8.71997Z" fill="#6B6565"/>
</g>
</g>
<defs>
<clipPath id="clip0_604_2388">
<rect y="0.5" width="56" height="56" rx="28" fill="white"/>
</clipPath>
</defs>
</svg>
