<svg width="18" height="19" viewBox="0 0 18 19" fill="none" xmlns="http://www.w3.org/2000/svg">
<circle cx="9" cy="9.5" r="9" fill="#CEE6BB" fill-opacity="0.3"/>
<path d="M12.9427 7.35537C12.8854 7.21488 12.7708 7.09917 12.6316 7.04132C12.5661 7.01653 12.4925 7 12.4188 7H10.8961C10.5769 7 10.3231 7.2562 10.3231 7.57851C10.3231 7.90083 10.5769 8.15703 10.8961 8.15703H11.0435L9.31619 9.90083L8.4812 8.64463C8.38296 8.50413 8.23561 8.40496 8.0637 8.38843C7.8836 8.3719 7.72806 8.42975 7.60527 8.55372L5.16577 11.0165C4.94474 11.2397 4.94474 11.6033 5.16577 11.8347C5.28038 11.9504 5.41954 12 5.5669 12C5.71425 12 5.8616 11.9421 5.96802 11.8347L7.91635 9.86777L8.75134 11.124C8.84958 11.2645 8.99693 11.3636 9.16884 11.3802C9.34894 11.3967 9.50448 11.3388 9.62727 11.2149L11.8539 8.96694V9.1157C11.8539 9.43802 12.1077 9.69421 12.427 9.69421C12.7462 9.69421 13 9.43802 13 9.1157V7.57025C12.9836 7.49587 12.9754 7.42149 12.9427 7.35537Z" fill="#565D6D"/>
</svg>