<svg width="140" height="48" viewBox="0 0 160 49" fill="none" xmlns="http://www.w3.org/2000/svg">
<path d="M59.2458 43L59.2458 34.36H62.5818C63.0658 34.36 63.4878 34.46 63.8478 34.66C64.2078 34.86 64.4878 35.13 64.6878 35.47C64.8878 35.806 64.9878 36.178 64.9878 36.586C64.9878 37.05 64.8638 37.464 64.6158 37.828C64.3678 38.188 64.0358 38.438 63.6198 38.578L63.6078 38.284C64.1678 38.444 64.6078 38.724 64.9278 39.124C65.2478 39.524 65.4078 40.008 65.4078 40.576C65.4078 41.076 65.3018 41.508 65.0898 41.872C64.8778 42.232 64.5798 42.51 64.1958 42.706C63.8118 42.902 63.3658 43 62.8578 43H59.2458ZM60.1338 42.154H62.6418C62.9938 42.154 63.3098 42.092 63.5898 41.968C63.8698 41.84 64.0898 41.66 64.2498 41.428C64.4138 41.196 64.4958 40.916 64.4958 40.588C64.4958 40.268 64.4218 39.98 64.2738 39.724C64.1258 39.468 63.9238 39.264 63.6678 39.112C63.4158 38.956 63.1278 38.878 62.8038 38.878H60.1338V42.154ZM60.1338 38.044H62.5758C62.8518 38.044 63.1038 37.982 63.3318 37.858C63.5598 37.73 63.7398 37.556 63.8718 37.336C64.0078 37.116 64.0758 36.862 64.0758 36.574C64.0758 36.166 63.9338 35.834 63.6498 35.578C63.3698 35.322 63.0118 35.194 62.5758 35.194H60.1338V38.044ZM66.6051 43V36.52H67.3971V38.08L67.2411 37.876C67.3131 37.684 67.4071 37.508 67.5231 37.348C67.6391 37.184 67.7651 37.05 67.9011 36.946C68.0691 36.798 68.2651 36.686 68.4891 36.61C68.7131 36.53 68.9391 36.484 69.1671 36.472C69.3951 36.456 69.6031 36.472 69.7911 36.52V37.348C69.5551 37.288 69.2971 37.274 69.0171 37.306C68.7371 37.338 68.4791 37.45 68.2431 37.642C68.0271 37.81 67.8651 38.012 67.7571 38.248C67.6491 38.48 67.5771 38.728 67.5411 38.992C67.5051 39.252 67.4871 39.51 67.4871 39.766V43H66.6051ZM72.5373 43.18C72.0493 43.18 71.6393 43.092 71.3073 42.916C70.9793 42.74 70.7333 42.506 70.5693 42.214C70.4053 41.922 70.3233 41.604 70.3233 41.26C70.3233 40.908 70.3933 40.608 70.5333 40.36C70.6773 40.108 70.8713 39.902 71.1153 39.742C71.3633 39.582 71.6493 39.46 71.9733 39.376C72.3013 39.296 72.6633 39.226 73.0593 39.166C73.4593 39.102 73.8493 39.048 74.2293 39.004C74.6133 38.956 74.9493 38.91 75.2373 38.866L74.9253 39.058C74.9373 38.418 74.8133 37.944 74.5533 37.636C74.2933 37.328 73.8413 37.174 73.1973 37.174C72.7533 37.174 72.3773 37.274 72.0693 37.474C71.7653 37.674 71.5513 37.99 71.4273 38.422L70.5693 38.17C70.7173 37.59 71.0153 37.14 71.4633 36.82C71.9113 36.5 72.4933 36.34 73.2093 36.34C73.8013 36.34 74.3033 36.452 74.7153 36.676C75.1313 36.896 75.4253 37.216 75.5973 37.636C75.6773 37.824 75.7293 38.034 75.7533 38.266C75.7773 38.498 75.7893 38.734 75.7893 38.974V43H75.0033V41.374L75.2313 41.47C75.0113 42.026 74.6693 42.45 74.2053 42.742C73.7413 43.034 73.1853 43.18 72.5373 43.18ZM72.6393 42.418C73.0513 42.418 73.4113 42.344 73.7193 42.196C74.0273 42.048 74.2753 41.846 74.4633 41.59C74.6513 41.33 74.7733 41.038 74.8293 40.714C74.8773 40.506 74.9033 40.278 74.9073 40.03C74.9113 39.778 74.9133 39.59 74.9133 39.466L75.2493 39.64C74.9493 39.68 74.6233 39.72 74.2713 39.76C73.9233 39.8 73.5793 39.846 73.2393 39.898C72.9033 39.95 72.5993 40.012 72.3273 40.084C72.1433 40.136 71.9653 40.21 71.7933 40.306C71.6213 40.398 71.4793 40.522 71.3673 40.678C71.2593 40.834 71.2053 41.028 71.2053 41.26C71.2053 41.448 71.2513 41.63 71.3433 41.806C71.4393 41.982 71.5913 42.128 71.7993 42.244C72.0113 42.36 72.2913 42.418 72.6393 42.418ZM82.0312 43V39.694C82.0312 39.334 81.9972 39.004 81.9292 38.704C81.8612 38.4 81.7512 38.136 81.5992 37.912C81.4512 37.684 81.2572 37.508 81.0172 37.384C80.7812 37.26 80.4932 37.198 80.1532 37.198C79.8412 37.198 79.5652 37.252 79.3252 37.36C79.0892 37.468 78.8892 37.624 78.7252 37.828C78.5652 38.028 78.4432 38.272 78.3592 38.56C78.2752 38.848 78.2332 39.176 78.2332 39.544L77.6092 39.406C77.6092 38.742 77.7252 38.184 77.9572 37.732C78.1892 37.28 78.5092 36.938 78.9172 36.706C79.3252 36.474 79.7932 36.358 80.3212 36.358C80.7092 36.358 81.0472 36.418 81.3352 36.538C81.6272 36.658 81.8732 36.82 82.0732 37.024C82.2772 37.228 82.4412 37.462 82.5652 37.726C82.6892 37.986 82.7792 38.264 82.8352 38.56C82.8912 38.852 82.9192 39.144 82.9192 39.436V43H82.0312ZM77.3452 43V36.52H78.1432V38.116H78.2332V43H77.3452ZM86.9551 43.18C86.3511 43.18 85.8351 43.03 85.4071 42.73C84.9791 42.426 84.6511 42.016 84.4231 41.5C84.1951 40.984 84.0811 40.402 84.0811 39.754C84.0811 39.11 84.1931 38.53 84.4171 38.014C84.6451 37.498 84.9711 37.09 85.3951 36.79C85.8191 36.49 86.3271 36.34 86.9191 36.34C87.5271 36.34 88.0391 36.488 88.4551 36.784C88.8711 37.08 89.1851 37.486 89.3971 38.002C89.6131 38.514 89.7211 39.098 89.7211 39.754C89.7211 40.398 89.6151 40.98 89.4031 41.5C89.1911 42.016 88.8791 42.426 88.4671 42.73C88.0551 43.03 87.5511 43.18 86.9551 43.18ZM87.0451 42.358C87.5051 42.358 87.8851 42.246 88.1851 42.022C88.4851 41.798 88.7091 41.49 88.8571 41.098C89.0051 40.702 89.0791 40.254 89.0791 39.754C89.0791 39.246 89.0051 38.798 88.8571 38.41C88.7091 38.018 88.4851 37.712 88.1851 37.492C87.8891 37.272 87.5151 37.162 87.0631 37.162C86.5991 37.162 86.2151 37.276 85.9111 37.504C85.6071 37.732 85.3811 38.042 85.2331 38.434C85.0891 38.826 85.0171 39.266 85.0171 39.754C85.0171 40.246 85.0911 40.69 85.2391 41.086C85.3911 41.478 85.6171 41.788 85.9171 42.016C86.2171 42.244 86.5931 42.358 87.0451 42.358ZM89.0791 43V38.122H88.9831V34.36H89.8711V43H89.0791ZM93.9567 43V34.36H94.7667L98.1627 41.626L101.541 34.36H102.363V42.994H101.523V36.328L98.4447 43H97.8747L94.8027 36.328V43H93.9567ZM105.901 43.18C105.413 43.18 105.003 43.092 104.671 42.916C104.343 42.74 104.097 42.506 103.933 42.214C103.769 41.922 103.687 41.604 103.687 41.26C103.687 40.908 103.757 40.608 103.897 40.36C104.041 40.108 104.235 39.902 104.479 39.742C104.727 39.582 105.013 39.46 105.337 39.376C105.665 39.296 106.027 39.226 106.423 39.166C106.823 39.102 107.213 39.048 107.593 39.004C107.977 38.956 108.313 38.91 108.601 38.866L108.289 39.058C108.301 38.418 108.177 37.944 107.917 37.636C107.657 37.328 107.205 37.174 106.561 37.174C106.117 37.174 105.741 37.274 105.433 37.474C105.129 37.674 104.915 37.99 104.791 38.422L103.933 38.17C104.081 37.59 104.379 37.14 104.827 36.82C105.275 36.5 105.857 36.34 106.573 36.34C107.165 36.34 107.667 36.452 108.079 36.676C108.495 36.896 108.789 37.216 108.961 37.636C109.041 37.824 109.093 38.034 109.117 38.266C109.141 38.498 109.153 38.734 109.153 38.974V43H108.367V41.374L108.595 41.47C108.375 42.026 108.033 42.45 107.569 42.742C107.105 43.034 106.549 43.18 105.901 43.18ZM106.003 42.418C106.415 42.418 106.775 42.344 107.083 42.196C107.391 42.048 107.639 41.846 107.827 41.59C108.015 41.33 108.137 41.038 108.193 40.714C108.241 40.506 108.267 40.278 108.271 40.03C108.275 39.778 108.277 39.59 108.277 39.466L108.613 39.64C108.313 39.68 107.987 39.72 107.635 39.76C107.287 39.8 106.943 39.846 106.603 39.898C106.267 39.95 105.963 40.012 105.691 40.084C105.507 40.136 105.329 40.21 105.157 40.306C104.985 40.398 104.843 40.522 104.731 40.678C104.623 40.834 104.569 41.028 104.569 41.26C104.569 41.448 104.615 41.63 104.707 41.806C104.803 41.982 104.955 42.128 105.163 42.244C105.375 42.36 105.655 42.418 106.003 42.418ZM115.395 43V39.694C115.395 39.334 115.361 39.004 115.293 38.704C115.225 38.4 115.115 38.136 114.963 37.912C114.815 37.684 114.621 37.508 114.381 37.384C114.145 37.26 113.857 37.198 113.517 37.198C113.205 37.198 112.929 37.252 112.689 37.36C112.453 37.468 112.253 37.624 112.089 37.828C111.929 38.028 111.807 38.272 111.723 38.56C111.639 38.848 111.597 39.176 111.597 39.544L110.973 39.406C110.973 38.742 111.089 38.184 111.321 37.732C111.553 37.28 111.873 36.938 112.281 36.706C112.689 36.474 113.157 36.358 113.685 36.358C114.073 36.358 114.411 36.418 114.699 36.538C114.991 36.658 115.237 36.82 115.437 37.024C115.641 37.228 115.805 37.462 115.929 37.726C116.053 37.986 116.143 38.264 116.199 38.56C116.255 38.852 116.283 39.144 116.283 39.436V43H115.395ZM110.709 43V36.52H111.507V38.116H111.597V43H110.709ZM119.694 43.18C119.206 43.18 118.796 43.092 118.464 42.916C118.136 42.74 117.89 42.506 117.726 42.214C117.562 41.922 117.48 41.604 117.48 41.26C117.48 40.908 117.55 40.608 117.69 40.36C117.834 40.108 118.028 39.902 118.272 39.742C118.52 39.582 118.806 39.46 119.13 39.376C119.458 39.296 119.82 39.226 120.216 39.166C120.616 39.102 121.006 39.048 121.386 39.004C121.77 38.956 122.106 38.91 122.394 38.866L122.082 39.058C122.094 38.418 121.97 37.944 121.71 37.636C121.45 37.328 120.998 37.174 120.354 37.174C119.91 37.174 119.534 37.274 119.226 37.474C118.922 37.674 118.708 37.99 118.584 38.422L117.726 38.17C117.874 37.59 118.172 37.14 118.62 36.82C119.068 36.5 119.65 36.34 120.366 36.34C120.958 36.34 121.46 36.452 121.872 36.676C122.288 36.896 122.582 37.216 122.754 37.636C122.834 37.824 122.886 38.034 122.91 38.266C122.934 38.498 122.946 38.734 122.946 38.974V43H122.16V41.374L122.388 41.47C122.168 42.026 121.826 42.45 121.362 42.742C120.898 43.034 120.342 43.18 119.694 43.18ZM119.796 42.418C120.208 42.418 120.568 42.344 120.876 42.196C121.184 42.048 121.432 41.846 121.62 41.59C121.808 41.33 121.93 41.038 121.986 40.714C122.034 40.506 122.06 40.278 122.064 40.03C122.068 39.778 122.07 39.59 122.07 39.466L122.406 39.64C122.106 39.68 121.78 39.72 121.428 39.76C121.08 39.8 120.736 39.846 120.396 39.898C120.06 39.95 119.756 40.012 119.484 40.084C119.3 40.136 119.122 40.21 118.95 40.306C118.778 40.398 118.636 40.522 118.524 40.678C118.416 40.834 118.362 41.028 118.362 41.26C118.362 41.448 118.408 41.63 118.5 41.806C118.596 41.982 118.748 42.128 118.956 42.244C119.168 42.36 119.448 42.418 119.796 42.418ZM127.081 46.06C126.749 46.06 126.421 46.01 126.097 45.91C125.777 45.814 125.481 45.66 125.209 45.448C124.937 45.24 124.709 44.968 124.525 44.632L125.323 44.188C125.503 44.548 125.755 44.806 126.079 44.962C126.407 45.122 126.741 45.202 127.081 45.202C127.549 45.202 127.927 45.114 128.215 44.938C128.507 44.766 128.719 44.51 128.851 44.17C128.983 43.83 129.047 43.406 129.043 42.898V41.17H129.145V36.52H129.931V42.91C129.931 43.094 129.925 43.27 129.913 43.438C129.905 43.61 129.887 43.778 129.859 43.942C129.783 44.426 129.625 44.824 129.385 45.136C129.149 45.448 128.837 45.68 128.449 45.832C128.065 45.984 127.609 46.06 127.081 46.06ZM127.021 43.18C126.417 43.18 125.901 43.03 125.473 42.73C125.045 42.426 124.717 42.016 124.489 41.5C124.261 40.984 124.147 40.402 124.147 39.754C124.147 39.11 124.259 38.53 124.483 38.014C124.711 37.498 125.037 37.09 125.461 36.79C125.885 36.49 126.393 36.34 126.985 36.34C127.593 36.34 128.105 36.488 128.521 36.784C128.937 37.08 129.251 37.486 129.463 38.002C129.679 38.514 129.787 39.098 129.787 39.754C129.787 40.398 129.681 40.98 129.469 41.5C129.257 42.016 128.945 42.426 128.533 42.73C128.121 43.03 127.617 43.18 127.021 43.18ZM127.111 42.358C127.571 42.358 127.951 42.246 128.251 42.022C128.551 41.798 128.775 41.49 128.923 41.098C129.071 40.702 129.145 40.254 129.145 39.754C129.145 39.246 129.071 38.798 128.923 38.41C128.775 38.018 128.551 37.712 128.251 37.492C127.955 37.272 127.581 37.162 127.129 37.162C126.665 37.162 126.281 37.276 125.977 37.504C125.673 37.732 125.447 38.042 125.299 38.434C125.155 38.826 125.083 39.266 125.083 39.754C125.083 40.246 125.157 40.69 125.305 41.086C125.457 41.478 125.683 41.788 125.983 42.016C126.283 42.244 126.659 42.358 127.111 42.358ZM134.351 43.18C133.719 43.18 133.171 43.04 132.707 42.76C132.247 42.48 131.889 42.086 131.633 41.578C131.377 41.07 131.249 40.474 131.249 39.79C131.249 39.082 131.375 38.47 131.627 37.954C131.879 37.438 132.233 37.04 132.689 36.76C133.149 36.48 133.691 36.34 134.315 36.34C134.955 36.34 135.501 36.488 135.953 36.784C136.405 37.076 136.747 37.496 136.979 38.044C137.211 38.592 137.317 39.246 137.297 40.006H136.397V39.694C136.381 38.854 136.199 38.22 135.851 37.792C135.507 37.364 135.003 37.15 134.339 37.15C133.643 37.15 133.109 37.376 132.737 37.828C132.369 38.28 132.185 38.924 132.185 39.76C132.185 40.576 132.369 41.21 132.737 41.662C133.109 42.11 133.635 42.334 134.315 42.334C134.779 42.334 135.183 42.228 135.527 42.016C135.875 41.8 136.149 41.49 136.349 41.086L137.171 41.404C136.915 41.968 136.537 42.406 136.037 42.718C135.541 43.026 134.979 43.18 134.351 43.18ZM131.873 40.006V39.268L136.823 39.268V40.006L131.873 40.006ZM138.629 43V36.52H139.421V38.08L139.265 37.876C139.337 37.684 139.431 37.508 139.547 37.348C139.663 37.184 139.789 37.05 139.925 36.946C140.093 36.798 140.289 36.686 140.513 36.61C140.737 36.53 140.963 36.484 141.191 36.472C141.419 36.456 141.627 36.472 141.815 36.52V37.348C141.579 37.288 141.321 37.274 141.041 37.306C140.761 37.338 140.503 37.45 140.267 37.642C140.051 37.81 139.889 38.012 139.781 38.248C139.673 38.48 139.601 38.728 139.565 38.992C139.529 39.252 139.511 39.51 139.511 39.766V43H138.629Z" fill="#565D6D"/>
<path d="M59.9898 21L59.9898 8.4L65.5518 8.4C66.4158 8.4 67.1478 8.526 67.7478 8.778C68.3478 9.018 68.7978 9.372 69.0978 9.84C69.4098 10.296 69.5658 10.848 69.5658 11.496C69.5658 12.216 69.3858 12.822 69.0258 13.314C68.6778 13.806 68.1678 14.136 67.4958 14.304L67.4598 13.962C68.0238 14.082 68.5098 14.292 68.9178 14.592C69.3378 14.892 69.6618 15.264 69.8898 15.708C70.1178 16.14 70.2318 16.632 70.2318 17.184C70.2318 17.82 70.1238 18.378 69.9078 18.858C69.6918 19.326 69.3798 19.722 68.9718 20.046C68.5638 20.37 68.0838 20.61 67.5318 20.766C66.9918 20.922 66.3918 21 65.7318 21H59.9898ZM62.8698 18.444H65.6238C65.9598 18.444 66.2418 18.39 66.4698 18.282C66.7098 18.174 66.8958 18.018 67.0278 17.814C67.1598 17.598 67.2258 17.34 67.2258 17.04C67.2258 16.764 67.1538 16.53 67.0098 16.338C66.8778 16.146 66.6858 16.002 66.4338 15.906C66.1818 15.798 65.8818 15.744 65.5338 15.744H62.8698L62.8698 18.444ZM62.8698 13.458H65.1198C65.4318 13.458 65.6958 13.41 65.9118 13.314C66.1398 13.206 66.3078 13.062 66.4158 12.882C66.5358 12.69 66.5958 12.462 66.5958 12.198C66.5958 11.814 66.4638 11.514 66.1998 11.298C65.9358 11.07 65.5398 10.956 65.0118 10.956H62.8698V13.458ZM75.5629 21.198C74.8549 21.198 74.2489 21.048 73.7449 20.748C73.2529 20.436 72.8689 19.992 72.5929 19.416C72.3289 18.84 72.1969 18.15 72.1969 17.346V11.442H75.0949V16.95C75.0949 17.334 75.1549 17.664 75.2749 17.94C75.3949 18.216 75.5749 18.432 75.8149 18.588C76.0549 18.732 76.3429 18.804 76.6789 18.804C76.9309 18.804 77.1589 18.762 77.3629 18.678C77.5789 18.594 77.7589 18.48 77.9029 18.336C78.0589 18.18 78.1789 18.006 78.2629 17.814C78.3469 17.61 78.3889 17.388 78.3889 17.148V11.442H81.2869V21L78.5689 21L78.4429 19.038L78.9829 18.822C78.8389 19.278 78.5989 19.686 78.2629 20.046C77.9269 20.394 77.5249 20.676 77.0569 20.892C76.5889 21.096 76.0909 21.198 75.5629 21.198ZM83.4757 21V19.344L88.5517 12.828V13.782L83.4757 13.782V11.442L91.3957 11.442V13.17L86.5897 19.488L86.5177 18.66H91.5577V21H83.4757ZM93.3722 21V19.344L98.4482 12.828V13.782H93.3722V11.442L101.292 11.442V13.17L96.4862 19.488L96.4142 18.66H101.454V21L93.3722 21ZM103.953 21V8.4L106.689 8.4L111.279 15.87L109.317 15.852L113.961 8.4H116.589V21H113.619V17.076C113.619 15.996 113.643 15.024 113.691 14.16C113.751 13.296 113.847 12.438 113.979 11.586L114.321 12.522L110.829 17.94L109.641 17.94L106.221 12.558L106.563 11.586C106.695 12.39 106.785 13.218 106.833 14.07C106.893 14.91 106.923 15.912 106.923 17.076V21H103.953ZM122.977 21.162C122.173 21.162 121.453 20.952 120.817 20.532C120.193 20.1 119.695 19.512 119.323 18.768C118.951 18.012 118.765 17.16 118.765 16.212C118.765 15.24 118.951 14.382 119.323 13.638C119.695 12.894 120.205 12.312 120.853 11.892C121.501 11.46 122.239 11.244 123.067 11.244C123.523 11.244 123.937 11.31 124.309 11.442C124.693 11.574 125.029 11.76 125.317 12C125.605 12.228 125.851 12.498 126.055 12.81C126.259 13.11 126.409 13.434 126.505 13.782L125.911 13.71V11.442L128.773 11.442V21H125.857V18.696L126.505 18.678C126.409 19.014 126.253 19.332 126.037 19.632C125.821 19.932 125.557 20.196 125.245 20.424C124.933 20.652 124.585 20.832 124.201 20.964C123.817 21.096 123.409 21.162 122.977 21.162ZM123.769 18.732C124.213 18.732 124.597 18.63 124.921 18.426C125.245 18.222 125.497 17.934 125.677 17.562C125.857 17.178 125.947 16.728 125.947 16.212C125.947 15.696 125.857 15.252 125.677 14.88C125.497 14.496 125.245 14.202 124.921 13.998C124.597 13.782 124.213 13.674 123.769 13.674C123.337 13.674 122.959 13.782 122.635 13.998C122.323 14.202 122.077 14.496 121.897 14.88C121.717 15.252 121.627 15.696 121.627 16.212C121.627 16.728 121.717 17.178 121.897 17.562C122.077 17.934 122.323 18.222 122.635 18.426C122.959 18.63 123.337 18.732 123.769 18.732ZM132.107 21V9.03H134.987V21H132.107ZM130.415 13.962V11.442L136.841 11.442V13.962L130.415 13.962ZM142.593 21.18C141.669 21.18 140.841 20.964 140.109 20.532C139.377 20.1 138.795 19.512 138.363 18.768C137.943 18.012 137.733 17.16 137.733 16.212C137.733 15.264 137.943 14.418 138.363 13.674C138.795 12.918 139.377 12.324 140.109 11.892C140.841 11.46 141.669 11.244 142.593 11.244C143.445 11.244 144.225 11.394 144.933 11.694C145.653 11.994 146.223 12.414 146.643 12.954L145.077 14.826C144.909 14.634 144.711 14.454 144.483 14.286C144.255 14.118 144.003 13.986 143.727 13.89C143.451 13.794 143.163 13.746 142.863 13.746C142.407 13.746 142.005 13.854 141.657 14.07C141.309 14.274 141.039 14.562 140.847 14.934C140.655 15.306 140.559 15.732 140.559 16.212C140.559 16.668 140.655 17.082 140.847 17.454C141.051 17.826 141.327 18.12 141.675 18.336C142.023 18.552 142.419 18.66 142.863 18.66C143.175 18.66 143.463 18.624 143.727 18.552C143.991 18.468 144.231 18.348 144.447 18.192C144.675 18.036 144.885 17.844 145.077 17.616L146.625 19.506C146.217 20.022 145.647 20.43 144.915 20.73C144.195 21.03 143.421 21.18 142.593 21.18ZM148.207 21V7.68L151.033 7.68V13.386L150.457 13.602C150.589 13.17 150.823 12.78 151.159 12.432C151.507 12.072 151.921 11.784 152.401 11.568C152.881 11.352 153.385 11.244 153.913 11.244C154.633 11.244 155.239 11.394 155.731 11.694C156.223 11.982 156.595 12.42 156.847 13.008C157.099 13.584 157.225 14.292 157.225 15.132V21H154.327V15.366C154.327 14.982 154.273 14.664 154.165 14.412C154.057 14.16 153.889 13.974 153.661 13.854C153.445 13.722 153.175 13.662 152.851 13.674C152.599 13.674 152.365 13.716 152.149 13.8C151.933 13.872 151.747 13.986 151.591 14.142C151.435 14.286 151.309 14.454 151.213 14.646C151.129 14.838 151.087 15.048 151.087 15.276V21H149.665C149.329 21 149.041 21 148.801 21C148.561 21 148.363 21 148.207 21Z" fill="#171A1F"/>
<path fill-rule="evenodd" clip-rule="evenodd" d="M47.7912 3.65633C53.2827 6.81804 53.4707 13.7576 48.1641 17.4126L46.0998 18.8344L48.5416 20.124C53.3034 22.6372 55.023 26.8921 53.4621 32.2944C52.3382 36.1814 45.658 42.3059 39.7147 44.897C34.7682 47.0534 27.7144 47.9084 24.4948 46.741C22.2839 45.9397 20.9947 43.6098 21.5731 41.4628C22.1802 39.2078 25.2224 36.0816 26.9052 35.9831C27.7011 35.9363 25.7967 35.6688 22.6735 35.3888C19.5503 35.1088 15.8701 35.115 14.4946 35.4031C10.7903 36.1789 6.08943 38.9702 4.40197 41.3973C2.73393 43.7969 1.9983 43.835 0.642175 41.5943C-0.748755 39.2963 0.172958 35.9843 2.89324 33.5061C7.10418 29.6703 12.2736 28.9575 20.4914 31.079C26.4761 32.6243 29.5646 32.6355 33.1349 31.1252C35.1597 30.2683 36.1096 30.1374 36.6491 30.64C38.0226 31.9196 37.4001 32.9043 33.8739 35.0283C29.4387 37.7005 27.1562 39.9973 27.4735 41.469C27.6729 42.3926 28.3289 42.6083 30.8477 42.5784C37.1584 42.5036 44.751 35.6488 44.751 30.0276C44.751 26.3134 41.6759 23.1379 37.4409 22.4794C35.813 22.2262 34.3639 21.6918 34.2206 21.2914C34.0774 20.8911 35.6189 19.5753 37.6464 18.3673C42.2235 15.6396 43.5642 13.8218 43.2884 10.7175C43.014 7.63248 41.0434 6.58731 36.2595 6.99078C29.2834 7.57885 22.6936 12.3376 24.9225 15.1775C25.7331 16.2096 27.1131 18.5972 28.1936 16.5855C29.0039 15.0766 29.274 14.4531 29.8142 13.5678C30.3545 12.6825 30.8947 11.5631 31.6382 10.8285C33.4877 9.0013 34.3324 8.62901 36.6303 8.62901C38.1518 8.62901 39.3961 8.76121 39.3961 8.92335C39.3961 9.08549 37.5574 11.8213 35.3103 15.0036C33.0633 18.1858 30.0157 23.0344 28.5391 25.7783C27.0618 28.5222 25.7673 30.857 25.6615 30.9661C25.4366 31.2 19.9847 29.7289 19.9847 29.4352C19.9847 28.1879 23.8951 22.3316 24.9533 21.993C26.2224 21.5876 26.1856 21.5259 24.5269 21.2858C22.4379 20.9834 19.3153 17.8429 19.3153 16.0444C19.3153 10.7568 26.9005 4.50444 35.8472 2.41659C39.6277 1.53481 45.0917 2.10167 47.7912 3.65633ZM45.3728 4.10907C48.571 5.62819 50.4104 8.18562 50.4104 11.1135C50.4104 12.4536 50.638 13.2113 50.9171 12.8016C51.7338 11.6049 51.5229 9.33119 50.4078 7.32316C49.3381 5.39558 45.8487 3.02212 44.0816 3.01963C43.5294 3.019 44.1104 3.50916 45.3728 4.10907ZM32.1476 11.1839C30.9093 13.0317 31.4588 13.1708 32.9013 11.3741C33.5626 10.5504 33.8612 9.87623 33.564 9.87623C33.2675 9.87623 32.6302 10.4649 32.1476 11.1839ZM19.9847 14.5737C19.5235 16.5998 20.1726 18.0943 22.9774 20.0723C25.2117 20.8711 25.9783 20.4562 23.8718 19.6031C21.9736 18.8344 20.2945 17.4126 20.4914 15.1775C20.4914 15.1775 20.6304 14.5737 20.6304 14.0707C20.6304 13.5678 19.9847 14.5737 19.9847 14.5737ZM22.7886 25.8089C20.7718 29.6753 20.9967 30.2166 23.0738 26.4967C24.0028 24.8342 24.6481 23.3668 24.5075 23.2365C24.3676 23.1061 23.5939 24.2636 22.7886 25.8089ZM43.6593 24.9919C46.1908 28.0838 46.1299 32.4828 43.51 35.8185C41.1103 38.8741 39.8205 39.9318 36.0493 41.9355C34.3927 42.816 33.3672 43.5394 33.7701 43.5437C35.2461 43.5587 42.6178 38.6322 44.4284 36.4209C47.8227 32.2745 47.2383 25.5033 43.3172 23.5483C42.0421 22.9122 42.0769 23.0594 43.6593 24.9919ZM5.46224 32.2988C1.53042 34.5326 -0.203897 38.5043 1.4608 41.4628C2.45815 43.2357 2.79592 43.2863 1.72262 40.224C0.649325 37.1616 4.06889 33.5994 7.12486 32.1768C8.2053 31.6739 9.14171 31.0803 8.59484 31.0815C8.04864 31.0827 6.63897 31.6303 5.46224 32.2988ZM23.8181 38.9459C21.9841 41.5544 21.7913 43.1846 23.2692 44.8377C24.1149 45.7609 25.4924 46.2593 26.0183 46.1174C26.5441 45.9755 24.4026 45.2607 23.8181 44.294C22.802 42.6631 22.8386 41.8579 24.3449 39.5695C26.7974 36.1532 27.0862 35.9465 23.8181 38.9459Z" fill="black"/>
</svg>
