<svg width="92" height="68" viewBox="0 0 92 68" fill="none" xmlns="http://www.w3.org/2000/svg">
<path d="M82.2376 62.7868H76.1836V62.8325H82.2376V62.7868Z" fill="#EBEBEB"/>
<path d="M60.544 63.284H58.9556V63.3297H60.544V63.284Z" fill="#EBEBEB"/>
<path d="M76.0007 61.0905H72.4929V61.1362H76.0007V61.0905Z" fill="#EBEBEB"/>
<path d="M17.484 61.3976H9.58923V61.4433H17.484V61.3976Z" fill="#EBEBEB"/>
<path d="M20.2696 61.3976H19.1125V61.4433H20.2696V61.3976Z" fill="#EBEBEB"/>
<path d="M41.1553 62.1689H24.0315V62.2146H41.1553V62.1689Z" fill="#EBEBEB"/>
<path d="M43.3215 51.6932H8.0264C7.74991 51.6927 7.4849 51.5826 7.28955 51.3869C7.09421 51.1912 6.9845 50.926 6.9845 50.6495V1.0346C6.9869 0.759683 7.09768 0.496821 7.29276 0.303107C7.48785 0.109393 7.75148 0.00047094 8.0264 0H43.3215C43.5983 0 43.8638 0.109965 44.0595 0.305703C44.2552 0.501441 44.3652 0.766919 44.3652 1.04374V50.6495C44.3652 50.9263 44.2552 51.1918 44.0595 51.3875C43.8638 51.5833 43.5983 51.6932 43.3215 51.6932ZM8.0264 0.0365583C7.76203 0.0370425 7.50864 0.142406 7.32187 0.329522C7.13509 0.516638 7.03019 0.770216 7.03019 1.0346V50.6495C7.03019 50.9139 7.13509 51.1674 7.32187 51.3546C7.50864 51.5417 7.76203 51.647 8.0264 51.6475H43.3215C43.586 51.647 43.8396 51.5417 44.0267 51.3547C44.2137 51.1676 44.319 50.914 44.3195 50.6495V1.0346C44.319 0.770048 44.2137 0.516474 44.0267 0.32941C43.8396 0.142347 43.586 0.0370415 43.3215 0.0365583H8.0264Z" fill="#EBEBEB"/>
<path d="M82.8609 51.6932H47.564C47.2873 51.6927 47.0221 51.5826 46.8265 51.387C46.6309 51.1914 46.5207 50.9262 46.5203 50.6495V1.0346C46.5231 0.759516 46.6343 0.496657 46.8297 0.302993C47.0251 0.109329 47.2889 0.000465804 47.564 0H82.8609C83.1355 0.000951334 83.3987 0.110086 83.5934 0.303749C83.7881 0.497411 83.8986 0.759999 83.901 1.0346V50.6495C83.901 50.9257 83.7915 51.1906 83.5966 51.3862C83.4016 51.5819 83.1371 51.6923 82.8609 51.6932ZM47.564 0.0365583C47.2994 0.0370415 47.0459 0.142347 46.8588 0.32941C46.6717 0.516474 46.5664 0.770048 46.566 1.0346V50.6495C46.5664 50.914 46.6717 51.1676 46.8588 51.3547C47.0459 51.5417 47.2994 51.647 47.564 51.6475H82.8609C83.1254 51.647 83.379 51.5417 83.5661 51.3547C83.7531 51.1676 83.8585 50.914 83.8589 50.6495V1.0346C83.8585 0.770048 83.7531 0.516474 83.5661 0.32941C83.379 0.142347 83.1254 0.0370415 82.8609 0.0365583H47.564Z" fill="#EBEBEB"/>
<path d="M91.3954 59.8457H0V59.8914H91.3954V59.8457Z" fill="#EBEBEB"/>
<path d="M75.5035 40.9817L76.3023 41.5666C76.3078 41.5725 76.3147 41.5769 76.3224 41.5794L77.0993 40.9287C79.514 38.8321 82.2558 36.5198 80.1007 34.6334C78.6037 33.3228 76.8671 34.5438 75.9916 35.3371C75.0648 34.6059 73.1144 32.5185 71.473 35.052C70.1039 37.1632 72.9572 39.0423 75.5035 40.9817Z" fill="#EBEBEB"/>
<path opacity="0.5" d="M79.9819 35.4431C79.9191 35.4465 79.8601 35.4742 79.8174 35.5204C79.7748 35.5666 79.7518 35.6276 79.7535 35.6905C79.7552 35.7533 79.7813 35.813 79.8264 35.8569C79.8714 35.9008 79.9318 35.9253 79.9947 35.9253C80.0576 35.9253 80.118 35.9008 80.163 35.8569C80.2081 35.813 80.2342 35.7533 80.2359 35.6905C80.2376 35.6276 80.2146 35.5666 80.172 35.5204C80.1293 35.4742 80.0703 35.4465 80.0075 35.4431H79.9819Z" fill="white"/>
<path opacity="0.5" d="M79.0332 38.2929C79.7004 37.8597 79.0332 36.3443 79.8667 36.2164C80.4827 36.4686 79.8576 37.7536 79.0332 38.2929Z" fill="white"/>
<path d="M19.1652 39.7428L14.7445 41.5993C13.7374 42.0222 13.2639 43.1815 13.6868 44.1886L13.8142 44.4919C14.2371 45.499 15.3964 45.9726 16.4035 45.5497L20.8241 43.6932C21.8312 43.2703 22.3048 42.111 21.8819 41.1039L21.7545 40.8006C21.3315 39.7935 20.1723 39.3199 19.1652 39.7428Z" fill="#EBEBEB"/>
<path d="M15.6688 43.2519L15.3362 43.3927L15.2539 43.1971L16.1679 42.8169L16.2501 43.0125L15.9174 43.1514L16.2684 43.9959L16.0271 44.0964L15.6688 43.2519Z" fill="white"/>
<path d="M17.61 42.4897L17.6557 43.4037L17.4327 43.4969L17.0452 43.0765L17.0671 43.6505L16.8441 43.7437L16.2208 43.0655L16.4402 42.9741L16.8551 43.4366L16.8167 42.8206L17.0123 42.7383L17.4291 43.199L17.398 42.5757L17.61 42.4897Z" fill="white"/>
<path d="M18.6684 42.5903L18.0652 42.8443C18.0987 42.8887 18.1471 42.9195 18.2014 42.9313C18.2557 42.943 18.3125 42.9349 18.3613 42.9083C18.3989 42.8944 18.4332 42.873 18.4621 42.8453C18.491 42.8177 18.514 42.7843 18.5295 42.7475L18.7123 42.8297C18.6742 42.9155 18.6132 42.989 18.5359 43.0422C18.4586 43.0954 18.3681 43.1261 18.2745 43.1311C18.1808 43.136 18.0876 43.1149 18.0051 43.0701C17.9227 43.0253 17.8543 42.9585 17.8075 42.8772C17.7837 42.822 17.7714 42.7625 17.7714 42.7023C17.7713 42.6421 17.7836 42.5826 17.8074 42.5273C17.8312 42.4721 17.866 42.4222 17.9097 42.3809C17.9534 42.3395 18.0051 42.3075 18.0616 42.2868C18.1155 42.2607 18.1743 42.2462 18.2341 42.2443C18.294 42.2424 18.3536 42.253 18.4091 42.2756C18.4646 42.2982 18.5147 42.3322 18.5563 42.3753C18.5978 42.4185 18.6298 42.4699 18.6501 42.5263C18.6581 42.547 18.6642 42.5684 18.6684 42.5903ZM18.0049 42.7109L18.3979 42.5446C18.371 42.5004 18.3291 42.4673 18.2798 42.4515C18.2306 42.4356 18.1773 42.438 18.1296 42.4581C18.082 42.4783 18.0431 42.5149 18.0202 42.5613C17.9974 42.6077 17.9919 42.6608 18.0049 42.7109Z" fill="white"/>
<path d="M19.6061 42.1991L19.0102 42.4532C19.0437 42.4975 19.0921 42.5284 19.1464 42.5401C19.2008 42.5518 19.2575 42.5437 19.3064 42.5171C19.3441 42.5036 19.3785 42.4822 19.4075 42.4545C19.4364 42.4268 19.4593 42.3933 19.4745 42.3563L19.6573 42.4367C19.6201 42.523 19.5595 42.5973 19.4823 42.651C19.4051 42.7047 19.3145 42.7358 19.2206 42.7407C19.1267 42.7457 19.0333 42.7243 18.9509 42.6789C18.8685 42.6336 18.8004 42.5662 18.7543 42.4842C18.7303 42.4291 18.7178 42.3697 18.7177 42.3096C18.7175 42.2495 18.7298 42.19 18.7536 42.1348C18.7774 42.0796 18.8123 42.0299 18.8562 41.9887C18.9 41.9476 18.9518 41.9159 19.0084 41.8956C19.0623 41.8695 19.1211 41.8551 19.181 41.8531C19.2409 41.8512 19.3005 41.8619 19.356 41.8844C19.4115 41.907 19.4616 41.941 19.5031 41.9842C19.5446 42.0273 19.5766 42.0788 19.597 42.1351C19.5915 42.1516 19.5988 42.179 19.6061 42.1991ZM18.9426 42.3179L19.3356 42.1534C19.3098 42.1089 19.2684 42.0756 19.2193 42.0601C19.1703 42.0445 19.1173 42.0478 19.0706 42.0693C19.0217 42.0868 18.9813 42.1222 18.9575 42.1683C18.9338 42.2145 18.9284 42.268 18.9426 42.3179Z" fill="white"/>
<path d="M20.4049 42.2119C20.3625 42.2705 20.3041 42.3155 20.2367 42.3417C20.1995 42.3634 20.1577 42.3765 20.1147 42.3798C20.0717 42.3832 20.0285 42.3769 19.9882 42.3612C19.948 42.3456 19.9118 42.3211 19.8824 42.2895C19.8529 42.258 19.831 42.2202 19.8181 42.179L19.6811 41.8518L19.5568 41.903L19.4818 41.7202L19.6061 41.6672L19.5239 41.4734L19.756 41.3765L19.8383 41.5703L20.0357 41.4862L20.1106 41.669L19.9132 41.7531L20.0485 42.0766C20.0522 42.0913 20.0593 42.105 20.0691 42.1166C20.0789 42.1283 20.0912 42.1375 20.1051 42.1436C20.119 42.1498 20.1342 42.1527 20.1494 42.1522C20.1645 42.1517 20.1794 42.1477 20.1929 42.1406C20.2257 42.1264 20.2537 42.1029 20.2733 42.073L20.4049 42.2119Z" fill="white"/>
<path d="M21.3936 37.3758L9.27814 35.8409C8.88654 35.7913 8.52888 36.0685 8.47927 36.4601L8.15144 39.0479C8.10183 39.4395 8.37907 39.7971 8.77066 39.8468L20.8861 41.3816C21.2777 41.4312 21.6353 41.154 21.685 40.7624L22.0128 38.1746C22.0624 37.783 21.7852 37.4254 21.3936 37.3758Z" fill="#E6E6E6"/>
<path d="M12.3365 37.781L12.2927 38.1247L12.8959 38.2014L12.8648 38.4427L12.2634 38.3659L12.2031 38.8412L11.9015 38.8028L12.066 37.4995L13.0512 37.6256L13.0202 37.8669L12.3365 37.781Z" fill="white"/>
<path d="M13.0312 38.4373C13.0393 38.3286 13.0796 38.2249 13.1469 38.1393C13.2142 38.0536 13.3054 37.99 13.409 37.9564C13.5126 37.9228 13.6239 37.9209 13.7286 37.9508C13.8334 37.9807 13.9268 38.0411 13.9971 38.1243C14.0673 38.2075 14.1112 38.3098 14.1231 38.4181C14.1351 38.5263 14.1145 38.6357 14.064 38.7322C14.0135 38.8287 13.9355 38.908 13.8397 38.96C13.744 39.0119 13.635 39.0342 13.5266 39.024C13.4544 39.021 13.3837 39.0031 13.3188 38.9714C13.254 38.9396 13.1964 38.8947 13.1499 38.8396C13.1033 38.7844 13.0687 38.7201 13.0483 38.6509C13.0278 38.5816 13.022 38.5089 13.0312 38.4373ZM13.8373 38.5396C13.8453 38.5047 13.8457 38.4686 13.8388 38.4335C13.8318 38.3984 13.8175 38.3652 13.7967 38.3361C13.776 38.3069 13.7494 38.2825 13.7186 38.2643C13.6878 38.2461 13.6535 38.2347 13.618 38.2307C13.5512 38.2325 13.4874 38.2582 13.4379 38.303C13.3884 38.3478 13.3566 38.4089 13.3482 38.4751C13.3398 38.5413 13.3554 38.6084 13.3922 38.6641C13.4289 38.7199 13.4843 38.7606 13.5485 38.7791C13.5835 38.7839 13.6191 38.7815 13.653 38.7718C13.687 38.7622 13.7185 38.7455 13.7457 38.723C13.7729 38.7005 13.795 38.6725 13.8108 38.641C13.8266 38.6094 13.8356 38.5749 13.8373 38.5396Z" fill="white"/>
<path d="M14.4405 37.7207L14.7293 37.7573L14.5465 39.1392L14.2559 39.1026L14.4405 37.7207Z" fill="white"/>
<path d="M14.9888 37.792L15.2795 37.8286L15.0967 39.2105L14.806 39.1739L14.9888 37.792Z" fill="white"/>
<path d="M15.369 38.7334C15.3773 38.6244 15.418 38.5205 15.4858 38.4348C15.5536 38.3491 15.6455 38.2856 15.7496 38.2525C15.8538 38.2194 15.9654 38.2182 16.0702 38.2489C16.1751 38.2797 16.2683 38.3411 16.3381 38.4252C16.4078 38.5094 16.4508 38.6124 16.4615 38.7211C16.4723 38.8299 16.4503 38.9393 16.3984 39.0355C16.3465 39.1316 16.2671 39.2101 16.1703 39.2608C16.0736 39.3116 15.9638 39.3322 15.8553 39.3201C15.7838 39.3162 15.7139 39.2976 15.65 39.2654C15.5861 39.2332 15.5296 39.1881 15.4839 39.133C15.4382 39.0779 15.4045 39.014 15.3847 38.9452C15.3649 38.8764 15.3596 38.8043 15.369 38.7334ZM16.1751 38.8357C16.1776 38.7853 16.1653 38.7352 16.1397 38.6916C16.1141 38.648 16.0764 38.6128 16.0311 38.5904C15.9858 38.568 15.9349 38.5593 15.8847 38.5653C15.8346 38.5714 15.7873 38.592 15.7486 38.6245C15.71 38.6571 15.6817 38.7003 15.6672 38.7487C15.6527 38.7971 15.6527 38.8487 15.6671 38.8971C15.6816 38.9456 15.7098 38.9887 15.7484 39.0213C15.787 39.0539 15.8343 39.0746 15.8845 39.0807C15.92 39.0859 15.9563 39.0834 15.9908 39.0736C16.0254 39.0637 16.0574 39.0467 16.0849 39.0235C16.1123 39.0004 16.1346 38.9717 16.1501 38.9393C16.1657 38.9069 16.1742 38.8716 16.1751 38.8357Z" fill="white"/>
<path d="M18.3066 38.5981L17.8167 39.5523L17.537 39.5175L17.3908 38.8668L17.0782 39.459L16.8004 39.4243L16.5664 38.386L16.8388 38.4208L16.9996 39.1172L17.3305 38.4701L17.5754 38.5012L17.729 39.2104L18.058 38.5634L18.3066 38.5981Z" fill="white"/>
<path d="M23.2586 36.6171L12.394 28.3644L9.95054 31.5813L20.8151 39.834L23.2586 36.6171Z" fill="#E0E0E0"/>
<path d="M11.8376 31.0561L12.0588 30.9373C12.1087 31.0824 12.2003 31.2095 12.322 31.3029C12.4646 31.4107 12.5597 31.4071 12.6072 31.3431C12.7571 31.1475 12.046 30.8203 12.3421 30.4291C12.4774 30.2464 12.7333 30.2116 13.0294 30.4291C13.1584 30.5221 13.2595 30.6485 13.3219 30.7947L13.108 30.9209C13.059 30.8029 12.9811 30.6991 12.8814 30.6192C12.737 30.5114 12.6419 30.5224 12.5907 30.5882C12.4445 30.7801 13.1537 31.1091 12.8613 31.5021C12.7297 31.6849 12.4719 31.716 12.1722 31.4893C12.0199 31.3816 11.9034 31.2307 11.8376 31.0561Z" fill="white"/>
<path d="M13.1354 31.4784L13.5796 30.8934L13.8227 31.0762L13.384 31.6538C13.2323 31.8513 13.2579 31.9993 13.4041 32.1108C13.5503 32.2223 13.6984 32.2059 13.8501 32.0066L14.2888 31.4308L14.5265 31.6136L14.075 32.1986C14.0277 32.2607 13.9686 32.313 13.9011 32.3523C13.8336 32.3917 13.7591 32.4173 13.6817 32.4279C13.6043 32.4384 13.5256 32.4336 13.45 32.4137C13.3745 32.3938 13.3036 32.3592 13.2414 32.3119C13.1793 32.2646 13.127 32.2055 13.0877 32.138C13.0483 32.0706 13.0227 31.996 13.0121 31.9186C13.0016 31.8412 13.0064 31.7625 13.0263 31.6869C13.0462 31.6114 13.0808 31.5405 13.1281 31.4784H13.1354Z" fill="white"/>
<path d="M15.146 33.2825C15.0089 33.4653 14.7805 33.4653 14.5118 33.2496L13.9634 32.8383L14.7585 31.7928L15.2685 32.1821C15.5299 32.3795 15.5811 32.5916 15.4513 32.7543C15.4159 32.8024 15.3676 32.8397 15.312 32.8616C15.2564 32.8836 15.1957 32.8895 15.1369 32.8786C15.184 32.9349 15.2106 33.0055 15.2123 33.0789C15.2139 33.1524 15.1906 33.2242 15.146 33.2825ZM14.8664 32.1584L14.6836 32.4051L14.9249 32.5879C15.0418 32.6775 15.1387 32.6848 15.2009 32.6026C15.263 32.5203 15.2301 32.4307 15.1113 32.3412L14.8664 32.1584ZM14.923 33.0723C14.9888 32.9828 14.9541 32.8895 14.828 32.7963L14.5465 32.5806L14.3491 32.8402L14.6324 33.054C14.7567 33.1491 14.8536 33.1619 14.923 33.0723Z" fill="white"/>
<path d="M15.1095 33.5403L15.3288 33.4214C15.3784 33.5667 15.47 33.694 15.5921 33.787C15.7346 33.8967 15.8297 33.893 15.879 33.8272C16.0271 33.6316 15.3179 33.3044 15.6122 32.9133C15.7474 32.7305 16.0033 32.6958 16.2995 32.9133C16.4289 33.0057 16.5302 33.1323 16.5919 33.2789L16.3781 33.4068C16.3296 33.288 16.2516 33.1836 16.1514 33.1034C16.007 32.9955 15.9119 33.0065 15.8608 33.0723C15.7145 33.2661 16.4238 33.5951 16.1331 33.9863C15.9997 34.1599 15.742 34.2001 15.4422 33.9716C15.29 33.865 15.174 33.7145 15.1095 33.5403Z" fill="white"/>
<path d="M16.3963 33.8565C16.4515 33.7827 16.5213 33.7209 16.6013 33.675C16.6813 33.6291 16.7699 33.6002 16.8615 33.5899C16.9532 33.5796 17.046 33.5882 17.1342 33.6152C17.2224 33.6422 17.3041 33.687 17.3743 33.7469C17.4579 33.8054 17.5274 33.8819 17.5777 33.9708C17.628 34.0597 17.6578 34.1587 17.6649 34.2605L17.3999 34.2843C17.397 34.2214 17.3803 34.16 17.3509 34.1043C17.3215 34.0487 17.2802 34.0003 17.2299 33.9626C17.1862 33.9265 17.1357 33.8995 17.0813 33.8835C17.027 33.8674 16.9699 33.8624 16.9137 33.8689C16.8574 33.8755 16.803 33.8933 16.7537 33.9214C16.7045 33.9494 16.6615 33.9872 16.6272 34.0323C16.5929 34.0774 16.5681 34.129 16.5543 34.184C16.5404 34.2389 16.5379 34.2961 16.5467 34.3521C16.5555 34.4081 16.5756 34.4617 16.6056 34.5097C16.6357 34.5577 16.6752 34.5992 16.7217 34.6316C16.7723 34.6722 16.8318 34.7003 16.8953 34.7136C16.9588 34.727 17.0246 34.7252 17.0873 34.7083L17.1348 34.9697C16.996 34.9915 16.8538 34.9728 16.7254 34.9159C16.5969 34.859 16.4876 34.7662 16.4104 34.6488C16.3333 34.5314 16.2916 34.3942 16.2904 34.2537C16.2892 34.1132 16.3285 33.9753 16.4036 33.8565H16.3963Z" fill="white"/>
<path d="M17.8258 35.7667L17.844 35.3225L17.8331 35.3134L17.6229 35.1543L17.4017 35.445L17.1586 35.2622L17.9537 34.2166L18.4052 34.5621C18.6849 34.7741 18.7507 35.052 18.5715 35.2933C18.521 35.3663 18.4489 35.4216 18.3653 35.4515C18.2816 35.4813 18.1908 35.4842 18.1054 35.4596L18.0853 35.9732L17.8258 35.7667ZM18.2425 34.7467L18.0451 34.5968L17.7691 34.9624L17.9665 35.1123C18.1146 35.2256 18.2407 35.2128 18.3321 35.0995C18.4235 34.9862 18.3906 34.8582 18.2425 34.7467Z" fill="white"/>
<path d="M19.0505 35.0483L19.2918 35.2311L18.4985 36.2767L18.2554 36.0939L19.0505 35.0483Z" fill="white"/>
<path d="M19.9242 36.9091C19.7853 37.0919 19.5586 37.0919 19.2881 36.878L18.7397 36.4668L19.5349 35.4212L20.0449 35.8087C20.3063 36.008 20.3593 36.2182 20.2277 36.3809C20.1925 36.4294 20.1443 36.4669 20.0887 36.4893C20.033 36.5116 19.9722 36.5177 19.9133 36.507C19.9605 36.5628 19.9874 36.633 19.9894 36.7061C19.9914 36.7792 19.9684 36.8508 19.9242 36.9091ZM19.6446 35.7868L19.4618 36.0317L19.7031 36.2145C19.82 36.3041 19.9169 36.3114 19.9791 36.2291C20.0412 36.1469 20.0083 36.0591 19.8895 35.9677L19.6446 35.7868ZM19.6994 36.7007C19.767 36.613 19.7305 36.5179 19.6043 36.4247L19.3228 36.2109L19.1273 36.4686L19.4088 36.6825C19.5331 36.7775 19.6299 36.7885 19.6976 36.6989L19.6994 36.7007Z" fill="white"/>
<path d="M20.8382 37.7554L20.6901 37.9492L19.8804 37.335L20.6755 36.2876L21.4652 36.889L21.3171 37.0827L20.7687 36.666L20.5969 36.8926L21.0831 37.2582L20.9387 37.441L20.4543 37.0754L20.2715 37.3167L20.8382 37.7554Z" fill="white"/>
<path d="M37.7171 12.6583C37.5846 12.6583 37.4575 12.6057 37.3636 12.5122C37.2697 12.4187 37.2167 12.2917 37.2163 12.1592V10.9291H36.975C36.805 10.9286 36.642 10.8608 36.5218 10.7406C36.4016 10.6204 36.3339 10.4575 36.3334 10.2875V4.46192C36.3343 4.2927 36.4021 4.13072 36.5219 4.01124C36.6418 3.89176 36.8039 3.82445 36.9731 3.82397H46.0633C46.2327 3.82397 46.3951 3.89113 46.5151 4.01071C46.635 4.1303 46.7026 4.29256 46.7031 4.46192V10.2875C46.7026 10.4575 46.6349 10.6204 46.5146 10.7406C46.3944 10.8608 46.2315 10.9286 46.0615 10.9291H40.1226L38.0205 12.5577C37.9334 12.6241 37.8266 12.6595 37.7171 12.6583ZM36.9731 4.00677C36.8524 4.00724 36.7367 4.05529 36.6512 4.14049C36.5656 4.2257 36.5171 4.34118 36.5162 4.46192V10.2875C36.5166 10.409 36.5651 10.5254 36.6511 10.6113C36.737 10.6973 36.8534 10.7458 36.975 10.7463H37.399V12.1592C37.3995 12.2433 37.4332 12.3237 37.4928 12.383C37.5524 12.4422 37.6331 12.4755 37.7171 12.4755C37.7833 12.474 37.8473 12.4516 37.8999 12.4115L40.055 10.7463H46.0633C46.1849 10.7458 46.3013 10.6973 46.3872 10.6113C46.4732 10.5254 46.5217 10.409 46.5221 10.2875V4.46192C46.5216 4.34103 46.4733 4.22527 46.3876 4.13996C46.302 4.05466 46.186 4.00676 46.0652 4.00677H36.9731Z" fill="#E0E0E0"/>
<path d="M41.0292 3.09467H39.8904V3.23359H41.0292V3.09467Z" fill="#E0E0E0"/>
<path d="M35.7045 4.73613H35.5637V4.04883C35.5647 3.79544 35.666 3.55275 35.8455 3.37391C36.0251 3.19507 36.2681 3.09466 36.5215 3.09467H39.0605V3.23359H36.5215C36.3052 3.23359 36.0976 3.31942 35.9444 3.47226C35.7913 3.62509 35.705 3.83245 35.7045 4.04883V4.73613Z" fill="#E0E0E0"/>
<path d="M43.9795 6.54024H38.9857C38.9223 6.52751 38.8653 6.49325 38.8244 6.44326C38.7835 6.39328 38.7611 6.33067 38.7611 6.26606C38.7611 6.20145 38.7835 6.13884 38.8244 6.08885C38.8653 6.03887 38.9223 6.0046 38.9857 5.99187H43.9795C44.0201 5.98371 44.062 5.98467 44.1022 5.99467C44.1423 6.00467 44.1798 6.02346 44.2118 6.04969C44.2439 6.07593 44.2697 6.10894 44.2874 6.14636C44.3051 6.18377 44.3143 6.22466 44.3143 6.26606C44.3143 6.30746 44.3051 6.34834 44.2874 6.38576C44.2697 6.42318 44.2439 6.45619 44.2118 6.48242C44.1798 6.50866 44.1423 6.52745 44.1022 6.53745C44.062 6.54745 44.0201 6.5484 43.9795 6.54024Z" fill="#E0E0E0"/>
<path d="M43.9795 7.64248H38.9857C38.9223 7.62975 38.8653 7.59548 38.8244 7.5455C38.7835 7.49551 38.7611 7.4329 38.7611 7.36829C38.7611 7.30369 38.7835 7.24107 38.8244 7.19109C38.8653 7.14111 38.9223 7.10684 38.9857 7.09411H43.9795C44.0201 7.08595 44.062 7.0869 44.1022 7.0969C44.1423 7.1069 44.1798 7.1257 44.2118 7.15193C44.2439 7.17816 44.2697 7.21117 44.2874 7.24859C44.3051 7.28601 44.3143 7.32689 44.3143 7.36829C44.3143 7.40969 44.3051 7.45058 44.2874 7.48799C44.2697 7.52541 44.2439 7.55843 44.2118 7.58466C44.1798 7.61089 44.1423 7.62969 44.1022 7.63968C44.062 7.64968 44.0201 7.65064 43.9795 7.64248Z" fill="#E0E0E0"/>
<path d="M43.9795 8.74471H38.9857C38.9223 8.73198 38.8653 8.69771 38.8244 8.64773C38.7835 8.59775 38.7611 8.53513 38.7611 8.47053C38.7611 8.40592 38.7835 8.34331 38.8244 8.29332C38.8653 8.24334 38.9223 8.20907 38.9857 8.19634H43.9795C44.0201 8.18818 44.062 8.18914 44.1022 8.19914C44.1423 8.20914 44.1798 8.22793 44.2118 8.25416C44.2439 8.28039 44.2697 8.31341 44.2874 8.35083C44.3051 8.38824 44.3143 8.42913 44.3143 8.47053C44.3143 8.51193 44.3051 8.55281 44.2874 8.59023C44.2697 8.62764 44.2439 8.66066 44.2118 8.68689C44.1798 8.71313 44.1423 8.73192 44.1022 8.74192C44.062 8.75192 44.0201 8.75287 43.9795 8.74471Z" fill="#E0E0E0"/>
<path d="M47.1693 14.2431H52.1631C52.2037 14.2512 52.2456 14.2503 52.2858 14.2403C52.3259 14.2303 52.3634 14.2115 52.3954 14.1852C52.4274 14.159 52.4532 14.126 52.471 14.0886C52.4887 14.0512 52.4979 14.0103 52.4979 13.9689C52.4979 13.9275 52.4887 13.8866 52.471 13.8492C52.4532 13.8118 52.4274 13.7787 52.3954 13.7525C52.3634 13.7263 52.3259 13.7075 52.2858 13.6975C52.2456 13.6875 52.2037 13.6865 52.1631 13.6947H47.1693C47.1287 13.6865 47.0868 13.6875 47.0466 13.6975C47.0064 13.7075 46.969 13.7263 46.9369 13.7525C46.9049 13.7787 46.8791 13.8118 46.8614 13.8492C46.8437 13.8866 46.8345 13.9275 46.8345 13.9689C46.8345 14.0103 46.8437 14.0512 46.8614 14.0886C46.8791 14.126 46.9049 14.159 46.9369 14.1852C46.969 14.2115 47.0064 14.2303 47.0466 14.2403C47.0868 14.2503 47.1287 14.2512 47.1693 14.2431Z" fill="#E0E0E0"/>
<path d="M47.1693 15.3545H52.1631C52.2037 15.3626 52.2456 15.3617 52.2858 15.3517C52.3259 15.3417 52.3634 15.3229 52.3954 15.2966C52.4274 15.2704 52.4532 15.2374 52.471 15.2C52.4887 15.1626 52.4979 15.1217 52.4979 15.0803C52.4979 15.0389 52.4887 14.998 52.471 14.9606C52.4532 14.9232 52.4274 14.8901 52.3954 14.8639C52.3634 14.8377 52.3259 14.8189 52.2858 14.8089C52.2456 14.7989 52.2037 14.7979 52.1631 14.8061H47.1693C47.1287 14.7979 47.0868 14.7989 47.0466 14.8089C47.0064 14.8189 46.969 14.8377 46.9369 14.8639C46.9049 14.8901 46.8791 14.9232 46.8614 14.9606C46.8437 14.998 46.8345 15.0389 46.8345 15.0803C46.8345 15.1217 46.8437 15.1626 46.8614 15.2C46.8791 15.2374 46.9049 15.2704 46.9369 15.2966C46.969 15.3229 47.0064 15.3417 47.0466 15.3517C47.0868 15.3617 47.1287 15.3626 47.1693 15.3545Z" fill="#E0E0E0"/>
<path d="M47.1693 16.4512H52.1631C52.2037 16.4594 52.2456 16.4584 52.2858 16.4484C52.3259 16.4384 52.3634 16.4196 52.3954 16.3934C52.4274 16.3671 52.4532 16.3341 52.471 16.2967C52.4887 16.2593 52.4979 16.2184 52.4979 16.177C52.4979 16.1356 52.4887 16.0947 52.471 16.0573C52.4532 16.0199 52.4274 15.9869 52.3954 15.9606C52.3634 15.9344 52.3259 15.9156 52.2858 15.9056C52.2456 15.8956 52.2037 15.8947 52.1631 15.9028H47.1693C47.1287 15.8947 47.0868 15.8956 47.0466 15.9056C47.0064 15.9156 46.969 15.9344 46.9369 15.9606C46.9049 15.9869 46.8791 16.0199 46.8614 16.0573C46.8437 16.0947 46.8345 16.1356 46.8345 16.177C46.8345 16.2184 46.8437 16.2593 46.8614 16.2967C46.8791 16.3341 46.9049 16.3671 46.9369 16.3934C46.969 16.4196 47.0064 16.4384 47.0466 16.4484C47.0868 16.4584 47.1287 16.4594 47.1693 16.4512Z" fill="#E0E0E0"/>
<path d="M54.8153 15.1204C54.8153 15.996 54.3144 16.7929 53.4882 17.398V19.4087C53.4906 19.4521 53.4794 19.4952 53.4561 19.5319C53.4329 19.5686 53.3987 19.5972 53.3584 19.6135C53.3181 19.6298 53.2737 19.6331 53.2314 19.6229C53.1891 19.6128 53.1511 19.5896 53.1226 19.5567L51.1924 18.3686C50.6763 18.4748 50.1508 18.5281 49.624 18.5276C46.7597 18.5276 44.4382 17.0013 44.4382 15.1186C44.4382 13.2358 46.7597 11.7095 49.624 11.7095C52.4883 11.7095 54.8153 13.2377 54.8153 15.1204Z" stroke="#E0E0E0" stroke-miterlimit="10"/>
<path d="M66.4279 11.8961H65.6584C65.4808 11.8984 65.3107 11.9677 65.1819 12.09C65.0531 12.2123 64.9752 12.3787 64.9638 12.5559L64.781 16.1094C64.7757 16.1945 64.788 16.2797 64.8171 16.3599C64.8462 16.44 64.8915 16.5133 64.9501 16.5752C65.0087 16.6371 65.0795 16.6863 65.1579 16.7197C65.2364 16.753 65.3209 16.7699 65.4061 16.7693H66.1702C66.3478 16.7669 66.5179 16.6976 66.6467 16.5753C66.7754 16.453 66.8533 16.2866 66.8648 16.1094L67.0476 12.5559C67.0528 12.4713 67.0407 12.3865 67.0119 12.3067C66.9832 12.227 66.9384 12.1539 66.8803 12.0921C66.8223 12.0303 66.7522 11.981 66.6744 11.9473C66.5966 11.9136 66.5127 11.8961 66.4279 11.8961ZM66.448 16.1002C66.4439 16.1651 66.4154 16.226 66.3683 16.2707C66.3212 16.3154 66.2589 16.3407 66.1939 16.3415H65.4244C65.3932 16.3418 65.3623 16.3357 65.3336 16.3235C65.3049 16.3114 65.279 16.2934 65.2575 16.2707C65.2361 16.2481 65.2195 16.2212 65.2089 16.1919C65.1983 16.1626 65.1939 16.1314 65.1959 16.1002L65.3787 12.5468C65.3824 12.4816 65.4107 12.4203 65.4578 12.3752C65.505 12.3301 65.5675 12.3045 65.6328 12.3037H66.4023C66.4336 12.3036 66.4646 12.31 66.4933 12.3224C66.522 12.3347 66.5479 12.3529 66.5693 12.3757C66.5907 12.3985 66.6072 12.4254 66.6178 12.4549C66.6284 12.4843 66.6328 12.5156 66.6308 12.5468L66.448 16.1002Z" fill="#EBEBEB"/>
<path d="M72.5132 11.896H70.2594L70.7621 10.7115C70.8172 10.5851 70.838 10.4464 70.8224 10.3094L70.7164 9.37716C70.6976 9.19492 70.6111 9.02636 70.474 8.90484C70.337 8.78332 70.1592 8.71769 69.9761 8.72094H69.0804L69.0054 10.165L67.5523 11.9929C67.4082 12.1738 67.3233 12.3946 67.3091 12.6254L67.1264 15.9503C67.1195 16.0553 67.1345 16.1607 67.1703 16.2596C67.2061 16.3586 67.262 16.4491 67.3344 16.5255C67.4068 16.6019 67.4942 16.6624 67.5912 16.7034C67.6881 16.7444 67.7925 16.765 67.8977 16.7637H71.0509C71.1893 16.7616 71.3257 16.7308 71.4516 16.6732C71.5774 16.6156 71.69 16.5326 71.782 16.4292L72.0763 16.102C72.1919 15.9749 72.2725 15.82 72.3103 15.6524L73.0012 12.5742L72.5132 11.896Z" fill="#EBEBEB"/>
<g opacity="0.5">
<path d="M66.4279 11.8961H65.6584C65.4808 11.8984 65.3107 11.9677 65.1819 12.09C65.0531 12.2123 64.9752 12.3787 64.9638 12.5559L64.781 16.1094C64.7757 16.1945 64.788 16.2797 64.8171 16.3599C64.8462 16.44 64.8915 16.5133 64.9501 16.5752C65.0087 16.6371 65.0795 16.6863 65.1579 16.7197C65.2364 16.753 65.3209 16.7699 65.4061 16.7693H66.1702C66.3478 16.7669 66.5179 16.6976 66.6467 16.5753C66.7754 16.453 66.8533 16.2866 66.8648 16.1094L67.0476 12.5559C67.0528 12.4713 67.0407 12.3865 67.0119 12.3067C66.9832 12.227 66.9384 12.1539 66.8803 12.0921C66.8223 12.0303 66.7522 11.981 66.6744 11.9473C66.5966 11.9136 66.5127 11.8961 66.4279 11.8961ZM66.448 16.1002C66.4439 16.1651 66.4154 16.226 66.3683 16.2707C66.3212 16.3154 66.2589 16.3407 66.1939 16.3415H65.4244C65.3932 16.3418 65.3623 16.3357 65.3336 16.3235C65.3049 16.3114 65.279 16.2934 65.2575 16.2707C65.2361 16.2481 65.2195 16.2212 65.2089 16.1919C65.1983 16.1626 65.1939 16.1314 65.1959 16.1002L65.3787 12.5468C65.3824 12.4816 65.4107 12.4203 65.4578 12.3752C65.505 12.3301 65.5675 12.3045 65.6328 12.3037H66.4023C66.4336 12.3036 66.4646 12.31 66.4933 12.3224C66.522 12.3347 66.5479 12.3529 66.5693 12.3757C66.5907 12.3985 66.6072 12.4254 66.6178 12.4549C66.6284 12.4843 66.6328 12.5156 66.6308 12.5468L66.448 16.1002Z" fill="#EBEBEB"/>
</g>
<path d="M22.6971 10.112L19.4124 9.45945L20.1307 7.99164L22.5966 8.47969L22.6971 10.112Z" fill="#EBEBEB"/>
<path d="M22.5966 8.47968L21.816 9.93652L22.6971 10.112L22.5966 8.47968Z" fill="#E0E0E0"/>
<path d="M24.1601 10.4042L17.9062 9.1636C17.3527 9.0538 16.8149 9.41351 16.7051 9.96705L15.8472 14.2917C15.7374 14.8452 16.0972 15.383 16.6507 15.4928L22.9046 16.7334C23.4581 16.8432 23.9959 16.4834 24.1057 15.9299L24.9635 11.6053C25.0733 11.0517 24.7136 10.514 24.1601 10.4042Z" fill="#EBEBEB"/>
<path d="M24.048 10.3781L24.2273 10.4137C24.4741 10.4626 24.6913 10.6076 24.8312 10.8168C24.9711 11.0259 25.0222 11.282 24.9732 11.5288L24.0869 15.9969C24.0379 16.2437 23.893 16.4609 23.6838 16.6008C23.4747 16.7407 23.2186 16.7918 22.9718 16.7429L22.7925 16.7073L24.048 10.3781Z" fill="#E0E0E0"/>
<path d="M22.2786 13.0165C22.1908 13.4591 21.9737 13.8657 21.6548 14.1849C21.3359 14.504 20.9295 14.7215 20.487 14.8097C20.0445 14.8979 19.5858 14.8529 19.1688 14.6804C18.7519 14.5079 18.3955 14.2156 18.1447 13.8406C17.8939 13.4655 17.7599 13.0245 17.7598 12.5733C17.7596 12.1221 17.8933 11.681 18.1438 11.3057C18.3944 10.9305 18.7506 10.638 19.1674 10.4652C19.5842 10.2924 20.0429 10.2471 20.4854 10.335C21.0788 10.4528 21.601 10.8015 21.9373 11.3044C22.2736 11.8073 22.3963 12.4231 22.2786 13.0165Z" fill="#FAFAFA"/>
<path d="M21.9805 12.9269C21.9039 13.3154 21.7137 13.6724 21.4341 13.9528C21.1545 14.2332 20.798 14.4244 20.4097 14.5021C20.0214 14.5798 19.6188 14.5406 19.2528 14.3895C18.8869 14.2383 18.5739 13.982 18.3536 13.653C18.1333 13.324 18.0156 12.937 18.0153 12.541C18.015 12.145 18.1321 11.7579 18.3519 11.4285C18.5717 11.0991 18.8842 10.8423 19.25 10.6906C19.6158 10.5389 20.0183 10.4991 20.4067 10.5762C20.9258 10.6818 21.3822 10.9879 21.6769 11.428C21.9716 11.8681 22.0807 12.4068 21.9805 12.9269Z" fill="#E0E0E0"/>
<path d="M18.8768 10.2728L20.4068 10.5763L19.6281 14.5008L17.6631 14.1242C17.6631 14.1242 19.2497 10.8888 18.8768 10.2728Z" fill="#E0E0E0"/>
<path d="M19.2159 9.01062L18.1777 8.80469L18.087 9.2619L19.1252 9.46783L19.2159 9.01062Z" fill="#EBEBEB"/>
<path d="M23.2145 11.4062C23.2041 11.4582 23.1785 11.5061 23.141 11.5436C23.1034 11.5812 23.0556 11.6068 23.0035 11.6172C22.9515 11.6276 22.8975 11.6223 22.8484 11.602C22.7993 11.5818 22.7573 11.5474 22.7278 11.5033C22.6982 11.4592 22.6824 11.4073 22.6823 11.3542C22.6821 11.3011 22.6978 11.2492 22.7272 11.205C22.7565 11.1607 22.7984 11.1262 22.8474 11.1057C22.8964 11.0853 22.9503 11.0798 23.0024 11.0899C23.0372 11.0967 23.0702 11.1103 23.0997 11.1299C23.1291 11.1494 23.1544 11.1746 23.1741 11.204C23.1938 11.2334 23.2075 11.2664 23.2145 11.3011C23.2214 11.3358 23.2214 11.3715 23.2145 11.4062Z" fill="#FAFAFA"/>
<path d="M19.193 12.2287C19.1132 12.6316 18.9417 13.0107 18.6918 13.3365C18.4419 13.6624 18.1203 13.9264 17.7519 14.1079C17.3835 14.2895 16.9782 14.3837 16.5675 14.3834C16.1568 14.383 15.7518 14.2881 15.3837 14.106C15.9696 14.0656 16.526 13.8335 16.9669 13.4455C17.4078 13.0574 17.7087 12.535 17.8231 11.9589C17.9375 11.3828 17.859 10.785 17.5998 10.258C17.3406 9.73088 16.9151 9.3038 16.389 9.04267C16.7986 9.01423 17.2092 9.08063 17.589 9.23668C17.9688 9.39274 18.3074 9.63426 18.5787 9.94247C18.8499 10.2507 19.0465 10.6173 19.153 11.0138C19.2596 11.4103 19.2733 11.826 19.193 12.2287Z" fill="#EBEBEB"/>
<path d="M17.824 11.9594C18.1014 10.5612 17.4585 9.25557 16.388 9.04323C15.3176 8.83089 14.225 9.79222 13.9476 11.1904C13.6703 12.5886 14.3132 13.8942 15.3836 14.1066C16.4541 14.3189 17.5467 13.3576 17.824 11.9594Z" fill="#FAFAFA"/>
<path d="M15.3818 14.1059C14.9719 14.1342 14.561 14.0675 14.181 13.9113C13.8011 13.755 13.4622 13.5133 13.1907 13.2049C12.9193 12.8965 12.7226 12.5297 12.6158 12.1329C12.509 11.7362 12.4951 11.3202 12.5751 10.9172C12.6551 10.5142 12.8269 10.1351 13.0772 9.80923C13.3274 9.48338 13.6494 9.21956 14.0181 9.03826C14.3867 8.85696 14.7922 8.76304 15.2031 8.7638C15.6139 8.76456 16.0191 8.85997 16.3871 9.04264C15.8011 9.08296 15.2448 9.31508 14.8039 9.70315C14.363 10.0912 14.0621 10.6136 13.9477 11.1897C13.8333 11.7658 13.9118 12.3636 14.171 12.8907C14.4302 13.4177 14.8557 13.8448 15.3818 14.1059Z" fill="#E6E6E6"/>
<path d="M45.6977 68C65.2713 68 81.139 67.0736 81.139 65.9308C81.139 64.788 65.2713 63.8616 45.6977 63.8616C26.124 63.8616 10.2563 64.788 10.2563 65.9308C10.2563 67.0736 26.124 68 45.6977 68Z" fill="#F5F5F5"/>
<path d="M67.2065 49.1214H25.1226V62.9989H67.2065V49.1214Z" fill="#5F5A5A"/>
<path opacity="0.2" d="M67.2065 49.1232H25.1226V62.9988H67.2065V49.1232Z" fill="white"/>
<path d="M54.7695 35.4102H36.5032V49.2877H54.7695V35.4102Z" fill="#5F5A5A"/>
<path opacity="0.2" d="M54.7695 35.4102H36.5032V49.2877H54.7695V35.4102Z" fill="white"/>
<path d="M47.328 39.3494L46.2952 44.5169H45.0979L45.9406 40.3127H44.906L45.0979 39.353L47.328 39.3494Z" fill="#263238"/>
<path d="M56.8462 30.3542L57.5573 31.1073L62.5968 27.7531L68.2871 29.6359L73.2389 25.9782L73.5715 26.5741L74.9096 24.324L72.2938 24.2892L72.6265 24.8833L68.203 28.7347L62.4999 26.894L56.8462 30.3542Z" fill="#263238"/>
<path opacity="0.2" d="M59.8586 50.5508L63.688 50.4119C62.785 50.1523 61.8309 50.1669 60.895 50.0701C60.6243 50.0513 60.3575 49.9959 60.1017 49.9055C59.8604 49.8123 59.6429 49.6643 59.4034 49.5656C59.0896 49.4361 58.7469 49.3932 58.4109 49.4413C58.3027 49.453 58.1974 49.4839 58.1001 49.5327C57.9167 49.64 57.7794 49.8111 57.7144 50.0134C57.6544 50.1866 57.6199 50.3676 57.6121 50.5508C57.6121 50.5764 57.6121 50.6038 57.6121 50.6312C57.617 51.033 57.7028 51.4296 57.8643 51.7974C58.7527 53.9489 65.9492 52.1118 65.9492 52.1118C65.6969 53.523 66.0734 54.5868 66.3312 55.9998L67.0057 59.7214L66.2855 59.8L66.5761 60.8419H67.2104V50.5508H59.8586Z" fill="black"/>
<path opacity="0.2" d="M67.2543 61.7412V62.9074L67.225 62.8727L67.0678 62.0538C67.0669 62.0422 67.0669 62.0306 67.0678 62.0191C67.0675 61.9594 67.0851 61.901 67.1184 61.8515C67.1516 61.802 67.1989 61.7635 67.2543 61.7412Z" fill="black"/>
<path d="M70.6194 60.8821L71.7472 60.7597L71.8569 58.111L70.7272 58.2335L70.6194 60.8821Z" fill="#FF8B7B"/>
<path d="M71.8624 60.2844L70.5829 60.2698C70.5618 60.2677 70.5408 60.2741 70.5243 60.2874C70.5079 60.3008 70.4974 60.32 70.4951 60.3411C70.4942 60.3441 70.4942 60.3472 70.4951 60.3502L70.422 61.3556C70.422 61.4086 70.4425 61.4596 70.4793 61.4978C70.5162 61.536 70.5664 61.5584 70.6194 61.5603C71.0618 61.5603 71.2482 61.5347 71.8057 61.5018C72.1512 61.4799 72.9719 61.425 73.4399 61.3373C73.9078 61.2495 73.8055 60.7889 73.6007 60.7889C73.1127 60.7798 72.3651 60.6189 72.0488 60.363C71.9968 60.3174 71.9314 60.2899 71.8624 60.2844Z" fill="#263238"/>
<path opacity="0.2" d="M70.7273 58.2353L71.857 58.111L71.804 59.3869L70.6761 59.471L70.7273 58.2353Z" fill="black"/>
<path d="M62.6973 46.5422C62.6973 46.5422 71.2885 46.1182 71.857 49.3188C72.136 52.3272 72.1904 55.3523 72.0197 58.3688L70.4257 58.6759C70.4257 58.6759 69.1828 53.1227 69.3107 50.3936C66.9436 50.1341 60.4984 51.282 59.493 49.5181C58.6723 48.0795 58.8258 47.1857 58.8258 47.1857L62.6973 46.5422Z" fill="#263238"/>
<path d="M69.9157 59.1913L72.3322 59.078L72.4986 58.1713L69.8207 58.2627L69.9157 59.1913Z" fill="#5F5A5A"/>
<path d="M72.4748 60.4288C72.4926 60.4102 72.5052 60.3872 72.5113 60.3622C72.5174 60.3372 72.5168 60.311 72.5095 60.2862C72.5065 60.2695 72.4992 60.2537 72.4883 60.2406C72.4774 60.2274 72.4633 60.2174 72.4473 60.2113C72.3084 60.1528 71.9867 60.3703 71.952 60.3941C71.9487 60.3957 71.9459 60.398 71.9437 60.4008C71.9415 60.4037 71.9399 60.407 71.9392 60.4105C71.9384 60.4139 71.9383 60.4174 71.9388 60.4208C71.9394 60.4242 71.9407 60.4275 71.9426 60.4304C71.9445 60.4333 71.9469 60.4358 71.9498 60.4377C71.9526 60.4396 71.9559 60.441 71.9593 60.4416C72.0579 60.4672 72.1591 60.4819 72.2609 60.4855C72.3367 60.4935 72.4128 60.4733 72.4748 60.4288ZM72.4309 60.2588C72.4383 60.2622 72.4446 60.2676 72.4491 60.2744C72.4536 60.2812 72.4562 60.2891 72.4565 60.2972C72.4623 60.3129 72.4636 60.3299 72.4604 60.3464C72.4572 60.3628 72.4495 60.3781 72.4382 60.3904C72.3834 60.4435 72.2353 60.4489 72.0324 60.4051C72.164 60.321 72.3541 60.2296 72.4309 60.2588Z" fill="#5F5A5A"/>
<path d="M71.9831 60.4361C72.0964 60.3703 72.2683 60.1364 72.2427 60.0121C72.2385 59.9901 72.2271 59.9701 72.2101 59.9555C72.1932 59.9409 72.1718 59.9325 72.1494 59.9316C72.1283 59.9283 72.1067 59.9301 72.0863 59.9367C72.066 59.9434 72.0475 59.9548 72.0325 59.97C71.9173 60.0797 71.9374 60.4051 71.9392 60.4197C71.9394 60.4243 71.9409 60.4288 71.9435 60.4327C71.9461 60.4365 71.9497 60.4396 71.9539 60.4416H71.9666L71.9831 60.4361ZM72.133 59.9846C72.1732 59.9846 72.1805 60.0066 72.1842 60.023C72.2006 60.1034 72.0873 60.2808 71.9868 60.363C71.9724 60.2358 72 60.1075 72.0654 59.9974C72.073 59.9898 72.0821 59.9839 72.0922 59.9801C72.1023 59.9763 72.1131 59.9747 72.1239 59.9755L72.133 59.9846Z" fill="#5F5A5A"/>
<path opacity="0.3" d="M68.2468 48.3884C68.2468 48.3884 70.04 47.8747 70.4257 48.955C70.8114 50.0353 70.3599 55.3034 69.8261 56.4824C69.2924 57.6614 68.3108 48.5748 68.3108 48.5748L68.2468 48.3884Z" fill="black"/>
<path d="M68.2798 61.7412L69.3747 61.712L69.2906 59.0542L68.1957 59.0816L68.2798 61.7412Z" fill="#FF8B7B"/>
<path d="M69.3929 61.3848L68.1225 61.4652C68.1009 61.4662 68.0804 61.4754 68.0654 61.4911C68.0505 61.5068 68.0421 61.5276 68.0421 61.5493V62.5565C68.0468 62.6085 68.0715 62.6567 68.1111 62.6908C68.1507 62.725 68.202 62.7423 68.2542 62.7393C68.6947 62.6972 68.9049 62.6625 69.4642 62.6223C69.9624 62.6109 70.4591 62.5633 70.9503 62.4797C71.4128 62.3737 71.2976 61.9204 71.0929 61.9222C70.5564 61.8901 70.0375 61.7194 69.5867 61.4268C69.5283 61.3923 69.4604 61.3775 69.3929 61.3848Z" fill="#263238"/>
<path d="M70.0089 61.4817C70.0255 61.462 70.0365 61.4382 70.0407 61.4127C70.0449 61.3873 70.0421 61.3612 70.0327 61.3373C70.0284 61.3209 70.0202 61.3058 70.0087 61.2933C69.9973 61.2809 69.9829 61.2715 69.9669 61.266C69.8243 61.2184 69.519 61.4616 69.4843 61.489C69.4798 61.4935 69.4766 61.4992 69.4751 61.5054C69.4746 61.5088 69.4748 61.5122 69.4756 61.5155C69.4765 61.5188 69.4779 61.5219 69.48 61.5247C69.482 61.5274 69.4846 61.5297 69.4875 61.5314C69.4905 61.5331 69.4937 61.5342 69.4971 61.5347C69.5971 61.5532 69.6989 61.56 69.8005 61.5548C69.8769 61.559 69.9519 61.5327 70.0089 61.4817ZM69.9504 61.3171C69.9584 61.3197 69.9656 61.3242 69.9713 61.3303C69.9771 61.3363 69.9812 61.3438 69.9833 61.3519C69.9896 61.3675 69.9917 61.3844 69.9895 61.4011C69.9873 61.4178 69.9807 61.4336 69.9705 61.4469C69.9248 61.5036 69.7713 61.5182 69.5665 61.4926C69.6982 61.3994 69.8809 61.2934 69.9559 61.3171H69.9504Z" fill="#5F5A5A"/>
<path d="M69.5282 61.5328C69.6361 61.4579 69.7896 61.2056 69.7549 61.0905C69.7491 61.0686 69.7359 61.0494 69.7176 61.0361C69.6993 61.0228 69.677 61.0162 69.6544 61.0174C69.6331 61.0149 69.6115 61.0176 69.5914 61.0252C69.5714 61.0329 69.5535 61.0452 69.5392 61.0612C69.4332 61.1782 69.4807 61.5018 69.4807 61.5164C69.4814 61.5209 69.4833 61.5252 69.4862 61.5287C69.4891 61.5322 69.4929 61.5349 69.4972 61.5365H69.5081C69.5116 61.5373 69.5151 61.5374 69.5186 61.5368C69.522 61.5361 69.5253 61.5348 69.5282 61.5328ZM69.6452 61.0649C69.6836 61.0649 69.6964 61.085 69.6982 61.0996C69.722 61.1801 69.6196 61.3647 69.5264 61.4542C69.503 61.3299 69.5217 61.2013 69.5794 61.0887C69.5859 61.0807 69.594 61.0742 69.6031 61.0695C69.6122 61.0647 69.6222 61.0619 69.6324 61.0612L69.6452 61.0649Z" fill="#5F5A5A"/>
<path opacity="0.2" d="M68.0969 59.0579L69.3216 58.8513L69.3326 60.5129L68.2578 60.6372L68.0969 59.0579Z" fill="black"/>
<path d="M61.012 46.7944C61.012 46.7944 69.4953 47.4269 69.6031 49.9019C70.2283 53.9233 69.7567 59.2242 69.7567 59.2242L67.7241 59.6483C67.7241 59.6483 66.6803 54.6855 66.5304 51.037C64.4539 51.3861 60.1821 52.0296 58.718 50.9913C57.3964 49.7977 57.762 47.3428 57.762 47.3428L61.012 46.7944Z" fill="#263238"/>
<path d="M67.532 60.3191L70.0162 60.1089L70.0673 59.0231L67.3456 59.3046L67.532 60.3191Z" fill="#5F5A5A"/>
<path d="M61.6006 39.4243C61.6481 39.6181 61.692 39.7899 61.7432 39.9617C61.7943 40.1335 61.8474 40.3035 61.9058 40.4808C62.0192 40.8227 62.149 41.1608 62.2897 41.5045C62.5766 42.2197 62.9597 42.8925 63.4285 43.5042C63.565 43.6748 63.7154 43.8338 63.8782 43.9795C64.0608 44.1437 64.2673 44.2793 64.4905 44.3816C64.9178 44.5737 65.3881 44.65 65.8541 44.6028C66.263 44.5615 66.6624 44.454 67.0368 44.2847C67.2133 44.2063 67.3848 44.1172 67.5504 44.0178C67.6339 43.9695 67.7144 43.9164 67.7917 43.8588C67.8685 43.7985 67.9416 43.7473 68.0312 43.676L67.5925 42.9449L67.3749 43.0107L67.1465 43.0728C66.9911 43.1112 66.8394 43.1459 66.6822 43.1715C66.3995 43.2235 66.1113 43.2383 65.8249 43.2154C65.5958 43.1994 65.3742 43.1272 65.1796 43.0052C65.095 42.9498 65.0171 42.8848 64.9475 42.8114C64.8612 42.7168 64.7812 42.6167 64.708 42.5117C64.5397 42.2648 64.3924 42.0044 64.2675 41.733C64.1286 41.4515 64.0061 41.1553 63.8891 40.8501C63.7721 40.5448 63.6661 40.2359 63.5601 39.9252L63.4102 39.4536C63.3627 39.2982 63.3115 39.1318 63.2731 38.9966L61.6006 39.4243Z" fill="#FF8B7B"/>
<path d="M61.4416 38.4738C62.1252 37.5452 63.2183 37.8432 63.8727 39.2671C64.2339 40.0248 64.5263 40.8133 64.7464 41.6233L62.2385 42.5903C61.5275 41.2522 60.7378 39.428 61.4416 38.4738Z" fill="#5F5A5A"/>
<path opacity="0.1" d="M61.4416 38.4738C62.1252 37.5452 63.2183 37.8432 63.8727 39.2671C64.2339 40.0248 64.5263 40.8133 64.7464 41.6233L62.2385 42.5903C61.5275 41.2522 60.7378 39.428 61.4416 38.4738Z" fill="black"/>
<path opacity="0.3" d="M62.5492 39.9562C62.3353 39.821 61.9332 40.6582 61.7668 41.6379C61.9167 41.9724 62.0776 42.2923 62.2366 42.5903L63.7446 42.0053C63.465 41.1023 63.0281 40.2615 62.5492 39.9562Z" fill="black"/>
<path d="M67.7058 42.5683L68.2542 42.2484L68.4882 43.4823C68.4882 43.4823 67.5742 44.069 67.2982 43.6157L67.3165 43.2958C67.3268 43.154 67.3668 43.016 67.4339 42.8907C67.5009 42.7654 67.5936 42.6555 67.7058 42.5683Z" fill="#FF8B7B"/>
<path d="M68.9451 42.1661L69.4624 43.1459L68.479 43.4822L68.2468 42.2484L68.9451 42.1661Z" fill="#FF8B7B"/>
<path d="M61.405 37.664L60.0999 37.5233L58.4932 37.7152C58.2477 37.7442 58.0186 37.8531 57.8412 38.0253C57.6638 38.1974 57.548 38.4231 57.5116 38.6675C57.3665 39.8525 57.295 41.0454 57.2977 42.2393C57.2831 43.5846 57.4951 45.566 57.7693 47.3574L63.1525 46.5312C63.0556 41.8152 63.3645 40.3419 63.37 39.0898C63.3708 38.8447 63.2916 38.6061 63.1445 38.4102C62.9973 38.2142 62.7903 38.0716 62.5548 38.004L61.405 37.664Z" fill="#5F5A5A"/>
<path d="M61.405 37.664L60.0999 37.5233L58.4932 37.7152C58.2477 37.7442 58.0186 37.8531 57.8412 38.0253C57.6638 38.1974 57.548 38.4231 57.5116 38.6675C57.3665 39.8525 57.295 41.0454 57.2977 42.2393C57.2831 43.5846 57.4951 45.566 57.7693 47.3574L63.1525 46.5312C63.0556 41.8152 63.3645 40.3419 63.37 39.0898C63.3708 38.8447 63.2916 38.6061 63.1445 38.4102C62.9973 38.2142 62.7903 38.0716 62.5548 38.004L61.405 37.664Z" fill="#5F5A5A"/>
<path opacity="0.3" d="M58.0179 38.2033C59.0909 37.9803 59.1146 40.4297 58.6814 42.2357C58.5553 42.7584 57.9338 42.561 57.7236 42.4331C57.0308 42.0145 56.7036 39.0295 58.0179 38.2033Z" fill="black"/>
<path d="M58.0032 41.8335C58.0782 42.8919 57.7601 43.4567 58.3341 43.7912C58.908 44.1257 62.2805 45.1274 62.3555 44.9866C62.2019 45.2462 62.052 45.4692 61.8985 45.7306C60.9334 45.6173 59.9676 45.5149 59.0013 45.4235C58.2957 45.3559 57.1569 45.2115 56.5921 44.7837C56.0803 44.3962 56.1132 42.625 56.157 41.3491C56.5994 41.0731 58.0032 41.8335 58.0032 41.8335Z" fill="#FF8B7B"/>
<path d="M57.5792 37.7865C58.6759 37.421 59.1237 38.3002 58.8349 39.8338C58.6926 40.6611 58.4748 41.4737 58.1842 42.2613L55.8445 41.6032C56.0547 40.1007 56.4623 38.1558 57.5792 37.7865Z" fill="#5F5A5A"/>
<path d="M59.1914 37.728C59.1691 37.963 59.2342 38.1979 59.3742 38.3879C59.5172 38.5736 59.6824 38.7412 59.8659 38.8869C60.0926 39.0807 60.3595 39.2872 60.6537 39.2379C60.948 39.1885 61.076 39.0551 61.1747 38.7242C61.4196 39.0898 61.4379 39.2726 61.6938 39.2945C61.7771 39.2875 61.8578 39.2625 61.9304 39.2211C62.003 39.1798 62.0657 39.1231 62.1142 39.0551C62.2989 38.8936 62.4119 38.6655 62.4286 38.4208C62.4743 37.9437 62.074 37.5069 61.6207 37.3624C61.1593 37.2234 60.682 37.1441 60.2004 37.1266C59.7855 37.0919 59.2609 37.24 59.1914 37.728Z" fill="#263238"/>
<path d="M60.2534 35.4102L60.8603 36.0701L61.6883 36.9658C61.6168 37.0661 61.5647 37.1789 61.5348 37.2984C61.4838 37.4245 61.4803 37.5648 61.5251 37.6933C61.5698 37.8217 61.6596 37.9295 61.7779 37.9967C61.9022 38.0497 61.9826 38.684 61.1801 38.6438C60.9516 38.647 60.7247 38.6033 60.5137 38.5152C60.3028 38.4272 60.1121 38.2967 59.9536 38.132C59.8001 37.9382 59.758 37.834 59.9024 37.6147C60.321 36.9932 60.321 36.1103 60.2534 35.4102Z" fill="#FF8B7B"/>
<path opacity="0.2" d="M61.489 36.7409L60.9644 36.0902C60.9644 36.1103 60.9534 36.1323 60.9461 36.1542C60.9255 36.2493 60.912 36.3458 60.9059 36.443C60.8858 36.7738 61.2094 37.187 61.5164 37.3569L61.5384 37.2893C61.5699 37.178 61.6166 37.0716 61.6773 36.9731C61.6807 36.9669 61.6857 36.9618 61.6919 36.9585L61.489 36.7409Z" fill="black"/>
<path d="M62.2184 35.211C62.7028 34.266 62.6004 33.7304 63.0665 33.2277C63.317 33.1162 63.7557 33.5787 63.4632 34.3647C63.1707 35.1507 62.2184 35.211 62.2184 35.211Z" fill="#263238"/>
<path d="M60.268 34.1618C60.2113 35.2585 60.1309 35.8965 60.6208 36.5015C61.3519 37.4155 62.7594 37.0499 63.1378 35.9787C63.4778 35.0227 63.5034 33.3904 62.4834 32.8603C62.3055 32.769 62.1112 32.7137 61.9119 32.6975C61.7125 32.6813 61.5119 32.7046 61.3216 32.7661C61.1313 32.8276 60.9549 32.926 60.8027 33.0557C60.6504 33.1854 60.5252 33.3439 60.4343 33.522C60.332 33.7202 60.2751 33.9388 60.268 34.1618Z" fill="#FF8B7B"/>
<path d="M60.1382 35.136L61.032 35.4888L60.8072 34.5292L61.2934 34.2513L61.8875 33.363C61.8875 33.363 60.608 32.9864 60.2186 32.9352C60.0833 32.917 59.6136 33.2825 59.5441 33.4361C59.4533 33.6518 59.4246 33.8887 59.4611 34.1199C59.4975 34.3511 59.5978 34.5675 59.7507 34.7449C59.8667 34.8877 59.9965 35.0187 60.1382 35.136Z" fill="#263238"/>
<path d="M60.5861 31.8166C60.8676 31.6795 61.2094 31.8513 61.5092 31.9427C61.8034 32.0475 62.1037 32.1341 62.4085 32.2022C62.6742 32.266 62.954 32.2316 63.1963 32.1054C63.3141 32.0382 63.4033 31.9305 63.4474 31.8023C63.4915 31.6741 63.4874 31.5343 63.4358 31.4089C63.6001 31.5022 63.7393 31.6342 63.8412 31.7934C63.943 31.9526 64.0045 32.1342 64.0204 32.3225C64.0362 32.5108 64.0059 32.7002 63.9321 32.8742C63.8582 33.0481 63.7431 33.2015 63.5966 33.3209C63.3157 33.5306 62.9729 33.6406 62.6224 33.6335C62.2751 33.6244 61.9299 33.5766 61.5933 33.4909C61.1418 33.394 60.4965 33.3794 60.0761 33.1729C59.6557 32.9663 59.727 32.2315 60.5861 31.8166Z" fill="#263238"/>
<path d="M59.7305 34.9496C59.7606 35.1934 59.879 35.4177 60.0632 35.5802C60.3045 35.785 60.5823 35.5437 60.6116 35.2329C60.6298 34.9551 60.4781 34.5548 60.193 34.4689C59.9078 34.383 59.694 34.6462 59.7305 34.9496Z" fill="#FF8B7B"/>
<path d="M61.9278 34.765C61.915 34.8564 61.9497 34.9387 62.0101 34.9478C62.0704 34.9569 62.1197 34.8948 62.1398 34.8052C62.1517 34.7702 62.15 34.7321 62.1351 34.6982C62.1202 34.6644 62.0932 34.6374 62.0594 34.6224C61.9991 34.6115 61.9424 34.6754 61.9278 34.765Z" fill="#263238"/>
<path d="M62.944 34.9551C62.9294 35.0465 62.966 35.1379 63.0244 35.1379C63.0829 35.1379 63.1414 35.0849 63.1561 34.9971C63.1707 34.9094 63.1323 34.8235 63.0738 34.8143C63.0153 34.8052 62.9568 34.8655 62.944 34.9551Z" fill="#263238"/>
<path d="M62.6078 34.9624C62.6468 35.2182 62.7193 35.4677 62.8234 35.7045C62.763 35.7281 62.698 35.7381 62.6332 35.7337C62.5684 35.7292 62.5054 35.7106 62.4487 35.6789L62.6078 34.9624Z" fill="#FF5652"/>
<path d="M62.2879 36.1926C62.1828 36.1765 62.0821 36.1393 61.9919 36.083C61.9017 36.0267 61.8239 35.9527 61.7633 35.8654C61.7599 35.8593 61.7589 35.8521 61.7606 35.8453C61.7623 35.8385 61.7665 35.8326 61.7724 35.8288C61.7775 35.8243 61.784 35.8218 61.7907 35.8218C61.7975 35.8218 61.804 35.8243 61.809 35.8288C61.8763 35.9224 61.9642 35.9993 62.0659 36.0535C62.1677 36.1077 62.2805 36.1378 62.3957 36.1414C62.4027 36.1414 62.4094 36.144 62.4145 36.1488C62.4196 36.1535 62.4227 36.16 62.4232 36.167C62.4234 36.1706 62.4229 36.1742 62.4218 36.1776C62.4206 36.181 62.4188 36.1842 62.4164 36.1869C62.4141 36.1896 62.4112 36.1919 62.4079 36.1935C62.4047 36.1951 62.4012 36.196 62.3976 36.1962C62.361 36.197 62.3244 36.1958 62.2879 36.1926Z" fill="#263238"/>
<path d="M61.7833 34.4103C61.7754 34.4065 61.768 34.4016 61.7614 34.3957C61.7514 34.3855 61.7457 34.3717 61.7457 34.3573C61.7457 34.343 61.7514 34.3292 61.7614 34.3189C61.8225 34.2607 61.897 34.2186 61.9783 34.1962C62.0597 34.1739 62.1453 34.1721 62.2275 34.191C62.2411 34.1944 62.2527 34.2031 62.2599 34.2151C62.2671 34.2271 62.2692 34.2414 62.2659 34.255C62.264 34.2619 62.2608 34.2684 62.2563 34.274C62.2518 34.2797 62.2463 34.2843 62.2399 34.2878C62.2336 34.2912 62.2267 34.2933 62.2195 34.2939C62.2123 34.2946 62.2051 34.2938 62.1983 34.2915C62.1334 34.2783 62.0664 34.2809 62.0028 34.2991C61.9392 34.3172 61.8808 34.3503 61.8327 34.3957C61.8265 34.4023 61.8187 34.4071 61.81 34.4097C61.8013 34.4122 61.7921 34.4125 61.7833 34.4103Z" fill="#263238"/>
<path d="M63.0391 34.3647C63.0372 34.3563 63.0372 34.3475 63.0391 34.3391C63.0426 34.3251 63.0515 34.313 63.0638 34.3055C63.0761 34.2979 63.0909 34.2956 63.1049 34.2989C63.1866 34.3169 63.2627 34.3546 63.3264 34.4088C63.3901 34.4629 63.4396 34.5319 63.4705 34.6096C63.4725 34.6224 63.47 34.6355 63.4633 34.6466C63.4566 34.6576 63.4462 34.666 63.434 34.6701C63.4217 34.6743 63.4084 34.674 63.3964 34.6693C63.3843 34.6646 63.3743 34.6557 63.3682 34.6444C63.3424 34.5832 63.3022 34.5293 63.2509 34.4873C63.1996 34.4452 63.1388 34.4163 63.0739 34.4031C63.0654 34.4 63.0577 34.3949 63.0517 34.3882C63.0456 34.3815 63.0413 34.3735 63.0391 34.3647Z" fill="#263238"/>
<path d="M65.9693 48.5638L73.3083 47.6042C73.3265 47.6019 73.344 47.5961 73.3598 47.5871C73.3757 47.578 73.3897 47.566 73.4009 47.5515C73.4121 47.5371 73.4203 47.5206 73.4252 47.503C73.43 47.4853 73.4313 47.4669 73.429 47.4488C73.4239 47.4124 73.4049 47.3794 73.3759 47.3568C73.3468 47.3343 73.3101 47.324 73.2736 47.3282L65.9327 48.2878C65.8963 48.2933 65.8634 48.3128 65.8412 48.3422C65.819 48.3716 65.8092 48.4085 65.8139 48.445C65.8161 48.4631 65.822 48.4805 65.831 48.4963C65.8401 48.5121 65.8522 48.526 65.8667 48.537C65.8811 48.5481 65.8977 48.5561 65.9153 48.5608C65.9329 48.5654 65.9512 48.5664 65.9693 48.5638Z" fill="#5F5A5A"/>
<path opacity="0.5" d="M65.9693 48.5638L73.3083 47.6042C73.3265 47.6019 73.344 47.5961 73.3598 47.5871C73.3757 47.578 73.3897 47.566 73.4009 47.5515C73.4121 47.5371 73.4203 47.5206 73.4252 47.503C73.43 47.4853 73.4313 47.4669 73.429 47.4488C73.4239 47.4124 73.4049 47.3794 73.3759 47.3568C73.3468 47.3343 73.3101 47.324 73.2736 47.3282L65.9327 48.2878C65.8963 48.2933 65.8634 48.3128 65.8412 48.3422C65.819 48.3716 65.8092 48.4085 65.8139 48.445C65.8161 48.4631 65.822 48.4805 65.831 48.4963C65.8401 48.5121 65.8522 48.526 65.8667 48.537C65.8811 48.5481 65.8977 48.5561 65.9153 48.5608C65.9329 48.5654 65.9512 48.5664 65.9693 48.5638Z" fill="black"/>
<path d="M62.3519 48.5218L65.9126 48.5657C65.9309 48.5662 65.9492 48.563 65.9662 48.5563C65.9833 48.5496 65.9988 48.5396 66.0119 48.5268C66.0251 48.5141 66.0355 48.4988 66.0426 48.4819C66.0497 48.465 66.0534 48.4469 66.0534 48.4286C66.0536 48.4103 66.0503 48.3922 66.0435 48.3753C66.0367 48.3583 66.0267 48.3429 66.014 48.3298C66.0013 48.3167 65.9861 48.3063 65.9693 48.2991C65.9525 48.2919 65.9345 48.2881 65.9163 48.2878L62.3555 48.244C62.3188 48.2439 62.2836 48.2583 62.2573 48.2839C62.231 48.3095 62.2157 48.3444 62.2148 48.3811C62.2143 48.3994 62.2175 48.4176 62.2241 48.4346C62.2308 48.4517 62.2408 48.4672 62.2536 48.4804C62.2664 48.4935 62.2817 48.5039 62.2985 48.511C62.3154 48.5181 62.3335 48.5218 62.3519 48.5218Z" fill="#5F5A5A"/>
<path opacity="0.5" d="M62.3519 48.5218L65.9126 48.5657C65.9309 48.5662 65.9492 48.563 65.9662 48.5563C65.9833 48.5496 65.9988 48.5396 66.0119 48.5268C66.0251 48.5141 66.0355 48.4988 66.0426 48.4819C66.0497 48.465 66.0534 48.4469 66.0534 48.4286C66.0536 48.4103 66.0503 48.3922 66.0435 48.3753C66.0367 48.3583 66.0267 48.3429 66.014 48.3298C66.0013 48.3167 65.9861 48.3063 65.9693 48.2991C65.9525 48.2919 65.9345 48.2881 65.9163 48.2878L62.3555 48.244C62.3188 48.2439 62.2836 48.2583 62.2573 48.2839C62.231 48.3095 62.2157 48.3444 62.2148 48.3811C62.2143 48.3994 62.2175 48.4176 62.2241 48.4346C62.2308 48.4517 62.2408 48.4672 62.2536 48.4804C62.2664 48.4935 62.2817 48.5039 62.2985 48.511C62.3154 48.5181 62.3335 48.5218 62.3519 48.5218Z" fill="white"/>
<path d="M66.1355 48.403L62.2147 48.3719C62.2147 48.3719 62.0831 48.2951 62.3463 48.2439C62.6095 48.1928 66.0131 47.7431 66.0131 47.7431L66.1355 48.403Z" fill="#5F5A5A"/>
<path d="M66.1356 48.403L62.3079 48.3609C62.3079 48.3609 62.1763 48.2823 62.4395 48.233C62.7028 48.1836 66.0131 47.7431 66.0131 47.7431L66.1356 48.403Z" fill="#5F5A5A"/>
<path opacity="0.2" d="M66.1356 48.403L62.3079 48.3609C62.3079 48.3609 62.1763 48.2823 62.4395 48.233C62.7028 48.1836 66.0131 47.7431 66.0131 47.7431L66.1356 48.403Z" fill="white"/>
<path d="M66.1336 48.2568L72.9773 47.3611C73.0963 47.3429 73.2046 47.2821 73.2819 47.1899C73.3593 47.0977 73.4005 46.9806 73.3978 46.8603L73.2479 43.3543C73.2461 43.2978 73.2325 43.2422 73.2078 43.1913C73.1831 43.1404 73.148 43.0953 73.1047 43.0589C73.0614 43.0225 73.0109 42.9957 72.9565 42.9801C72.9021 42.9645 72.8451 42.9606 72.7891 42.9686L65.9454 43.8698C65.8261 43.888 65.7176 43.9491 65.6402 44.0417C65.5628 44.1342 65.5218 44.2519 65.525 44.3725L65.6748 47.8766C65.6771 47.9327 65.6911 47.9878 65.716 48.0382C65.7409 48.0886 65.7761 48.1332 65.8194 48.169C65.8627 48.2049 65.913 48.2313 65.9672 48.2464C66.0213 48.2615 66.078 48.265 66.1336 48.2568Z" fill="#5F5A5A"/>
<path opacity="0.4" d="M66.1336 48.2568L72.9773 47.3611C73.0963 47.3429 73.2046 47.2821 73.2819 47.1899C73.3593 47.0977 73.4005 46.9806 73.3978 46.8603L73.2479 43.3543C73.2461 43.2978 73.2325 43.2422 73.2078 43.1913C73.1831 43.1404 73.148 43.0953 73.1047 43.0589C73.0614 43.0225 73.0109 42.9957 72.9565 42.9801C72.9021 42.9645 72.8451 42.9606 72.7891 42.9686L65.9454 43.8698C65.8261 43.888 65.7176 43.9491 65.6402 44.0417C65.5628 44.1342 65.5218 44.2519 65.525 44.3725L65.6748 47.8766C65.6771 47.9327 65.6911 47.9878 65.716 48.0382C65.7409 48.0886 65.7761 48.1332 65.8194 48.169C65.8627 48.2049 65.913 48.2313 65.9672 48.2464C66.0213 48.2615 66.078 48.265 66.1336 48.2568Z" fill="black"/>
<path d="M66.333 48.2202L73.1767 47.3264C73.2958 47.3078 73.4041 47.2466 73.4814 47.1541C73.5587 47.0616 73.5999 46.9442 73.5971 46.8237L73.4472 43.3214C73.4457 43.2647 73.4322 43.209 73.4077 43.1579C73.3831 43.1067 73.348 43.0614 73.3047 43.0248C73.2614 42.9882 73.2108 42.9612 73.1563 42.9455C73.1017 42.9298 73.0445 42.9259 72.9884 42.9339L66.1447 43.8296C66.0256 43.8474 65.9171 43.9081 65.8396 44.0004C65.7622 44.0926 65.7212 44.21 65.7243 44.3304L65.8742 47.8364C65.8759 47.8928 65.8895 47.9483 65.9142 47.9991C65.9389 48.05 65.9741 48.095 66.0174 48.1313C66.0608 48.1675 66.1113 48.1942 66.1657 48.2095C66.2201 48.2248 66.2771 48.2285 66.333 48.2202Z" fill="#5F5A5A"/>
<path opacity="0.2" d="M66.333 48.2202L73.1767 47.3264C73.2958 47.3078 73.4041 47.2466 73.4814 47.1541C73.5587 47.0616 73.5999 46.9442 73.5971 46.8237L73.4472 43.3214C73.4457 43.2647 73.4322 43.209 73.4077 43.1579C73.3831 43.1067 73.348 43.0614 73.3047 43.0248C73.2614 42.9882 73.2108 42.9612 73.1563 42.9455C73.1017 42.9298 73.0445 42.9259 72.9884 42.9339L66.1447 43.8296C66.0256 43.8474 65.9171 43.9081 65.8396 44.0004C65.7622 44.0926 65.7212 44.21 65.7243 44.3304L65.8742 47.8364C65.8759 47.8928 65.8895 47.9483 65.9142 47.9991C65.9389 48.05 65.9741 48.095 66.0174 48.1313C66.0608 48.1675 66.1113 48.1942 66.1657 48.2095C66.2201 48.2248 66.2771 48.2285 66.333 48.2202Z" fill="white"/>
<path d="M63.4394 40.1336C62.6918 39.9764 61.9094 40.6984 61.6919 41.7421C61.4744 42.7858 61.9039 43.762 62.6515 43.9173C63.3992 44.0727 64.1833 43.3525 64.4008 42.3069C64.6184 41.2614 64.1888 40.2889 63.4394 40.1336ZM62.7941 43.74C62.317 43.6413 62.0885 42.8023 62.2823 41.8664C62.4761 40.9305 63.0135 40.2524 63.4997 40.3511C63.9859 40.4498 64.2071 41.2906 64.0133 42.2265C63.8196 43.1624 63.273 43.8387 62.7941 43.74Z" fill="#263238"/>
<path opacity="0.5" d="M64.0116 42.2246C63.8179 43.1605 63.2805 43.8387 62.7961 43.7381C62.3117 43.6376 62.0887 42.8004 62.2824 41.8645C62.4762 40.9287 63.0136 40.2505 63.4998 40.3492C63.986 40.4479 64.2072 41.2906 64.0116 42.2246Z" fill="white"/>
<path d="M62.403 43.8296L61.6006 46.3594C61.6006 46.3594 61.6426 46.672 62.01 46.5166C62.3774 46.3612 62.6461 43.9173 62.6461 43.9173L62.403 43.8296Z" fill="#263238"/>
<path d="M61.6005 44.5205L62.1653 44.3377V45.7397C62.1653 45.7397 60.9388 46.0706 60.8438 45.5039L60.9918 45.1932C61.1125 44.9208 61.2934 44.6009 61.6005 44.5205Z" fill="#FF8B7B"/>
<path d="M63.0317 44.6978L62.8891 45.4893L62.1598 45.7379L62.1671 44.3359L63.0317 44.6978Z" fill="#FF8B7B"/>
<path d="M68.6855 37.4392L68.68 37.441L68.6727 37.4392L68.68 37.4374L68.6855 37.4392Z" fill="#F0F0F0"/>
<path d="M26.5922 21.4871C26.6489 21.4761 26.711 21.5364 26.7293 21.6223C26.7476 21.7082 26.7183 21.7923 26.6598 21.8051C26.6013 21.8179 26.541 21.7558 26.5227 21.668C26.5045 21.5803 26.5337 21.498 26.5922 21.4871Z" fill="#263238"/>
<path d="M26.7714 22.6441C26.8467 22.6472 26.9217 22.6337 26.9911 22.6047C27.0606 22.5756 27.1229 22.5317 27.1736 22.476C26.9513 22.2846 26.7569 22.0631 26.5959 21.8179L26.7714 22.6441Z" fill="#B74D3C"/>
<path d="M26.139 21.2403C26.181 21.1891 26.2345 21.1487 26.2952 21.1223C26.356 21.0959 26.4221 21.0843 26.4881 21.0886H26.5064C26.5205 21.0886 26.534 21.083 26.5439 21.0731C26.5538 21.0631 26.5594 21.0497 26.5594 21.0356C26.5594 21.0215 26.5538 21.0081 26.5439 20.9981C26.534 20.9882 26.5205 20.9826 26.5064 20.9826C26.4234 20.9752 26.3398 20.9879 26.2628 21.0197C26.1858 21.0516 26.1176 21.1015 26.0641 21.1654C26.0562 21.1753 26.0517 21.1874 26.0513 21.2001C26.0517 21.2142 26.0574 21.2276 26.0672 21.2378C26.077 21.2479 26.0902 21.254 26.1043 21.2549C26.117 21.2536 26.1291 21.2485 26.139 21.2403Z" fill="#263238"/>
<path d="M25.5558 26.5742C24.0497 26.5906 23.8193 25.7717 23.8193 25.7717C24.2672 25.333 24.2891 24.5287 24.1941 23.8122C24.314 23.9826 24.4661 24.128 24.6419 24.2399C24.8006 24.348 24.9803 24.4214 25.1692 24.4554C25.3582 24.4894 25.5522 24.4833 25.7386 24.4373C25.7446 24.4392 25.751 24.4392 25.7569 24.4373C25.756 24.4519 25.756 24.4666 25.7569 24.4812C25.6674 25.0552 25.7478 25.6693 26.3492 25.8503C26.3473 25.8448 27.2156 26.5559 25.5558 26.5742Z" fill="#B25B52"/>
<path d="M25.8045 24.2198C25.788 24.2893 25.7734 24.3587 25.7624 24.4319C25.7565 24.4337 25.7501 24.4337 25.7441 24.4319C25.5577 24.4778 25.3637 24.484 25.1747 24.45C24.9858 24.4159 24.8061 24.3425 24.6474 24.2344C24.4716 24.1225 24.3195 23.9772 24.1996 23.8067C24.1758 23.6239 24.1429 23.4411 24.11 23.2839L25.7551 24.1814L25.8045 24.2198Z" fill="#B25B52"/>
<path d="M23.3605 25.9088C23.3605 25.9088 23.5981 25.1776 23.9582 24.9418C24.3183 24.706 25.894 24.951 26.1407 25.0479C26.3875 25.1447 26.6379 25.7132 26.6379 25.7132L23.3605 25.9088Z" fill="#5F5A5A"/>
<path d="M22.5324 28.2339C22.7451 28.2654 22.9618 28.2141 23.1379 28.0908C23.314 27.9674 23.4362 27.7812 23.4792 27.5705C23.5223 27.3599 23.483 27.1407 23.3695 26.9581C23.2559 26.7755 23.0768 26.6434 22.8688 26.5888C22.1924 26.4426 21.496 26.2707 20.8179 26.0971C20.1397 25.9234 19.9039 25.9143 19.266 25.6913C19.1033 25.6383 18.9461 25.5761 18.7907 25.5085L18.7048 25.4756C18.6908 25.4717 18.6773 25.4662 18.6646 25.4591C18.6231 25.4362 18.5839 25.4093 18.5476 25.3787C18.3337 25.1831 16.9025 23.3205 16.6301 22.688L16.621 22.6679C16.5817 22.5742 16.5096 22.498 16.4182 22.4535C16.3268 22.4091 16.2224 22.3993 16.1244 22.4262C16.0264 22.453 15.9415 22.5146 15.8855 22.5995C15.8296 22.6843 15.8064 22.7866 15.8204 22.8873C15.9063 23.655 17.3138 26.247 17.6007 26.5778C17.6929 26.677 17.7938 26.7675 17.9023 26.8484C18.0087 26.9275 18.1226 26.9961 18.2423 27.0531C18.4251 27.139 19.6425 27.5046 20.3664 27.7148C21.0902 27.925 21.794 28.0968 22.5397 28.2376L22.5324 28.2339Z" fill="#B25B52"/>
<path d="M16.5224 22.4632V22.6094C16.5277 22.6794 16.5112 22.7493 16.4752 22.8095C16.4392 22.8697 16.3855 22.9173 16.3214 22.9458C16.0638 23.0477 15.7846 23.0829 15.5098 23.0481L15.7346 21.7869L16.3543 22.189C16.4021 22.218 16.4423 22.258 16.4716 22.3057C16.5009 22.3534 16.5183 22.4074 16.5224 22.4632Z" fill="#B25B52"/>
<path d="M15.74 21.7832L15.5151 23.0444L14.6761 22.5491L14.6578 21.4103L15.74 21.7832Z" fill="#B25B52"/>
<path d="M22.7939 25.6748C22.4703 25.7223 21.1908 25.9965 20.1288 25.6967L20.0593 27.8665C20.0593 27.8665 21.9037 28.7804 22.739 28.1205C23.5744 27.4607 24.099 26.2707 22.7939 25.6748Z" fill="#263238"/>
<path d="M20.4176 28.435L19.5841 28.0602L19.8236 25.4664L20.6004 25.6072L20.4176 28.435Z" fill="#5F5A5A"/>
<path d="M27.1297 25.5907C26.8866 25.5505 26.6124 25.5139 26.3345 25.4902C25.4945 25.4518 24.6529 25.4609 23.8138 25.5176L23.2655 25.5706C22.3881 25.6346 21.5052 26.3968 21.6807 27.2596C22.6549 32.0122 22.3771 34.659 22.2875 35.4322L28.2154 35.3682C28.8296 30.4877 28.6596 28.0273 28.4202 26.8319C28.3572 26.5181 28.1998 26.2311 27.9692 26.0093C27.7385 25.7875 27.4456 25.6414 27.1297 25.5907Z" fill="#263238"/>
<path opacity="0.2" d="M28.4056 33.6518L28.2228 35.3737C28.6011 32.3174 28.6779 30.2117 28.6231 28.7694L26.3711 27.2651C27.3819 30.4548 27.7128 31.462 28.4056 33.6518Z" fill="black"/>
<path d="M26.8829 22.9896C26.8791 23.2473 26.8101 23.4998 26.6822 23.7236C26.5544 23.9473 26.3718 24.135 26.1518 24.2691H26.139C26.0264 24.341 25.9029 24.3941 25.7734 24.4263C25.7674 24.4282 25.761 24.4282 25.7551 24.4263C25.5687 24.4723 25.3747 24.4784 25.1857 24.4444C24.9967 24.4104 24.817 24.337 24.6583 24.2289C24.4826 24.1169 24.3304 23.9716 24.2105 23.8012C23.9144 23.3972 23.7919 22.8562 23.5799 22.0957C23.5158 21.8724 23.5033 21.6374 23.5433 21.4084C23.6145 21.0161 23.8385 20.668 24.1662 20.4408C24.4939 20.2136 24.8984 20.1257 25.2908 20.1965C26.4186 20.4104 26.9067 21.9733 26.8829 22.9896Z" fill="#B25B52"/>
<path opacity="0.2" d="M26.1389 24.2746C26.0263 24.3465 25.9029 24.3996 25.7733 24.4318L25.8154 23.761C25.8154 23.761 26.0548 24.2765 26.1389 24.2746Z" fill="black"/>
<path d="M26.2248 22.4102C26.2036 22.6452 26.1327 22.873 26.0167 23.0784C25.9008 23.2839 25.7424 23.4624 25.5522 23.602C25.5043 23.6385 25.4496 23.6653 25.3913 23.6806C25.2085 23.7244 25.0257 23.5599 24.9325 23.3826C24.8317 23.1477 24.7819 22.8942 24.7863 22.6387C24.7643 22.0373 24.8393 21.3792 25.2615 20.9515C25.3548 20.8434 25.4853 20.7743 25.6271 20.7577C26.1645 20.7376 26.2632 22.0665 26.2248 22.4102Z" fill="#263238"/>
<path d="M23.8632 19.7122C23.7485 19.6741 23.6248 19.6721 23.5089 19.7063C23.3929 19.7406 23.2902 19.8095 23.2146 19.9038C23.139 19.9982 23.0941 20.1134 23.0858 20.234C23.0776 20.3546 23.1065 20.4749 23.1686 20.5786C22.6916 20.7267 22.2419 21.0849 22.1468 21.5748C22.0518 22.0647 22.4576 22.6368 22.9548 22.5802C22.8799 22.6401 22.8281 22.7241 22.8085 22.818C22.7888 22.9119 22.8024 23.0097 22.8469 23.0946C22.8914 23.1795 22.9641 23.2463 23.0525 23.2835C23.1409 23.3208 23.2395 23.3261 23.3313 23.2985C23.7188 23.942 24.9253 24.0827 25.5084 23.6075C25.6455 23.4959 25.5467 23.379 25.576 23.2053C25.5934 23.1181 25.582 23.0276 25.5434 22.9474C25.5048 22.8673 25.4412 22.8019 25.3621 22.7611L25.4883 22.3243L25.1227 21.9148C25.4553 21.6571 25.8045 21.3792 25.9489 20.9844C26.0933 20.5896 25.9269 20.0503 25.5175 19.9535C25.583 19.9372 25.644 19.9065 25.696 19.8635C25.7481 19.8206 25.7898 19.7666 25.8182 19.7054C25.8466 19.6442 25.861 19.5774 25.8602 19.5099C25.8594 19.4425 25.8435 19.376 25.8136 19.3155C25.7759 19.2604 25.7267 19.2141 25.6693 19.1799C25.6119 19.1457 25.5478 19.1244 25.4814 19.1175C25.415 19.1105 25.3478 19.1181 25.2846 19.1397C25.2214 19.1612 25.1637 19.1963 25.1154 19.2424C25.0002 19.0834 24.907 18.9097 24.7114 18.8567C23.9455 18.6447 23.7353 19.4672 23.8632 19.7122Z" fill="#263238"/>
<path d="M25.9562 21.6132C26.2742 21.7064 26.4387 22.1726 26.4515 22.4705C26.468 22.7977 26.2486 23.0043 25.9635 22.7849C25.7478 22.6164 25.5941 22.3811 25.5266 22.1159C25.4425 21.796 25.6344 21.5218 25.9562 21.6132Z" fill="#B25B52"/>
<path d="M25.3932 63.5491C25.3874 63.5484 25.382 63.5459 25.3777 63.542C25.3734 63.538 25.3705 63.5328 25.3694 63.5271C25.3685 63.5216 25.3692 63.5158 25.3715 63.5106C25.3737 63.5054 25.3775 63.501 25.3822 63.4979C25.4041 63.4888 25.8099 63.2456 26.0074 63.295C26.0262 63.2987 26.0441 63.3062 26.0599 63.3173C26.0756 63.3283 26.0889 63.3425 26.0988 63.359C26.1115 63.3765 26.1184 63.3976 26.1184 63.4193C26.1184 63.441 26.1115 63.4621 26.0988 63.4796C26.0512 63.5491 25.916 63.5728 25.7551 63.5765C25.6339 63.5781 25.5128 63.569 25.3932 63.5491ZM25.9416 63.3407C25.7789 63.3635 25.6224 63.4182 25.4809 63.5016C25.7021 63.5271 26 63.5198 26.0531 63.4431C26.064 63.4321 26.0713 63.4156 26.0531 63.3809C26.0469 63.3708 26.0387 63.3622 26.0289 63.3555C26.0191 63.3489 26.008 63.3445 25.9964 63.3425C25.9788 63.3398 25.9609 63.3398 25.9434 63.3425L25.9416 63.3407Z" fill="#5F5A5A"/>
<path d="M25.3823 63.5436C25.378 63.5407 25.3745 63.537 25.372 63.5325C25.3694 63.5281 25.368 63.5231 25.3677 63.518C25.3729 63.3509 25.4333 63.1902 25.5395 63.061C25.5609 63.0424 25.5859 63.0285 25.613 63.02C25.64 63.0115 25.6685 63.0087 25.6967 63.0117C25.7735 63.0117 25.8009 63.0555 25.8027 63.0866C25.8283 63.2237 25.5541 63.4796 25.4115 63.5454H25.4079C25.4037 63.5468 25.3993 63.5474 25.3949 63.5471C25.3905 63.5468 25.3862 63.5456 25.3823 63.5436ZM25.6784 63.0647C25.642 63.0661 25.6075 63.0811 25.5815 63.1067C25.4961 63.2106 25.4444 63.3382 25.4335 63.4723C25.5779 63.3809 25.7625 63.178 25.7479 63.0976C25.7479 63.0976 25.7479 63.0665 25.6912 63.0665H25.6766L25.6784 63.0647Z" fill="#5F5A5A"/>
<path d="M24.152 60.831L25.3237 60.809L25.2817 63.5198L24.1027 63.5436L24.152 60.831Z" fill="#B25B52"/>
<path d="M25.5577 63.4704C26.3693 63.9457 26.6179 63.964 27.5483 64.1486C27.7512 64.1888 27.6342 64.6823 27.148 64.697C26.3455 64.7116 26.2596 64.675 25.576 64.697C24.9892 64.7079 24.3166 64.7481 23.8505 64.7646H23.8084C23.7864 64.76 23.7655 64.7512 23.7469 64.7385C23.7283 64.7258 23.7125 64.7095 23.7002 64.6906C23.688 64.6718 23.6796 64.6506 23.6756 64.6285C23.6716 64.6064 23.672 64.5837 23.6768 64.5617L23.8834 63.5088C23.8882 63.486 23.9006 63.4656 23.9185 63.4507C23.9364 63.4358 23.9588 63.4273 23.9821 63.4266L25.2707 63.401C25.3709 63.3975 25.4702 63.4215 25.5577 63.4704Z" fill="#263238"/>
<path opacity="0.2" d="M24.1501 60.8328L24.1263 62.2257L25.3035 62.2037L25.3236 60.8109L24.1501 60.8328Z" fill="black"/>
<path d="M15.5517 63.7264C15.5497 63.7315 15.5462 63.736 15.5416 63.7391C15.5371 63.7423 15.5317 63.7439 15.5261 63.7439C15.5206 63.7439 15.5152 63.7423 15.5106 63.7391C15.506 63.736 15.5025 63.7315 15.5005 63.7264C15.4896 63.7063 15.2556 63.2986 15.3177 63.103C15.3266 63.066 15.3495 63.0339 15.3817 63.0135C15.3999 63.0007 15.4216 62.9938 15.4439 62.9938C15.4661 62.9938 15.4878 63.0007 15.506 63.0135C15.5736 63.061 15.5937 63.1963 15.5937 63.3571C15.5911 63.4812 15.577 63.6048 15.5517 63.7264ZM15.3561 63.178C15.3744 63.339 15.424 63.4949 15.5024 63.6368C15.5334 63.4175 15.5316 63.1213 15.4548 63.0665C15.4548 63.0555 15.4292 63.0482 15.3945 63.0665C15.384 63.0723 15.3749 63.0805 15.368 63.0903C15.361 63.1001 15.3563 63.1113 15.3543 63.1232C15.3517 63.1407 15.3517 63.1586 15.3543 63.1762L15.3561 63.178Z" fill="#5F5A5A"/>
<path d="M15.5499 63.7373C15.5472 63.7414 15.5433 63.7446 15.5388 63.7466C15.5342 63.7485 15.5292 63.7491 15.5243 63.7483C15.3569 63.7403 15.1971 63.6759 15.071 63.5655C15.0522 63.5447 15.0382 63.5199 15.03 63.4931C15.0218 63.4662 15.0196 63.4379 15.0235 63.4101C15.0235 63.3334 15.0692 63.3059 15.1003 63.3059C15.2355 63.2822 15.4896 63.56 15.5536 63.7008V63.7117C15.5553 63.7159 15.5559 63.7205 15.5552 63.725C15.5546 63.7295 15.5528 63.7338 15.5499 63.7373ZM15.0728 63.4375C15.0749 63.4735 15.0891 63.5076 15.1131 63.5344C15.2164 63.6211 15.3442 63.6734 15.4786 63.6843C15.3909 63.5399 15.1917 63.3516 15.1131 63.3663C15.1131 63.3663 15.082 63.3663 15.082 63.4211V63.4375H15.0728Z" fill="#5F5A5A"/>
<path d="M16.1604 60.9808L17.3047 61.0393L16.6869 63.7849L15.5334 63.7264L16.1604 60.9808Z" fill="#B25B52"/>
<path d="M15.2556 63.5801C14.9467 63.9457 14.784 64.1449 13.8828 64.4466C13.6836 64.5124 13.8627 64.9858 14.3471 64.9328C15.1459 64.8469 14.7127 64.8578 15.3853 64.7829C15.9685 64.7207 16.6411 64.675 17.1054 64.633C17.1211 64.6356 17.1372 64.6356 17.1529 64.633C17.1961 64.6184 17.2316 64.5873 17.2519 64.5465C17.2721 64.5058 17.2753 64.4586 17.2608 64.4155L16.9263 63.3992C16.9192 63.3768 16.9046 63.3577 16.8849 63.345C16.8652 63.3323 16.8417 63.3269 16.8184 63.3297L15.5389 63.4668C15.4332 63.4659 15.3315 63.5066 15.2556 63.5801Z" fill="#263238"/>
<path opacity="0.2" d="M16.1585 60.9827L15.8386 62.392L16.9865 62.4523L17.3046 61.0393L16.1585 60.9827Z" fill="black"/>
<path d="M22.2821 35.4377C21.8625 36.1365 21.514 36.8756 21.242 37.6439C20.6497 39.3567 20.891 40.2414 20.7046 41.3948C20.3774 43.4293 19.8564 44.994 19.5 46.5385C18.3886 51.3734 15.5956 61.5859 15.5956 61.5859L17.6721 61.9972C17.6721 61.9972 21.7081 50.1158 22.7244 46.6537C23.6384 43.5371 25.9872 35.3536 25.9872 35.3536L22.2821 35.4377Z" fill="#5F5A5A"/>
<path d="M22.2821 35.4377C21.8625 36.1365 21.514 36.8756 21.242 37.6439C20.6497 39.3567 20.891 40.2414 20.7046 41.3948C20.3774 43.4293 19.8564 44.994 19.5 46.5385C18.3886 51.3734 15.5956 61.5859 15.5956 61.5859L17.6721 61.9972C17.6721 61.9972 21.7081 50.1158 22.7244 46.6537C23.6384 43.5371 25.9872 35.3536 25.9872 35.3536L22.2821 35.4377Z" fill="#5F5A5A"/>
<path d="M15.3542 61.2075V61.9387L17.8512 62.1562C17.8512 62.1562 18.0541 61.3483 18.0449 61.3483L15.3542 61.2075Z" fill="#5F5A5A"/>
<path opacity="0.3" d="M24.9015 39.1172C24.1704 41.6873 23.2253 44.9391 22.7245 46.6446C22.7007 46.7268 22.6751 46.8127 22.6495 46.9041C22.8013 44.0672 23.2582 39.311 24.6767 39.1063C24.7515 39.0934 24.8283 39.0972 24.9015 39.1172Z" fill="black"/>
<path d="M24.1886 35.3883C24.1886 35.3883 23.7462 43.2008 23.7535 46.8914C23.7626 50.3297 23.8102 61.9625 23.8102 61.9625L25.8044 61.9241C25.8044 61.9241 26.956 50.0573 27.2357 46.5587C27.5025 43.2465 28.2099 35.3737 28.2099 35.3737L24.1886 35.3883Z" fill="#5F5A5A"/>
<path d="M24.1886 35.3883C24.1886 35.3883 23.7462 43.2008 23.7535 46.8914C23.7626 50.3297 23.8102 61.9625 23.8102 61.9625L25.8044 61.9241C25.8044 61.9241 26.956 50.0573 27.2357 46.5587C27.5025 43.2465 28.2099 35.3737 28.2099 35.3737L24.1886 35.3883Z" fill="#5F5A5A"/>
<path d="M23.5012 61.2697L23.5835 62.0008L26.0073 61.9533C26.0073 61.9533 26.1042 61.1326 26.095 61.1326L23.5012 61.2697Z" fill="#5F5A5A"/>
<path d="M31.4801 23.7153L32.0851 23.2967C32.2241 23.9547 32.8492 24.4684 33.3245 24.7736C33.5511 24.9199 33.6352 25.2526 33.4744 25.3641L33.0813 25.6382C32.6043 25.9673 31.4801 23.7153 31.4801 23.7153Z" fill="#5F5A5A"/>
<path d="M31.2407 23.8816L32.6262 22.9201C32.8428 22.7698 32.991 22.5397 33.0383 22.2804C33.0856 22.021 33.0281 21.7535 32.8785 21.5364C32.7275 21.3201 32.4972 21.1722 32.2377 21.1249C31.9781 21.0777 31.7105 21.1349 31.4929 21.2841L30.1074 22.2456C29.8911 22.3962 29.7433 22.6264 29.6963 22.8858C29.6494 23.1451 29.7072 23.4125 29.857 23.6293C30.0073 23.8459 30.2373 23.9941 30.4967 24.0414C30.7561 24.0887 31.0236 24.0312 31.2407 23.8816Z" fill="#5F5A5A"/>
<path opacity="0.3" d="M31.2407 23.8816L32.6262 22.9201C32.8428 22.7698 32.991 22.5397 33.0383 22.2804C33.0856 22.021 33.0281 21.7535 32.8785 21.5364C32.7275 21.3201 32.4972 21.1722 32.2377 21.1249C31.9781 21.0777 31.7105 21.1349 31.4929 21.2841L30.1074 22.2456C29.8911 22.3962 29.7433 22.6264 29.6963 22.8858C29.6494 23.1451 29.7072 23.4125 29.857 23.6293C30.0073 23.8459 30.2373 23.9941 30.4967 24.0414C30.7561 24.0887 31.0236 24.0312 31.2407 23.8816Z" fill="black"/>
<path d="M35.5033 22.3846L32.9041 23.4813C32.6993 23.6239 30.8605 20.9716 31.0762 20.8291L33.0137 18.78L35.5033 22.3846Z" fill="#5F5A5A"/>
<path d="M34.0649 20.7139C34.7558 21.7083 35.3992 22.4577 35.5034 22.3846C35.6076 22.3115 35.1379 21.4469 34.4432 20.4507C33.7486 19.4545 33.1089 18.7068 33.0047 18.78C32.9005 18.8531 33.3758 19.7177 34.0649 20.7139Z" fill="#5F5A5A"/>
<path opacity="0.3" d="M34.0649 20.7139C34.7558 21.7083 35.3992 22.4577 35.5034 22.3846C35.6076 22.3115 35.1379 21.4469 34.4432 20.4507C33.7486 19.4545 33.1089 18.7068 33.0047 18.78C32.9005 18.8531 33.3758 19.7177 34.0649 20.7139Z" fill="black"/>
<path d="M34.6917 20.3903C34.5235 20.1472 34.1689 20.0613 34.0538 20.1417C33.9386 20.2222 33.9807 20.4854 34.1488 20.7285C34.317 20.9716 34.5491 21.0941 34.6643 21.0228C34.741 20.9366 34.7856 20.8267 34.7906 20.7114C34.7956 20.5962 34.7607 20.4828 34.6917 20.3903Z" fill="#5F5A5A"/>
<path d="M31.2864 24.9217L31.4692 24.4062C31.5837 24.0885 31.7946 23.8143 32.0724 23.6221L32.4599 23.3534C32.4964 23.3285 32.5411 23.319 32.5846 23.3269C32.628 23.3347 32.6666 23.3593 32.692 23.3954C32.9548 23.7492 33.1302 24.1601 33.2039 24.5945C33.2088 24.6485 33.1996 24.7028 33.1771 24.7522C33.1547 24.8016 33.1198 24.8442 33.0759 24.876L32.2424 25.4354C32.1108 25.5377 31.9554 25.5889 31.8366 25.4719L31.2864 24.9217Z" fill="#B25B52"/>
<path d="M32.2204 25.0716L31.6227 27.5795C31.6044 27.6618 31.5825 27.7404 31.5623 27.819C31.0578 29.6908 30.0854 30.6851 29.6394 30.4548C29.1934 30.2245 28.2118 29.1278 28.2118 29.1278L29.3213 28.2522L29.6394 28.5191L31.3759 24.7682L31.6227 24.2454C31.6227 24.2454 32.4014 24.2399 32.2204 25.0716Z" fill="#B25B52"/>
<path d="M31.6227 27.5795L31.566 27.8208C31.5807 27.7404 31.6026 27.6618 31.6227 27.5795Z" fill="#B25B52"/>
<path d="M28.3325 26.1153C29.3488 26.947 29.9776 28.7164 29.9776 28.7164L28.3325 29.7601C28.3325 29.7601 26.1755 28.2302 26.3437 26.777C26.4643 25.6638 27.0767 25.0844 28.3325 26.1153Z" fill="#263238"/>
<path d="M27.3818 29.4056L27.9631 30.0234L30.2261 28.5684L29.8751 27.8519L27.3818 29.4056Z" fill="#5F5A5A"/>
<path d="M35.8799 19.6025L37.0589 16.7766L37.9966 17.2938L35.8799 19.6025Z" fill="#263238"/>
<path d="M36.0006 20.6188L39.0587 20.4451L38.8796 19.3886L36.0006 20.6188Z" fill="#263238"/>
<path d="M36.7646 19.6299L39.1025 16.9118L40.0275 17.9281L36.7646 19.6299Z" fill="#263238"/>
<path d="M13.488 18.9152V21.3902L15.8095 22.6186V19.9334L13.488 18.9152Z" fill="#5F5A5A"/>
<path opacity="0.1" d="M13.488 18.9152V21.3902L15.8095 22.6186V19.9334L13.488 18.9152Z" fill="black"/>
<path d="M18.1292 18.9152V21.3902L15.8096 22.6186V19.9334L18.1292 18.9152Z" fill="#5F5A5A"/>
<path opacity="0.2" d="M18.1292 18.9152V21.3902L15.8096 22.6186V19.9334L18.1292 18.9152Z" fill="black"/>
<path d="M13.488 18.9152L15.8095 19.9334L18.1291 18.9152L15.8095 17.749L13.488 18.9152Z" fill="#5F5A5A"/>
<path d="M16.8477 19.4764V21.0136L16.9683 20.8126L17.0414 20.9204L17.1182 20.7468L17.195 20.8546V19.3246L16.8477 19.4764Z" fill="#263238"/>
<path d="M16.8479 19.4764L14.4825 18.4162L14.8646 18.2224L17.1952 19.3246L16.8479 19.4764Z" fill="#263238"/>
<path d="M50.931 63.9457H46.6683C46.6683 63.655 47.2167 63.3973 47.9808 63.2968V61.4689H49.6168V63.2968C50.3881 63.401 50.931 63.6532 50.931 63.9457Z" fill="#5F5A5A"/>
<path opacity="0.4" d="M50.931 63.9457H46.6683C46.6683 63.655 47.2167 63.3973 47.9808 63.2968V61.4689H49.6168V63.2968C50.3881 63.401 50.931 63.6532 50.931 63.9457Z" fill="black"/>
<path d="M55.7531 54.5448H41.9012V61.9935H55.7531V54.5448Z" fill="#5F5A5A"/>
<path opacity="0.2" d="M55.7531 54.5448H41.9012V61.9935H55.7531V54.5448Z" fill="black"/>
<path opacity="0.2" d="M55.3765 54.8848H42.2229V61.1453H55.3765V54.8848Z" fill="black"/>
<path opacity="0.2" d="M49.6167 61.9935H47.9807V62.3883H49.6167V61.9935Z" fill="black"/>
<path d="M47.9807 56.9156V59.6227L50.3844 58.2682L47.9807 56.9156Z" fill="white"/>
<path d="M41.0512 53.4974C41.042 53.5891 40.9999 53.6744 40.9327 53.7376C40.8655 53.8008 40.7777 53.8375 40.6856 53.841H38.2545C38.2104 53.8421 38.1666 53.8337 38.1261 53.8164C38.0856 53.7991 38.0493 53.7732 38.0196 53.7406C37.99 53.708 37.9677 53.6694 37.9543 53.6275C37.9408 53.5855 37.9366 53.5411 37.9419 53.4974L37.973 53.1318H41.0914L41.0512 53.4974Z" fill="#5F5A5A"/>
<path d="M36.2108 53.9342L35.2786 64.5672C35.2643 64.6975 35.2779 64.8294 35.3185 64.954C35.3592 65.0787 35.4259 65.1932 35.5143 65.2901C35.6027 65.3869 35.7106 65.4638 35.8311 65.5157C35.9515 65.5675 36.0816 65.5931 36.2126 65.5908H40.638C40.9166 65.5856 41.1836 65.4786 41.3886 65.29C41.5937 65.1014 41.7227 64.8443 41.7512 64.5672L42.6816 53.9342C42.6959 53.8039 42.6823 53.672 42.6416 53.5474C42.601 53.4228 42.5343 53.3082 42.4459 53.2113C42.3575 53.1145 42.2495 53.0376 42.1291 52.9857C42.0087 52.9339 41.8786 52.9083 41.7475 52.9106H37.3222C37.0439 52.9163 36.7774 53.0235 36.5727 53.212C36.368 53.4005 36.2393 53.6574 36.2108 53.9342Z" fill="#5F5A5A"/>
<g opacity="0.4">
<path d="M41.051 53.4974C41.0418 53.5891 40.9998 53.6744 40.9326 53.7376C40.8654 53.8008 40.7776 53.8375 40.6855 53.841H38.2543C38.2103 53.8421 38.1665 53.8337 38.126 53.8164C38.0855 53.7991 38.0491 53.7732 38.0195 53.7406C37.9898 53.708 37.9675 53.6694 37.9541 53.6275C37.9407 53.5855 37.9365 53.5411 37.9418 53.4974L37.9728 53.1318H41.0913L41.051 53.4974Z" fill="black"/>
<path d="M36.2108 53.9342L35.2786 64.5672C35.2643 64.6975 35.2779 64.8294 35.3185 64.954C35.3592 65.0787 35.4259 65.1932 35.5143 65.2901C35.6027 65.3869 35.7106 65.4638 35.8311 65.5157C35.9515 65.5675 36.0816 65.5931 36.2126 65.5908H40.638C40.9166 65.5856 41.1836 65.4786 41.3886 65.29C41.5937 65.1014 41.7227 64.8443 41.7512 64.5672L42.6816 53.9342C42.6959 53.8039 42.6823 53.672 42.6416 53.5474C42.601 53.4228 42.5343 53.3082 42.4459 53.2113C42.3575 53.1145 42.2495 53.0376 42.1291 52.9857C42.0087 52.9339 41.8786 52.9083 41.7475 52.9106H37.3222C37.0439 52.9163 36.7774 53.0235 36.5727 53.212C36.368 53.4005 36.2393 53.6574 36.2108 53.9342Z" fill="#5F5A5A"/>
</g>
<path d="M37.0315 53.13H41.4569C41.5599 53.1294 41.6619 53.1506 41.7561 53.1921C41.8504 53.2337 41.9348 53.2947 42.0038 53.3712C42.0728 53.4476 42.1249 53.5378 42.1567 53.6358C42.1884 53.7338 42.1991 53.8374 42.1881 53.9398L41.2595 64.5727C41.2345 64.7911 41.1317 64.9931 40.9699 65.1418C40.8081 65.2906 40.5981 65.376 40.3784 65.3825H35.9585C35.8555 65.3831 35.7536 65.3619 35.6593 65.3203C35.5651 65.2788 35.4807 65.2178 35.4116 65.1413C35.3426 65.0649 35.2905 64.9747 35.2587 64.8767C35.227 64.7787 35.2163 64.6751 35.2274 64.5727L36.1578 53.9398C36.18 53.7216 36.2809 53.519 36.4418 53.3699C36.6026 53.2209 36.8123 53.1356 37.0315 53.13Z" fill="#5F5A5A"/>
<path opacity="0.3" d="M37.0315 53.13H41.4569C41.5599 53.1294 41.6619 53.1506 41.7561 53.1921C41.8504 53.2337 41.9348 53.2947 42.0038 53.3712C42.0728 53.4476 42.1249 53.5378 42.1567 53.6358C42.1884 53.7338 42.1991 53.8374 42.1881 53.9398L41.2595 64.5727C41.2345 64.7911 41.1317 64.9931 40.9699 65.1418C40.8081 65.2906 40.5981 65.376 40.3784 65.3825H35.9585C35.8555 65.3831 35.7536 65.3619 35.6593 65.3203C35.5651 65.2788 35.4807 65.2178 35.4116 65.1413C35.3426 65.0649 35.2905 64.9747 35.2587 64.8767C35.227 64.7787 35.2163 64.6751 35.2274 64.5727L36.1578 53.9398C36.18 53.7216 36.2809 53.519 36.4418 53.3699C36.6026 53.2209 36.8123 53.1356 37.0315 53.13Z" fill="white"/>
<path d="M35.9367 53.9397L35.0063 64.5727C34.9923 64.7029 35.0061 64.8347 35.0469 64.9592C35.0876 65.0837 35.1544 65.1982 35.2427 65.2949C35.331 65.3917 35.4388 65.4686 35.5591 65.5206C35.6794 65.5725 35.8093 65.5983 35.9403 65.5963H40.3657C40.6441 65.5907 40.9109 65.4835 41.1159 65.295C41.3209 65.1065 41.45 64.8497 41.4789 64.5727L42.4075 53.9397C42.4218 53.8094 42.4081 53.6775 42.3675 53.5529C42.3269 53.4282 42.2601 53.3137 42.1718 53.2168C42.0834 53.12 41.9754 53.0431 41.855 52.9912C41.7346 52.9394 41.6045 52.9138 41.4734 52.9161H37.0499C36.7713 52.9213 36.5043 53.0283 36.2992 53.2169C36.0942 53.4055 35.9652 53.6626 35.9367 53.9397ZM36.1505 53.9397C36.1729 53.7203 36.2749 53.5167 36.4373 53.3675C36.5996 53.2183 36.8111 53.1338 37.0316 53.13H41.457C41.56 53.1294 41.6619 53.1505 41.7562 53.1921C41.8504 53.2337 41.9348 53.2947 42.0039 53.3711C42.0729 53.4476 42.125 53.5377 42.1568 53.6357C42.1885 53.7337 42.1992 53.8373 42.1881 53.9397L41.2595 64.5727C41.2346 64.791 41.1318 64.9931 40.97 65.1418C40.8082 65.2905 40.5982 65.3759 40.3785 65.3824H35.9586C35.8556 65.383 35.7536 65.3619 35.6594 65.3203C35.5651 65.2787 35.4807 65.2177 35.4117 65.1413C35.3427 65.0648 35.2906 64.9747 35.2588 64.8767C35.2271 64.7787 35.2164 64.6751 35.2274 64.5727L36.1505 53.9397Z" fill="white"/>
<path d="M40.8098 53.1354C40.7926 53.2846 40.7217 53.4225 40.6104 53.5234C40.4991 53.6242 40.355 53.6813 40.2048 53.6838H38.2032C38.1327 53.6849 38.0628 53.6711 37.998 53.6434C37.9332 53.6156 37.8749 53.5746 37.827 53.5229C37.779 53.4711 37.7425 53.4099 37.7198 53.3432C37.6971 53.2764 37.6887 53.2057 37.6951 53.1354H40.8135H40.8098Z" fill="white"/>
<path d="M38.6328 59.694L37.7755 59.5258C37.9382 60.3082 37.5013 61.1709 37.1303 61.7193C36.9475 61.9862 37.0206 62.3902 37.2473 62.4358L37.8066 62.5455C38.4829 62.6826 38.6328 59.694 38.6328 59.694Z" fill="#5F5A5A"/>
<path d="M38.9729 59.7616L37.0061 59.3759C36.6987 59.3145 36.428 59.1339 36.2534 58.8736C36.0787 58.6133 36.0141 58.2944 36.0738 57.9867C36.1348 57.6794 36.315 57.4088 36.575 57.2341C36.8351 57.0594 37.1537 56.9948 37.4612 57.0545L39.428 57.4401C39.7354 57.5011 40.0061 57.6813 40.1812 57.9412C40.3562 58.2012 40.4212 58.5198 40.3621 58.8275C40.3007 59.135 40.1202 59.4058 39.8599 59.5808C39.5997 59.7557 39.2809 59.8207 38.9729 59.7616Z" fill="#5F5A5A"/>
<path opacity="0.3" d="M38.9729 59.7616L37.0061 59.3759C36.6987 59.3145 36.428 59.1339 36.2534 58.8736C36.0787 58.6133 36.0141 58.2944 36.0738 57.9867C36.1348 57.6794 36.315 57.4088 36.575 57.2341C36.8351 57.0594 37.1537 56.9948 37.4612 57.0545L39.428 57.4401C39.7354 57.5011 40.0061 57.6813 40.1812 57.9412C40.3562 58.2012 40.4212 58.5198 40.3621 58.8275C40.3007 59.135 40.1202 59.4058 39.8599 59.5808C39.5997 59.7557 39.2809 59.8207 38.9729 59.7616Z" fill="black"/>
<path d="M33.6189 60.1619L36.9713 60.118C37.2619 60.1747 38.0004 56.411 37.7024 56.3544L34.6151 55.0474L33.6189 60.1619Z" fill="#5F5A5A"/>
<path d="M34.3885 57.6577C34.1125 59.0688 33.767 60.1912 33.619 60.1619C33.4709 60.1327 33.5751 58.9646 33.8529 57.5517C34.1308 56.1387 34.4744 55.0182 34.6225 55.0474C34.7705 55.0767 34.6663 56.2447 34.3885 57.6577Z" fill="#5F5A5A"/>
<path opacity="0.3" d="M34.3885 57.6577C34.1125 59.0688 33.767 60.1912 33.619 60.1619C33.4709 60.1327 33.5751 58.9646 33.8529 57.5517C34.1308 56.1387 34.4744 55.0182 34.6225 55.0474C34.7705 55.0767 34.6663 56.2447 34.3885 57.6577Z" fill="black"/>
<path d="M33.5513 57.6047C33.6189 57.2592 33.9644 56.9978 34.1289 57.0289C34.2934 57.0599 34.372 57.367 34.3117 57.7125C34.2514 58.058 34.0558 58.3121 33.8913 58.281C33.7268 58.2499 33.4836 57.9447 33.5513 57.6047Z" fill="#5F5A5A"/>
<path d="M39.5084 60.6152L39.0588 60.1381C38.7819 59.8473 38.4218 59.6493 38.0278 59.5715L37.4795 59.4637C37.4279 59.4539 37.3746 59.4647 37.3308 59.4937C37.2871 59.5227 37.2565 59.5677 37.2455 59.619C37.1797 59.9462 37.0828 60.6225 37.2601 61.1691C37.2797 61.2306 37.3152 61.2858 37.363 61.3292C37.4109 61.3725 37.4693 61.4024 37.5325 61.4159L38.7078 61.6279C38.8997 61.6754 39.0935 61.6571 39.1666 61.4725L39.5084 60.6152Z" fill="#FFC0BA"/>
<path d="M39.2507 61.7979L41.2742 64.4794L41.4753 62.1744L39.5085 60.6152C39.5085 60.6152 38.6549 60.9808 39.2507 61.7979Z" fill="#FFC0BA"/>
<path d="M32.6483 57.0417L30.3195 55.0511L29.7181 55.9376L32.6483 57.0417Z" fill="white"/>
<path d="M32.9993 58.0032L30.1934 59.2279L29.8754 58.2061L32.9993 58.0032Z" fill="white"/>
<path d="M31.8715 57.4658L28.5593 56.0948L28.1919 57.4201L31.8715 57.4658Z" fill="white"/>
<path d="M38.854 32.2772L38.2581 35.4103H39.0038L40.0476 32.9024C40.0476 32.9024 39.9726 32.1273 38.854 32.2772Z" fill="#5F5A5A"/>
<path d="M45.3795 32.2772L45.9754 35.4103H45.2296L44.1859 32.9024C44.1859 32.9024 44.2609 32.1273 45.3795 32.2772Z" fill="#5F5A5A"/>
<path opacity="0.3" d="M38.854 32.2772L38.2581 35.4103H39.0038L40.0476 32.9024C40.0476 32.9024 39.9726 32.1273 38.854 32.2772Z" fill="black"/>
<path opacity="0.3" d="M45.3795 32.2772L45.9754 35.4103H45.2296L44.1859 32.9024C44.1859 32.9024 44.2609 32.1273 45.3795 32.2772Z" fill="black"/>
<path d="M42.1094 33.9716C45.1995 33.9716 47.7046 31.4666 47.7046 28.3764C47.7046 25.2863 45.1995 22.7812 42.1094 22.7812C39.0192 22.7812 36.5142 25.2863 36.5142 28.3764C36.5142 31.4666 39.0192 33.9716 42.1094 33.9716Z" fill="#5F5A5A"/>
<path d="M42.1807 32.6995C44.5682 32.6995 46.5037 30.764 46.5037 28.3765C46.5037 25.9889 44.5682 24.0535 42.1807 24.0535C39.7931 24.0535 37.8577 25.9889 37.8577 28.3765C37.8577 30.764 39.7931 32.6995 42.1807 32.6995Z" fill="white"/>
<path d="M42.1095 31.8494C44.0276 31.8494 45.5825 30.2945 45.5825 28.3764C45.5825 26.4583 44.0276 24.9034 42.1095 24.9034C40.1914 24.9034 38.6365 26.4583 38.6365 28.3764C38.6365 30.2945 40.1914 31.8494 42.1095 31.8494Z" fill="#5F5A5A"/>
<path d="M42.1094 31.0598C43.5914 31.0598 44.7928 29.8584 44.7928 28.3764C44.7928 26.8944 43.5914 25.6931 42.1094 25.6931C40.6274 25.6931 39.426 26.8944 39.426 28.3764C39.426 29.8584 40.6274 31.0598 42.1094 31.0598Z" fill="white"/>
<path d="M42.1095 29.1514C42.5375 29.1514 42.8845 28.8045 42.8845 28.3764C42.8845 27.9484 42.5375 27.6014 42.1095 27.6014C41.6815 27.6014 41.3345 27.9484 41.3345 28.3764C41.3345 28.8045 41.6815 29.1514 42.1095 29.1514Z" fill="#5F5A5A"/>
<path d="M48.3189 19.5349V20.9533L46.7926 22.7812H46.7908L46.5038 21.6735L48.3189 19.5349Z" fill="#5F5A5A"/>
<path d="M48.2411 20.8893L42.0299 28.3099L42.1897 28.4436L48.4009 21.0231L48.2411 20.8893Z" fill="#263238"/>
<path d="M49.5837 20.9789L48.0702 22.7812H46.7925L48.3188 20.9533L49.5837 20.9789Z" fill="#5F5A5A"/>
<path opacity="0.2" d="M49.5837 20.9789L48.0702 22.7812H46.7925L48.3188 20.9533L49.5837 20.9789Z" fill="black"/>
<path d="M49.7191 29.0637L49.2329 28.1498C49.2329 28.1498 49.5985 27.4789 50.0536 27.4534C50.5088 27.4278 50.9676 27.8189 50.9676 27.8189L51.5397 27.5813L51.1102 29.1972C51.1102 29.1972 50.3315 29.8406 49.7191 29.0637Z" fill="#5F5A5A"/>
<path d="M53.4902 32.4819C53.4902 34.5328 52.1997 35.3664 50.6076 35.3664C49.8426 35.3664 49.1089 35.0625 48.568 34.5215C48.027 33.9806 47.7231 33.2469 47.7231 32.4819C47.7231 30.8898 49.0136 28.8572 50.6076 28.8572C50.6076 28.8572 53.4902 30.6047 53.4902 32.4819Z" fill="#5F5A5A"/>
<path opacity="0.2" d="M53.4902 32.4819C53.4902 34.5328 52.1997 35.3664 50.6076 35.3664C49.8426 35.3664 49.1089 35.0625 48.568 34.5215C48.027 33.9806 47.7231 33.2469 47.7231 32.4819C47.7231 30.8898 49.0136 28.8572 50.6076 28.8572C50.6076 28.8572 53.4902 30.6047 53.4902 32.4819Z" fill="black"/>
<path d="M51.5782 32.8164C51.5782 33.2295 51.2455 33.5073 50.7245 33.5476L50.6551 33.8894H50.3443L50.412 33.5476C50.1564 33.53 49.9096 33.4469 49.6954 33.3063L49.9056 32.9206C50.0786 33.0455 50.2818 33.1219 50.4942 33.1418L50.6003 32.6153C50.3096 32.5276 49.9916 32.4124 49.9916 32.0359C49.9916 31.6209 50.3315 31.3413 50.8616 31.3047L50.9293 30.9629H51.2418L51.1724 31.3084C51.375 31.3257 51.5711 31.3881 51.7463 31.4912L51.5636 31.8787C51.4244 31.7873 51.265 31.7314 51.0993 31.716L50.9896 32.2644C51.2693 32.3539 51.5782 32.4563 51.5782 32.8164ZM50.6862 32.1711L50.7776 31.7233C50.5948 31.758 50.4997 31.8531 50.4961 31.9719C50.4924 32.0907 50.5747 32.1273 50.6862 32.1711ZM51.0737 32.9023C51.0737 32.8109 51.0024 32.7561 50.8909 32.7195L50.8068 33.1454C50.9768 33.1015 51.0737 33.0156 51.0737 32.9023Z" fill="white"/>
</svg>
