<svg width="40" height="40" viewBox="0 0 40 40" fill="none" xmlns="http://www.w3.org/2000/svg">
<g clip-path="url(#clip0_564_2620)">
<rect width="40" height="40" rx="20" fill="white"/>
<path d="M35.4764 28.1832H37.9269V27.1477H35.4764V28.1832Z" fill="#EBEBEB"/>
<path d="M36.8436 29.489H39.2941V28.4534H36.8436V29.489Z" fill="#EBEBEB"/>
<path d="M15.9508 16.7482H18.4012V15.7127H15.9508V16.7482Z" fill="#EBEBEB"/>
<path d="M17.318 18.0539H19.7684V17.0184H17.318V18.0539Z" fill="#EBEBEB"/>
<path d="M18.6796 16.7482H21.13V15.7127H18.6796V16.7482Z" fill="#EBEBEB"/>
<path d="M0.674566 29.488H3.125V28.4525H0.674566V29.488Z" fill="#EBEBEB"/>
<path d="M2.04175 3.28925L4.49219 3.28925V2.25373H2.04175V3.28925Z" fill="#EBEBEB"/>
<path d="M0.674566 4.59503H3.125V3.55952H0.674566V4.59503Z" fill="#EBEBEB"/>
<path d="M35.4764 3.28925L37.9269 3.28925V2.25373H35.4764V3.28925Z" fill="#EBEBEB"/>
<path d="M38.5522 4.52374H25.3376V19.2671H38.5522V4.52374Z" fill="#DBDBDB"/>
<path d="M37.682 5.39453H26.2081V18.4046H37.682V5.39453Z" fill="#EBEBEB"/>
<path d="M31.2901 7.69501H27.2461V12.4876H31.2901V7.69501Z" fill="white"/>
<path d="M29.4117 8.02077C29.4117 8.04951 29.4031 8.0776 29.3872 8.10149C29.3712 8.12538 29.3485 8.144 29.322 8.155C29.2954 8.166 29.2662 8.16888 29.238 8.16327C29.2099 8.15766 29.184 8.14383 29.1636 8.12351C29.1433 8.10319 29.1295 8.0773 29.1239 8.04912C29.1183 8.02094 29.1212 7.99172 29.1322 7.96518C29.1431 7.93863 29.1618 7.91594 29.1857 7.89997C29.2096 7.88401 29.2376 7.87549 29.2664 7.87549C29.3049 7.87549 29.3419 7.89079 29.3691 7.91804C29.3964 7.94529 29.4117 7.98224 29.4117 8.02077Z" fill="#A6A6A6"/>
<path d="M28.0162 8.65473C28.4253 8.62327 28.8343 8.62142 29.2424 8.61679C29.6505 8.61216 30.0604 8.62327 30.4694 8.65473C30.0604 8.68619 29.6514 8.68805 29.2424 8.69267C28.8334 8.6973 28.4253 8.68619 28.0162 8.65473Z" fill="#EBEBEB"/>
<path d="M28.0162 9.03404C28.4593 8.98345 28.9067 8.98345 29.3497 9.03404C29.1284 9.06145 28.9055 9.07413 28.6825 9.07198C28.4598 9.07364 28.2373 9.06097 28.0162 9.03404Z" fill="#EBEBEB"/>
<path d="M28.0162 9.41262C28.2995 9.38567 28.584 9.37301 28.8685 9.37468C29.1528 9.37254 29.4369 9.38521 29.7199 9.41262C29.4358 9.44224 29.1526 9.44871 28.8685 9.45056C28.5844 9.45242 28.3003 9.44224 28.0162 9.41262Z" fill="#EBEBEB"/>
<path d="M28.0162 9.79105C28.3716 9.76144 28.7269 9.75404 29.0823 9.75311C29.4376 9.75219 29.793 9.76144 30.1483 9.79105C29.793 9.82067 29.4376 9.82807 29.0823 9.829C28.7269 9.82992 28.3716 9.82067 28.0162 9.79105Z" fill="#EBEBEB"/>
<path d="M28.0162 10.1695C28.3244 10.1399 28.6335 10.1334 28.9416 10.1316C29.2498 10.1297 29.5589 10.1399 29.867 10.1695C29.5579 10.1991 29.2489 10.2065 28.9416 10.2074C28.6344 10.2084 28.3244 10.1991 28.0162 10.1695Z" fill="#EBEBEB"/>
<path d="M28.0162 10.548C28.4114 10.5166 28.8065 10.5147 29.2017 10.5101C29.5968 10.5055 29.9919 10.5166 30.3871 10.548C29.9919 10.5804 29.5968 10.5823 29.2017 10.5869C28.8065 10.5915 28.4114 10.5795 28.0162 10.548Z" fill="#EBEBEB"/>
<path d="M28.0162 10.9274C28.2704 10.9004 28.5259 10.8878 28.7815 10.8895C29.0375 10.8873 29.2933 10.9 29.5478 10.9274C29.0385 10.978 28.5255 10.978 28.0162 10.9274Z" fill="#EBEBEB"/>
<path d="M28.0162 11.3059C28.4253 11.2745 28.8343 11.2726 29.2424 11.268C29.6505 11.2633 30.0604 11.2745 30.4694 11.3059C30.0604 11.3374 29.6514 11.3392 29.2424 11.3439C28.8334 11.3485 28.4253 11.3374 28.0162 11.3059Z" fill="#EBEBEB"/>
<path d="M28.0162 11.6844C28.4253 11.6529 28.8343 11.6511 29.2424 11.6465C29.6505 11.6418 30.0604 11.6529 30.4694 11.6844C30.0604 11.7159 29.6514 11.7186 29.2424 11.7223C28.8334 11.726 28.4253 11.7177 28.0162 11.6844Z" fill="#EBEBEB"/>
<path d="M36.6908 10.6831H31.9056V16.3539H36.6908V10.6831Z" fill="white"/>
<path d="M32.4892 11.0959C32.4892 11.1246 32.4807 11.1527 32.4647 11.1766C32.4487 11.2005 32.426 11.2191 32.3995 11.2301C32.3729 11.2411 32.3437 11.244 32.3156 11.2384C32.2874 11.2328 32.2615 11.219 32.2412 11.1986C32.2208 11.1783 32.207 11.1524 32.2014 11.1243C32.1958 11.0961 32.1987 11.0669 32.2097 11.0403C32.2207 11.0138 32.2393 10.9911 32.2632 10.9751C32.2871 10.9591 32.3152 10.9506 32.3439 10.9506C32.3824 10.9506 32.4194 10.9659 32.4466 10.9932C32.4739 11.0204 32.4892 11.0574 32.4892 11.0959Z" fill="#A6A6A6"/>
<path d="M32.5753 12.0981C32.7511 12.0714 32.9287 12.0584 33.1065 12.0592C33.284 12.0579 33.4613 12.0709 33.6367 12.0981C33.2847 12.1487 32.9273 12.1487 32.5753 12.0981Z" fill="#EBEBEB"/>
<path d="M32.5753 12.5256C32.8035 12.4988 33.0331 12.4858 33.2629 12.4867C33.4924 12.4854 33.7217 12.4984 33.9495 12.5256C33.4929 12.5762 33.032 12.5762 32.5753 12.5256Z" fill="#EBEBEB"/>
<path d="M32.5753 12.9532C32.7865 12.9263 32.9992 12.9136 33.212 12.9152C33.4248 12.9131 33.6376 12.9257 33.8487 12.9532C33.4257 13.0037 32.9983 13.0037 32.5753 12.9532Z" fill="#EBEBEB"/>
<path d="M32.5753 13.3835C32.7865 13.3566 32.9992 13.3439 33.212 13.3455C33.4248 13.3434 33.6376 13.356 33.8487 13.3835C33.4257 13.434 32.9983 13.434 32.5753 13.3835Z" fill="#EBEBEB"/>
<path d="M32.5753 13.8082C32.7591 13.7812 32.9448 13.7685 33.1306 13.7703C33.3163 13.7681 33.502 13.7808 33.6858 13.8082C33.3174 13.8591 32.9437 13.8591 32.5753 13.8082Z" fill="#EBEBEB"/>
<path d="M32.5753 14.2357C32.8103 14.2087 33.0467 14.1961 33.2832 14.1977C33.5198 14.1956 33.7562 14.2083 33.9912 14.2357C33.5206 14.2863 33.0459 14.2863 32.5753 14.2357Z" fill="#EBEBEB"/>
<path d="M32.5753 14.6632C32.9633 14.6127 33.3561 14.6127 33.7441 14.6632C33.3561 14.7138 32.9633 14.7138 32.5753 14.6632Z" fill="#EBEBEB"/>
<path d="M32.5753 15.0907C33.0623 15.0401 33.5532 15.0401 34.0402 15.0907C33.5532 15.1413 33.0623 15.1413 32.5753 15.0907Z" fill="#EBEBEB"/>
<path d="M32.5753 15.5184C33.0623 15.4678 33.5532 15.4678 34.0402 15.5184C33.5532 15.5689 33.0623 15.5689 32.5753 15.5184Z" fill="#EBEBEB"/>
<path d="M34.6652 12.0981C34.8961 12.0713 35.1285 12.0583 35.3611 12.0592C35.5933 12.0579 35.8254 12.0709 36.056 12.0981C35.5947 12.1485 35.1293 12.1485 34.6679 12.0981H34.6652Z" fill="#EBEBEB"/>
<path d="M34.6652 12.5256C34.8161 12.4989 34.9691 12.4859 35.1223 12.4867C35.2756 12.4854 35.4286 12.4984 35.5794 12.5256C35.2768 12.5761 34.9678 12.5761 34.6652 12.5256Z" fill="#EBEBEB"/>
<path d="M34.6652 12.9531C34.8822 12.9262 35.1007 12.9136 35.3194 12.9152C35.5381 12.9131 35.7567 12.9258 35.9737 12.9531C35.539 13.0037 35.0999 13.0037 34.6652 12.9531Z" fill="#EBEBEB"/>
<path d="M34.6652 13.3834C34.8763 13.3565 35.089 13.3439 35.3018 13.3455C35.5147 13.3434 35.7274 13.3561 35.9385 13.3834C35.5156 13.434 35.0881 13.434 34.6652 13.3834Z" fill="#EBEBEB"/>
<path d="M34.6652 13.8082C34.8961 13.7813 35.1285 13.7686 35.3611 13.7702C35.5933 13.7681 35.8254 13.7808 36.056 13.8082C35.5947 13.8586 35.1293 13.8586 34.6679 13.8082H34.6652Z" fill="#EBEBEB"/>
<path d="M34.6652 14.2357C34.849 14.2087 35.0346 14.196 35.2204 14.1978C35.4062 14.1955 35.5919 14.2082 35.7756 14.2357C35.4072 14.2867 35.0336 14.2867 34.6652 14.2357Z" fill="#EBEBEB"/>
<path d="M34.6652 14.6632C35.0999 14.6127 35.539 14.6127 35.9737 14.6632C35.539 14.7138 35.0999 14.7138 34.6652 14.6632Z" fill="#EBEBEB"/>
<path d="M34.6652 15.0907C35.0007 15.0401 35.342 15.0401 35.6775 15.0907C35.342 15.1413 35.0007 15.1413 34.6652 15.0907Z" fill="#EBEBEB"/>
<path d="M34.6652 15.5184C34.9868 15.4678 35.3143 15.4678 35.6359 15.5184C35.3143 15.5689 34.9868 15.5689 34.6652 15.5184Z" fill="#EBEBEB"/>
<path d="M33.3517 6.37738H30.918V8.81116H33.3517V6.37738Z" fill="#A6A6A6"/>
<path d="M32.28 6.62807C32.28 6.65681 32.2714 6.6849 32.2555 6.70879C32.2395 6.73268 32.2168 6.75131 32.1903 6.7623C32.1637 6.7733 32.1345 6.77617 32.1063 6.77057C32.0781 6.76496 32.0523 6.75113 32.0319 6.73081C32.0116 6.71049 31.9978 6.6846 31.9922 6.65642C31.9866 6.62824 31.9894 6.59902 32.0004 6.57248C32.0114 6.54593 32.0301 6.52324 32.054 6.50727C32.0778 6.49131 32.1059 6.48279 32.1347 6.48279C32.1732 6.48279 32.2102 6.49809 32.2374 6.52534C32.2646 6.55259 32.28 6.58954 32.28 6.62807Z" fill="#EBEBEB"/>
<path d="M37.6723 5.39453H37.3438V18.4194H37.6723V5.39453Z" fill="#C7C7C7"/>
<path d="M11.3453 8.96747C12.6278 7.17152 12.2115 4.67598 10.4156 3.39352C8.61963 2.11106 6.12409 2.52733 4.84163 4.32328C3.55917 6.11923 3.97544 8.61477 5.77139 9.89723C7.56734 11.1797 10.0629 10.7634 11.3453 8.96747Z" fill="#EBEBEB"/>
<path d="M11.3258 9.02066C12.5892 7.33615 12.2478 4.9464 10.5633 3.68301C8.87882 2.41962 6.48907 2.76101 5.22568 4.44552C3.96229 6.13004 4.30368 8.51979 5.98819 9.78318C7.67271 11.0466 10.0625 10.7052 11.3258 9.02066Z" fill="#DBDBDB"/>
<path d="M10.3457 9.64387C11.9527 8.49968 12.328 6.26936 11.1838 4.6623C10.0396 3.05524 7.80925 2.68001 6.20219 3.8242C4.59514 4.96839 4.21991 7.19871 5.3641 8.80577C6.50828 10.4128 8.73861 10.7881 10.3457 9.64387Z" fill="white"/>
<path opacity="0.5" d="M11.7645 5.98029C10.1377 6.96584 7.46422 8.58249 5.97064 9.46902C5.54662 9.1119 5.21144 8.66109 4.99158 8.15219L9.93594 3.57428C10.398 3.81741 10.8011 4.15882 11.117 4.5745C11.433 4.99018 11.654 5.47003 11.7645 5.98029Z" fill="#EBEBEB"/>
<path opacity="0.5" d="M11.8411 6.85944C11.8287 7.25527 11.7502 7.64625 11.6088 8.01617L7.15309 10.1233C6.95912 10.0587 6.77091 9.97787 6.59045 9.88176C7.9369 9.10721 10.3957 7.69229 11.8411 6.85944Z" fill="#EBEBEB"/>
<path d="M8.30878 3.42157H8.23938V3.96292H8.30878V3.42157Z" fill="#C7C7C7"/>
<path d="M6.64775 3.84677L6.58765 3.88147L6.85832 4.3503L6.91843 4.31559L6.64775 3.84677Z" fill="#C7C7C7"/>
<path d="M5.45047 5.01268L5.41577 5.07306L5.88675 5.34374L5.92145 5.28335L5.45047 5.01268Z" fill="#C7C7C7"/>
<path d="M5.50229 6.70026H4.96094V6.76966H5.50229V6.70026Z" fill="#C7C7C7"/>
<path d="M5.8566 8.09075L5.38782 8.36151L5.42253 8.42161L5.89131 8.15085L5.8566 8.09075Z" fill="#C7C7C7"/>
<path d="M6.85816 9.11873L6.58765 9.58765L6.64776 9.62233L6.91828 9.15341L6.85816 9.11873Z" fill="#C7C7C7"/>
<path d="M8.30878 9.5061H8.23938V10.0475H8.30878V9.5061Z" fill="#C7C7C7"/>
<path d="M9.68901 9.11654L9.62891 9.15125L9.89958 9.62007L9.95969 9.58537L9.68901 9.11654Z" fill="#C7C7C7"/>
<path d="M10.6932 8.09066L10.6584 8.15076L11.1272 8.42152L11.1619 8.36142L10.6932 8.09066Z" fill="#C7C7C7"/>
<path d="M11.5876 6.70026H11.0463V6.76966H11.5876V6.70026Z" fill="#C7C7C7"/>
<path d="M11.1272 5.04789L10.6584 5.31873L10.6932 5.37882L11.1619 5.10798L11.1272 5.04789Z" fill="#C7C7C7"/>
<path d="M9.90215 3.84756L9.63171 4.31653L9.69184 4.3512L9.96227 3.88223L9.90215 3.84756Z" fill="#C7C7C7"/>
<path d="M8.32756 3.66682L8.44509 6.97509L8.10547 6.97139L8.23502 3.66589L8.32756 3.66682Z" fill="#C7C7C7"/>
<path d="M10.3878 5.58051L8.16133 7.00098L7.99939 6.70393L10.3434 5.5L10.3878 5.58051Z" fill="#A6A6A6"/>
<path d="M8.38979 6.73445C8.38979 6.75733 8.38301 6.77969 8.3703 6.79872C8.35759 6.81774 8.33952 6.83257 8.31839 6.84132C8.29725 6.85008 8.27399 6.85237 8.25155 6.8479C8.22912 6.84344 8.2085 6.83242 8.19233 6.81625C8.17615 6.80007 8.16513 6.77946 8.16067 6.75702C8.15621 6.73458 8.1585 6.71132 8.16725 6.69019C8.17601 6.66905 8.19083 6.65098 8.20986 6.63827C8.22888 6.62556 8.25124 6.61878 8.27412 6.61878C8.28935 6.61865 8.30444 6.62156 8.31853 6.62733C8.33262 6.6331 8.34542 6.64162 8.35619 6.65238C8.36696 6.66315 8.37547 6.67595 8.38124 6.69004C8.38701 6.70413 8.38992 6.71923 8.38979 6.73445Z" fill="#C7C7C7"/>
<path d="M39.9722 37.9988L34.9761 38.022L29.9799 38.0294L19.9866 38.0451L9.99329 38.0303L4.99711 38.022L0 37.9988L4.99711 37.9766L9.99329 37.9683L19.9866 37.9526L29.9799 37.9683L34.9761 37.9766L39.9722 37.9988Z" fill="#263238"/>
<path d="M35.4845 10.9987C35.4777 10.7154 35.4885 10.432 35.5169 10.1501C35.5415 9.86807 35.5832 9.58778 35.6418 9.31079C35.6486 9.59405 35.6378 9.87746 35.6095 10.1594C35.5849 10.4414 35.5431 10.7217 35.4845 10.9987Z" fill="#263238"/>
<path d="M34.9843 11.0959C34.8374 10.8537 34.7054 10.6028 34.5892 10.3445C34.4688 10.0882 34.3646 9.82451 34.2773 9.55511C34.5688 10.0412 34.8059 10.5579 34.9843 11.0959Z" fill="#263238"/>
<path d="M34.6005 11.4299C34.3522 11.2938 34.1124 11.1427 33.8824 10.9774C33.6497 10.8155 33.4275 10.639 33.217 10.449C33.7125 10.7248 34.1764 11.0537 34.6005 11.4299Z" fill="#263238"/>
<path d="M34.4362 11.9102C33.8695 11.9197 33.3035 11.8669 32.7483 11.7529C33.0312 11.7461 33.3143 11.7569 33.5959 11.7853C33.8783 11.8099 34.1589 11.8516 34.4362 11.9102Z" fill="#263238"/>
<path d="M36.2305 12.5274C36.7273 12.8031 37.1928 13.132 37.6186 13.5083C37.3699 13.3728 37.13 13.2217 36.9005 13.0558C36.6665 12.8935 36.4428 12.7171 36.2305 12.5274Z" fill="#263238"/>
<path d="M36.395 12.0472C36.962 12.0378 37.5283 12.0906 38.0839 12.2045C37.8006 12.2114 37.5172 12.2005 37.2353 12.1721C36.9529 12.1476 36.6723 12.1058 36.395 12.0472Z" fill="#263238"/>
<path d="M36.3002 11.5475C36.5423 11.4006 36.7933 11.2686 37.0516 11.1524C37.3079 11.032 37.5715 10.9278 37.8409 10.8405C37.599 10.9876 37.3484 11.1199 37.0905 11.2366C36.8337 11.3565 36.5698 11.4604 36.3002 11.5475Z" fill="#263238"/>
<path d="M35.9653 11.1624C36.1015 10.9139 36.2529 10.6741 36.4188 10.4443C36.5801 10.2115 36.7563 9.98923 36.9462 9.77899C36.6708 10.276 36.3419 10.7415 35.9653 11.1671V11.1624Z" fill="#263238"/>
<path d="M14.8978 32.0568C14.7951 32.1873 6.15474 32.575 5.74386 32.4566C5.7239 32.4507 5.70465 32.4427 5.68649 32.4325C5.17753 32.1938 2.9936 30.5447 2.64566 29.8497C2.36804 29.2945 4.01431 26.2555 4.58898 25.7345C4.97116 25.3894 5.68001 25.2533 5.68001 25.2533C5.68001 25.2533 7.68071 19.4789 8.91425 18.2703C9.22426 17.9668 14.5823 17.8484 15.5391 18.2851C15.9491 18.4702 16.9457 19.4882 16.9735 19.6732C16.9966 19.9407 14.9987 31.9245 14.8978 32.0568Z" fill="#37474F"/>
<path d="M14.959 32.0569C14.8563 32.1873 6.21685 32.5751 5.80506 32.4566C5.7852 32.4505 5.76598 32.4424 5.74768 32.4326C6.58053 30.1941 10.4672 19.6909 10.5782 19.6233C10.6893 19.5558 15.8085 19.5863 17.0347 19.6751C17.0606 19.9407 15.0627 31.9245 14.959 32.0569Z" fill="#263238"/>
<path d="M11.784 18.696C11.6979 18.6146 11.6405 17.4412 11.7997 17.2071C11.9774 16.9452 14.0317 17.0747 14.153 17.2996C14.2742 17.5245 14.3325 18.696 14.2705 18.7386C14.2085 18.7812 13.8661 18.821 13.8198 18.746C13.7736 18.671 13.7763 17.7012 13.7402 17.6494C13.7041 17.5976 12.2652 17.505 12.2152 17.5791C12.1652 17.6531 12.2864 18.634 12.2291 18.6766C12.1717 18.7192 11.8682 18.7756 11.784 18.696Z" fill="#37474F"/>
<path d="M7.54276 24.0276L6.90845 23.7303L6.56641 24.4602L7.20073 24.7575L7.54276 24.0276Z" fill="#DBDBDB"/>
<path d="M7.51277 24.6148L6.47876 24.1302L6.08842 24.9631L7.12243 25.4477L7.51277 24.6148Z" fill="#C7C7C7"/>
<path d="M7.34743 26.8127L5.5605 30.6253L3.10266 29.4723L4.88866 25.6606C5.24309 24.9064 5.98988 24.5501 6.73944 24.8999C7.48901 25.2497 7.70093 26.0613 7.34743 26.8127Z" fill="#938C8C"/>
<path opacity="0.1" d="M7.34743 26.8127L5.5605 30.6253L3.10266 29.4723L4.88866 25.6606C5.24309 24.9064 5.98988 24.5501 6.73944 24.8999C7.48901 25.2497 7.70093 26.0613 7.34743 26.8127Z" fill="black"/>
<path d="M6.47717 25.1229C6.47109 25.1354 6.4626 25.1467 6.45217 25.156C6.44175 25.1653 6.42959 25.1724 6.4164 25.177C6.40321 25.1816 6.38924 25.1836 6.3753 25.1828C6.36135 25.182 6.3477 25.1784 6.33512 25.1724C6.32255 25.1663 6.31129 25.1578 6.30199 25.1474C6.2927 25.1369 6.28555 25.1248 6.28095 25.1116C6.27635 25.0984 6.2744 25.0844 6.2752 25.0705C6.276 25.0565 6.27954 25.0429 6.28562 25.0303C6.29789 25.0049 6.31975 24.9854 6.34639 24.9761C6.37302 24.9669 6.40226 24.9685 6.42766 24.9808C6.45306 24.9931 6.47255 25.0149 6.48184 25.0416C6.49112 25.0682 6.48944 25.0974 6.47717 25.1229Z" fill="white"/>
<path d="M7.29624 26.5563C7.28735 26.5751 7.27307 26.5909 7.25521 26.6017C7.23735 26.6124 7.21671 26.6176 7.19589 26.6166C7.17507 26.6157 7.15501 26.6085 7.13824 26.5962C7.12146 26.5838 7.10872 26.5667 7.10163 26.5471C7.09454 26.5276 7.09341 26.5063 7.09839 26.4861C7.10337 26.4658 7.11423 26.4475 7.1296 26.4334C7.14498 26.4194 7.16418 26.4102 7.18477 26.407C7.20537 26.4038 7.22645 26.4068 7.24534 26.4156C7.25795 26.4215 7.26927 26.4298 7.27865 26.44C7.28804 26.4503 7.2953 26.4623 7.30003 26.4754C7.30476 26.4884 7.30686 26.5023 7.30621 26.5162C7.30556 26.5301 7.30217 26.5437 7.29624 26.5563Z" fill="white"/>
<path d="M6.16287 26.1426C6.15692 26.1552 6.14856 26.1664 6.13827 26.1757C6.12798 26.185 6.11596 26.1921 6.10289 26.1968C6.08983 26.2014 6.07598 26.2034 6.06214 26.2027C6.04829 26.202 6.03472 26.1986 6.02221 26.1926C6.00969 26.1865 5.99849 26.178 5.98925 26.1676C5.98001 26.1572 5.97292 26.1451 5.96836 26.132C5.96381 26.1188 5.96189 26.1049 5.96271 26.091C5.96353 26.0771 5.96709 26.0635 5.97316 26.051C5.97924 26.0385 5.98772 26.0273 5.99812 26.0181C6.00853 26.0088 6.02065 26.0017 6.0338 25.9972C6.04694 25.9926 6.06086 25.9907 6.07475 25.9915C6.08864 25.9923 6.10223 25.9959 6.11475 26.002C6.13954 26.0145 6.15845 26.0362 6.16744 26.0625C6.17643 26.0888 6.17479 26.1175 6.16287 26.1426Z" fill="white"/>
<path d="M5.82895 27.1023C5.82318 27.115 5.81493 27.1264 5.8047 27.1359C5.79446 27.1453 5.78243 27.1527 5.76933 27.1574C5.75623 27.1621 5.74231 27.1642 5.72839 27.1635C5.71447 27.1628 5.70084 27.1593 5.68829 27.1532C5.66944 27.1443 5.65365 27.1301 5.6429 27.1122C5.63216 27.0943 5.62695 27.0737 5.62792 27.0529C5.6289 27.0321 5.63602 27.012 5.64839 26.9952C5.66075 26.9785 5.67781 26.9657 5.69741 26.9586C5.71701 26.9515 5.73826 26.9504 5.7585 26.9554C5.77874 26.9604 5.79705 26.9712 5.81112 26.9866C5.82519 27.002 5.83439 27.0212 5.83757 27.0418C5.84074 27.0624 5.83774 27.0834 5.82895 27.1023Z" fill="white"/>
<path d="M4.39114 27.5946C4.38537 27.6073 4.37713 27.6187 4.36689 27.6282C4.35665 27.6376 4.34463 27.645 4.33152 27.6497C4.31842 27.6544 4.3045 27.6565 4.29058 27.6558C4.27666 27.6551 4.26303 27.6516 4.25048 27.6455C4.23796 27.6395 4.22676 27.631 4.21752 27.6206C4.20829 27.6102 4.20119 27.5981 4.19663 27.5849C4.19208 27.5718 4.19016 27.5578 4.19098 27.544C4.19181 27.5301 4.19536 27.5165 4.20143 27.504C4.20751 27.4914 4.21599 27.4802 4.22639 27.471C4.2368 27.4618 4.24892 27.4547 4.26207 27.4501C4.27521 27.4456 4.28913 27.4436 4.30302 27.4445C4.31691 27.4453 4.3305 27.4488 4.34302 27.4549C4.35543 27.4608 4.36654 27.4692 4.3757 27.4794C4.38486 27.4897 4.39188 27.5017 4.39636 27.5147C4.40084 27.5277 4.40268 27.5415 4.40179 27.5552C4.40089 27.5689 4.39727 27.5823 4.39114 27.5946Z" fill="white"/>
<path d="M4.69433 26.6988C4.68826 26.7114 4.67976 26.7226 4.66934 26.7319C4.65891 26.7412 4.64675 26.7484 4.63356 26.753C4.62037 26.7575 4.60641 26.7595 4.59246 26.7587C4.57852 26.7579 4.56486 26.7544 4.55229 26.7483C4.53971 26.7422 4.52845 26.7337 4.51916 26.7233C4.50986 26.7129 4.50271 26.7007 4.49811 26.6875C4.49352 26.6743 4.49156 26.6604 4.49236 26.6464C4.49316 26.6325 4.4967 26.6188 4.50278 26.6062C4.51505 26.5808 4.53691 26.5614 4.56355 26.5521C4.59019 26.5428 4.61942 26.5445 4.64483 26.5567C4.67023 26.569 4.68971 26.5909 4.699 26.6175C4.70828 26.6441 4.70661 26.6734 4.69433 26.6988Z" fill="white"/>
<path d="M5.14355 25.8077C5.13748 25.8202 5.12898 25.8315 5.11856 25.8408C5.10813 25.8501 5.09597 25.8572 5.08278 25.8618C5.06959 25.8664 5.05563 25.8684 5.04168 25.8676C5.02773 25.8668 5.01408 25.8633 5.00151 25.8572C4.98893 25.8511 4.97767 25.8426 4.96838 25.8322C4.95908 25.8218 4.95193 25.8096 4.94733 25.7964C4.94273 25.7832 4.94078 25.7692 4.94158 25.7553C4.94238 25.7414 4.94592 25.7277 4.952 25.7151C4.96427 25.6897 4.98613 25.6702 5.01277 25.661C5.03941 25.6517 5.06864 25.6533 5.09404 25.6656C5.11945 25.6779 5.13893 25.6997 5.14822 25.7264C5.1575 25.753 5.15582 25.7823 5.14355 25.8077Z" fill="white"/>
<path d="M5.81503 25.4505C5.80626 25.4694 5.79206 25.4854 5.77423 25.4963C5.7564 25.5071 5.73573 25.5125 5.71486 25.5116C5.69398 25.5107 5.67383 25.5037 5.65697 25.4914C5.64011 25.479 5.62729 25.462 5.62014 25.4423C5.61299 25.4227 5.61183 25.4014 5.61681 25.3811C5.62178 25.3608 5.63268 25.3424 5.6481 25.3283C5.66352 25.3142 5.68278 25.305 5.70344 25.3019C5.7241 25.2988 5.74522 25.3019 5.76413 25.3107C5.78935 25.3226 5.80885 25.3439 5.81839 25.3701C5.82792 25.3963 5.82672 25.4252 5.81503 25.4505Z" fill="white"/>
<path d="M5.46873 26.4453C5.45983 26.4642 5.44556 26.48 5.4277 26.4907C5.40984 26.5014 5.3892 26.5066 5.36838 26.5057C5.34756 26.5047 5.3275 26.4976 5.31072 26.4852C5.29395 26.4728 5.28121 26.4558 5.27412 26.4362C5.26703 26.4166 5.2659 26.3953 5.27088 26.3751C5.27585 26.3549 5.28672 26.3365 5.30209 26.3225C5.31746 26.3084 5.33666 26.2992 5.35726 26.296C5.37786 26.2929 5.39893 26.2959 5.41783 26.3047C5.43043 26.3105 5.44175 26.3188 5.45114 26.3291C5.46052 26.3393 5.46779 26.3513 5.47252 26.3644C5.47725 26.3775 5.47935 26.3913 5.4787 26.4052C5.47805 26.4191 5.47466 26.4327 5.46873 26.4453Z" fill="white"/>
<path d="M6.88889 25.8511C6.88 25.87 6.86572 25.8858 6.84786 25.8965C6.83 25.9073 6.80936 25.9125 6.78854 25.9115C6.76773 25.9105 6.74766 25.9034 6.73089 25.891C6.71411 25.8787 6.70137 25.8616 6.69428 25.842C6.68719 25.8224 6.68606 25.8012 6.69104 25.7809C6.69602 25.7607 6.70688 25.7424 6.72226 25.7283C6.73763 25.7142 6.75683 25.705 6.77742 25.7019C6.79802 25.6987 6.8191 25.7017 6.83799 25.7105C6.8506 25.7163 6.86192 25.7246 6.8713 25.7349C6.88069 25.7451 6.88795 25.7571 6.89268 25.7702C6.89741 25.7833 6.89951 25.7972 6.89886 25.8111C6.89821 25.8249 6.89482 25.8386 6.88889 25.8511Z" fill="white"/>
<path d="M6.5709 26.8358C6.562 26.8546 6.54773 26.8704 6.52987 26.8811C6.51201 26.8919 6.49137 26.8971 6.47055 26.8961C6.44973 26.8951 6.42967 26.888 6.41289 26.8757C6.39612 26.8633 6.38338 26.8462 6.37629 26.8266C6.3692 26.807 6.36807 26.7858 6.37305 26.7655C6.37803 26.7453 6.38889 26.727 6.40426 26.7129C6.41964 26.6988 6.43883 26.6896 6.45943 26.6865C6.48003 26.6833 6.50111 26.6863 6.52 26.6951C6.5326 26.701 6.54392 26.7093 6.55331 26.7195C6.56269 26.7298 6.56996 26.7418 6.57469 26.7548C6.57942 26.7679 6.58152 26.7818 6.58087 26.7957C6.58022 26.8096 6.57683 26.8232 6.5709 26.8358Z" fill="white"/>
<path d="M5.10044 27.3567C5.09155 27.3756 5.07727 27.3914 5.05941 27.4021C5.04155 27.4129 5.02091 27.4181 5.00009 27.4171C4.97927 27.4161 4.95921 27.409 4.94243 27.3966C4.92566 27.3843 4.91292 27.3672 4.90583 27.3476C4.89874 27.328 4.89761 27.3068 4.90259 27.2865C4.90757 27.2663 4.91843 27.248 4.9338 27.2339C4.94918 27.2198 4.96837 27.2106 4.98897 27.2075C5.00957 27.2043 5.03065 27.2073 5.04954 27.2161C5.06215 27.222 5.07346 27.2303 5.08285 27.2405C5.09223 27.2508 5.0995 27.2628 5.10423 27.2758C5.10896 27.2889 5.11106 27.3028 5.11041 27.3167C5.10976 27.3306 5.10637 27.3442 5.10044 27.3567Z" fill="white"/>
<path d="M5.7783 28.6005C5.7694 28.6193 5.75513 28.6351 5.73727 28.6458C5.71941 28.6566 5.69877 28.6618 5.67795 28.6608C5.65713 28.6598 5.63707 28.6527 5.62029 28.6404C5.60352 28.628 5.59078 28.6109 5.58369 28.5913C5.5766 28.5717 5.57547 28.5505 5.58045 28.5302C5.58542 28.51 5.59629 28.4917 5.61166 28.4776C5.62703 28.4636 5.64623 28.4544 5.66683 28.4512C5.68743 28.448 5.7085 28.451 5.7274 28.4598C5.74 28.4657 5.75132 28.474 5.76071 28.4842C5.77009 28.4945 5.77736 28.5065 5.78209 28.5196C5.78682 28.5326 5.78892 28.5465 5.78827 28.5604C5.78762 28.5743 5.78423 28.5879 5.7783 28.6005Z" fill="white"/>
<path d="M5.42685 29.314C5.41796 29.3328 5.40368 29.3486 5.38583 29.3593C5.36797 29.3701 5.34733 29.3753 5.32651 29.3743C5.30569 29.3734 5.28563 29.3662 5.26885 29.3539C5.25207 29.3415 5.23934 29.3244 5.23225 29.3048C5.22516 29.2852 5.22403 29.264 5.22901 29.2437C5.23398 29.2235 5.24485 29.2052 5.26022 29.1911C5.27559 29.1771 5.29479 29.1679 5.31539 29.1647C5.33599 29.1615 5.35706 29.1645 5.37596 29.1733C5.38856 29.1792 5.39988 29.1875 5.40927 29.1977C5.41865 29.208 5.42592 29.22 5.43065 29.2331C5.43538 29.2461 5.43748 29.26 5.43683 29.2739C5.43617 29.2878 5.43279 29.3014 5.42685 29.314Z" fill="white"/>
<path d="M4.79648 28.1609C4.79061 28.1735 4.78231 28.1849 4.77206 28.1942C4.7618 28.2036 4.7498 28.2109 4.73673 28.2156C4.72365 28.2203 4.70978 28.2224 4.69589 28.2218C4.68201 28.2211 4.66839 28.2178 4.65582 28.2118C4.63697 28.2029 4.62118 28.1887 4.61043 28.1708C4.59969 28.1529 4.59448 28.1323 4.59545 28.1115C4.59643 28.0907 4.60355 28.0706 4.61591 28.0538C4.62828 28.037 4.64534 28.0243 4.66494 28.0172C4.68453 28.0101 4.70579 28.009 4.72603 28.014C4.74627 28.019 4.76458 28.0298 4.77865 28.0452C4.79272 28.0606 4.80192 28.0798 4.8051 28.1004C4.80827 28.121 4.80527 28.142 4.79648 28.1609Z" fill="white"/>
<path d="M3.80139 29.0651C3.79531 29.0776 3.78682 29.0889 3.77639 29.0982C3.76597 29.1075 3.75381 29.1146 3.74062 29.1192C3.72743 29.1238 3.71346 29.1258 3.69952 29.125C3.68557 29.1242 3.67192 29.1206 3.65934 29.1146C3.64676 29.1085 3.63551 29.1 3.62621 29.0896C3.61692 29.0791 3.60977 29.067 3.60517 29.0538C3.60057 29.0406 3.59862 29.0266 3.59942 29.0127C3.60022 28.9987 3.60376 28.9851 3.60983 28.9725C3.62211 28.9471 3.64397 28.9276 3.6706 28.9183C3.69724 28.9091 3.72648 28.9107 3.75188 28.923C3.77728 28.9353 3.79677 28.9571 3.80605 28.9838C3.81534 29.0104 3.81366 29.0396 3.80139 29.0651Z" fill="white"/>
<path d="M5.49387 27.9619C5.48498 27.9808 5.4707 27.9966 5.45284 28.0073C5.43498 28.018 5.41434 28.0232 5.39352 28.0223C5.37271 28.0213 5.35264 28.0142 5.33587 28.0018C5.31909 27.9894 5.30635 27.9724 5.29926 27.9528C5.29217 27.9332 5.29104 27.9119 5.29602 27.8917C5.301 27.8715 5.31186 27.8531 5.32724 27.8391C5.34261 27.825 5.36181 27.8158 5.3824 27.8126C5.403 27.8095 5.42408 27.8125 5.44297 27.8213C5.45558 27.8271 5.4669 27.8354 5.47628 27.8457C5.48567 27.8559 5.49293 27.8679 5.49766 27.881C5.50239 27.8941 5.50449 27.9079 5.50384 27.9218C5.50319 27.9357 5.4998 27.9493 5.49387 27.9619Z" fill="white"/>
<path d="M5.1395 28.7448C5.13061 28.7637 5.11633 28.7794 5.09847 28.7902C5.08061 28.8009 5.05997 28.8061 5.03915 28.8052C5.01834 28.8042 4.99827 28.7971 4.9815 28.7847C4.96472 28.7723 4.95198 28.7553 4.94489 28.7357C4.9378 28.7161 4.93667 28.6948 4.94165 28.6746C4.94663 28.6544 4.95749 28.636 4.97287 28.622C4.98824 28.6079 5.00744 28.5987 5.02804 28.5955C5.04863 28.5924 5.06971 28.5954 5.08861 28.6042C5.10121 28.61 5.11253 28.6183 5.12191 28.6286C5.1313 28.6388 5.13856 28.6508 5.14329 28.6639C5.14802 28.677 5.15012 28.6908 5.14947 28.7047C5.14882 28.7186 5.14543 28.7322 5.1395 28.7448Z" fill="white"/>
<path d="M4.77683 29.5212C4.76794 29.5401 4.75366 29.5559 4.7358 29.5666C4.71794 29.5774 4.6973 29.5826 4.67648 29.5816C4.65567 29.5806 4.6356 29.5735 4.61883 29.5611C4.60205 29.5488 4.58931 29.5317 4.58222 29.5121C4.57513 29.4925 4.574 29.4713 4.57898 29.451C4.58396 29.4308 4.59482 29.4125 4.6102 29.3984C4.62557 29.3843 4.64477 29.3751 4.66536 29.372C4.68596 29.3688 4.70704 29.3718 4.72593 29.3806C4.73854 29.3864 4.74986 29.3947 4.75924 29.405C4.76863 29.4152 4.77589 29.4273 4.78062 29.4403C4.78535 29.4534 4.78745 29.4673 4.7868 29.4812C4.78615 29.495 4.78276 29.5087 4.77683 29.5212Z" fill="white"/>
<path d="M5.09749 30.1088C5.08545 30.1341 5.06394 30.1536 5.03761 30.1632C5.01128 30.1727 4.98225 30.1715 4.95683 30.1597C4.94425 30.1537 4.93299 30.1452 4.9237 30.1347C4.9144 30.1243 4.90725 30.1121 4.90265 30.099C4.89806 30.0858 4.8961 30.0718 4.8969 30.0579C4.8977 30.0439 4.90124 30.0303 4.90732 30.0177C4.9134 30.0051 4.92189 29.9938 4.93232 29.9845C4.94274 29.9753 4.9549 29.9681 4.96809 29.9635C4.98128 29.9589 4.99525 29.957 5.00919 29.9578C5.02314 29.9586 5.03679 29.9621 5.04937 29.9682C5.07416 29.9807 5.09307 30.0024 5.10206 30.0287C5.11105 30.055 5.10941 30.0837 5.09749 30.1088Z" fill="white"/>
<path d="M4.13342 28.3293C4.12115 28.3547 4.09929 28.3742 4.07265 28.3835C4.04601 28.3928 4.01678 28.3911 3.99137 28.3788C3.96597 28.3666 3.94649 28.3447 3.9372 28.3181C3.92792 28.2914 3.92959 28.2622 3.94187 28.2368C3.94794 28.2242 3.95644 28.213 3.96686 28.2037C3.97729 28.1944 3.98945 28.1872 4.00264 28.1826C4.01583 28.178 4.02979 28.1761 4.04374 28.1769C4.05768 28.1777 4.07134 28.1812 4.08391 28.1873C4.09649 28.1934 4.10775 28.2019 4.11704 28.2123C4.12634 28.2227 4.13349 28.2349 4.13809 28.2481C4.14268 28.2612 4.14464 28.2752 4.14384 28.2892C4.14304 28.3031 4.1395 28.3168 4.13342 28.3293Z" fill="white"/>
<path d="M4.45041 28.8984C4.44152 28.9173 4.42725 28.9331 4.40939 28.9438C4.39153 28.9546 4.37089 28.9598 4.35007 28.9588C4.32925 28.9578 4.30919 28.9507 4.29241 28.9383C4.27563 28.926 4.2629 28.9089 4.25581 28.8893C4.24871 28.8697 4.24759 28.8485 4.25257 28.8282C4.25754 28.808 4.26841 28.7897 4.28378 28.7756C4.29915 28.7615 4.31835 28.7523 4.33895 28.7492C4.35955 28.746 4.38062 28.749 4.39952 28.7578C4.41212 28.7636 4.42344 28.7719 4.43283 28.7822C4.44221 28.7924 4.44948 28.8045 4.45421 28.8175C4.45894 28.8306 4.46104 28.8445 4.46039 28.8584C4.45973 28.8722 4.45635 28.8859 4.45041 28.8984Z" fill="white"/>
<path d="M5.71995 29.9636C5.71105 29.9824 5.69678 29.9982 5.67892 30.0089C5.66106 30.0197 5.64042 30.0249 5.6196 30.0239C5.59878 30.0229 5.57872 30.0158 5.56194 30.0035C5.54517 29.9911 5.53243 29.974 5.52534 29.9544C5.51825 29.9348 5.51712 29.9136 5.5221 29.8933C5.52708 29.8731 5.53794 29.8548 5.55331 29.8407C5.56868 29.8267 5.58788 29.8175 5.60848 29.8143C5.62908 29.8111 5.65015 29.8141 5.66905 29.8229C5.69433 29.8349 5.71385 29.8564 5.72338 29.8828C5.73291 29.9091 5.73167 29.9381 5.71995 29.9636Z" fill="white"/>
<path d="M4.11826 29.6601C4.10937 29.6789 4.09509 29.6947 4.07723 29.7055C4.05937 29.7162 4.03873 29.7214 4.01791 29.7205C3.9971 29.7195 3.97703 29.7124 3.96026 29.7C3.94348 29.6876 3.93074 29.6706 3.92365 29.651C3.91656 29.6314 3.91543 29.6101 3.92041 29.5899C3.92539 29.5696 3.93625 29.5513 3.95163 29.5373C3.967 29.5232 3.9862 29.514 4.00679 29.5108C4.02739 29.5076 4.04847 29.5106 4.06736 29.5194C4.07997 29.5253 4.09129 29.5336 4.10067 29.5439C4.11006 29.5541 4.11732 29.5661 4.12205 29.5792C4.12678 29.5923 4.12888 29.6061 4.12823 29.62C4.12758 29.6339 4.12419 29.6475 4.11826 29.6601Z" fill="white"/>
<path d="M6.4509 28.4432C6.44201 28.462 6.42773 28.4778 6.40987 28.4886C6.39201 28.4993 6.37137 28.5045 6.35056 28.5035C6.32974 28.5026 6.30967 28.4954 6.2929 28.4831C6.27612 28.4707 6.26339 28.4537 6.25629 28.4341C6.2492 28.4145 6.24808 28.3932 6.25305 28.373C6.25803 28.3527 6.26889 28.3344 6.28427 28.3203C6.29964 28.3063 6.31884 28.2971 6.33944 28.2939C6.36003 28.2907 6.38111 28.2937 6.40001 28.3025C6.41261 28.3084 6.42393 28.3167 6.43331 28.3269C6.4427 28.3372 6.44996 28.3492 6.45469 28.3623C6.45942 28.3753 6.46152 28.3892 6.46087 28.4031C6.46022 28.417 6.45683 28.4306 6.4509 28.4432Z" fill="white"/>
<path d="M6.09934 29.1946C6.09045 29.2134 6.07617 29.2292 6.05831 29.24C6.04045 29.2507 6.01981 29.2559 5.99899 29.2549C5.97818 29.254 5.95811 29.2468 5.94134 29.2345C5.92456 29.2221 5.91182 29.2051 5.90473 29.1855C5.89764 29.1659 5.89651 29.1446 5.90149 29.1244C5.90647 29.1041 5.91733 29.0858 5.93271 29.0717C5.94808 29.0577 5.96728 29.0485 5.98787 29.0453C6.00847 29.0421 6.02955 29.0451 6.04844 29.0539C6.06105 29.0598 6.07237 29.0681 6.08175 29.0783C6.09114 29.0886 6.0984 29.1006 6.10313 29.1137C6.10786 29.1267 6.10996 29.1406 6.10931 29.1545C6.10866 29.1684 6.10527 29.182 6.09934 29.1946Z" fill="white"/>
<path d="M6.16611 27.825C6.15722 27.8439 6.14294 27.8596 6.12508 27.8704C6.10722 27.8811 6.08658 27.8863 6.06577 27.8854C6.04495 27.8844 6.02488 27.8773 6.00811 27.8649C5.99133 27.8525 5.9786 27.8355 5.9715 27.8159C5.96441 27.7963 5.96329 27.775 5.96826 27.7548C5.97324 27.7346 5.9841 27.7162 5.99948 27.7022C6.01485 27.6881 6.03405 27.6789 6.05465 27.6757C6.07524 27.6726 6.09632 27.6756 6.11522 27.6844C6.12782 27.6902 6.13914 27.6985 6.14852 27.7088C6.15791 27.719 6.16517 27.731 6.1699 27.7441C6.17463 27.7572 6.17673 27.771 6.17608 27.7849C6.17543 27.7988 6.17204 27.8124 6.16611 27.825Z" fill="white"/>
<path d="M6.90842 27.5909C6.89953 27.6098 6.88525 27.6256 6.86739 27.6363C6.84953 27.6471 6.82889 27.6523 6.80808 27.6513C6.78726 27.6503 6.76719 27.6432 6.75042 27.6308C6.73364 27.6185 6.72091 27.6014 6.71381 27.5818C6.70672 27.5622 6.7056 27.541 6.71057 27.5207C6.71555 27.5005 6.72641 27.4822 6.74179 27.4681C6.75716 27.454 6.77636 27.4448 6.79696 27.4417C6.81755 27.4385 6.83863 27.4415 6.85753 27.4503C6.87013 27.4561 6.88145 27.4644 6.89083 27.4747C6.90022 27.485 6.90749 27.497 6.91221 27.51C6.91694 27.5231 6.91904 27.537 6.91839 27.5509C6.91774 27.5647 6.91435 27.5784 6.90842 27.5909Z" fill="white"/>
<path d="M2.81712 29.5268C3.02441 30.5447 5.28606 31.6422 5.4406 31.6376C5.59514 31.633 7.09613 27.9175 7.09613 27.9175C7.09613 27.9175 5.26663 27.316 4.44303 26.2463C4.44303 26.2463 2.75235 29.2075 2.81712 29.5268Z" fill="#455A64"/>
<path d="M20.2737 37.9618H11.5205C10.9874 35.9259 10.4979 34.1297 10.1861 32.9952C9.98987 32.2817 9.86401 31.8292 9.83995 31.7441C9.83866 31.739 9.83712 31.7341 9.83533 31.7292H18.9384L19.216 33.0054C19.3261 33.5217 19.4659 34.1732 19.6269 34.9181C19.6398 34.9829 19.6546 35.0486 19.6685 35.1171C19.8518 35.9703 20.0581 36.9373 20.2737 37.9618Z" fill="#455A64"/>
<path d="M12.8484 37.9617H12.6837C12.2358 36.3115 11.7987 34.6581 11.3724 33.0016L11.3373 32.8619C11.3289 32.824 11.3854 32.8064 11.3965 32.8443C11.4122 32.8971 11.4279 32.9489 11.4428 33.0016C11.9258 34.6507 12.3904 36.3053 12.8484 37.9617Z" fill="#263238"/>
<path d="M18.2295 31.744C18.1581 32.1766 18.0542 32.6032 17.9186 33.0202C17.8168 33.3514 17.6937 33.7096 17.5549 34.0788C17.5253 34.163 17.492 34.2444 17.4624 34.3277C17.0209 35.4521 16.4444 36.5977 15.8485 37.1418H15.8439C15.774 37.2087 15.6977 37.2685 15.6162 37.3204L15.1091 37.6341C15.1096 37.6366 15.1096 37.6391 15.1091 37.6416C15.1091 37.6721 15.086 37.7822 15.0573 37.9599H6.51314C6.29475 35.9814 6.75004 34.1306 7.14703 32.9702C7.28597 32.5507 7.45165 32.1405 7.64304 31.7422L18.2295 31.744Z" fill="#455A64"/>
<path d="M17.2131 36.6597C16.6762 36.9546 16.1232 37.219 15.5566 37.4519C15.4058 37.5166 15.255 37.5805 15.1014 37.6425C15.0921 37.6425 15.0828 37.6508 15.0736 37.6536C14.9416 37.7085 14.8092 37.7612 14.6766 37.8118C14.547 37.8618 14.4184 37.9136 14.287 37.9617H13.9983C14.1972 37.8618 14.4055 37.7767 14.6081 37.6841C14.8894 37.5607 15.1717 37.4374 15.4549 37.314C15.5835 37.2584 15.7121 37.202 15.8398 37.1446H15.8444C16.2859 36.9484 16.7254 36.7523 17.1798 36.5894C17.2251 36.5672 17.2547 36.6357 17.2131 36.6597Z" fill="#263238"/>
<path d="M15.1054 37.649C15.1054 37.7156 15.0999 37.8258 15.0869 37.9618H14.9944C15.024 37.8341 15.0508 37.7295 15.0767 37.6536C15.0765 37.6509 15.0765 37.6481 15.0767 37.6453C15.0814 37.6333 15.098 37.6323 15.1017 37.6453C15.1017 37.6453 15.1054 37.6462 15.1054 37.649Z" fill="#263238"/>
<path d="M8.46947 32.2761C8.35379 32.5074 8.24922 32.7388 8.15206 32.9812C7.56273 34.4303 7.34023 36.0025 7.50429 37.5582C7.52002 37.6933 7.53945 37.8275 7.55981 37.9617H7.41175C7.35331 37.5709 7.31931 37.1768 7.30995 36.7818C7.2794 35.4752 7.53393 34.1776 8.05582 32.9794C8.16501 32.7305 8.28624 32.4861 8.41857 32.2483C8.42039 32.245 8.42286 32.242 8.42582 32.2396C8.42878 32.2373 8.43219 32.2355 8.43584 32.2344C8.43949 32.2333 8.44332 32.233 8.44711 32.2334C8.45089 32.2338 8.45456 32.2349 8.4579 32.2368C8.46124 32.2386 8.46419 32.241 8.46658 32.244C8.46897 32.247 8.47076 32.2504 8.47183 32.254C8.4729 32.2577 8.47325 32.2615 8.47284 32.2653C8.47244 32.2691 8.47129 32.2727 8.46947 32.2761Z" fill="#263238"/>
<path d="M14.8898 35.267C14.8982 34.9375 14.9213 34.609 14.938 34.2805C14.9759 33.505 15.0064 32.7249 15.0786 31.9522C15.0786 31.9458 15.0812 31.9397 15.0857 31.9352C15.0902 31.9307 15.0963 31.9282 15.1027 31.9282C15.1091 31.9282 15.1152 31.9307 15.1197 31.9352C15.1242 31.9397 15.1267 31.9458 15.1267 31.9522C15.136 32.5519 15.1129 33.1552 15.1008 33.754C15.0943 34.0538 15.086 34.3545 15.0777 34.6544C15.0615 34.9407 15.0596 35.2276 15.0721 35.514C15.0879 35.7306 15.1351 36.1507 15.4173 36.1766C15.6838 36.2016 15.8939 35.9147 15.9605 35.7047C16.1289 35.1698 16.1891 34.5942 16.2437 34.039C16.2761 33.7105 16.314 32.3733 16.2964 32.0383C16.2964 32.017 16.3279 32.0179 16.3297 32.0383C16.3483 32.377 16.3945 32.7138 16.4056 33.0562C16.4167 33.3986 16.4177 33.7336 16.3964 34.0741C16.3751 34.398 16.3483 34.7219 16.2992 35.0449C16.2663 35.3385 16.1963 35.6267 16.091 35.9027C15.9929 36.1304 15.8245 36.3395 15.5691 36.3895C15.5385 36.3947 15.5076 36.3978 15.4765 36.3987C15.4765 36.4681 15.4636 36.5385 15.459 36.6069C15.4515 36.7161 15.4377 36.8235 15.4229 36.9317C15.4079 37.038 15.386 37.1431 15.3572 37.2464C15.3339 37.3509 15.2966 37.4518 15.2461 37.5462C15.2442 37.5491 15.2414 37.5514 15.2381 37.5526C15.2348 37.5539 15.2312 37.554 15.2278 37.5531C15.2244 37.5522 15.2214 37.5502 15.2192 37.5475C15.217 37.5447 15.2158 37.5414 15.2156 37.5379C15.2131 37.4339 15.2218 37.33 15.2415 37.2279C15.2563 37.1224 15.2711 37.015 15.2924 36.9114C15.3137 36.8077 15.3331 36.705 15.3544 36.6023C15.3683 36.5338 15.3775 36.4626 15.3905 36.3932C15.308 36.3787 15.2305 36.3439 15.1647 36.2921C15.099 36.2403 15.0472 36.1729 15.0138 36.0961C14.8926 35.8398 14.8834 35.5409 14.8898 35.267Z" fill="#263238"/>
<path d="M14.7339 20.3885C15.8378 21.772 20.1668 26.6812 22.5728 27.1393C24.1932 27.4493 29.3985 24.7999 30.5386 23.8403C31.0013 23.4479 28.3982 19.564 27.7624 19.7204C27.0739 19.8898 23.328 22.38 22.8412 22.3513C22.3544 22.3226 18.5205 20.1674 16.195 19.2133C14.7977 18.6359 14.112 19.6103 14.7339 20.3885Z" fill="#AD6359"/>
<path d="M29.108 24.7657C30.1093 24.3798 33.1455 22.2505 33.6499 21.6971C34.1542 21.1437 35.4905 19.4493 35.1055 19.0199C34.7205 18.5905 34.2912 19.056 34.2912 19.056C34.2912 19.056 34.7973 18.1815 34.3161 17.853C33.9321 17.5911 33.2908 18.2139 33.2908 18.2139C33.2908 18.2139 33.7951 17.2265 33.276 16.9628C32.8031 16.7222 32.2821 17.568 32.2821 17.568C32.2821 17.568 32.6199 16.699 32.1202 16.5556C31.5187 16.3816 30.9329 17.8854 30.3305 18.4545C30.1935 18.5831 26.1523 20.5662 26.1523 20.5662L29.108 24.7657Z" fill="#AD6359"/>
<path d="M32.2597 17.5245C31.7044 18.6063 31.4453 19.0375 30.5014 19.7297C30.4829 19.7427 30.5014 19.7732 30.5199 19.7612C31.5027 19.1671 31.8488 18.6775 32.3115 17.5402C32.3365 17.4875 32.2856 17.4745 32.2597 17.5245Z" fill="#263238"/>
<path d="M33.2792 18.2139C32.7286 19.3244 32.3075 19.7417 31.3756 20.5385C31.3618 20.5496 31.3756 20.5737 31.3941 20.5635C32.3741 19.8574 32.9146 19.4031 33.319 18.2232C33.3375 18.1704 33.3041 18.164 33.2792 18.2139Z" fill="#263238"/>
<path d="M34.2439 19.0958C33.6332 20.1304 33.2066 20.6393 32.2016 21.2964C32.1964 21.2993 32.1927 21.3042 32.1911 21.3099C32.1895 21.3156 32.1903 21.3217 32.1933 21.3269C32.1962 21.3321 32.2011 21.3358 32.2068 21.3374C32.2125 21.3389 32.2186 21.3382 32.2238 21.3352C33.313 20.7643 33.8516 20.1322 34.2735 19.1143C34.3022 19.0486 34.2819 19.0282 34.2439 19.0958Z" fill="#263238"/>
<path d="M38.2769 22.1505C35.6201 22.926 33.0022 23.7024 30.4574 24.4779C28.9333 21.0539 28.7084 17.63 27.6646 14.206C30.325 13.4296 32.9393 12.6541 35.4943 11.8777C37.0156 15.3008 37.2359 18.7256 38.2769 22.1505Z" fill="white"/>
<path d="M38.2757 22.1505C36.9512 22.5441 35.639 22.9371 34.3391 23.3294C33.0392 23.7218 31.7489 24.1139 30.4682 24.5056L30.4423 24.5139L30.4293 24.4862C28.8987 21.0622 28.6711 17.6383 27.6189 14.2143C27.6143 14.1995 27.6106 14.1847 27.606 14.1699L27.6495 14.157C30.3099 13.3852 32.9242 12.6134 35.4792 11.8435L35.5097 11.8342L35.5236 11.8657C36.2824 13.5823 36.7146 15.2989 37.0875 17.0155C37.4604 18.7321 37.763 20.4394 38.2757 22.1505ZM38.2757 22.1505C37.7473 20.4376 37.4234 18.7265 37.0403 17.0109C36.6572 15.2952 36.2241 13.5934 35.4672 11.8851L35.5106 11.9073C32.9593 12.6874 30.3414 13.4685 27.6809 14.2486L27.7115 14.1912C28.7507 17.6151 28.97 21.0437 30.4876 24.4695L30.4497 24.4501C31.723 24.0663 33.0121 23.6826 34.3169 23.2989C35.6217 22.9152 36.9413 22.5324 38.2757 22.1505Z" fill="#263238"/>
<path d="M28.923 15.6969C30.424 15.265 31.916 14.8332 33.3991 14.4013C33.425 14.4892 33.4509 14.5771 33.4759 14.665C31.9897 15.0969 30.4934 15.5287 28.9868 15.9606C28.9655 15.8764 28.9443 15.7894 28.923 15.6969Z" fill="#DBDBDB"/>
<path d="M29.082 16.3668C30.5904 15.935 32.092 15.5031 33.5868 15.0713L33.6562 15.335C32.1596 15.7669 30.6549 16.1987 29.1422 16.6306C29.1227 16.5427 29.1024 16.4547 29.082 16.3668Z" fill="#DBDBDB"/>
<path d="M29.2327 17.0331C30.7466 16.6012 32.2553 16.1694 33.7588 15.7375C33.78 15.8301 33.8022 15.9134 33.8226 16.0013C32.3179 16.4331 30.8064 16.865 29.2882 17.2968C29.2715 17.2089 29.2521 17.121 29.2327 17.0331Z" fill="#DBDBDB"/>
<path d="M29.375 17.6984C31.5959 17.0667 33.8101 16.4347 36.0175 15.8023L36.0813 16.067C33.8752 16.6981 31.6533 17.3301 29.4314 17.9622C29.412 17.8743 29.3935 17.7863 29.375 17.6984Z" fill="#DBDBDB"/>
<path d="M29.5201 18.3648C31.7411 17.7324 33.9605 17.1004 36.1783 16.4686C36.1987 16.5565 36.219 16.6445 36.2385 16.7324C34.0231 17.3647 31.8022 17.9968 29.5757 18.6285C29.5544 18.5406 29.5359 18.4527 29.5201 18.3648Z" fill="#DBDBDB"/>
<path d="M29.6595 19.0283L36.3224 17.1331C36.3418 17.2256 36.3612 17.3089 36.3797 17.3968C34.1588 18.0288 31.9379 18.66 29.7169 19.292C29.6975 19.2059 29.679 19.1208 29.6595 19.0283Z" fill="#DBDBDB"/>
<path d="M29.8075 19.6964C32.0216 19.064 34.2426 18.432 36.4703 17.8002C36.4897 17.8928 36.5082 17.9761 36.5268 18.064C34.3058 18.6957 32.0867 19.3277 29.8695 19.9601C29.8473 19.8722 29.8269 19.7843 29.8075 19.6964Z" fill="#DBDBDB"/>
<path d="M29.9609 20.3617C32.1661 19.7297 34.3871 19.0985 36.6089 18.4665C36.6284 18.5544 36.6469 18.6423 36.6654 18.7302C34.4445 19.3626 32.2312 19.9943 30.0257 20.6254C30.0035 20.5375 29.9822 20.4496 29.9609 20.3617Z" fill="#DBDBDB"/>
<path d="M30.1283 21.028C32.3215 20.3957 34.5298 19.7636 36.7532 19.1319C36.7726 19.2198 36.7911 19.3077 36.8105 19.3956C34.5933 20.028 32.3893 20.66 30.1986 21.2918C30.1746 21.2038 30.1514 21.1159 30.1283 21.028Z" fill="#DBDBDB"/>
<path d="M30.3097 21.6934C32.4862 21.0623 34.6834 20.4306 36.9012 19.7982C36.9216 19.8908 36.941 19.974 36.9623 20.062C34.7525 20.694 32.5556 21.326 30.3865 21.9581C30.3606 21.8692 30.3347 21.7813 30.3097 21.6934Z" fill="#DBDBDB"/>
<path d="M30.5078 22.3597C32.6671 21.728 34.8501 21.0959 37.0568 20.4636C37.0781 20.5561 37.0994 20.6394 37.1216 20.7273C34.9229 21.3596 32.7466 21.9917 30.5929 22.6234C30.5643 22.5355 30.5374 22.4522 30.5078 22.3597Z" fill="#DBDBDB"/>
<path d="M30.7281 23.0259C32.864 22.3942 35.0294 21.7622 37.2244 21.1298C37.2475 21.2177 37.2707 21.3056 37.2947 21.3936C35.1108 22.0253 32.9534 22.6573 30.8225 23.2897L30.7281 23.0259Z" fill="#DBDBDB"/>
<path d="M34.1628 15.7801C34.0638 15.061 33.9426 14.342 33.7806 13.623C34.2868 14.1384 34.7708 14.6539 35.2418 15.1693L35.103 15.2961C34.7736 14.9333 34.4377 14.5706 34.0916 14.2078C34.1924 14.7214 34.2766 15.2341 34.3461 15.7477L34.1628 15.7801Z" fill="#938C8C"/>
<path d="M34.0303 15.4063L33.923 15.2592C34.2524 15.0124 34.5788 14.7656 34.902 14.5189L35.0131 14.666C34.6892 14.914 34.3616 15.1608 34.0303 15.4063Z" fill="#938C8C"/>
<path d="M33.7423 13.3408C33.5901 13.4535 33.4551 13.5879 33.3416 13.7396C33.118 14.047 33.001 14.4191 33.0085 14.7992C33.0101 14.9835 33.0504 15.1654 33.127 15.3331C33.2057 15.4949 33.3202 15.6367 33.4617 15.7478C33.6033 15.8589 33.7682 15.9364 33.9441 15.9744C34.2976 16.0438 34.6761 15.9171 34.9925 15.7079C35.3166 15.5143 35.5622 15.213 35.6866 14.8566C35.745 14.6817 35.7632 14.496 35.7398 14.3132C35.7164 14.1304 35.652 13.9552 35.5515 13.8007C35.4407 13.648 35.2976 13.5216 35.1323 13.4305C34.9672 13.3351 34.7835 13.276 34.5937 13.2575C34.4051 13.2384 34.2148 13.2647 34.0385 13.3343C33.8635 13.4064 33.7023 13.5081 33.5619 13.635C33.6268 13.565 33.6967 13.4998 33.771 13.4398C33.8484 13.3822 33.9311 13.3323 34.0181 13.2908C34.1969 13.2039 34.3941 13.162 34.5928 13.1687C34.8016 13.1789 35.0057 13.2337 35.1915 13.3295C35.3773 13.4253 35.5405 13.5598 35.6699 13.7239C35.7939 13.8935 35.8738 14.0913 35.9022 14.2995C35.9315 14.505 35.9154 14.7144 35.855 14.913C35.7201 15.3119 35.4483 15.6503 35.0879 15.868C34.9136 15.9829 34.7225 16.07 34.5215 16.1262C34.3198 16.1835 34.1074 16.1927 33.9015 16.153C33.7005 16.1107 33.5134 16.0184 33.3574 15.8847C33.2029 15.7533 33.0791 15.5897 32.9946 15.4053C32.8463 15.0234 32.8486 14.5993 33.0011 14.219C33.1406 13.8502 33.4022 13.5402 33.7423 13.3408Z" fill="#938C8C"/>
<path d="M34.7556 14.0312C34.6495 13.8856 34.5412 13.7403 34.4308 13.5953L34.5761 13.488C34.6871 13.633 34.7963 13.7782 34.9037 13.9238L34.7556 14.0312Z" fill="#938C8C"/>
<path d="M34.5158 13.9858L34.4056 13.8341L34.8221 13.5342C34.86 13.5851 34.897 13.636 34.935 13.686L34.5158 13.9858Z" fill="#938C8C"/>
<path d="M26.1523 20.5672C26.1523 20.5672 27.136 19.5594 27.5784 19.0588C28.0207 18.5582 29.0775 16.9693 29.6512 17.0072C30.299 17.0498 29.8308 18.7238 29.047 19.6233C29.047 19.6233 30.088 21.2834 29.3764 22.1838C29.2219 22.3782 28.1003 22.9945 27.8217 22.9371L26.1523 20.5672Z" fill="#AD6359"/>
<path d="M29.0001 19.7436C29.4286 20.3747 29.7265 21.3362 29.4193 22.033C29.4179 22.037 29.4179 22.0413 29.4194 22.0453C29.4208 22.0492 29.4237 22.0525 29.4274 22.0545C29.4311 22.0565 29.4354 22.0571 29.4395 22.0563C29.4436 22.0554 29.4473 22.053 29.4499 22.0497C29.8802 21.3473 29.5424 20.2313 29.1297 19.6899C29.0492 19.5835 28.8891 19.5835 29.0001 19.7436Z" fill="#263238"/>
<path d="M26.152 20.5672L29.1077 24.7657C29.1164 25.0322 29.0433 25.2951 28.8982 25.5189C28.7531 25.7427 28.543 25.9168 28.2962 26.0177C27.4143 26.4036 23.7664 27.7195 22.3218 27.2318C20.8773 26.7441 16.7565 23.1925 14.9789 20.8318C13.2012 18.4711 15.8284 18.9403 16.329 19.1661C16.8296 19.3919 22.7068 22.1616 22.9159 22.157C23.1251 22.1523 24.4891 21.115 25.1369 20.793C25.7846 20.4709 26.152 20.5672 26.152 20.5672Z" fill="#938C8C"/>
<path opacity="0.1" d="M24.43 27.1995C23.5971 27.3522 22.8262 27.4021 22.3238 27.2319C20.8783 26.7433 16.7575 23.1935 14.9799 20.8309C14.867 20.682 14.7726 20.5432 14.693 20.4173L24.43 27.1995Z" fill="black"/>
<path d="M27.9586 25.6328C27.6874 25.3006 27.4616 24.9313 27.2257 24.576C26.9897 24.2206 26.763 23.8745 26.5344 23.521C26.0717 22.8094 25.5933 22.1024 25.1796 21.364C25.1783 21.3606 25.1782 21.3569 25.1794 21.3534C25.1805 21.35 25.1828 21.347 25.1858 21.3451C25.1889 21.3431 25.1925 21.3423 25.1961 21.3427C25.1997 21.3431 25.203 21.3447 25.2055 21.3473C25.7395 22.0201 26.205 22.7474 26.6732 23.4627C26.9083 23.8212 27.1381 24.1827 27.3626 24.5473C27.5907 24.8929 27.7992 25.251 27.9873 25.6198C27.9956 25.6374 27.9697 25.6467 27.9586 25.6328Z" fill="#263238"/>
<g opacity="0.1">
<path d="M27.013 26.5027L26.6789 26.6165C26.6614 26.4939 26.6531 26.3702 26.6539 26.2463C26.6539 26.0122 26.6725 25.7836 26.6697 25.5606C26.6705 25.3375 26.6488 25.1149 26.6049 24.8962C26.5602 24.6818 26.4851 24.4749 26.3819 24.2817C26.3569 24.2336 26.3282 24.1892 26.3014 24.1429C26.2745 24.0967 26.244 24.0578 26.2135 24.0152C26.1478 23.931 26.0793 23.844 26.008 23.7589L25.5823 23.2416C25.438 23.0676 25.2955 22.8927 25.1548 22.7141C25.0142 22.5355 24.8772 22.3504 24.7504 22.1589C24.6188 21.9609 24.5052 21.7515 24.4108 21.5333C24.3784 21.4536 24.3506 21.372 24.3275 21.289C24.4469 21.2104 24.5644 21.1345 24.6755 21.0641C24.7121 21.164 24.7544 21.2616 24.8022 21.3566C24.9044 21.5436 25.0172 21.7247 25.14 21.8988C25.388 22.2598 25.649 22.6234 25.9109 22.9908C26.0413 23.1759 26.1755 23.361 26.2977 23.5525C26.3587 23.6497 26.4198 23.7478 26.4744 23.8542C26.5013 23.9079 26.5281 23.9606 26.5522 24.0198C26.5762 24.0791 26.5938 24.1327 26.6105 24.1901C26.7474 24.6454 26.7678 25.1044 26.8205 25.5532C26.8562 25.8748 26.9207 26.1926 27.013 26.5027Z" fill="black"/>
<path d="M25.844 26.8645C25.7515 26.8904 25.6645 26.9154 25.5729 26.9395C25.4618 26.5563 25.4554 26.1788 25.447 25.8059V25.2284C25.447 25.1359 25.447 25.0387 25.4396 24.9452C25.4376 24.8546 25.4286 24.7643 25.4128 24.675C25.4095 24.6548 25.4042 24.635 25.3971 24.6158L25.3739 24.5529L25.3462 24.4918C25.336 24.4714 25.324 24.452 25.3138 24.4317C25.2668 24.3519 25.2109 24.2777 25.1472 24.2105C25.0142 24.0753 24.8632 23.9592 24.6984 23.8653C24.616 23.8153 24.5309 23.7728 24.4448 23.7274L24.1848 23.5951C23.9987 23.5084 23.8307 23.3872 23.6897 23.2379C23.6548 23.1961 23.6238 23.1512 23.5972 23.1037C23.5833 23.0797 23.5713 23.0537 23.5592 23.0288L23.5305 22.9547C23.4972 22.8571 23.4721 22.7568 23.4556 22.6549C23.4241 22.4579 23.4124 22.2583 23.4204 22.059C23.4204 22.0007 23.426 21.9424 23.4306 21.8841L23.6157 21.7619C23.6157 21.8609 23.6157 21.959 23.624 22.0571C23.6316 22.2435 23.6526 22.429 23.6869 22.6123C23.7049 22.7003 23.729 22.7869 23.7591 22.8714L23.7832 22.9325C23.7924 22.9501 23.7989 22.9686 23.8091 22.9871C23.8284 23.0235 23.8504 23.0585 23.8748 23.0917C23.9879 23.2341 24.1199 23.3605 24.2672 23.4674C24.418 23.5831 24.5818 23.6876 24.7437 23.7941C24.9111 23.8959 25.0704 24.0103 25.2203 24.1365C25.2972 24.202 25.3676 24.2748 25.4304 24.3539C25.462 24.3945 25.4913 24.4369 25.5183 24.4807L25.5562 24.5483C25.5687 24.5731 25.5796 24.5988 25.5886 24.6251C25.6208 24.7226 25.6434 24.823 25.6562 24.9249C25.6719 25.023 25.6802 25.1211 25.6886 25.2182C25.7043 25.4126 25.7135 25.605 25.7265 25.7957C25.7395 25.9863 25.7533 26.1769 25.7718 26.3639C25.7846 26.5322 25.8087 26.6994 25.844 26.8645Z" fill="black"/>
</g>
<path d="M6.70567 33.581C6.71492 33.593 19.3437 33.0026 19.4261 32.9249C19.464 32.8888 19.6278 32.1697 19.4344 31.1713C18.8542 28.1776 17.1154 22.0626 15.582 19.4752C15.1989 18.8275 13.4721 17.8752 12.2191 19.0986C9.67895 21.5787 7.68473 27.8898 6.89907 31.3563C6.51411 33.0507 6.65385 33.5088 6.70567 33.581Z" fill="#938C8C"/>
<g opacity="0.1">
<path d="M19.3781 30.8852C19.3402 30.8852 19.3022 30.8852 19.2652 30.8908C18.9062 30.9251 18.5496 30.9811 18.1973 31.0583C17.4709 31.2063 16.7315 31.3729 15.9866 31.5386C15.6164 31.6209 15.2407 31.7079 14.8567 31.7708C14.6642 31.8014 14.4708 31.8319 14.27 31.8467C14.1682 31.8532 14.0682 31.8606 13.959 31.8587C13.8498 31.8569 13.7573 31.8486 13.6564 31.8365C12.856 31.7505 12.1277 31.4793 11.392 31.2656C10.6563 31.0518 9.89749 30.9056 9.22196 30.9084C9.05539 30.9084 8.87586 30.9223 8.69541 30.9389C8.51496 30.9556 8.33451 30.9824 8.15221 31.0092C7.78853 31.0675 7.42115 31.1406 7.05469 31.2202L6.92236 31.2498C6.96678 31.0555 7.0149 30.8519 7.06765 30.6419C7.38527 30.5369 7.70841 30.4495 8.03561 30.38C8.22809 30.338 8.42365 30.3047 8.62231 30.28C8.72225 30.268 8.82219 30.2578 8.92306 30.2523C9.02782 30.2453 9.13293 30.2453 9.23769 30.2523C9.64656 30.28 10.0471 30.3809 10.4203 30.5502C10.7849 30.702 11.1255 30.8815 11.4771 31.0268C11.8244 31.1755 12.186 31.2883 12.5561 31.3637C12.9201 31.4355 13.2925 31.4551 13.662 31.422C13.7545 31.4155 13.8471 31.4016 13.9313 31.3896C14.0155 31.3775 14.1006 31.3553 14.1876 31.335C14.3634 31.2878 14.543 31.2424 14.7216 31.1851L15.8107 30.8621C16.1753 30.752 16.5436 30.6446 16.9147 30.5438C17.2858 30.4429 17.6634 30.3531 18.0493 30.2819C18.4359 30.2085 18.8282 30.1695 19.2217 30.1653C19.2791 30.417 19.3309 30.6585 19.3781 30.8852Z" fill="black"/>
<path d="M18.8269 28.5375C18.5697 28.4462 18.307 28.3714 18.0403 28.3136C17.8914 28.2827 17.7405 28.2629 17.5887 28.2544H17.4786C17.4444 28.2544 17.411 28.2544 17.3768 28.259C17.3071 28.2657 17.2378 28.2769 17.1695 28.2923C16.8731 28.3749 16.5892 28.4972 16.3256 28.656C16.0479 28.8152 15.7703 29.0002 15.502 29.1844C15.2325 29.3776 14.9488 29.5502 14.6534 29.7007C14.5006 29.7771 14.341 29.839 14.1768 29.8858C14.0927 29.9084 14.0075 29.9263 13.9214 29.9395L13.7881 29.9478C13.741 29.9511 13.6937 29.9511 13.6466 29.9478C13.4733 29.934 13.3019 29.903 13.1348 29.8553C12.9719 29.8146 12.8137 29.7628 12.6573 29.7119C12.3436 29.6082 12.0373 29.4962 11.7319 29.3898C11.4265 29.2834 11.1202 29.1798 10.8167 29.0854C10.5217 28.9886 10.2198 28.9144 9.91353 28.8633C9.77046 28.8417 9.62523 28.8386 9.48137 28.854C9.32993 28.8712 9.17993 28.8994 9.03256 28.9382C8.72593 29.02 8.42487 29.1214 8.13123 29.2418C7.86656 29.3491 7.60314 29.4639 7.34094 29.586C7.36963 29.4796 7.39924 29.3722 7.43348 29.263C7.61856 29.1501 7.80641 29.0434 7.99704 28.9429C8.2946 28.7851 8.604 28.6509 8.92243 28.5412C9.08748 28.4865 9.25637 28.4441 9.4277 28.4145C9.60702 28.3832 9.78974 28.3764 9.9709 28.3941C10.6742 28.4644 11.2933 28.7124 11.9022 28.9558L12.8054 29.326C12.9544 29.388 13.1043 29.4463 13.2523 29.5027C13.3947 29.5588 13.541 29.6042 13.69 29.6388C13.7242 29.6459 13.7589 29.6509 13.7937 29.6536L13.9066 29.6582H14.0204C14.0593 29.6582 14.0972 29.6508 14.1352 29.6471C14.2904 29.6267 14.4428 29.5888 14.5895 29.5342C14.8871 29.4151 15.1673 29.2563 15.4224 29.0622C15.5529 28.9697 15.6769 28.8614 15.8036 28.7587L16.1812 28.4394C16.4375 28.2303 16.7133 28.0175 17.0649 27.9046C17.1534 27.8752 17.2445 27.8547 17.337 27.8435C17.3842 27.837 17.4295 27.8361 17.4795 27.8333H17.6137C17.7878 27.8456 17.9606 27.8729 18.1301 27.9147C18.3298 27.9623 18.5259 28.0241 18.7168 28.0998L18.8269 28.5375Z" fill="black"/>
</g>
<path d="M10.8937 19.3984C6.77113 21.1464 3.5702 22.6687 4.03475 24.253C4.21983 24.8748 5.29328 26.5526 6.67581 26.5507C7.76222 26.5507 9.69906 24.8073 11.9061 21.7581C13.049 20.1803 13.4969 18.2935 10.8937 19.3984Z" fill="#938C8C"/>
<path d="M11.6236 22.5947C11.4477 22.74 11.2728 22.889 11.1016 23.0408L11.2118 22.9131C11.507 22.5633 11.7985 22.2107 12.09 21.8581C12.0955 21.8507 12.0835 21.8414 12.077 21.8489C11.5218 22.4393 10.9665 23.0241 10.4048 23.6126C9.84311 24.2012 8.37822 25.692 8.02194 25.9844C8.01454 25.9909 8.02194 26.0029 8.0312 25.9974C8.35323 25.7457 9.25734 24.9887 9.54606 24.7065C9.98223 24.2795 10.4014 23.8391 10.8037 23.385C11.0972 23.1431 11.3774 22.8854 11.643 22.6132C11.6532 22.603 11.6356 22.5845 11.6236 22.5947Z" fill="#263238"/>
<path d="M5.50913 25.592C3.70647 24.8517 2.53862 19.3836 2.09629 15.7033C2.01208 15.0028 7.54961 14.3282 7.55609 15.0824C7.5783 19.3873 7.48391 26.4008 5.50913 25.592Z" fill="#AD6359"/>
<path d="M1.40083 12.8346C1.43322 14.0089 2.43912 16.9489 2.90274 17.4292C3.36636 17.9095 6.88192 16.2262 7.07532 15.5784C7.26873 14.9306 7.4353 11.0791 6.66075 10.1649C5.8862 9.25058 1.36659 11.6186 1.40083 12.8346Z" fill="#AD6359"/>
<path d="M7.56888 11.8102C7.26165 12.3516 6.79988 11.6797 6.79988 11.6797C6.79988 11.6797 7.23204 12.8069 6.69994 13.2427C6.18542 13.661 5.65517 12.83 5.61723 12.7708C5.63944 12.8309 6.0096 13.8812 5.43215 14.2597C4.8288 14.6567 4.44014 13.7313 4.41423 13.6712C4.41423 13.735 4.44846 14.5697 3.94135 14.7604C3.07056 15.0879 2.9336 12.954 2.34783 12.4802C2.34783 12.4802 1.43262 12.9059 1.40023 12.9262C1.40023 12.9262 1.22903 11.3753 1.91104 10.6202C2.00844 10.5087 2.14109 10.4339 2.2869 10.4083C2.43271 10.3827 2.58289 10.4078 2.71243 10.4795C2.71243 10.4795 2.58565 9.83172 3.03262 9.51616C3.26211 9.35422 3.72573 9.57909 3.72573 9.57909C3.72573 9.57909 3.64523 9.05624 4.0598 8.79991C4.39109 8.59448 4.80011 8.85173 4.80011 8.85173C4.80011 8.85173 4.95558 8.31408 5.36183 8.21321C6.18265 8.00685 8.22498 10.6479 7.56888 11.8102Z" fill="#AD6359"/>
<path d="M4.87282 8.87953C4.87183 8.87782 4.87142 8.87583 4.87164 8.87387C4.87186 8.87191 4.87271 8.87007 4.87405 8.86862C4.8754 8.86717 4.87717 8.86619 4.87911 8.86582C4.88106 8.86546 4.88306 8.86572 4.88485 8.86658C5.76859 9.5708 6.52371 10.6156 6.82817 11.7103C6.83834 11.7464 6.78375 11.7788 6.76524 11.7408C6.23592 10.672 5.68068 9.76513 4.87282 8.87953Z" fill="#263238"/>
<path d="M3.71877 9.55871C3.71044 9.54946 3.72617 9.53465 3.73728 9.54298C4.64416 10.274 5.46221 11.4743 5.66394 12.7818C5.67134 12.8263 5.63248 12.8744 5.62045 12.8226C5.42056 11.962 4.44983 10.3527 3.71877 9.55871Z" fill="#263238"/>
<path d="M4.39649 13.7646C4.15404 12.5218 3.53773 11.4817 2.75115 10.5045C2.74097 10.4915 2.7604 10.4786 2.77151 10.4869C3.28695 10.857 3.72281 11.5354 4.01801 12.0897C4.30208 12.5978 4.44849 13.1714 4.44276 13.7535C4.44276 13.7794 4.40112 13.7915 4.39649 13.7646Z" fill="#263238"/>
<path d="M6.79861 11.6769C6.86147 11.9005 6.9036 12.1295 6.92446 12.3608C6.95299 12.5851 6.92104 12.8129 6.83192 13.0206C6.78694 13.114 6.70873 13.1873 6.61261 13.226C6.51529 13.2641 6.40981 13.2765 6.3063 13.2621C6.2043 13.2397 6.1082 13.196 6.02431 13.1338C5.94042 13.0716 5.87064 12.9923 5.81955 12.9012L5.55118 12.4672L5.65298 12.9679C5.69959 13.1899 5.7099 13.418 5.68352 13.6434C5.65483 13.8627 5.56784 14.0737 5.40035 14.1847C5.32286 14.2442 5.22735 14.2754 5.1297 14.273C5.03204 14.2707 4.93814 14.2349 4.86362 14.1718C4.69967 14.0268 4.57544 13.8424 4.50272 13.636L4.28155 13.0734L4.30561 13.6749C4.31315 13.8423 4.29884 14.0099 4.26304 14.1736C4.23543 14.3301 4.16237 14.4749 4.05298 14.5901C4.0014 14.6397 3.93701 14.6739 3.86705 14.689C3.79709 14.704 3.72432 14.6992 3.65691 14.6752C3.51447 14.5989 3.39668 14.4837 3.31729 14.343C3.14296 14.0406 2.99259 13.725 2.86755 13.3991C2.79815 13.2362 2.72782 13.0734 2.65009 12.9133C2.5807 12.7482 2.47727 12.5997 2.34656 12.4774C2.46122 12.6111 2.5489 12.7657 2.60474 12.9327C2.66952 13.0965 2.72689 13.264 2.78427 13.4315C2.89117 13.7733 3.03029 14.1043 3.19977 14.4198C3.28883 14.5924 3.4261 14.7355 3.59491 14.8316C3.69245 14.8735 3.8001 14.886 3.90465 14.8676C4.00921 14.8492 4.10611 14.8007 4.18346 14.728C4.325 14.5897 4.42172 14.412 4.46107 14.2181C4.50365 14.0362 4.52231 13.8495 4.5166 13.6628L4.32042 13.7017C4.40257 13.9474 4.54775 14.1673 4.74147 14.3393C4.85139 14.4319 4.99013 14.4832 5.13383 14.4846C5.27483 14.4811 5.41152 14.4353 5.5262 14.3532C5.76032 14.1903 5.85656 13.9136 5.88432 13.6684C5.91022 13.4208 5.8949 13.1706 5.83898 12.9281L5.67149 12.9956C5.73924 13.1061 5.83033 13.2005 5.93839 13.2721C6.04645 13.3437 6.16886 13.3909 6.29705 13.4102C6.426 13.4219 6.55578 13.3999 6.67368 13.3463C6.79402 13.2897 6.88946 13.1909 6.94205 13.0687C7.04384 12.8328 7.02256 12.5847 6.99017 12.3534C6.95185 12.1215 6.88759 11.8945 6.79861 11.6769Z" fill="#263238"/>
<path d="M7.18169 15.8264C7.18169 15.8264 10.0374 10.598 7.36677 10.5286C6.719 10.5119 4.14549 11.5558 4.33149 12.0768C4.57209 12.7504 5.71958 12.5441 6.42657 12.2998C6.42657 12.2998 5.58169 13.7878 6.44231 14.6854C6.76296 15.0122 7.01443 15.4003 7.18169 15.8264Z" fill="#AD6359"/>
<path d="M7.55389 10.5258C7.29955 10.5159 7.04514 10.5433 6.79877 10.6072C6.55063 10.6642 6.30668 10.7381 6.06864 10.8284C5.58817 11.0014 5.12371 11.2159 4.68055 11.4697C4.56341 11.5371 4.45627 11.6206 4.36222 11.7177C4.30863 11.7742 4.26818 11.8418 4.24377 11.9157C4.22996 11.9565 4.22338 11.9994 4.22433 12.0425C4.22551 12.0848 4.23332 12.1266 4.24747 12.1665C4.30045 12.3098 4.40239 12.4298 4.53526 12.5052C4.65892 12.5703 4.79292 12.6135 4.93133 12.6329C5.19357 12.6645 5.45928 12.651 5.71699 12.5931C5.96855 12.5412 6.21598 12.471 6.4573 12.383L6.35273 12.2544C6.26267 12.4278 6.18924 12.6094 6.13341 12.7967C6.07617 12.9817 6.03803 13.1721 6.01959 13.3649C6.00345 13.5584 6.01529 13.7532 6.05476 13.9433C6.09443 14.1312 6.16948 14.3099 6.27592 14.4698C6.19298 14.3008 6.13887 14.119 6.11583 13.9321C6.09568 13.7472 6.10066 13.5605 6.13064 13.3769C6.15875 13.1941 6.20526 13.0146 6.26945 12.8411C6.33235 12.6683 6.41103 12.5016 6.50449 12.3433L6.62202 12.1498L6.39993 12.2155C6.16445 12.2911 5.92426 12.3511 5.6809 12.3951C5.44432 12.4432 5.20153 12.4529 4.96187 12.4238C4.737 12.3895 4.50565 12.284 4.44273 12.0999C4.3724 11.9426 4.58616 11.7658 4.78512 11.6372C4.99438 11.5047 5.21062 11.3836 5.43289 11.2744C5.65591 11.1597 5.88078 11.0486 6.11028 10.9496C6.57853 10.7618 7.04955 10.5656 7.55389 10.5258Z" fill="#263238"/>
<path d="M7.77444 16.1457L2.01573 17.4042C2.01573 17.4042 1.63632 18.4962 1.97131 19.6298C2.60705 21.7804 4.50318 26.3972 6.03285 26.2926C7.6893 26.1769 8.09184 20.4062 8.06871 17.58C8.05205 16.6223 7.77444 16.1457 7.77444 16.1457Z" fill="#938C8C"/>
<g opacity="0.1">
<path d="M8.06048 18.3916C8.06048 18.5128 8.06048 18.6378 8.05215 18.7618C7.91334 18.8312 7.77453 18.8969 7.62462 18.9533C7.51635 18.9959 7.4053 19.0347 7.2924 19.0681C7.23503 19.0847 7.17766 19.1014 7.11936 19.1143C7.05836 19.1288 6.99656 19.1396 6.93428 19.1467C6.69299 19.1699 6.44949 19.1499 6.21525 19.0875C5.98853 19.0347 5.77199 18.9626 5.55267 18.9126C5.33614 18.8594 5.11476 18.8284 4.89194 18.8201C4.67365 18.8137 4.45556 18.8383 4.24417 18.8932C4.19235 18.9061 4.1396 18.9228 4.09055 18.9385C4.04151 18.9542 3.99801 18.9746 3.94619 18.995C3.84903 19.0394 3.74908 19.0875 3.64914 19.1347L3.04671 19.429C2.84498 19.528 2.64047 19.627 2.4341 19.7214C2.30918 19.7806 2.18147 19.8352 2.05192 19.888C2.02323 19.7954 1.99639 19.7094 1.97141 19.6251C1.95198 19.5613 1.93532 19.4974 1.92236 19.4336C2.23792 19.3096 2.55718 19.18 2.87737 19.0496C3.08743 18.9663 3.29564 18.8784 3.51404 18.8043C3.62323 18.7682 3.73243 18.7312 3.8481 18.7035C3.9064 18.6896 3.9647 18.6757 4.03318 18.6664C4.10166 18.6572 4.15163 18.6526 4.21085 18.6498C4.6865 18.622 5.13624 18.709 5.58598 18.7618C6.01728 18.822 6.45486 18.822 6.88616 18.7618C6.9787 18.7451 7.08604 18.7201 7.18969 18.6924C7.29333 18.6646 7.39605 18.6322 7.49969 18.5998C7.68014 18.5369 7.8717 18.4666 8.06048 18.3916Z" fill="black"/>
<path d="M8.02796 19.3984C8.02796 19.4651 8.02241 19.5317 8.01871 19.5992C7.94283 19.6631 7.86602 19.7251 7.78644 19.7843C7.62882 19.9046 7.4624 20.0129 7.28858 20.1082C7.19906 20.1557 7.10629 20.1969 7.01096 20.2313C6.90935 20.2665 6.80358 20.2882 6.69633 20.2961C6.27898 20.3229 5.89494 20.2387 5.51553 20.1563L4.95289 20.0268C4.86035 20.0055 4.76781 19.9861 4.67527 19.9676C4.58682 19.9488 4.49714 19.9364 4.40691 19.9305C4.38658 19.9291 4.36617 19.9291 4.34584 19.9305L4.27921 19.9389L4.21258 19.9518C4.1913 19.9518 4.16909 19.9639 4.14688 19.9694C4.05531 19.9979 3.96742 20.037 3.88499 20.086C3.72234 20.1837 3.57409 20.3037 3.44451 20.4423C3.37695 20.5108 3.31495 20.5839 3.2511 20.656L3.06602 20.8791C2.93866 21.0401 2.78159 21.1752 2.60333 21.277C2.58461 21.2874 2.56512 21.2964 2.54503 21.3038C2.51634 21.2289 2.48858 21.1548 2.46082 21.0808C2.4747 21.0752 2.4895 21.0706 2.50338 21.0641C2.66801 20.987 2.82147 20.888 2.9596 20.7699C3.10766 20.6496 3.2474 20.5154 3.38806 20.3821C3.52644 20.243 3.67524 20.1146 3.83317 19.9981C3.91454 19.9389 4.00129 19.8875 4.09228 19.8445C4.13947 19.8232 4.18482 19.8056 4.23664 19.789L4.3116 19.7677C4.33751 19.7621 4.36805 19.7566 4.39396 19.7538C4.49613 19.744 4.59901 19.744 4.70119 19.7538C4.8002 19.7621 4.89737 19.776 4.99361 19.7908C5.18609 19.8213 5.3758 19.8565 5.56458 19.8889C5.75335 19.9213 5.94121 19.9518 6.12721 19.9768C6.3085 20.0045 6.49164 20.0185 6.67504 20.0184C6.76079 20.0169 6.84599 20.0045 6.9286 19.9814C7.01494 19.9568 7.09938 19.9258 7.18123 19.8889C7.35221 19.8117 7.5179 19.7233 7.67724 19.6242C7.79569 19.5545 7.9126 19.4793 8.02796 19.3984Z" fill="black"/>
</g>
<path d="M7.7019 17.6957C4.85355 18.4952 2.79733 18.8663 2.39663 18.9283C2.39443 18.9283 2.39231 18.9274 2.39074 18.9259C2.38918 18.9243 2.38831 18.9222 2.38831 18.92C2.38831 18.9178 2.38918 18.9156 2.39074 18.9141C2.39231 18.9125 2.39443 18.9116 2.39663 18.9116C4.37604 18.3046 7.50757 17.6772 7.70005 17.6614C7.70398 17.6621 7.70756 17.6641 7.71021 17.6671C7.71286 17.6701 7.71442 17.6738 7.71464 17.6778C7.71485 17.6818 7.71371 17.6857 7.71139 17.689C7.70908 17.6922 7.70573 17.6946 7.7019 17.6957Z" fill="#263238"/>
<path d="M7.98348 21.1196C7.91593 21.6591 7.76232 22.5151 7.63831 23.0444C7.62998 23.0777 7.62166 23.1111 7.61425 23.1444C7.6494 23.3342 7.66706 23.5269 7.667 23.72C7.667 23.9458 7.64757 24.1688 7.62443 24.3927C7.62443 24.402 7.6087 24.4011 7.60963 24.3927C7.62443 24.1699 7.62258 23.9462 7.60407 23.7237C7.59389 23.5913 7.58279 23.4581 7.57168 23.3248C7.45046 23.8301 7.32275 24.3354 7.16544 24.8304C7.16544 24.8397 7.14878 24.8304 7.15156 24.8249C7.27001 24.2872 7.39679 23.7505 7.4958 23.2092C7.59482 22.6678 7.82154 21.3972 7.91593 20.8596C7.99089 20.433 8.00477 20.9503 7.98348 21.1196Z" fill="#263238"/>
<path d="M13.2329 18.8719C13.3004 19.069 14.3915 20.2859 15.3095 20.1527C15.6093 20.1082 15.4418 18.4657 15.4418 18.4657L15.4575 18.3417L15.6722 16.6038L13.2449 15.3758C13.2449 15.3758 13.2042 18.7877 13.2329 18.8719Z" fill="#AD6359"/>
<path d="M15.6703 16.6047L15.4538 18.3407L15.439 18.4657C15.439 18.4657 15.4686 18.7636 15.4806 19.1079C14.2054 19.044 13.5373 18.1557 13.2227 17.5283C13.2282 16.5427 13.2421 15.3758 13.2421 15.3758L15.6703 16.6047Z" fill="#263238"/>
<path d="M18.3785 13.6425C19.265 17.2867 17.182 18.2287 16.3954 18.4193C15.6819 18.5914 13.2306 19.0884 11.973 15.5552C10.7154 12.0221 12.1294 10.4582 13.7405 9.97699C15.3516 9.49579 17.4911 9.99735 18.3785 13.6425Z" fill="#AD6359"/>
<path d="M17.3299 13.747C17.2434 13.7483 17.1569 13.7449 17.0708 13.7369C16.9792 13.7463 16.8871 13.7251 16.8089 13.6767C16.7872 13.6566 16.7728 13.6299 16.7679 13.6008C16.7631 13.5716 16.768 13.5417 16.782 13.5157C16.8169 13.4682 16.864 13.4311 16.9182 13.4081C16.9724 13.3852 17.0319 13.3772 17.0902 13.3852C17.2108 13.3819 17.3283 13.4239 17.4196 13.5027C17.4394 13.5219 17.4531 13.5464 17.4592 13.5733C17.4653 13.6001 17.4635 13.6282 17.454 13.654C17.4445 13.6798 17.4277 13.7024 17.4057 13.7189C17.3837 13.7354 17.3573 13.7452 17.3299 13.747Z" fill="#263238"/>
<path d="M14.738 14.3023C14.82 14.2755 14.9006 14.2446 14.9795 14.2097C15.0688 14.1883 15.1485 14.1378 15.2062 14.0663C15.2203 14.0402 15.2252 14.0102 15.2202 13.981C15.2151 13.9518 15.2005 13.9251 15.1785 13.9053C15.1298 13.8722 15.0731 13.8528 15.0143 13.8491C14.9556 13.8453 14.8969 13.8574 14.8444 13.884C14.7295 13.9211 14.6326 13.9996 14.5723 14.1042C14.5609 14.1288 14.5567 14.1561 14.5602 14.183C14.5637 14.2099 14.5748 14.2352 14.5922 14.256C14.6095 14.2767 14.6325 14.2921 14.6583 14.3004C14.6842 14.3086 14.7118 14.3092 14.738 14.3023Z" fill="#263238"/>
<path d="M15.8361 16.8194C15.9036 16.8721 15.973 16.9471 16.0656 16.9452C16.1599 16.9335 16.2508 16.9019 16.3321 16.8527C16.3338 16.852 16.3356 16.8518 16.3374 16.8522C16.3392 16.8526 16.3408 16.8534 16.3421 16.8547C16.3434 16.856 16.3442 16.8576 16.3446 16.8594C16.345 16.8612 16.3448 16.863 16.3441 16.8647C16.3132 16.9185 16.2684 16.9629 16.2143 16.9932C16.1602 17.0235 16.0989 17.0386 16.0369 17.0368C15.9836 17.0292 15.9339 17.0058 15.894 16.9697C15.8541 16.9336 15.8259 16.8864 15.8129 16.8342C15.8074 16.8194 15.825 16.8073 15.8361 16.8194Z" fill="#263238"/>
<path d="M16.7553 16.2132C16.689 16.3802 16.581 16.5274 16.4416 16.6407C16.3633 16.699 16.2689 16.7313 16.1714 16.7333C15.9576 16.7388 15.9002 16.5575 15.8938 16.3909C15.8901 16.3021 15.8972 16.2133 15.915 16.1262C16.1787 16.244 16.4731 16.2745 16.7553 16.2132Z" fill="white"/>
<path d="M16.6282 16.4492C16.618 16.4631 16.6069 16.4788 16.5949 16.4927C16.5275 16.5006 16.4595 16.5006 16.3922 16.4927C16.4727 16.4779 16.5514 16.464 16.6282 16.4492Z" fill="#DBDBDB"/>
<path d="M16.176 16.4751C16.124 16.4756 16.0721 16.47 16.0215 16.4584C15.9772 16.447 15.9342 16.4315 15.8928 16.4122C15.8928 16.4066 15.8928 16.3992 15.8928 16.3937C15.8928 16.3881 15.8928 16.3752 15.8928 16.3659C15.9848 16.4082 16.0794 16.4447 16.176 16.4751Z" fill="#DBDBDB"/>
<path d="M16.7368 15.7339C16.7368 15.7339 16.8506 16.104 16.8802 16.2789C16.8802 16.2956 16.8414 16.3104 16.7822 16.3233C16.7822 16.3233 16.7775 16.3233 16.7748 16.3233C16.627 16.3763 16.4676 16.3877 16.3139 16.3562C16.1601 16.3247 16.018 16.2515 15.903 16.1447C15.8991 16.1418 15.8965 16.1374 15.8958 16.1325C15.8951 16.1277 15.8964 16.1227 15.8993 16.1188C15.9023 16.1149 15.9067 16.1123 15.9115 16.1116C15.9164 16.1109 15.9213 16.1122 15.9252 16.1151C16.1775 16.2324 16.4609 16.2649 16.7331 16.2077C16.7331 16.1568 16.5147 15.5784 16.5434 15.5784C16.6646 15.5784 16.8812 15.596 16.9617 15.6025C16.8923 15.3618 16.6628 14.6891 16.5379 14.2505C16.5304 14.2236 16.5721 14.207 16.5823 14.2319C16.8106 14.7157 17.0066 15.214 17.169 15.7237C17.181 15.7662 16.8127 15.7514 16.7368 15.7339Z" fill="#263238"/>
<path d="M14.9416 14.9843C14.9428 14.9189 14.9616 14.8549 14.9962 14.7993C15.0166 14.7702 15.0427 14.7456 15.0729 14.727C15.1032 14.7084 15.1369 14.6961 15.172 14.691C15.208 14.6867 15.2445 14.691 15.2786 14.7033C15.3126 14.7157 15.3433 14.7359 15.3682 14.7623C15.4112 14.809 15.4428 14.8651 15.4607 14.926C15.4703 14.9626 15.4778 14.9997 15.4829 15.0371C15.4939 15.1151 15.4869 15.1945 15.4626 15.2694C15.4584 15.2125 15.4478 15.1564 15.4311 15.1019C15.4169 15.0529 15.3993 15.005 15.3784 14.9584C15.333 14.8659 15.2645 14.7891 15.1859 14.8039C15.1072 14.8187 15.0508 14.889 15.0304 14.989C15.0132 15.0966 15.0063 15.2057 15.0101 15.3147C14.9625 15.2112 14.9391 15.0982 14.9416 14.9843Z" fill="#263238"/>
<path d="M17.4618 14.4938C17.4362 14.4345 17.3949 14.3834 17.3424 14.3458C17.3127 14.3264 17.2792 14.3133 17.2442 14.3074C17.2092 14.3015 17.1733 14.3029 17.1388 14.3115C17.1039 14.321 17.0717 14.3386 17.0448 14.3628C17.0179 14.3871 16.9972 14.4174 16.9843 14.4513C16.962 14.5102 16.954 14.5737 16.9612 14.6363C16.9654 14.6738 16.9725 14.711 16.9824 14.7474C17.0008 14.824 17.0373 14.8951 17.0889 14.9547C17.0708 14.9007 17.0593 14.8448 17.0546 14.7881C17.0505 14.737 17.0505 14.6856 17.0546 14.6345C17.0602 14.5299 17.0953 14.4355 17.174 14.4198C17.2527 14.4041 17.3313 14.4466 17.3887 14.5355C17.4452 14.6288 17.4926 14.7273 17.5303 14.8297C17.5346 14.7139 17.5111 14.5987 17.4618 14.4938Z" fill="#263238"/>
<path d="M11.6109 15.8819C12.726 15.8939 13.2275 14.5355 12.9064 13.4861C12.9064 13.4861 15.8825 13.7026 15.8834 11.3244C16.1098 11.6325 16.4085 11.8802 16.7532 12.0456C17.0979 12.211 17.478 12.2891 17.86 12.2729L18.2422 13.127C18.5402 13.0215 18.8113 12.1424 18.0303 11.5104C18.0303 11.5104 17.91 10.3323 16.9966 9.67439C16.7494 9.4847 16.4526 9.3705 16.142 9.34554C15.8314 9.32059 15.5202 9.38594 15.2458 9.53373C14.7098 9.19231 14.062 9.07284 13.4394 9.20059C12.3641 9.40418 11.9746 10.4221 11.9746 10.4221C11.9746 10.4221 10.5282 10.7923 10.3412 11.8417C10.2809 12.1409 10.2848 12.4496 10.3526 12.7472C10.4204 13.0449 10.5506 13.3248 10.7345 13.5684C10.7345 13.5684 10.3921 13.9987 10.6309 14.8742C10.7808 15.4322 11.2768 15.8819 11.6109 15.8819Z" fill="#263238"/>
<path d="M15.8038 11.1199C15.8376 11.3107 15.8513 11.5046 15.8445 11.6982C15.8432 11.8893 15.8183 12.0796 15.7705 12.2646C15.6792 12.6307 15.4532 12.949 15.1375 13.1557C14.8312 13.3788 14.4388 13.4333 14.065 13.4926C13.8734 13.4981 13.6809 13.5176 13.4875 13.512C13.2941 13.5065 13.1007 13.4916 12.9045 13.4879C13.0961 13.5222 13.2895 13.549 13.4838 13.5805C13.6782 13.612 13.8753 13.5925 14.0733 13.599C14.462 13.5601 14.871 13.5065 15.2125 13.2705C15.5524 13.0424 15.7896 12.6903 15.8732 12.2896C15.9489 11.9 15.9251 11.4977 15.8038 11.1199Z" fill="#263238"/>
<path d="M11.9754 10.4221C11.6004 10.4472 11.2346 10.5496 10.901 10.7228C10.5529 10.8944 10.2766 11.1835 10.1209 11.539C10.0556 11.72 10.0197 11.9102 10.0145 12.1026C10.0023 12.2934 10.023 12.485 10.0756 12.6689C10.1744 13.0411 10.41 13.3623 10.7354 13.5684C10.455 13.3316 10.2599 13.0095 10.1801 12.6513C10.102 12.3005 10.1264 11.9346 10.2505 11.5973C10.3145 11.4332 10.4087 11.2826 10.5281 11.1531C10.6548 11.0257 10.7969 10.9144 10.951 10.8218C11.2691 10.6351 11.6149 10.5002 11.9754 10.4221Z" fill="#263238"/>
<path d="M15.2483 9.53742C15.5208 9.41942 15.8104 9.34569 16.1061 9.31902C16.3944 9.29099 16.685 9.33752 16.9501 9.45413C17.2093 9.58168 17.4322 9.77267 17.5979 10.0094C17.7689 10.2523 17.9036 10.5188 17.9976 10.8006C17.9532 10.4988 17.8467 10.2096 17.6848 9.95107C17.5281 9.6783 17.2908 9.46071 17.0055 9.32816C16.7202 9.19562 16.4009 9.1546 16.0913 9.21075C15.79 9.25736 15.5024 9.36881 15.2483 9.53742Z" fill="#263238"/>
<path d="M17.4075 12.3997C17.0774 12.3089 16.7646 12.1637 16.4821 11.9703C16.3441 11.8738 16.2196 11.7593 16.112 11.6297C16.0033 11.4961 15.9101 11.3505 15.8344 11.1957C15.8601 11.3724 15.9232 11.5415 16.0194 11.6917C16.1159 11.8447 16.2417 11.9771 16.3896 12.0813C16.5362 12.1853 16.6983 12.2656 16.8699 12.3192C17.0431 12.3769 17.225 12.4041 17.4075 12.3997Z" fill="#263238"/>
<path d="M15.063 16.3706C14.8183 16.3878 14.5737 16.336 14.357 16.2211C14.1403 16.1062 13.9603 15.9327 13.8373 15.7205C13.7143 15.5083 13.6533 15.2658 13.6613 15.0206C13.6694 14.7755 13.746 14.5375 13.8826 14.3338C14.0192 14.13 14.2102 13.9687 14.434 13.8682C14.6577 13.7677 14.9052 13.732 15.1482 13.7652C15.3912 13.7983 15.6201 13.899 15.8087 14.0558C15.9973 14.2127 16.1381 14.4193 16.2151 14.6521C16.3235 14.9821 16.2967 15.3416 16.1406 15.6519C15.9845 15.9622 15.7118 16.198 15.3823 16.3077C15.2788 16.3415 15.1716 16.3626 15.063 16.3706ZM14.8918 13.9313C14.7974 13.9381 14.7042 13.9564 14.6142 13.9859C14.3401 14.0764 14.1109 14.268 13.9732 14.5217C13.8355 14.7753 13.7996 15.0719 13.8729 15.3511C13.9461 15.6303 14.1231 15.871 14.3676 16.0243C14.6122 16.1776 14.9059 16.232 15.1892 16.1763C15.4724 16.1206 15.7237 15.959 15.892 15.7245C16.0602 15.4901 16.1328 15.2002 16.0949 14.9141C16.057 14.628 15.9115 14.3671 15.688 14.1845C15.4645 14.0019 15.1797 13.9113 14.8918 13.9313Z" fill="#938C8C"/>
<path d="M17.8984 15.8042C17.3978 15.8393 16.9092 15.359 16.7815 14.6872C16.7158 14.3672 16.7514 14.0348 16.8833 13.7359C16.9324 13.6042 17.0146 13.4874 17.1221 13.3968C17.2296 13.3062 17.3587 13.2449 17.4968 13.2188C17.6349 13.1927 17.7775 13.2028 17.9106 13.248C18.0437 13.2932 18.1629 13.372 18.2566 13.4768C18.4884 13.7064 18.6428 14.0028 18.698 14.3245C18.8322 15.0342 18.5129 15.6931 17.9836 15.7931C17.9555 15.7986 17.927 15.8023 17.8984 15.8042ZM17.5949 13.3833C17.5727 13.3833 17.5514 13.3833 17.5292 13.3917C17.4203 13.4176 17.3191 13.4693 17.2343 13.5424C17.1494 13.6155 17.0833 13.7079 17.0415 13.8118C16.9249 14.077 16.8941 14.3722 16.9536 14.6558C17.0702 15.2702 17.5163 15.7042 17.9512 15.6219C18.3861 15.5395 18.6425 14.9741 18.5259 14.3587C18.4779 14.0728 18.3417 13.8091 18.1363 13.6045C18.0665 13.5319 17.9823 13.4747 17.889 13.4366C17.7958 13.3985 17.6956 13.3803 17.5949 13.3833Z" fill="#938C8C"/>
<path d="M16.2112 14.8066L16.0964 14.7141C16.2352 14.5448 16.5804 14.2875 16.8997 14.5207L16.8071 14.6391C16.5267 14.4291 16.2241 14.7918 16.2112 14.8066Z" fill="#938C8C"/>
<path d="M11.026 16.0781L10.8844 16.0355C10.9048 15.9698 11.0861 15.3878 11.3998 15.2739C11.6941 15.1684 13.6726 14.9834 13.7568 14.975L13.7707 15.1222C13.2034 15.1749 11.6775 15.3304 11.4507 15.4127C11.2435 15.4886 11.0741 15.9189 11.026 16.0781Z" fill="#938C8C"/>
<path d="M12.7443 15.7228C12.7443 15.7228 11.7579 14.69 11.2776 15.0583C10.7973 15.4266 11.6616 17.0118 12.3131 17.1469C12.3953 17.1701 12.4813 17.1764 12.566 17.1655C12.6506 17.1546 12.7322 17.1267 12.8059 17.0835C12.8795 17.0403 12.9436 16.9827 12.9945 16.914C13.0453 16.8454 13.0817 16.7673 13.1015 16.6842L12.7443 15.7228Z" fill="#AD6359"/>
<path d="M11.5381 15.5063C11.5363 15.5069 11.5346 15.5081 11.5335 15.5096C11.5324 15.5112 11.5317 15.5131 11.5317 15.5151C11.5317 15.517 11.5324 15.5189 11.5335 15.5205C11.5346 15.5221 11.5363 15.5232 11.5381 15.5239C12.0008 15.6321 12.2858 15.9986 12.5088 16.39C12.3561 16.2494 12.1674 16.1883 11.9767 16.3743C11.9666 16.3845 11.9767 16.4002 11.9925 16.3956C12.0648 16.3599 12.1463 16.3474 12.226 16.3598C12.3057 16.3722 12.3796 16.409 12.4376 16.465C12.5336 16.5598 12.6192 16.6647 12.693 16.7778C12.7189 16.8129 12.7855 16.7778 12.7642 16.7398L12.7587 16.7296C12.6847 16.1772 12.1387 15.4711 11.5381 15.5063Z" fill="#263238"/>
<path d="M11.7162 19.1208C11.5645 18.9357 12.5408 18.3805 12.7943 18.5896C13.0479 18.7987 14.3314 22.0543 13.915 25.5865C13.4985 29.1187 6.66177 32.9248 6.40728 32.3964C6.30179 32.1743 6.4369 31.5552 6.60347 31.3572C6.83759 31.0796 11.7745 28.0147 12.2622 25.8243C12.6953 23.8764 12.1012 19.602 11.7162 19.1208Z" fill="#455A64"/>
<path d="M15.5648 19.0467C15.3594 18.6572 16.4171 18.9709 16.5328 19.1809C16.6485 19.391 18.0625 22.7659 18.3068 24.972C18.3993 25.8558 18.7463 28.2349 18.7463 28.2349C18.7463 28.2349 17.7136 25.0433 16.8622 22.3707C16.5004 21.2365 16.067 20.1262 15.5648 19.0467Z" fill="#455A64"/>
<path d="M35.5804 32.9794C35.5804 32.9794 36.6632 29.0733 37.5238 27.7473C38.3844 26.4212 40.0001 24.9637 40.0001 24.9637C40.0001 24.9637 39.9659 30.9852 35.5804 32.9794Z" fill="#938C8C"/>
<path d="M35.6565 32.9091C36.0208 32.2989 36.3499 31.6683 36.642 31.0204C36.7662 30.3224 36.946 29.6354 37.1797 28.966C37.1843 28.954 37.2019 28.9605 37.1991 28.9734C37.0557 29.5897 36.8882 30.2014 36.7364 30.8168C37.1732 29.8664 37.5887 28.904 38.1088 28.0055C38.2289 27.5712 38.3974 27.1519 38.6113 26.7553C38.6168 26.7442 38.6353 26.7497 38.6298 26.7618C38.4981 27.0673 38.3853 27.3807 38.292 27.7001C38.5373 27.2991 38.8123 26.9171 39.1147 26.5572C39.1341 26.535 39.1721 26.5572 39.1526 26.5841C38.4567 27.4771 37.9765 28.4922 37.5193 29.5203C38.0113 28.9838 38.4652 28.4136 38.8778 27.8139C38.8778 27.8084 38.8907 27.8139 38.887 27.8204C38.4571 28.4928 37.9705 29.1272 37.4323 29.7165C37.0992 30.4698 36.7716 31.2258 36.3746 31.943C37.1686 31.2684 37.7793 30.3958 38.3836 29.5537C38.385 29.5517 38.3867 29.5501 38.3886 29.5488C38.3906 29.5475 38.3928 29.5466 38.3952 29.5462C38.3975 29.5457 38.3999 29.5458 38.4022 29.5463C38.4045 29.5468 38.4067 29.5477 38.4086 29.549C38.4106 29.5504 38.4122 29.5521 38.4135 29.5541C38.4148 29.556 38.4157 29.5582 38.4161 29.5606C38.4165 29.5629 38.4165 29.5653 38.416 29.5676C38.4155 29.5699 38.4146 29.5721 38.4132 29.574C37.808 30.4994 37.1825 31.3683 36.3126 32.0522C36.1364 32.3671 35.9423 32.6718 35.7315 32.9646C35.7241 32.9746 35.7131 32.9812 35.7009 32.983C35.6886 32.9848 35.6762 32.9817 35.6662 32.9744C35.6563 32.967 35.6497 32.956 35.6478 32.9438C35.646 32.9315 35.6491 32.9191 35.6565 32.9091Z" fill="#263238"/>
<path d="M35.2427 33.3311C35.2427 33.3311 37.186 29.7295 36.6234 26.238C36.0608 22.7465 35.4528 21.5027 35.4528 21.5027C35.4528 21.5027 32.3944 26.9339 35.2427 33.3311Z" fill="#938C8C"/>
<path d="M34.4447 27.6695C34.6095 28.6589 34.8609 29.6318 35.1961 30.5771C35.2017 29.2955 35.2258 28.0147 35.26 26.733C35.0402 25.9555 34.9159 25.1541 34.8898 24.3465C34.8898 24.3233 34.9241 24.3243 34.9259 24.3465C34.9875 25.0386 35.1017 25.7251 35.2674 26.3999C35.297 25.3431 35.3309 24.2863 35.3692 23.2295C35.3692 23.2258 35.3707 23.2223 35.3733 23.2197C35.3759 23.2171 35.3794 23.2156 35.3831 23.2156C35.3868 23.2156 35.3903 23.2171 35.3929 23.2197C35.3955 23.2223 35.397 23.2258 35.397 23.2295C35.397 24.8804 35.397 26.5313 35.3858 28.1831C35.6232 27.5447 35.8107 26.8888 35.9466 26.2213C35.9471 26.2201 35.9479 26.2191 35.949 26.2183C35.9501 26.2176 35.9514 26.2172 35.9527 26.2172C35.9539 26.2172 35.9552 26.2176 35.9563 26.2183C35.9574 26.2191 35.9582 26.2201 35.9587 26.2213C35.8994 26.9922 35.6662 27.738 35.384 28.4533C35.3766 29.5092 35.3655 30.5642 35.3414 31.62C35.6709 30.4975 36.0225 29.4111 36.1178 28.2248C36.1178 28.2232 36.1181 28.2216 36.1187 28.2202C36.1194 28.2187 36.1202 28.2174 36.1214 28.2163C36.1225 28.2152 36.1238 28.2143 36.1253 28.2137C36.1267 28.2131 36.1283 28.2127 36.1299 28.2127C36.1314 28.2127 36.133 28.2131 36.1345 28.2137C36.1359 28.2143 36.1372 28.2152 36.1384 28.2163C36.1395 28.2174 36.1404 28.2187 36.141 28.2202C36.1416 28.2216 36.1419 28.2232 36.1419 28.2248C36.1169 29.5324 35.781 30.8594 35.3525 32.0892C35.3478 32.1013 35.3402 32.1121 35.3303 32.1207C35.3211 32.5056 35.31 32.8912 35.297 33.2774C35.297 33.2887 35.2925 33.2995 35.2845 33.3075C35.2766 33.3155 35.2657 33.32 35.2544 33.32C35.2432 33.32 35.2323 33.3155 35.2243 33.3075C35.2164 33.2995 35.2119 33.2887 35.2119 33.2774C35.1958 32.4884 35.1894 31.6993 35.1924 30.9103C34.7557 29.8923 34.5225 28.7643 34.4253 27.6714C34.4271 27.6612 34.4438 27.6594 34.4447 27.6695Z" fill="#263238"/>
<path d="M34.5796 27.1124C34.648 27.4258 34.6934 27.7438 34.7156 28.0638C34.7156 28.0749 34.6999 28.0758 34.6971 28.0638C34.6214 27.7517 34.5679 27.4348 34.537 27.1152C34.5342 27.093 34.5749 27.0884 34.5796 27.1124Z" fill="#263238"/>
<path d="M35.717 24.4797C35.717 24.4686 35.7355 24.4723 35.7355 24.4797C35.733 24.7019 35.7 24.9227 35.6374 25.1358C35.6327 25.1534 35.6078 25.1451 35.6115 25.1284C35.6531 24.9147 35.679 24.6972 35.717 24.4797Z" fill="#263238"/>
<path d="M34.5351 33.6068C34.5351 33.6068 34.6138 29.847 33.5413 27.9786C32.4687 26.1102 30.6892 25.158 30.6892 25.158C30.6892 25.158 31.4064 31.7847 34.5351 33.6068Z" fill="#938C8C"/>
<path d="M32.5805 30.392C33.0312 31.0444 33.48 31.6737 34.0325 32.2428C33.8178 31.4741 33.571 30.7184 33.2922 29.9756C32.6907 29.4454 32.0947 28.8957 31.7255 28.1702C31.7199 28.1591 31.7366 28.1489 31.7431 28.16C32.1401 28.8022 32.6685 29.3167 33.2283 29.8109C32.7982 28.6915 32.2998 27.5997 31.7357 26.5415C31.7337 26.5362 31.7337 26.5304 31.7356 26.5252C31.7375 26.5199 31.7412 26.5154 31.746 26.5126C31.7509 26.5097 31.7565 26.5086 31.7621 26.5095C31.7676 26.5104 31.7727 26.5132 31.7764 26.5174C32.1194 27.0722 32.432 27.6453 32.7129 28.234C32.612 27.8315 32.5278 27.4206 32.4288 27.0218C32.4282 27.0196 32.4285 27.0172 32.4296 27.0152C32.4307 27.0132 32.4326 27.0117 32.4348 27.0111C32.437 27.0105 32.4394 27.0108 32.4414 27.0119C32.4434 27.0131 32.4448 27.0149 32.4454 27.0171C32.6361 27.5196 32.8248 28.0749 32.8859 28.6116C33.2616 29.4456 33.5774 30.3053 33.8307 31.1842C33.803 30.6206 33.7678 30.0598 33.7104 29.4972C33.7104 29.487 33.7271 29.4842 33.729 29.4972C33.848 30.121 33.9023 30.7555 33.8909 31.3905C34.0454 31.9504 34.1759 32.5177 34.2805 33.0886C34.2805 33.1044 34.261 33.1108 34.2573 33.0951C34.199 32.8554 34.1352 32.6185 34.0723 32.3816C34.0723 32.3816 34.0639 32.3816 34.0602 32.3816C33.4846 31.8014 32.9387 31.1416 32.5796 30.4022C32.5722 30.3911 32.5778 30.3883 32.5805 30.392Z" fill="#263238"/>
<path d="M31.3361 27.3327C31.4555 27.4623 31.5647 27.5992 31.6804 27.7325C31.7925 27.8453 31.8959 27.9666 31.9895 28.0952C31.9895 28.1008 31.9895 28.1073 31.9811 28.1036C31.8461 28.0031 31.7258 27.8841 31.6239 27.7501C31.511 27.624 31.4089 27.4888 31.3185 27.3457C31.3121 27.3355 31.3278 27.3235 31.3361 27.3327Z" fill="#263238"/>
<path d="M37.7221 33.1478L37.587 34.3508L37.1789 37.9987H33.6254L33.2192 34.3527L33.0831 33.1497H37.723L37.7221 33.1478Z" fill="#455A64"/>
<path d="M37.7221 33.1478L37.587 34.3508H33.2192L33.0831 33.1478H37.723H37.7221Z" fill="#37474F"/>
<path d="M32.7675 33.6383H38.0386V32.2734H32.7675V33.6383Z" fill="#455A64"/>
<path d="M32.9095 36.7412H22.2767V37.9997H32.9095V36.7412Z" fill="#37474F"/>
<path d="M24.7942 36.7412H24.3611V37.9997H24.7942V36.7412Z" fill="#455A64"/>
<path d="M31.6586 36.7412H30.6194V37.9997H31.6586V36.7412Z" fill="#455A64"/>
<path d="M32.1438 33.0618H21.2834V34.7248H32.1438V33.0618Z" fill="#37474F"/>
<path d="M30.2231 33.6013H27.6144V34.1852H30.2231V33.6013Z" fill="#938C8C"/>
<path d="M31.5295 33.8929C31.5339 33.962 31.5175 34.0308 31.4823 34.0904C31.4472 34.15 31.3949 34.1977 31.3323 34.2273C31.2697 34.2568 31.1997 34.2668 31.1313 34.2561C31.0629 34.2453 30.9993 34.2142 30.9488 34.1668C30.8984 34.1195 30.8633 34.058 30.8482 33.9905C30.8331 33.9229 30.8386 33.8524 30.8641 33.788C30.8896 33.7236 30.9338 33.6684 30.9911 33.6295C31.0484 33.5907 31.116 33.5699 31.1852 33.5699C31.2737 33.5672 31.3596 33.5996 31.4242 33.6602C31.4887 33.7207 31.5266 33.8044 31.5295 33.8929Z" fill="#938C8C"/>
<path d="M26.2456 31.5905H20.7589V33.0581H26.2456V31.5905Z" fill="#263238"/>
<path d="M31.3155 31.5905H26.2444V33.0581H31.3155V31.5905Z" fill="#263238"/>
<path d="M26.2456 31.7432H20.7589V32.9064H26.2456V31.7432Z" fill="white"/>
<path d="M21.2361 31.9838C21.8111 31.9764 22.386 31.9708 22.961 31.9671L23.7411 31.9615L25.4651 31.9671C26.0398 31.9671 25.6706 31.9754 26.2452 31.9838C25.6706 31.9921 26.0398 31.9976 25.4651 32.0013L23.7411 32.006L22.961 32.0013C22.386 31.9964 21.8111 31.9905 21.2361 31.9838Z" fill="#DBDBDB"/>
<path d="M21.2361 32.2104C21.8111 32.2024 22.386 32.1969 22.961 32.1938L23.7411 32.1882L25.4651 32.1929C26.0398 32.1929 25.6706 32.2021 26.2452 32.2104C25.6706 32.2188 26.0398 32.2243 25.4651 32.2271L23.7411 32.2327L22.961 32.2271C22.386 32.2246 21.8111 32.2191 21.2361 32.2104Z" fill="#DBDBDB"/>
<path d="M21.2361 32.4382C21.8111 32.4308 22.386 32.4252 22.961 32.4215L23.7411 32.4169L25.4651 32.4215C26.0398 32.4215 25.6706 32.4308 26.2452 32.4382C25.6706 32.4465 26.0398 32.453 25.4651 32.4557H23.7411H22.961C22.386 32.4527 21.8111 32.4468 21.2361 32.4382Z" fill="#DBDBDB"/>
<path d="M21.2361 32.6667C21.8111 32.6587 22.386 32.6531 22.961 32.65L23.7411 32.6445L25.4651 32.65C26.0398 32.65 25.6706 32.6584 26.2452 32.6667C25.6706 32.675 26.0398 32.6806 25.4651 32.6833L23.7411 32.6889L22.961 32.6833C22.386 32.6809 21.8111 32.6753 21.2361 32.6667Z" fill="#DBDBDB"/>
<path d="M28.0833 31.5905H27.3689V33.0581H28.0833V31.5905Z" fill="#455A64"/>
<path d="M31.055 31.5905H30.5747V33.0581H31.055V31.5905Z" fill="#455A64"/>
<path d="M25.5176 36.7402H31.6964V34.7229H25.5176V36.7402Z" fill="#938C8C"/>
<path d="M20.8244 36.7402H25.5161V34.7229H20.8244V36.7402Z" fill="#938C8C"/>
<path d="M25.5176 36.5311H31.6964V34.9329H25.5176V36.5311Z" fill="white"/>
<path d="M31.2952 36.2026C30.814 36.2113 30.3325 36.2168 29.8506 36.2193L28.4061 36.2248L26.9616 36.2193C26.4798 36.2193 25.9979 36.2137 25.5161 36.2026C25.9986 36.1946 26.4804 36.1891 26.9616 36.186L28.4061 36.1804L29.8506 36.186C30.3325 36.1891 30.814 36.1946 31.2952 36.2026Z" fill="#DBDBDB"/>
<path d="M31.2952 35.8889C30.814 35.8975 30.3325 35.9031 29.8506 35.9055L28.4061 35.9111L26.9616 35.9065C26.4798 35.9028 25.9979 35.8969 25.5161 35.8889C25.9986 35.8809 26.4804 35.8753 26.9616 35.8722L28.4061 35.8704L29.8506 35.8759C30.3325 35.8765 30.814 35.8809 31.2952 35.8889Z" fill="#DBDBDB"/>
<path d="M31.2952 35.5752C30.814 35.5832 30.3325 35.5891 29.8506 35.5928L28.4061 35.5974L26.9616 35.5928C26.4798 35.5891 25.9979 35.5832 25.5161 35.5752C25.9986 35.5672 26.4804 35.5616 26.9616 35.5585L28.4061 35.553L29.8506 35.5585C30.3325 35.5616 30.814 35.5672 31.2952 35.5752Z" fill="#DBDBDB"/>
<path d="M31.2952 35.2615C30.814 35.2695 30.3325 35.2753 29.8506 35.279L28.4061 35.2837L26.9616 35.279C26.4798 35.279 25.9979 35.2732 25.5161 35.2615C25.9986 35.2528 26.4804 35.2473 26.9616 35.2448L28.4061 35.2393L29.8506 35.2448C30.3328 35.2476 30.8121 35.2541 31.2952 35.2615Z" fill="#DBDBDB"/>
<path d="M22.4518 34.7238H21.5736V36.7412H22.4518V34.7238Z" fill="#455A64"/>
<path d="M25.9957 7.52198C25.9956 8.13428 25.8253 8.73451 25.504 9.25573C25.1827 9.77695 24.7229 10.1987 24.1759 10.4739C23.629 10.7491 23.0163 10.867 22.4063 10.8144C21.7962 10.7618 21.2128 10.5408 20.721 10.176L19.1016 10.5896L19.7762 9.08126C19.5389 8.63804 19.4058 8.14654 19.387 7.64415C19.3683 7.14176 19.4643 6.6417 19.6679 6.18201C19.8714 5.72232 20.1771 5.3151 20.5617 4.99132C20.9463 4.66753 21.3997 4.43572 21.8873 4.31349C22.375 4.19127 22.8841 4.18186 23.3759 4.28598C23.8678 4.3901 24.3294 4.60501 24.7257 4.91436C25.122 5.22371 25.4425 5.61936 25.6629 6.07121C25.8833 6.52307 25.9978 7.01924 25.9976 7.52198H25.9957Z" fill="white"/>
<path d="M25.9944 7.52201C25.9935 8.13446 25.8238 8.73482 25.5039 9.25711C25.4236 9.38552 25.3359 9.50912 25.2411 9.62727C25.1426 9.74355 25.0369 9.85358 24.9246 9.95671C24.8699 10.0096 24.8124 10.0596 24.7525 10.1066L24.5674 10.2445C24.5063 10.2898 24.4388 10.3259 24.374 10.3676L24.2768 10.4277C24.2435 10.4462 24.2084 10.462 24.1751 10.4786C24.1057 10.5119 24.0381 10.5471 23.9687 10.5786L23.754 10.6591C23.6826 10.6864 23.6093 10.7087 23.5347 10.7257C23.4607 10.7433 23.3885 10.7683 23.3126 10.7794C23.1624 10.809 23.0102 10.8275 22.8573 10.8349C22.7033 10.8471 22.5486 10.8471 22.3946 10.8349C22.0887 10.8099 21.7876 10.7432 21.4998 10.6369C21.212 10.5284 20.9403 10.3814 20.6919 10.2001L20.7196 10.2056L19.1021 10.6258L19.0206 10.647L19.0549 10.5702L19.7258 9.06V9.0998C19.4858 8.65178 19.3533 8.15405 19.339 7.64601C19.3205 7.13697 19.4188 6.63045 19.6264 6.16528C19.8339 5.70011 20.1452 5.28863 20.5364 4.96238C20.926 4.63832 21.3847 4.40786 21.8773 4.28869C22.3666 4.17009 22.8765 4.16394 23.3685 4.27071C23.8605 4.37748 24.322 4.59439 24.7181 4.90513C25.1143 5.21587 25.4349 5.61237 25.6557 6.06482C25.8766 6.51726 25.9921 7.01389 25.9934 7.51738L25.9944 7.52201ZM25.9944 7.52201C25.9917 7.0202 25.8753 6.52554 25.6537 6.07528C25.4322 5.62501 25.1114 5.23089 24.7155 4.92258C24.3186 4.61804 23.8585 4.40619 23.369 4.30257C22.8788 4.20383 22.3726 4.21743 21.8884 4.34236C21.4063 4.46541 20.9587 4.69711 20.5799 5.01975C20.2044 5.34446 19.9047 5.74751 19.7017 6.20055C19.5021 6.65426 19.4081 7.14739 19.4268 7.64274C19.4456 8.13808 19.5766 8.62269 19.81 9.06L19.8202 9.07944L19.8118 9.0998L19.1354 10.6073L19.0882 10.5508L20.7104 10.1446H20.7252L20.7382 10.1538C21.2222 10.5207 21.7991 10.745 22.4039 10.8016C22.5546 10.8158 22.7062 10.8179 22.8573 10.8081C23.0085 10.8019 23.159 10.7855 23.308 10.759C23.3829 10.7488 23.4551 10.7239 23.5291 10.7072C23.6034 10.6917 23.6764 10.6707 23.7475 10.6443L23.9613 10.5675L24.1667 10.4703C24.201 10.4536 24.2361 10.4388 24.2694 10.4203L24.362 10.362C24.4258 10.3222 24.4943 10.2871 24.5554 10.2427L24.7405 10.1066C24.8004 10.06 24.8579 10.0103 24.9126 9.95763C25.0246 9.85521 25.1302 9.74612 25.2291 9.63097C25.3244 9.51305 25.4125 9.38943 25.4928 9.26081C25.8172 8.73859 25.9908 8.13679 25.9944 7.52201Z" fill="#263238"/>
<path d="M22.1512 9.48939L20.6697 7.98933L21.1675 7.49702L22.0328 8.37337L23.8317 5.55463L24.4212 5.93033L22.1512 9.48939Z" fill="#938C8C"/>
</g>
<defs>
<clipPath id="clip0_564_2620">
<rect width="40" height="40" rx="20" fill="white"/>
</clipPath>
</defs>
</svg>
