<svg width="25" height="24" viewBox="0 0 25 24" fill="none" xmlns="http://www.w3.org/2000/svg">
<path fill-rule="evenodd" clip-rule="evenodd" d="M6.71736 5C6.04528 5 5.5 5.55445 5.5 6.23698V6.96501C5.5 7.47059 5.69226 7.95679 6.03617 8.32249L9.80508 12.33L9.80674 12.3275C10.5343 13.0724 10.9437 14.0793 10.9437 15.1292V18.6851C10.9437 18.9228 11.1923 19.0744 11.3987 18.9624L13.545 17.7928C13.869 17.6158 14.0712 17.2721 14.0712 16.8988V15.12C14.0712 14.076 14.4748 13.0732 15.1958 12.33L18.9647 8.32249C19.3077 7.95679 19.5 7.47059 19.5 6.96501V6.23698C19.5 5.55445 18.9555 5 18.2835 5H6.71736Z" stroke="#130F26" stroke-width="1.5" stroke-linecap="round" stroke-linejoin="round"/>
</svg>
