<svg
              width="20"
              height="20"
              viewBox="0 0 24 24"
              fill="none"
              xmlns="http://www.w3.org/2000/svg"
            >
              <path
                opacity="0.4"
                d="M21.9999 15.94C21.9999 18.73 19.7599 20.99 16.9699 21H16.9599H7.04989C4.26989 21 1.99989 18.75 1.99989 15.96V15.95C1.99989 15.95 2.00589 11.524 2.01389 9.298C2.01489 8.88 2.49489 8.646 2.82189 8.906C5.19789 10.791 9.44689 14.228 9.49989 14.273C10.2099 14.842 11.1099 15.163 12.0299 15.163C12.9499 15.163 13.8499 14.842 14.5599 14.262C14.6129 14.227 18.7669 10.893 21.1789 8.977C21.5069 8.716 21.9889 8.95 21.9899 9.367C21.9999 11.576 21.9999 15.94 21.9999 15.94Z"
                fill="#5570F1"
              />
              <path
                d="M21.476 5.67351C20.61 4.04151 18.906 2.99951 17.03 2.99951H7.04999C5.17399 2.99951 3.46999 4.04151 2.60399 5.67351C2.40999 6.03851 2.50199 6.49351 2.82499 6.75151L10.25 12.6905C10.77 13.1105 11.4 13.3195 12.03 13.3195C12.034 13.3195 12.037 13.3195 12.04 13.3195C12.043 13.3195 12.047 13.3195 12.05 13.3195C12.68 13.3195 13.31 13.1105 13.83 12.6905L21.255 6.75151C21.578 6.49351 21.67 6.03851 21.476 5.67351Z"
                fill="#5570F1"
              />
            </svg>