<svg width="25" height="24" viewBox="0 0 25 24" fill="none" xmlns="http://www.w3.org/2000/svg">
<path d="M19.112 16.3935H18.1488C18.0736 16.3935 18.011 16.4561 18.011 16.5313V17.6378H6.73713V6.36213H18.0128V7.46857C18.0128 7.54376 18.0754 7.60643 18.1506 7.60643H19.1138C19.189 7.60643 19.2517 7.54555 19.2517 7.46857V5.67464C19.2517 5.37028 19.0064 5.125 18.7021 5.125H6.04964C5.74528 5.125 5.5 5.37028 5.5 5.67464V18.3253C5.5 18.6296 5.74528 18.8749 6.04964 18.8749H18.7003C19.0046 18.8749 19.2499 18.6296 19.2499 18.3253V16.5313C19.2499 16.4543 19.1872 16.3935 19.112 16.3935ZM19.445 11.8872L16.9045 9.88196C16.8096 9.80677 16.6718 9.8748 16.6718 9.99476V11.3554H11.0501C10.9713 11.3554 10.9069 11.4199 10.9069 11.4987V12.5012C10.9069 12.58 10.9713 12.6445 11.0501 12.6445H16.6718V14.0051C16.6718 14.1251 16.8114 14.1931 16.9045 14.1179L19.445 12.1127C19.4622 12.0993 19.476 12.0822 19.4855 12.0627C19.4951 12.0431 19.5 12.0217 19.5 11.9999C19.5 11.9782 19.4951 11.9568 19.4855 11.9372C19.476 11.9177 19.4622 11.9006 19.445 11.8872Z" fill="black" fill-opacity="0.8"/>
</svg>
