 <svg
          width="140"
          height="48"
          viewBox="0 0 160 48"
          fill="none"
          xmlns="http://www.w3.org/2000/svg"
        >
          <path
            d="M61.5438 43V35.206H58.5258V34.36H65.4438V35.206H62.4258V43H61.5438ZM67.4162 43.18C66.9282 43.18 66.5182 43.092 66.1862 42.916C65.8582 42.74 65.6122 42.506 65.4482 42.214C65.2842 41.922 65.2022 41.604 65.2022 41.26C65.2022 40.908 65.2722 40.608 65.4122 40.36C65.5562 40.108 65.7502 39.902 65.9942 39.742C66.2422 39.582 66.5282 39.46 66.8522 39.376C67.1802 39.296 67.5422 39.226 67.9382 39.166C68.3382 39.102 68.7282 39.048 69.1082 39.004C69.4922 38.956 69.8282 38.91 70.1162 38.866L69.8042 39.058C69.8162 38.418 69.6922 37.944 69.4322 37.636C69.1722 37.328 68.7202 37.174 68.0762 37.174C67.6322 37.174 67.2562 37.274 66.9482 37.474C66.6442 37.674 66.4302 37.99 66.3062 38.422L65.4482 38.17C65.5962 37.59 65.8942 37.14 66.3422 36.82C66.7902 36.5 67.3722 36.34 68.0882 36.34C68.6802 36.34 69.1822 36.452 69.5942 36.676C70.0102 36.896 70.3042 37.216 70.4762 37.636C70.5562 37.824 70.6082 38.034 70.6322 38.266C70.6562 38.498 70.6682 38.734 70.6682 38.974V43H69.8822V41.374L70.1102 41.47C69.8902 42.026 69.5482 42.45 69.0842 42.742C68.6202 43.034 68.0642 43.18 67.4162 43.18ZM67.5182 42.418C67.9302 42.418 68.2902 42.344 68.5982 42.196C68.9062 42.048 69.1542 41.846 69.3422 41.59C69.5302 41.33 69.6522 41.038 69.7082 40.714C69.7562 40.506 69.7822 40.278 69.7862 40.03C69.7902 39.778 69.7922 39.59 69.7922 39.466L70.1282 39.64C69.8282 39.68 69.5022 39.72 69.1502 39.76C68.8022 39.8 68.4582 39.846 68.1182 39.898C67.7822 39.95 67.4782 40.012 67.2062 40.084C67.0222 40.136 66.8442 40.21 66.6722 40.306C66.5002 40.398 66.3582 40.522 66.2462 40.678C66.1382 40.834 66.0842 41.028 66.0842 41.26C66.0842 41.448 66.1302 41.63 66.2222 41.806C66.3182 41.982 66.4702 42.128 66.6782 42.244C66.8902 42.36 67.1702 42.418 67.5182 42.418ZM72.3501 43V34.18H73.2321V43H72.3501ZM77.7729 43.18C77.1409 43.18 76.5929 43.04 76.1289 42.76C75.6689 42.48 75.3109 42.086 75.0549 41.578C74.7989 41.07 74.6709 40.474 74.6709 39.79C74.6709 39.082 74.7969 38.47 75.0489 37.954C75.3009 37.438 75.6549 37.04 76.1109 36.76C76.5709 36.48 77.1129 36.34 77.7369 36.34C78.3769 36.34 78.9229 36.488 79.3749 36.784C79.8269 37.076 80.1689 37.496 80.4009 38.044C80.6329 38.592 80.7389 39.246 80.7189 40.006H79.8189V39.694C79.8029 38.854 79.6209 38.22 79.2729 37.792C78.9289 37.364 78.4249 37.15 77.7609 37.15C77.0649 37.15 76.5309 37.376 76.1589 37.828C75.7909 38.28 75.6069 38.924 75.6069 39.76C75.6069 40.576 75.7909 41.21 76.1589 41.662C76.5309 42.11 77.0569 42.334 77.7369 42.334C78.2009 42.334 78.6049 42.228 78.9489 42.016C79.2969 41.8 79.5709 41.49 79.7709 41.086L80.5929 41.404C80.3369 41.968 79.9589 42.406 79.4589 42.718C78.9629 43.026 78.4009 43.18 77.7729 43.18ZM75.2949 40.006V39.268L80.2449 39.268V40.006L75.2949 40.006ZM86.5547 43V39.694C86.5547 39.334 86.5207 39.004 86.4527 38.704C86.3847 38.4 86.2747 38.136 86.1227 37.912C85.9747 37.684 85.7807 37.508 85.5407 37.384C85.3047 37.26 85.0167 37.198 84.6767 37.198C84.3647 37.198 84.0887 37.252 83.8487 37.36C83.6127 37.468 83.4127 37.624 83.2487 37.828C83.0887 38.028 82.9667 38.272 82.8827 38.56C82.7987 38.848 82.7567 39.176 82.7567 39.544L82.1327 39.406C82.1327 38.742 82.2487 38.184 82.4807 37.732C82.7127 37.28 83.0327 36.938 83.4407 36.706C83.8487 36.474 84.3167 36.358 84.8447 36.358C85.2327 36.358 85.5707 36.418 85.8587 36.538C86.1507 36.658 86.3967 36.82 86.5967 37.024C86.8007 37.228 86.9647 37.462 87.0887 37.726C87.2127 37.986 87.3027 38.264 87.3587 38.56C87.4147 38.852 87.4427 39.144 87.4427 39.436V43H86.5547ZM81.8687 43V36.52H82.6667V38.116H82.7567V43H81.8687ZM92.5277 43C92.1637 43.076 91.8037 43.106 91.4477 43.09C91.0957 43.074 90.7797 42.998 90.4997 42.862C90.2237 42.726 90.0137 42.514 89.8697 42.226C89.7537 41.986 89.6897 41.744 89.6777 41.5C89.6697 41.252 89.6657 40.97 89.6657 40.654V34.72H90.5417V40.618C90.5417 40.89 90.5437 41.118 90.5477 41.302C90.5557 41.482 90.5977 41.642 90.6737 41.782C90.8177 42.05 91.0457 42.21 91.3577 42.262C91.6737 42.314 92.0637 42.302 92.5277 42.226V43ZM88.2797 37.276V36.52H92.5277V37.276H88.2797ZM98.609 43V34.36H99.419L102.815 41.626L106.193 34.36H107.015V42.994H106.175V36.328L103.097 43H102.527L99.455 36.328V43L98.609 43ZM110.553 43.18C110.065 43.18 109.655 43.092 109.323 42.916C108.995 42.74 108.749 42.506 108.585 42.214C108.421 41.922 108.339 41.604 108.339 41.26C108.339 40.908 108.409 40.608 108.549 40.36C108.693 40.108 108.887 39.902 109.131 39.742C109.379 39.582 109.665 39.46 109.989 39.376C110.317 39.296 110.679 39.226 111.075 39.166C111.475 39.102 111.865 39.048 112.245 39.004C112.629 38.956 112.965 38.91 113.253 38.866L112.941 39.058C112.953 38.418 112.829 37.944 112.569 37.636C112.309 37.328 111.857 37.174 111.213 37.174C110.769 37.174 110.393 37.274 110.085 37.474C109.781 37.674 109.567 37.99 109.443 38.422L108.585 38.17C108.733 37.59 109.031 37.14 109.479 36.82C109.927 36.5 110.509 36.34 111.225 36.34C111.817 36.34 112.319 36.452 112.731 36.676C113.147 36.896 113.441 37.216 113.613 37.636C113.693 37.824 113.745 38.034 113.769 38.266C113.793 38.498 113.805 38.734 113.805 38.974V43H113.019V41.374L113.247 41.47C113.027 42.026 112.685 42.45 112.221 42.742C111.757 43.034 111.201 43.18 110.553 43.18ZM110.655 42.418C111.067 42.418 111.427 42.344 111.735 42.196C112.043 42.048 112.291 41.846 112.479 41.59C112.667 41.33 112.789 41.038 112.845 40.714C112.893 40.506 112.919 40.278 112.923 40.03C112.927 39.778 112.929 39.59 112.929 39.466L113.265 39.64C112.965 39.68 112.639 39.72 112.287 39.76C111.939 39.8 111.595 39.846 111.255 39.898C110.919 39.95 110.615 40.012 110.343 40.084C110.159 40.136 109.981 40.21 109.809 40.306C109.637 40.398 109.495 40.522 109.383 40.678C109.275 40.834 109.221 41.028 109.221 41.26C109.221 41.448 109.267 41.63 109.359 41.806C109.455 41.982 109.607 42.128 109.815 42.244C110.027 42.36 110.307 42.418 110.655 42.418ZM120.047 43V39.694C120.047 39.334 120.013 39.004 119.945 38.704C119.877 38.4 119.767 38.136 119.615 37.912C119.467 37.684 119.273 37.508 119.033 37.384C118.797 37.26 118.509 37.198 118.169 37.198C117.857 37.198 117.581 37.252 117.341 37.36C117.105 37.468 116.905 37.624 116.741 37.828C116.581 38.028 116.459 38.272 116.375 38.56C116.291 38.848 116.249 39.176 116.249 39.544L115.625 39.406C115.625 38.742 115.741 38.184 115.973 37.732C116.205 37.28 116.525 36.938 116.933 36.706C117.341 36.474 117.809 36.358 118.337 36.358C118.725 36.358 119.063 36.418 119.351 36.538C119.643 36.658 119.889 36.82 120.089 37.024C120.293 37.228 120.457 37.462 120.581 37.726C120.705 37.986 120.795 38.264 120.851 38.56C120.907 38.852 120.935 39.144 120.935 39.436V43H120.047ZM115.361 43V36.52H116.159V38.116H116.249V43H115.361ZM124.346 43.18C123.858 43.18 123.448 43.092 123.116 42.916C122.788 42.74 122.542 42.506 122.378 42.214C122.214 41.922 122.132 41.604 122.132 41.26C122.132 40.908 122.202 40.608 122.342 40.36C122.486 40.108 122.68 39.902 122.924 39.742C123.172 39.582 123.458 39.46 123.782 39.376C124.11 39.296 124.472 39.226 124.868 39.166C125.268 39.102 125.658 39.048 126.038 39.004C126.422 38.956 126.758 38.91 127.046 38.866L126.734 39.058C126.746 38.418 126.622 37.944 126.362 37.636C126.102 37.328 125.65 37.174 125.006 37.174C124.562 37.174 124.186 37.274 123.878 37.474C123.574 37.674 123.36 37.99 123.236 38.422L122.378 38.17C122.526 37.59 122.824 37.14 123.272 36.82C123.72 36.5 124.302 36.34 125.018 36.34C125.61 36.34 126.112 36.452 126.524 36.676C126.94 36.896 127.234 37.216 127.406 37.636C127.486 37.824 127.538 38.034 127.562 38.266C127.586 38.498 127.598 38.734 127.598 38.974V43H126.812V41.374L127.04 41.47C126.82 42.026 126.478 42.45 126.014 42.742C125.55 43.034 124.994 43.18 124.346 43.18ZM124.448 42.418C124.86 42.418 125.22 42.344 125.528 42.196C125.836 42.048 126.084 41.846 126.272 41.59C126.46 41.33 126.582 41.038 126.638 40.714C126.686 40.506 126.712 40.278 126.716 40.03C126.72 39.778 126.722 39.59 126.722 39.466L127.058 39.64C126.758 39.68 126.432 39.72 126.08 39.76C125.732 39.8 125.388 39.846 125.048 39.898C124.712 39.95 124.408 40.012 124.136 40.084C123.952 40.136 123.774 40.21 123.602 40.306C123.43 40.398 123.288 40.522 123.176 40.678C123.068 40.834 123.014 41.028 123.014 41.26C123.014 41.448 123.06 41.63 123.152 41.806C123.248 41.982 123.4 42.128 123.608 42.244C123.82 42.36 124.1 42.418 124.448 42.418ZM131.734 46.06C131.402 46.06 131.074 46.01 130.75 45.91C130.43 45.814 130.134 45.66 129.862 45.448C129.59 45.24 129.362 44.968 129.178 44.632L129.976 44.188C130.156 44.548 130.408 44.806 130.732 44.962C131.06 45.122 131.394 45.202 131.734 45.202C132.202 45.202 132.58 45.114 132.868 44.938C133.16 44.766 133.372 44.51 133.504 44.17C133.636 43.83 133.7 43.406 133.696 42.898V41.17H133.798V36.52H134.584V42.91C134.584 43.094 134.578 43.27 134.566 43.438C134.558 43.61 134.54 43.778 134.512 43.942C134.436 44.426 134.278 44.824 134.038 45.136C133.802 45.448 133.49 45.68 133.102 45.832C132.718 45.984 132.262 46.06 131.734 46.06ZM131.674 43.18C131.07 43.18 130.554 43.03 130.126 42.73C129.698 42.426 129.37 42.016 129.142 41.5C128.914 40.984 128.8 40.402 128.8 39.754C128.8 39.11 128.912 38.53 129.136 38.014C129.364 37.498 129.69 37.09 130.114 36.79C130.538 36.49 131.046 36.34 131.638 36.34C132.246 36.34 132.758 36.488 133.174 36.784C133.59 37.08 133.904 37.486 134.116 38.002C134.332 38.514 134.44 39.098 134.44 39.754C134.44 40.398 134.334 40.98 134.122 41.5C133.91 42.016 133.598 42.426 133.186 42.73C132.774 43.03 132.27 43.18 131.674 43.18ZM131.764 42.358C132.224 42.358 132.604 42.246 132.904 42.022C133.204 41.798 133.428 41.49 133.576 41.098C133.724 40.702 133.798 40.254 133.798 39.754C133.798 39.246 133.724 38.798 133.576 38.41C133.428 38.018 133.204 37.712 132.904 37.492C132.608 37.272 132.234 37.162 131.782 37.162C131.318 37.162 130.934 37.276 130.63 37.504C130.326 37.732 130.1 38.042 129.952 38.434C129.808 38.826 129.736 39.266 129.736 39.754C129.736 40.246 129.81 40.69 129.958 41.086C130.11 41.478 130.336 41.788 130.636 42.016C130.936 42.244 131.312 42.358 131.764 42.358ZM139.003 43.18C138.371 43.18 137.823 43.04 137.359 42.76C136.899 42.48 136.541 42.086 136.285 41.578C136.029 41.07 135.901 40.474 135.901 39.79C135.901 39.082 136.027 38.47 136.279 37.954C136.531 37.438 136.885 37.04 137.341 36.76C137.801 36.48 138.343 36.34 138.967 36.34C139.607 36.34 140.153 36.488 140.605 36.784C141.057 37.076 141.399 37.496 141.631 38.044C141.863 38.592 141.969 39.246 141.949 40.006H141.049V39.694C141.033 38.854 140.851 38.22 140.503 37.792C140.159 37.364 139.655 37.15 138.991 37.15C138.295 37.15 137.761 37.376 137.389 37.828C137.021 38.28 136.837 38.924 136.837 39.76C136.837 40.576 137.021 41.21 137.389 41.662C137.761 42.11 138.287 42.334 138.967 42.334C139.431 42.334 139.835 42.228 140.179 42.016C140.527 41.8 140.801 41.49 141.001 41.086L141.823 41.404C141.567 41.968 141.189 42.406 140.689 42.718C140.193 43.026 139.631 43.18 139.003 43.18ZM136.525 40.006V39.268H141.475V40.006H136.525ZM143.281 43V36.52H144.073V38.08L143.917 37.876C143.989 37.684 144.083 37.508 144.199 37.348C144.315 37.184 144.441 37.05 144.577 36.946C144.745 36.798 144.941 36.686 145.165 36.61C145.389 36.53 145.615 36.484 145.843 36.472C146.071 36.456 146.279 36.472 146.467 36.52V37.348C146.231 37.288 145.973 37.274 145.693 37.306C145.413 37.338 145.155 37.45 144.919 37.642C144.703 37.81 144.541 38.012 144.433 38.248C144.325 38.48 144.253 38.728 144.217 38.992C144.181 39.252 144.163 39.51 144.163 39.766V43H143.281Z"
            fill="#565D6D"
          />
          <path
            d="M59.9898 21L59.9898 8.4L65.5518 8.4C66.4158 8.4 67.1478 8.526 67.7478 8.778C68.3478 9.018 68.7978 9.372 69.0978 9.84C69.4098 10.296 69.5658 10.848 69.5658 11.496C69.5658 12.216 69.3858 12.822 69.0258 13.314C68.6778 13.806 68.1678 14.136 67.4958 14.304L67.4598 13.962C68.0238 14.082 68.5098 14.292 68.9178 14.592C69.3378 14.892 69.6618 15.264 69.8898 15.708C70.1178 16.14 70.2318 16.632 70.2318 17.184C70.2318 17.82 70.1238 18.378 69.9078 18.858C69.6918 19.326 69.3798 19.722 68.9718 20.046C68.5638 20.37 68.0838 20.61 67.5318 20.766C66.9918 20.922 66.3918 21 65.7318 21H59.9898ZM62.8698 18.444H65.6238C65.9598 18.444 66.2418 18.39 66.4698 18.282C66.7098 18.174 66.8958 18.018 67.0278 17.814C67.1598 17.598 67.2258 17.34 67.2258 17.04C67.2258 16.764 67.1538 16.53 67.0098 16.338C66.8778 16.146 66.6858 16.002 66.4338 15.906C66.1818 15.798 65.8818 15.744 65.5338 15.744H62.8698L62.8698 18.444ZM62.8698 13.458H65.1198C65.4318 13.458 65.6958 13.41 65.9118 13.314C66.1398 13.206 66.3078 13.062 66.4158 12.882C66.5358 12.69 66.5958 12.462 66.5958 12.198C66.5958 11.814 66.4638 11.514 66.1998 11.298C65.9358 11.07 65.5398 10.956 65.0118 10.956H62.8698V13.458ZM75.5629 21.198C74.8549 21.198 74.2489 21.048 73.7449 20.748C73.2529 20.436 72.8689 19.992 72.5929 19.416C72.3289 18.84 72.1969 18.15 72.1969 17.346V11.442H75.0949V16.95C75.0949 17.334 75.1549 17.664 75.2749 17.94C75.3949 18.216 75.5749 18.432 75.8149 18.588C76.0549 18.732 76.3429 18.804 76.6789 18.804C76.9309 18.804 77.1589 18.762 77.3629 18.678C77.5789 18.594 77.7589 18.48 77.9029 18.336C78.0589 18.18 78.1789 18.006 78.2629 17.814C78.3469 17.61 78.3889 17.388 78.3889 17.148V11.442H81.2869V21L78.5689 21L78.4429 19.038L78.9829 18.822C78.8389 19.278 78.5989 19.686 78.2629 20.046C77.9269 20.394 77.5249 20.676 77.0569 20.892C76.5889 21.096 76.0909 21.198 75.5629 21.198ZM83.4757 21V19.344L88.5517 12.828V13.782L83.4757 13.782V11.442L91.3957 11.442V13.17L86.5897 19.488L86.5177 18.66H91.5577V21H83.4757ZM93.3722 21V19.344L98.4482 12.828V13.782H93.3722V11.442L101.292 11.442V13.17L96.4862 19.488L96.4142 18.66H101.454V21L93.3722 21ZM103.953 21V8.4L106.689 8.4L111.279 15.87L109.317 15.852L113.961 8.4H116.589V21H113.619V17.076C113.619 15.996 113.643 15.024 113.691 14.16C113.751 13.296 113.847 12.438 113.979 11.586L114.321 12.522L110.829 17.94L109.641 17.94L106.221 12.558L106.563 11.586C106.695 12.39 106.785 13.218 106.833 14.07C106.893 14.91 106.923 15.912 106.923 17.076V21H103.953ZM122.977 21.162C122.173 21.162 121.453 20.952 120.817 20.532C120.193 20.1 119.695 19.512 119.323 18.768C118.951 18.012 118.765 17.16 118.765 16.212C118.765 15.24 118.951 14.382 119.323 13.638C119.695 12.894 120.205 12.312 120.853 11.892C121.501 11.46 122.239 11.244 123.067 11.244C123.523 11.244 123.937 11.31 124.309 11.442C124.693 11.574 125.029 11.76 125.317 12C125.605 12.228 125.851 12.498 126.055 12.81C126.259 13.11 126.409 13.434 126.505 13.782L125.911 13.71V11.442L128.773 11.442V21H125.857V18.696L126.505 18.678C126.409 19.014 126.253 19.332 126.037 19.632C125.821 19.932 125.557 20.196 125.245 20.424C124.933 20.652 124.585 20.832 124.201 20.964C123.817 21.096 123.409 21.162 122.977 21.162ZM123.769 18.732C124.213 18.732 124.597 18.63 124.921 18.426C125.245 18.222 125.497 17.934 125.677 17.562C125.857 17.178 125.947 16.728 125.947 16.212C125.947 15.696 125.857 15.252 125.677 14.88C125.497 14.496 125.245 14.202 124.921 13.998C124.597 13.782 124.213 13.674 123.769 13.674C123.337 13.674 122.959 13.782 122.635 13.998C122.323 14.202 122.077 14.496 121.897 14.88C121.717 15.252 121.627 15.696 121.627 16.212C121.627 16.728 121.717 17.178 121.897 17.562C122.077 17.934 122.323 18.222 122.635 18.426C122.959 18.63 123.337 18.732 123.769 18.732ZM132.107 21V9.03H134.987V21H132.107ZM130.415 13.962V11.442L136.841 11.442V13.962L130.415 13.962ZM142.593 21.18C141.669 21.18 140.841 20.964 140.109 20.532C139.377 20.1 138.795 19.512 138.363 18.768C137.943 18.012 137.733 17.16 137.733 16.212C137.733 15.264 137.943 14.418 138.363 13.674C138.795 12.918 139.377 12.324 140.109 11.892C140.841 11.46 141.669 11.244 142.593 11.244C143.445 11.244 144.225 11.394 144.933 11.694C145.653 11.994 146.223 12.414 146.643 12.954L145.077 14.826C144.909 14.634 144.711 14.454 144.483 14.286C144.255 14.118 144.003 13.986 143.727 13.89C143.451 13.794 143.163 13.746 142.863 13.746C142.407 13.746 142.005 13.854 141.657 14.07C141.309 14.274 141.039 14.562 140.847 14.934C140.655 15.306 140.559 15.732 140.559 16.212C140.559 16.668 140.655 17.082 140.847 17.454C141.051 17.826 141.327 18.12 141.675 18.336C142.023 18.552 142.419 18.66 142.863 18.66C143.175 18.66 143.463 18.624 143.727 18.552C143.991 18.468 144.231 18.348 144.447 18.192C144.675 18.036 144.885 17.844 145.077 17.616L146.625 19.506C146.217 20.022 145.647 20.43 144.915 20.73C144.195 21.03 143.421 21.18 142.593 21.18ZM148.207 21V7.68L151.033 7.68V13.386L150.457 13.602C150.589 13.17 150.823 12.78 151.159 12.432C151.507 12.072 151.921 11.784 152.401 11.568C152.881 11.352 153.385 11.244 153.913 11.244C154.633 11.244 155.239 11.394 155.731 11.694C156.223 11.982 156.595 12.42 156.847 13.008C157.099 13.584 157.225 14.292 157.225 15.132V21H154.327V15.366C154.327 14.982 154.273 14.664 154.165 14.412C154.057 14.16 153.889 13.974 153.661 13.854C153.445 13.722 153.175 13.662 152.851 13.674C152.599 13.674 152.365 13.716 152.149 13.8C151.933 13.872 151.747 13.986 151.591 14.142C151.435 14.286 151.309 14.454 151.213 14.646C151.129 14.838 151.087 15.048 151.087 15.276V21H149.665C149.329 21 149.041 21 148.801 21C148.561 21 148.363 21 148.207 21Z"
            fill="#171A1F"
          />
          <path
            fill-rule="evenodd"
            clip-rule="evenodd"
            d="M47.7912 3.65633C53.2827 6.81804 53.4707 13.7576 48.1641 17.4126L46.0998 18.8344L48.5416 20.124C53.3034 22.6372 55.023 26.8921 53.4621 32.2944C52.3382 36.1814 45.658 42.3059 39.7147 44.897C34.7682 47.0534 27.7144 47.9084 24.4948 46.741C22.2839 45.9397 20.9947 43.6098 21.5731 41.4628C22.1802 39.2078 25.2224 36.0816 26.9052 35.9831C27.7011 35.9363 25.7967 35.6688 22.6735 35.3888C19.5503 35.1088 15.8701 35.115 14.4946 35.4031C10.7903 36.1789 6.08943 38.9702 4.40197 41.3973C2.73393 43.7969 1.9983 43.835 0.642175 41.5943C-0.748755 39.2963 0.172958 35.9843 2.89324 33.5061C7.10418 29.6703 12.2736 28.9575 20.4914 31.079C26.4761 32.6243 29.5646 32.6355 33.1349 31.1252C35.1597 30.2683 36.1096 30.1374 36.6491 30.64C38.0226 31.9196 37.4001 32.9043 33.8739 35.0283C29.4387 37.7005 27.1562 39.9973 27.4735 41.469C27.6729 42.3926 28.3289 42.6083 30.8477 42.5784C37.1584 42.5036 44.751 35.6488 44.751 30.0276C44.751 26.3134 41.6759 23.1379 37.4409 22.4794C35.813 22.2262 34.3639 21.6918 34.2206 21.2914C34.0774 20.8911 35.6189 19.5753 37.6464 18.3673C42.2235 15.6396 43.5642 13.8218 43.2884 10.7175C43.014 7.63248 41.0434 6.58731 36.2595 6.99078C29.2834 7.57885 22.6936 12.3376 24.9225 15.1775C25.7331 16.2096 27.1131 18.5972 28.1936 16.5855C29.0039 15.0766 29.274 14.4531 29.8142 13.5678C30.3545 12.6825 30.8947 11.5631 31.6382 10.8285C33.4877 9.0013 34.3324 8.62901 36.6303 8.62901C38.1518 8.62901 39.3961 8.76121 39.3961 8.92335C39.3961 9.08549 37.5574 11.8213 35.3103 15.0036C33.0633 18.1858 30.0157 23.0344 28.5391 25.7783C27.0618 28.5222 25.7673 30.857 25.6615 30.9661C25.4366 31.2 19.9847 29.7289 19.9847 29.4352C19.9847 28.1879 23.8951 22.3316 24.9533 21.993C26.2224 21.5876 26.1856 21.5259 24.5269 21.2858C22.4379 20.9834 19.3153 17.8429 19.3153 16.0444C19.3153 10.7568 26.9005 4.50444 35.8472 2.41659C39.6277 1.53481 45.0917 2.10167 47.7912 3.65633ZM45.3728 4.10907C48.571 5.62819 50.4104 8.18562 50.4104 11.1135C50.4104 12.4536 50.638 13.2113 50.9171 12.8016C51.7338 11.6049 51.5229 9.33119 50.4078 7.32316C49.3381 5.39558 45.8487 3.02212 44.0816 3.01963C43.5294 3.019 44.1104 3.50916 45.3728 4.10907ZM32.1476 11.1839C30.9093 13.0317 31.4588 13.1708 32.9013 11.3741C33.5626 10.5504 33.8612 9.87623 33.564 9.87623C33.2675 9.87623 32.6302 10.4649 32.1476 11.1839ZM19.9847 14.5737C19.5235 16.5998 20.1726 18.0943 22.9774 20.0723C25.2117 20.8711 25.9783 20.4562 23.8718 19.6031C21.9736 18.8344 20.2945 17.4126 20.4914 15.1775C20.4914 15.1775 20.6304 14.5737 20.6304 14.0707C20.6304 13.5678 19.9847 14.5737 19.9847 14.5737ZM22.7886 25.8089C20.7718 29.6753 20.9967 30.2166 23.0738 26.4967C24.0028 24.8342 24.6481 23.3668 24.5075 23.2365C24.3676 23.1061 23.5939 24.2636 22.7886 25.8089ZM43.6593 24.9919C46.1908 28.0838 46.1299 32.4828 43.51 35.8185C41.1103 38.8741 39.8205 39.9318 36.0493 41.9355C34.3927 42.816 33.3672 43.5394 33.7701 43.5437C35.2461 43.5587 42.6178 38.6322 44.4284 36.4209C47.8227 32.2745 47.2383 25.5033 43.3172 23.5483C42.0421 22.9122 42.0769 23.0594 43.6593 24.9919ZM5.46224 32.2988C1.53042 34.5326 -0.203897 38.5043 1.4608 41.4628C2.45815 43.2357 2.79592 43.2863 1.72262 40.224C0.649325 37.1616 4.06889 33.5994 7.12486 32.1768C8.2053 31.6739 9.14171 31.0803 8.59484 31.0815C8.04864 31.0827 6.63897 31.6303 5.46224 32.2988ZM23.8181 38.9459C21.9841 41.5544 21.7913 43.1846 23.2692 44.8377C24.1149 45.7609 25.4924 46.2593 26.0183 46.1174C26.5441 45.9755 24.4026 45.2607 23.8181 44.294C22.802 42.6631 22.8386 41.8579 24.3449 39.5695C26.7974 36.1532 27.0862 35.9465 23.8181 38.9459Z"
            fill="black"
          />
        </svg>